<?xml version="1.0" encoding="utf-8"?>
<!-- Generator: Adobe Illustrator 17.0.0, SVG Export Plug-In . SVG Version: 6.00 Build 0)  -->
<!DOCTYPE svg PUBLIC "-//W3C//DTD SVG 1.1//EN" "http://www.w3.org/Graphics/SVG/1.1/DTD/svg11.dtd">
<svg version="1.1" id="Layer_1" xmlns="http://www.w3.org/2000/svg" xmlns:xlink="http://www.w3.org/1999/xlink" x="0px" y="0px"
	 width="1758px" height="978px" viewBox="0 0 1758 978" enable-background="new 0 0 1758 978" xml:space="preserve">
<path opacity="0.8" fill="#FFFFFF" d="M653.473,765.398l39.596-194.317c1.319,0.128,2.59-0.685,2.991-2.001
	c0.457-1.502-0.39-3.09-1.891-3.547c-1.502-0.457-3.09,0.39-3.547,1.892c-0.119,0.392-0.146,0.788-0.099,1.17l-84.905,19.57
	c-0.287-0.83-0.947-1.519-1.852-1.794c-1.413-0.43-2.89,0.302-3.442,1.64l-227.777-66.872c0.254-1.4-0.561-2.8-1.955-3.224
	c-1.181-0.359-2.406,0.095-3.102,1.032L135.579,382.379c0.051-0.112,0.106-0.221,0.143-0.342c0.457-1.502-0.39-3.09-1.892-3.547
	c-1.476-0.449-3.029,0.365-3.516,1.818l-170.358-37.689c0.152-1.336-0.66-2.631-1.992-3.037c-1.502-0.457-3.09,0.39-3.547,1.892
	c-0.057,0.188-0.094,0.377-0.112,0.565l-81.489,1.037c-0.129-1.085-0.879-2.046-1.992-2.384c-1.326-0.404-2.716,0.211-3.339,1.394
	L-312.2,270.312c0.418-1.484-0.421-3.037-1.903-3.488c-1.502-0.457-3.09,0.39-3.547,1.892c-0.032,0.104-0.042,0.208-0.062,0.312
	l-157.743-12.233c-0.034-1.187-0.803-2.273-2.001-2.638c-1.314-0.4-2.693,0.198-3.324,1.36l-45.889-19.041
	c0.443-1.495-0.401-3.071-1.896-3.525c-1.424-0.433-2.912,0.313-3.454,1.67l-129.257-36.327c0.236-1.389-0.578-2.771-1.962-3.192
	c-1.502-0.457-3.09,0.39-3.547,1.892c-0.175,0.576-0.156,1.164,0.016,1.696l-184.894,81.79c-0.348-0.604-0.91-1.086-1.629-1.305
	c-1.502-0.457-3.09,0.39-3.547,1.892c-0.457,1.502,0.39,3.09,1.892,3.547c1.396,0.425,2.853-0.284,3.421-1.591l58.85,18.487
	c-0.285,1.417,0.533,2.847,1.945,3.276c1.367,0.416,2.795-0.255,3.387-1.51l51.686,18.009c-0.337,1.445,0.488,2.924,1.928,3.362
	c1.295,0.394,2.651-0.185,3.293-1.314l174.662,76.335c-0.003,0.01-0.009,0.018-0.012,0.028c-0.457,1.502,0.39,3.09,1.892,3.547
	c1.151,0.35,2.349-0.07,3.053-0.96l292.583,184.821c-0.067,0.136-0.132,0.274-0.178,0.425c-0.457,1.502,0.39,3.09,1.892,3.547
	c1.292,0.393,2.643-0.182,3.288-1.306l166.127,73.413c-0.005,0.014-0.012,0.026-0.017,0.04c-0.457,1.502,0.39,3.09,1.892,3.547
	c1.502,0.457,3.09-0.39,3.547-1.892c0.095-0.314,0.122-0.629,0.109-0.939l202.6-29.648c0.239,0.928,0.932,1.716,1.917,2.015
	c1.097,0.334,2.236-0.034,2.951-0.839l179.433,127.793c-0.099,0.177-0.184,0.364-0.246,0.566c-0.457,1.502,0.39,3.09,1.892,3.547
	c1.384,0.421,2.83-0.273,3.407-1.559l216.939,71.15c-0.306,1.429,0.515,2.878,1.938,3.311c1.502,0.457,3.09-0.39,3.547-1.892
	c0.205-0.672,0.136-1.357-0.124-1.955l117.661-66.675c0.351,0.491,0.852,0.881,1.474,1.071c1.502,0.457,3.09-0.39,3.547-1.892
	C655.789,767.441,654.955,765.867,653.473,765.398z M-851.417,281.024l184.894-81.79c0.03,0.052,0.067,0.1,0.1,0.151
	l-121.505,100.655c-0.315-0.308-0.697-0.556-1.148-0.693c-1.395-0.425-2.853,0.284-3.421,1.591l-58.85-18.487
	C-851.249,281.962-851.272,281.474-851.417,281.024z M-254.891,585.634c-0.202-0.061-0.404-0.095-0.606-0.111l-3.096-112.086
	l-0.701-25.392c1.067-0.144,2.008-0.885,2.342-1.983c0.042-0.137,0.061-0.276,0.082-0.413l146.89,6.001
	c0.036,0.55,0.231,1.069,0.553,1.505l-144.42,133.068C-254.142,585.962-254.491,585.756-254.891,585.634z M470.148,619.522
	l-68.04-0.993c-0.102-1.117-0.861-2.115-2-2.461c-0.455-0.138-0.914-0.145-1.351-0.062l-27.897-92.764
	c0.263-0.111,0.511-0.252,0.73-0.436l99.133,95.318c-0.207,0.266-0.375,0.569-0.48,0.911
	C470.195,619.196,470.168,619.359,470.148,619.522z M310.086,763.021l160.956-141.078c0.305,0.282,0.669,0.508,1.094,0.637
	c0.912,0.278,1.852,0.069,2.555-0.47l32.48,34.132l41.857,43.987c-0.245,0.288-0.438,0.628-0.555,1.013
	c-0.127,0.416-0.144,0.836-0.085,1.239l-237.962,61.179C310.34,763.434,310.226,763.22,310.086,763.021z M600.265,590.031
	c0.218,0.618,0.645,1.152,1.227,1.497l-49.399,107.855c-0.026-0.009-0.048-0.023-0.074-0.031c-0.912-0.278-1.852-0.069-2.555,0.47
	l-74.336-78.119c0.245-0.288,0.438-0.628,0.555-1.012c0.121-0.397,0.145-0.8,0.095-1.187l92.449-21.888L600.265,590.031z
	 M396.586,617.901c-0.007,0.02-0.018,0.038-0.024,0.058c-0.069,0.227-0.099,0.454-0.111,0.68l-269.911,14.495
	c-0.15-0.926-0.752-1.736-1.644-2.133l26.523-81.812l11.046-34.071c1.208,0.254,2.423-0.296,3.031-1.337l152.51,68.714
	L396.586,617.901z M-550.24,400.372l229.75-36.754c0.248,0.912,0.938,1.682,1.909,1.978c0.769,0.234,1.558,0.122,2.209-0.24
	l54.831,77.747c-0.385,0.338-0.69,0.777-0.85,1.303c-0.011,0.036-0.012,0.072-0.021,0.107l-287.826-43.863
	C-550.234,400.557-550.235,400.464-550.24,400.372z M-108.03,448.765c-0.852,0.278-1.562,0.949-1.843,1.872
	c-0.042,0.137-0.061,0.275-0.082,0.413l-146.89-6.001c-0.031-0.474-0.183-0.923-0.43-1.319l31.437-24.686l93.807-73.661
	c0.324,0.334,0.724,0.601,1.2,0.746c0.374,0.114,0.754,0.146,1.12,0.108l0.309,1.461L-108.03,448.765z M-132.77,343.998
	c0.07,0.326,0.194,0.634,0.37,0.915l-125.244,98.347c-0.324-0.334-0.724-0.601-1.2-0.746c-0.769-0.234-1.558-0.122-2.209,0.24
	l-54.831-77.747c0.385-0.338,0.69-0.777,0.85-1.303c0.083-0.273,0.109-0.548,0.11-0.82l37.876-3.927L-132.77,343.998z
	 M-479.317,259.509c0.07,0.027,0.133,0.064,0.206,0.086c1.132,0.345,2.312-0.053,3.02-0.912l155.817,102.89
	c-0.078,0.151-0.148,0.308-0.199,0.477c-0.099,0.326-0.126,0.656-0.109,0.978l-216.872,34.694l-12.877,2.06
	c-0.179-0.657-0.592-1.232-1.172-1.617l43.383-83.329L-479.317,259.509z M-104.335,451.792c0.119-1.017-0.326-2.004-1.131-2.602
	l61.433-104.313c0.112,0.051,0.221,0.106,0.342,0.143c1.028,0.313,2.088,0.005,2.806-0.696L160.686,510.79
	c-0.132,0.199-0.244,0.413-0.324,0.649l-3.689-0.831L-104.335,451.792z M398.038,621.332c0.134,0.065,0.269,0.129,0.415,0.173
	c1.502,0.457,3.09-0.39,3.547-1.892c0.049-0.162,0.076-0.325,0.096-0.487l10.791,0.157l57.248,0.835
	c0.046,0.499,0.229,0.968,0.514,1.372L309.693,762.57c-0.055-0.051-0.109-0.101-0.168-0.148l82.717-131.851L398.038,621.332z
	 M553.718,703.358c0.074-0.146,0.143-0.298,0.192-0.46c0.389-1.279-0.172-2.613-1.273-3.266l37.626-82.15l11.773-25.705
	c0.026,0.009,0.048,0.023,0.075,0.031c0.434,0.132,0.872,0.144,1.292,0.074l32.714,117.884l15.459,55.707
	c-0.449,0.178-0.853,0.46-1.162,0.84l-44.674-29.085L553.718,703.358z M600.123,589.449l-84.454,19.995l-40.032,9.478
	c-0.29-0.823-0.947-1.505-1.845-1.778c-0.955-0.291-1.943-0.051-2.654,0.547l-99.134-95.318c0.153-0.197,0.275-0.419,0.374-0.659
	l227.778,66.872C600.102,588.876,600.087,589.166,600.123,589.449z M366.935,520.82c0.076,1.146,0.837,2.179,2.001,2.533
	c0.455,0.138,0.914,0.145,1.351,0.062l27.897,92.764c-0.557,0.235-1.036,0.638-1.351,1.177l-187.685-84.562l-43.406-19.557
	c0.007-0.021,0.018-0.038,0.024-0.059c0.042-0.138,0.062-0.277,0.082-0.416l91.653,3.672L366.935,520.82z M132.176,383.928
	c0.391,0.119,0.786,0.146,1.166,0.1l13.884,60.607l14.898,65.034c-0.397,0.137-0.755,0.364-1.057,0.659l-201.57-166.466
	c0.134-0.202,0.248-0.419,0.328-0.659l170.358,37.688C130.032,382.227,130.844,383.523,132.176,383.928z M-132.831,343.403
	l-182.155,18.887c-0.209-0.978-0.916-1.82-1.94-2.132c-0.147-0.045-0.295-0.067-0.443-0.087l2.652-87.699
	c0.961-0.073,1.838-0.63,2.297-1.503l179.687,71.773C-132.804,342.896-132.831,343.15-132.831,343.403z M-479.848,259.233
	l-72.187,138.655c-0.07-0.027-0.133-0.064-0.206-0.086c-0.044-0.013-0.087-0.015-0.131-0.026l22.876-159.277
	c1.07,0.039,2.085-0.522,2.6-1.47l45.889,19.041C-481.369,257.294-480.861,258.56-479.848,259.233z M-532.111,236.496
	l-152.554,64.659l-45.757,19.394c-0.206-0.371-0.5-0.689-0.855-0.938l66.11-119.185c0.091,0.039,0.177,0.085,0.274,0.114
	c1.424,0.433,2.913-0.313,3.454-1.67l129.257,36.326C-532.257,235.64-532.237,236.084-532.111,236.496z M-787.547,300.501
	l121.505-100.655c0.108,0.106,0.225,0.202,0.35,0.29l-38.048,68.595l-28.062,50.591c-0.091-0.039-0.177-0.085-0.274-0.115
	c-1.367-0.416-2.796,0.255-3.388,1.511l-51.685-18.009C-786.965,301.922-787.127,301.134-787.547,300.501z M-104.757,452.973
	c0.116-0.185,0.215-0.382,0.288-0.597l107.437,24.21l157.261,35.437c-0.144,1.224,0.529,2.405,1.665,2.911l-37.568,115.883
	c-0.972-0.205-1.944,0.113-2.606,0.79L-96.208,459.716L-104.757,452.973z M310.576,764.24l54.607-14.039l183.356-47.14
	c0.3,0.8,0.945,1.461,1.825,1.729c0.033,0.01,0.065,0.011,0.098,0.019l-20.266,129.916c-1.153-0.057-2.236,0.596-2.718,1.669
	l-216.939-71.15C310.611,764.905,310.625,764.567,310.576,764.24z M530.885,834.836c-0.032-0.01-0.065-0.011-0.098-0.019
	L551.052,704.9c0.908,0.045,1.777-0.344,2.342-1.038l96.695,62.955c-0.074,0.147-0.143,0.297-0.192,0.46
	c-0.205,0.673-0.136,1.357,0.124,1.955l-117.661,66.675C532.008,835.415,531.507,835.025,530.885,834.836z M690.661,569.177
	c0.284,0.82,0.934,1.5,1.823,1.782l-39.596,194.317c-0.25-0.024-0.495-0.004-0.736,0.036l-48.173-173.59
	c0.777-0.308,1.417-0.942,1.679-1.804c0.119-0.392,0.146-0.788,0.099-1.17L690.661,569.177z M367.187,519.464
	c-0.051,0.112-0.106,0.221-0.143,0.342c-0.042,0.138-0.061,0.277-0.082,0.415l-103.791-4.159l-97.297-3.899
	c-0.076-1.145-0.838-2.179-2.001-2.533c-0.391-0.119-0.786-0.146-1.166-0.1L133.925,383.89c0.537-0.185,1.008-0.53,1.353-0.994
	L367.187,519.464z M-45.683,342.637c0.092,0.772,0.504,1.473,1.133,1.939l-61.434,104.312c-0.112-0.051-0.221-0.106-0.342-0.143
	c-0.374-0.114-0.753-0.146-1.119-0.109l-21.68-102.527c0.852-0.278,1.562-0.949,1.842-1.872c0.057-0.188,0.094-0.377,0.111-0.564
	L-45.683,342.637z M-317.76,269.624c0.034,1.187,0.803,2.274,2.001,2.638c0.147,0.045,0.296,0.067,0.443,0.087l-2.55,84.299
	l-0.103,3.4c-0.771,0.059-1.488,0.426-1.979,1.022L-475.764,258.18c0.078-0.151,0.148-0.309,0.2-0.477
	c0.032-0.104,0.042-0.208,0.062-0.312L-317.76,269.624z M-730.196,322.783c0.003-0.01,0.009-0.019,0.012-0.029
	c0.171-0.561,0.159-1.134,0-1.655l198.31-84.052c0.345,0.622,0.92,1.119,1.654,1.342c0.043,0.013,0.087,0.015,0.131,0.026
	l-5.444,37.91l-17.431,121.368c-1.052-0.039-2.047,0.506-2.57,1.426L-730.196,322.783z M-550.527,401.773
	c0.067-0.136,0.132-0.275,0.178-0.425c0.011-0.036,0.012-0.071,0.021-0.107l287.826,43.863c-0.058,1.267,0.733,2.461,2.002,2.848
	c0.202,0.061,0.405,0.095,0.607,0.111l3.797,137.479c-0.726,0.098-1.39,0.474-1.847,1.051L-550.527,401.773z M-253.016,589.22
	c0.004-0.014,0.012-0.025,0.016-0.039c0.273-0.896,0.074-1.818-0.445-2.517l6.773-6.24l137.647-126.827
	c0.295,0.26,0.644,0.466,1.044,0.588c0.276,0.084,0.554,0.11,0.829,0.11l22.125,206.988c-0.774,0.168-1.458,0.647-1.863,1.352
	L-253.016,589.22z M-81.686,663.343c-0.239-0.928-0.933-1.715-1.916-2.015c-0.276-0.084-0.554-0.11-0.829-0.11l-22.125-206.988
	c0.543-0.118,1.038-0.39,1.428-0.788l33.33,26.29l193.146,152.345c-0.132,0.21-0.248,0.432-0.323,0.681
	c-0.095,0.314-0.122,0.629-0.109,0.939L-81.686,663.343z M126.217,634.978c0.099-0.177,0.184-0.364,0.246-0.566
	c0.069-0.226,0.099-0.454,0.111-0.68l269.911-14.495c0.114,0.701,0.482,1.338,1.044,1.78l-88.513,141.09
	c-0.134-0.065-0.269-0.129-0.415-0.174c-1.097-0.334-2.236,0.034-2.951,0.839L126.217,634.978z"/>
<path opacity="0.8" fill="#FFFFFF" d="M1766.963,711.68l-39.149-216.49c1.411-0.411,2.386-1.771,2.257-3.292
	c-0.147-1.735-1.673-3.023-3.408-2.876s-3.023,1.673-2.876,3.408c0.038,0.453,0.175,0.872,0.38,1.247l-79.424,55.094
	c-0.638-0.737-1.601-1.175-2.647-1.087c-1.632,0.138-2.852,1.5-2.871,3.105l-262.186,24.816c-0.314-1.547-1.73-2.653-3.341-2.517
	c-1.364,0.116-2.44,1.088-2.771,2.339l-295.117-45.292c0.006-0.136,0.018-0.272,0.007-0.411c-0.147-1.735-1.673-3.023-3.408-2.876
	c-1.706,0.144-2.971,1.622-2.875,3.32l-191.021,31.258c-0.393-1.439-1.763-2.44-3.302-2.309c-1.735,0.147-3.023,1.673-2.876,3.408
	c0.018,0.217,0.058,0.427,0.117,0.627l-83.53,34.594c-0.58-1.065-1.747-1.745-3.033-1.637c-1.532,0.13-2.711,1.335-2.866,2.81
	l-214.656-0.02c-0.18-1.701-1.683-2.955-3.396-2.81c-1.735,0.147-3.023,1.673-2.876,3.408c0.01,0.12,0.042,0.231,0.065,0.346
	L394.61,652.138c-0.523-1.209-1.762-2.012-3.147-1.895c-1.518,0.129-2.693,1.312-2.865,2.767l-55.112-0.737
	c-0.159-1.723-1.676-2.998-3.403-2.852c-1.645,0.139-2.872,1.521-2.872,3.142l-148.116,15.752c-0.328-1.529-1.735-2.618-3.334-2.483
	c-1.735,0.147-3.023,1.673-2.876,3.408c0.056,0.666,0.318,1.263,0.715,1.741L16.757,831.318c-0.607-0.479-1.385-0.745-2.216-0.674
	c-1.735,0.147-3.023,1.673-2.876,3.408c0.147,1.735,1.673,3.023,3.408,2.876c1.612-0.137,2.822-1.466,2.87-3.046l68.237-5.166
	c0.289,1.577,1.72,2.713,3.352,2.575c1.58-0.134,2.775-1.413,2.869-2.95l60.659-2.711c0.247,1.628,1.705,2.812,3.37,2.671
	c1.497-0.127,2.655-1.281,2.852-2.709l211.355,6.787c0.001,0.012-0.001,0.023,0,0.035c0.147,1.735,1.673,3.023,3.408,2.876
	c1.33-0.113,2.391-1.038,2.75-2.245l377.479,70.044c-0.013,0.168-0.023,0.336-0.008,0.509c0.147,1.735,1.673,3.023,3.408,2.876
	c1.492-0.126,2.647-1.275,2.85-2.697l201.36,7.288c0.001,0.016-0.002,0.031-0.001,0.048c0.147,1.735,1.673,3.023,3.408,2.876
	c1.735-0.147,3.023-1.673,2.876-3.408c-0.031-0.362-0.133-0.699-0.274-1.013l196.537-113.897c0.628,0.857,1.667,1.384,2.804,1.287
	c1.268-0.107,2.291-0.955,2.695-2.079l237.441,57.841c-0.03,0.223-0.041,0.452-0.021,0.685c0.147,1.735,1.673,3.023,3.408,2.876
	c1.599-0.135,2.803-1.445,2.87-3.008l252.779-15.948c0.272,1.598,1.714,2.754,3.359,2.615c1.735-0.147,3.023-1.673,2.876-3.408
	c-0.066-0.777-0.418-1.454-0.931-1.963l93.792-117.101c0.564,0.362,1.24,0.557,1.959,0.496c1.735-0.147,3.023-1.673,2.876-3.408
	C1770.189,712.833,1768.683,711.554,1766.963,711.68z M17.234,831.778l156.843-160.335c0.052,0.041,0.109,0.076,0.164,0.114
	L90.468,825.249c-0.452-0.188-0.948-0.286-1.469-0.242c-1.613,0.137-2.823,1.467-2.87,3.047l-68.237,5.166
	C17.793,832.676,17.569,832.182,17.234,831.778z M875.332,565.394c0.136,0.006,0.271,0.018,0.411,0.006
	c1.188-0.101,2.153-0.854,2.605-1.873l237.49,76.173l38.669,12.403c-0.054,0.259-0.081,0.526-0.067,0.802l-13.998,2.234
	L857.19,700.356c-0.295-1.097-1.159-1.932-2.235-2.216l1.082-7.049L875.332,565.394z M1518.072,636.81l-70.508,26.97
	c-0.565-1.108-1.757-1.824-3.073-1.712c-0.526,0.045-1.002,0.227-1.418,0.492l-66.906-84.095c0.225-0.222,0.423-0.47,0.573-0.75
	l141.35,57.419c-0.104,0.359-0.153,0.74-0.12,1.135C1517.986,636.456,1518.026,636.635,1518.072,636.81z M1374.23,579.371
	c0.526-0.044,1.002-0.227,1.418-0.493l66.906,84.095c-0.478,0.471-0.805,1.083-0.908,1.768l-280.924-12.196
	c-0.001-0.024,0.003-0.046,0.001-0.07c-0.014-0.16-0.051-0.311-0.086-0.462l210.49-74.429
	C1371.676,578.733,1372.886,579.485,1374.23,579.371z M1641.875,553.932l-0.939,18.93l-5.582,112.513
	c-0.03,0.002-0.059-0.004-0.089-0.001c-1.054,0.089-1.936,0.691-2.439,1.535l-108.727-49.901c0.134-0.397,0.193-0.827,0.155-1.271
	c-0.039-0.459-0.179-0.884-0.39-1.262l116.13-81.581C1640.474,553.442,1641.134,553.816,1641.875,553.932z M1638.664,688.804
	c0.016-0.182,0.025-0.365,0.009-0.553c-0.125-1.477-1.253-2.621-2.656-2.841l0.579-11.681l5.942-119.762
	c0.03-0.002,0.059,0.004,0.09,0.001c0.502-0.042,0.959-0.211,1.362-0.455l121.049,159.027c-0.389,0.368-0.69,0.825-0.852,1.344
	l-27.302-5.455L1638.664,688.804z M757.14,900.19c-0.233,0.02-0.456,0.068-0.671,0.135l-60.473-140.079
	c1.041-0.588,1.705-1.738,1.597-3.007c-0.013-0.159-0.05-0.309-0.086-0.459l153.806-54.25c0.263,0.552,0.678,1.007,1.189,1.323
	l-94.045,196.513C758.047,900.22,757.603,900.151,757.14,900.19z M691.332,757.891l-314.586,73.225
	c-0.034-0.098-0.073-0.192-0.116-0.285l221.584-132.39c0.631,0.838,1.659,1.348,2.781,1.253c0.889-0.075,1.656-0.515,2.177-1.157
	l88.477,57.542c-0.258,0.506-0.391,1.084-0.34,1.692C691.313,757.813,691.327,757.85,691.332,757.891z M391.995,656.527
	c1.308-0.111,2.36-1.006,2.737-2.183l202.865,41.899c-0.018,0.188-0.026,0.379-0.009,0.574c0.032,0.377,0.139,0.727,0.289,1.051
	l-57.248,34.204l-164.336,98.186c-0.454-0.603-1.117-1.025-1.872-1.183l6.778-67.5l10.549-105.052
	C391.831,656.523,391.911,656.534,391.995,656.527z M784.303,601.786L695.73,754.638c-0.471-0.211-0.994-0.322-1.544-0.275
	c-0.889,0.075-1.656,0.515-2.177,1.157l-88.477-57.543c0.258-0.506,0.391-1.084,0.34-1.692c-0.027-0.316-0.113-0.61-0.224-0.89
	l179.899-94.4C783.752,601.303,784.006,601.569,784.303,601.786z M851.01,701.443c0.013,0.159,0.05,0.309,0.086,0.46l-153.806,54.25
	c-0.227-0.475-0.568-0.876-0.985-1.182l88.573-152.852c0.471,0.211,0.994,0.322,1.544,0.275c0.432-0.037,0.836-0.159,1.198-0.349
	l64.518,96.711C851.374,699.392,850.92,700.376,851.01,701.443z M1167.09,790.68l-8.971-134.848
	c1.349-0.235,2.374-1.302,2.573-2.624l280.924,12.196c0.001,0.024-0.003,0.047-0.001,0.071c0.022,0.262,0.085,0.508,0.166,0.746
	l-272.119,125.981C1169.126,791.31,1168.172,790.723,1167.09,790.68z M1412.814,851.026c-0.181-0.199-0.386-0.372-0.611-0.519
	l107.787-211.569c0.43,0.165,0.899,0.248,1.389,0.207c1.053-0.089,1.936-0.691,2.439-1.535l108.727,49.901
	c-0.134,0.397-0.193,0.827-0.155,1.271c0.041,0.48,0.195,0.921,0.423,1.312l-109.222,79.898L1412.814,851.026z M1639.609,552.353
	l-116.13,81.581c-0.638-0.728-1.594-1.161-2.633-1.073c-1.104,0.093-2.023,0.747-2.51,1.656l-129.178-52.474l-12.172-4.945
	c0.077-0.266,0.111-0.546,0.115-0.833l262.186-24.816C1639.352,551.772,1639.456,552.077,1639.609,552.353z M1072.941,533.132
	c0.451-0.038,0.869-0.173,1.242-0.377l81.345,117.604c-0.353,0.304-0.628,0.685-0.818,1.114l-276.159-88.577
	c0.055-0.263,0.083-0.534,0.067-0.814l191.022-31.258C1070.033,532.261,1071.402,533.262,1072.941,533.132z M783.238,600.407
	l-179.899,94.4c-0.618-0.922-1.692-1.498-2.876-1.398c-0.17,0.014-0.332,0.052-0.493,0.092l-33.348-91.445
	c0.961-0.471,1.634-1.406,1.748-2.494l214.655,0.02C783.057,599.874,783.135,600.147,783.238,600.407z M391.087,656.458
	L373.76,829.01c-0.083,0-0.164-0.011-0.248-0.004c-0.05,0.004-0.096,0.021-0.145,0.027l-16.463-68.072l-25.499-105.438
	c1.119-0.399,1.934-1.395,2.075-2.584l55.112,0.737C388.722,655.085,389.766,656.182,391.087,656.458z M327.887,654.534
	L164.964,815.972l-6.81,6.748c-0.365-0.298-0.799-0.504-1.268-0.615l7.021-55.205l12.055-94.787c0.11,0.002,0.218,0.015,0.33,0.005
	c1.645-0.139,2.871-1.521,2.872-3.141l148.116-15.753C327.385,653.713,327.588,654.162,327.887,654.534z M91.051,825.568
	l83.773-153.692c0.155,0.064,0.314,0.115,0.479,0.154l-19.076,149.993c-0.11-0.002-0.218-0.015-0.33-0.005
	c-1.58,0.134-2.776,1.413-2.868,2.95l-60.659,2.71C92.235,826.793,91.744,826.047,91.051,825.568z M857.24,701.745
	c0.044-0.238,0.065-0.482,0.052-0.734l297.251-47.449c0.356,1.321,1.535,2.261,2.914,2.315l1.959,29.452l7.011,105.396
	c-1.086,0.189-1.957,0.917-2.361,1.886L948.159,728.67L857.24,701.745z M1444.523,668.343c0.165,0.012,0.33,0.022,0.5,0.008
	c1.735-0.147,3.023-1.673,2.876-3.408c-0.016-0.187-0.055-0.366-0.101-0.542l70.508-26.97c0.252,0.495,0.635,0.903,1.094,1.202
	l-107.787,211.569c-0.078-0.03-0.154-0.059-0.234-0.083l18.222-99.934L1444.523,668.343z M1413.208,851.56l51.799-37.892
	l168.199-123.04c0.638,0.701,1.574,1.116,2.591,1.03c0.037-0.003,0.071-0.016,0.108-0.02l32.571,142.187
	c-1.211,0.416-2.058,1.535-2.114,2.838l-252.78,15.948C1413.518,852.231,1413.393,851.878,1413.208,851.56z M1669.231,833.656
	c-0.037,0.003-0.071,0.016-0.109,0.02l-23.716-103.533l-8.854-38.654c0.953-0.328,1.689-1.086,1.985-2.033l125.523,25.079
	c-0.016,0.182-0.025,0.365-0.009,0.553c0.066,0.777,0.418,1.454,0.932,1.963l-93.793,117.101
	C1670.626,833.79,1669.95,833.595,1669.231,833.656z M1724.548,494.22c0.631,0.728,1.58,1.162,2.611,1.086l39.149,216.49
	c-0.267,0.078-0.512,0.199-0.743,0.34l-121.049-159.027c0.674-0.637,1.071-1.554,0.987-2.549c-0.038-0.453-0.175-0.872-0.38-1.247
	L1724.548,494.22z M1370.829,576.083c-0.006,0.137-0.018,0.272-0.007,0.412c0.014,0.16,0.05,0.311,0.086,0.462l-210.49,74.429
	c-0.549-1.149-1.759-1.9-3.103-1.787c-0.451,0.038-0.869,0.173-1.243,0.377l-81.345-117.604c0.477-0.412,0.821-0.961,0.985-1.581
	L1370.829,576.083z M872.71,563.764c0.413,0.758,1.125,1.31,1.965,1.532l-20.378,132.745c-0.136-0.006-0.272-0.018-0.411-0.007
	c-0.432,0.037-0.837,0.159-1.198,0.349l-42.608-63.869l-21.91-32.843c0.764-0.637,1.219-1.621,1.128-2.687
	c-0.018-0.217-0.058-0.427-0.118-0.628L872.71,563.764z M562.357,600.478c0.523,1.209,1.762,2.013,3.147,1.896
	c0.17-0.014,0.332-0.052,0.493-0.092l33.348,91.445c-0.77,0.378-1.358,1.051-1.618,1.866l-202.865-41.899
	c0.018-0.188,0.026-0.379,0.009-0.574c-0.01-0.12-0.042-0.231-0.065-0.347L562.357,600.478z M159.304,824.929
	c-0.001-0.012,0.002-0.023,0.001-0.035c-0.055-0.648-0.303-1.233-0.681-1.705l169.734-168.185c0.612,0.499,1.407,0.774,2.256,0.702
	c0.05-0.004,0.096-0.021,0.145-0.027l41.962,173.511c-1.1,0.393-1.901,1.363-2.062,2.525L159.304,824.929z M376.912,832.391
	c0.013-0.168,0.023-0.336,0.008-0.509c-0.004-0.041-0.017-0.079-0.022-0.12l314.585-73.225c0.462,1.329,1.768,2.234,3.235,2.11
	c0.233-0.02,0.456-0.068,0.671-0.135l60.473,140.079c-0.709,0.4-1.238,1.06-1.471,1.844L376.912,832.391z M760.547,903.113
	c-0.001-0.016,0.002-0.031,0.001-0.048c-0.088-1.036-0.672-1.903-1.493-2.41l94.045-196.513c0.41,0.146,0.855,0.215,1.317,0.175
	c0.32-0.027,0.617-0.114,0.9-0.228l107.953,204.151c-0.728,0.491-1.236,1.266-1.363,2.16L760.547,903.113z M967.561,908.992
	c-0.628-0.858-1.666-1.384-2.803-1.287c-0.32,0.027-0.616,0.115-0.899,0.228L855.905,703.781c0.511-0.345,0.909-0.829,1.146-1.399
	l162.566,48.144l144.26,42.723c-0.05,0.27-0.078,0.547-0.053,0.834c0.031,0.362,0.134,0.699,0.274,1.013L967.561,908.992z
	 M1170.087,794.235c0.03-0.223,0.04-0.452,0.021-0.685c-0.022-0.261-0.084-0.508-0.165-0.745l109.764-50.817l162.355-75.164
	c0.406,0.675,1.047,1.18,1.808,1.404l-17.981,98.612l-15.165,83.165c-0.165-0.012-0.33-0.022-0.5-0.008
	c-1.268,0.107-2.291,0.955-2.695,2.079L1170.087,794.235z"/>
</svg>
