<?xml version="1.0" encoding="utf-8"?>
<!-- Generator: Adobe Illustrator 16.0.0, SVG Export Plug-In . SVG Version: 6.00 Build 0)  -->
<!DOCTYPE svg PUBLIC "-//W3C//DTD SVG 1.1//EN" "http://www.w3.org/Graphics/SVG/1.1/DTD/svg11.dtd">
<svg version="1.1" id="Layer_1" xmlns="http://www.w3.org/2000/svg" xmlns:xlink="http://www.w3.org/1999/xlink" x="0px" y="0px"
	 width="561.359px" height="312.319px" viewBox="319.32 443.84 561.359 312.319"
	 enable-background="new 319.32 443.84 561.359 312.319" xml:space="preserve">
<g>
	<g>
		<defs>
			<path id="SVGID_1_" d="M319.32,483.605v14.641l41.64-8.187V712.24c0,0.604-0.031,1.188-0.073,1.763
				c25.983-10.955,35.484-34.569,36.729-37.951c0.102-50.016-0.056-220.013-0.056-220.013L319.32,483.605z"/>
		</defs>
		<clipPath id="SVGID_2_">
			<use xlink:href="#SVGID_1_"  overflow="visible"/>
		</clipPath>
		
			<linearGradient id="SVGID_3_" gradientUnits="userSpaceOnUse" x1="1.5469" y1="-200.1199" x2="2.5469" y2="-200.1199" gradientTransform="matrix(0 -289.3273 289.3273 0 58258.7188 1201.9139)">
			<stop  offset="0" style="stop-color:#00E2E2"/>
			<stop  offset="1" style="stop-color:#0067BC"/>
		</linearGradient>
		<rect x="319.32" y="456.039" clip-path="url(#SVGID_2_)" fill="url(#SVGID_3_)" width="78.398" height="257.964"/>
	</g>
</g>
<g>
	<g>
		<defs>
			<path id="SVGID_4_" d="M331.774,734.199c-0.014,0-0.017,0-0.028,0c-0.039,0-0.066,0.001-0.066,0.001v21.959
				c58.763,0,65.677-43.919,65.88-65.88c0.023-2.509,0.041-7.218,0.055-13.583C389.893,732.916,334.237,734.172,331.774,734.199"/>
		</defs>
		<clipPath id="SVGID_5_">
			<use xlink:href="#SVGID_4_"  overflow="visible"/>
		</clipPath>
		
			<linearGradient id="SVGID_6_" gradientUnits="userSpaceOnUse" x1="1.5469" y1="-200.1208" x2="2.5469" y2="-200.1208" gradientTransform="matrix(0 -289.3273 289.3273 0 58264.9688 1201.9139)">
			<stop  offset="0" style="stop-color:#00E2E2"/>
			<stop  offset="1" style="stop-color:#0067BC"/>
		</linearGradient>
		<rect x="331.68" y="676.697" clip-path="url(#SVGID_5_)" fill="url(#SVGID_6_)" width="65.935" height="79.463"/>
	</g>
</g>
<g>
	<g>
		<defs>
			<rect id="SVGID_7_" y="0" width="1200" height="1200"/>
		</defs>
		<clipPath id="SVGID_8_">
			<use xlink:href="#SVGID_7_"  overflow="visible"/>
		</clipPath>
		<path clip-path="url(#SVGID_8_)" fill="#FFFFFF" d="M331.68,734.199c0,0,0.026,0,0.066-0.001
			C331.712,734.199,331.68,734.199,331.68,734.199"/>
	</g>
</g>
<g>
	<g>
		<defs>
			<path id="SVGID_9_" d="M742.009,639.125c0-40.346,49.786-52.985,70-52.985c0,0,29.45,22.974,29.45,53.487
				c0,27.153-23.409,35.599-49.45,35.599h-8C753.716,675.226,742.009,663.095,742.009,639.125 M716.64,578.141
				c-3.786-10.256-5.976-20.604-7.895-31.753c4.128,12.385,11.469,23.302,21.044,31.753c-9.575,8.449-16.916,19.366-21.044,31.751
				C710.664,598.742,712.854,588.395,716.64,578.141 M788.066,484.757c20.768,0.908,39.934,15.577,38.461,41.711
				c-2.144,37.994-45.863,40.095-45.863,40.095c-3.19-7.213-5.025-6.527-12.281-4.783c-15.168,3.646-16.24-8.217-15.975-10.07
				c0.265-1.853-2.983-1.43-3.359-2.972c-0.44-1.822,0.97-1.872,0.97-3.296c0-1.426-2.578-1.212-2.578-2.637
				c0-1.426,1.257-1.497,1.257-3.92s-5.821-2.708-5.821-6.2s6.327-10.841,6.327-13.764c0-4.509-1.221-5.445-0.953-10.261
				c0.257-4.593,1.754-8.574,4.164-11.952c0,0-7.476,4.503-10.95,9.919C741.463,506.627,749.615,483.073,788.066,484.757
				 M778.2,456.039c-51.24,0-73.2,21.961-73.2,73.2c0,0.116,0.009,0.229,0.01,0.347c-0.004-0.02-0.007-0.038-0.01-0.058V638.75
				c0.003-0.019,0.006-0.037,0.01-0.057c-0.001,0.115-0.01,0.229-0.01,0.346c0,51.241,21.96,73.2,73.2,73.2h29.28
				c40.427,0,73.198-32.772,73.198-73.2c0-25.612-13.157-48.149-33.081-61.229c11.473-12.923,18.441-29.931,18.441-48.57
				c0-40.427-32.772-73.2-73.2-73.2H778.2L778.2,456.039z"/>
		</defs>
		<clipPath id="SVGID_10_">
			<use xlink:href="#SVGID_9_"  overflow="visible"/>
		</clipPath>
		
			<linearGradient id="SVGID_11_" gradientUnits="userSpaceOnUse" x1="-0.6821" y1="-198.7996" x2="0.3179" y2="-198.7996" gradientTransform="matrix(0 256.2 -256.2 0 -50139.5781 630.7753)">
			<stop  offset="0" style="stop-color:#0067BC"/>
			<stop  offset="1" style="stop-color:#00E2E2"/>
		</linearGradient>
		<rect x="705" y="456.039" clip-path="url(#SVGID_10_)" fill="url(#SVGID_11_)" width="175.68" height="256.2"/>
	</g>
</g>
<g>
	<g>
		<defs>
			<path id="SVGID_12_" d="M461.204,587.8c0-57.854,47.067-104.92,104.919-104.92c57.853,0,104.92,47.066,104.92,104.92
				s-47.067,104.92-104.92,104.92C508.271,692.72,461.204,645.653,461.204,587.8 M436.803,587.8
				c0,71.308,58.014,129.319,129.32,129.319s129.32-58.013,129.32-129.319c0-71.308-58.015-129.32-129.32-129.32
				C494.816,458.48,436.803,516.492,436.803,587.8"/>
		</defs>
		<clipPath id="SVGID_13_">
			<use xlink:href="#SVGID_12_"  overflow="visible"/>
		</clipPath>
		
			<linearGradient id="SVGID_14_" gradientUnits="userSpaceOnUse" x1="-0.1938" y1="-200.6711" x2="0.8062" y2="-200.6711" gradientTransform="matrix(258.6401 0 0 258.6401 486.9299 52489.2656)">
			<stop  offset="0" style="stop-color:#00E2E2"/>
			<stop  offset="1" style="stop-color:#0067BC"/>
		</linearGradient>
		<rect x="436.803" y="458.48" clip-path="url(#SVGID_13_)" fill="url(#SVGID_14_)" width="258.641" height="258.64"/>
	</g>
</g>
<g>
	<g>
		<defs>
			<path id="SVGID_15_" d="M422.163,602.44c0,71.307,58.013,129.32,129.32,129.32c39.372,0,74.686-17.692,98.424-45.538
				c-22.585,19.255-51.849,30.896-83.784,30.896c-71.307,0-129.32-58.013-129.32-129.319c0-31.936,11.644-61.2,30.898-83.785
				C439.855,527.754,422.163,563.067,422.163,602.44"/>
		</defs>
		<clipPath id="SVGID_16_">
			<use xlink:href="#SVGID_15_"  overflow="visible"/>
		</clipPath>
		
			<linearGradient id="SVGID_17_" gradientUnits="userSpaceOnUse" x1="-0.6709" y1="-198.8064" x2="0.3285" y2="-198.8064" gradientTransform="matrix(0 258.6406 -258.6406 0 -50883.2656 646.6799)">
			<stop  offset="0" style="stop-color:#00E2E2"/>
			<stop  offset="1" style="stop-color:#0067BC"/>
		</linearGradient>
		<rect x="422.163" y="504.015" clip-path="url(#SVGID_16_)" fill="url(#SVGID_17_)" width="227.744" height="227.746"/>
	</g>
</g>
<g>
	<g>
		<defs>
			<path id="SVGID_18_" d="M485.011,521.324c18.111-14.869,41.268-23.805,66.473-23.805c57.854,0,104.92,47.067,104.92,104.92
				c0,25.206-8.938,48.362-23.808,66.474c23.456-19.258,38.446-48.467,38.446-81.113c0-57.854-47.067-104.92-104.92-104.92
				C533.479,482.88,504.268,497.869,485.011,521.324"/>
		</defs>
		<clipPath id="SVGID_19_">
			<use xlink:href="#SVGID_18_"  overflow="visible"/>
		</clipPath>
		
			<linearGradient id="SVGID_20_" gradientUnits="userSpaceOnUse" x1="-0.6709" y1="-198.8064" x2="0.3291" y2="-198.8064" gradientTransform="matrix(0 258.6406 -258.6406 0 -50841.2656 646.6799)">
			<stop  offset="0" style="stop-color:#00E2E2"/>
			<stop  offset="1" style="stop-color:#0067BC"/>
		</linearGradient>
		<rect x="485.011" y="482.88" clip-path="url(#SVGID_19_)" fill="url(#SVGID_20_)" width="186.032" height="186.033"/>
	</g>
</g>
<g>
	<g>
		<defs>
			<path id="SVGID_21_" d="M407.523,587.8c0,39.373,17.692,74.687,45.537,98.424c-19.255-22.585-30.896-51.849-30.896-83.783
				c0-39.374,17.692-74.687,45.538-98.425v0.001c20.754-24.344,50.355-40.918,83.782-44.702c-4.808-0.544-9.689-0.834-14.64-0.834
				C465.536,458.48,407.523,516.492,407.523,587.8"/>
		</defs>
		<clipPath id="SVGID_22_">
			<use xlink:href="#SVGID_21_"  overflow="visible"/>
		</clipPath>
		
			<linearGradient id="SVGID_23_" gradientUnits="userSpaceOnUse" x1="1.1938" y1="-198.3293" x2="2.1938" y2="-198.3293" gradientTransform="matrix(-258.6406 0 0 -258.6406 974.9453 -50723.6406)">
			<stop  offset="0" style="stop-color:#00E2E2"/>
			<stop  offset="1" style="stop-color:#0067BC"/>
		</linearGradient>
		<rect x="407.523" y="458.48" clip-path="url(#SVGID_22_)" fill="url(#SVGID_23_)" width="143.96" height="227.744"/>
	</g>
</g>
<g>
	<g>
		<defs>
			<path id="SVGID_24_" d="M641.763,587.8c0,52.885-39.333,96.748-90.279,103.895c4.786,0.671,9.672,1.025,14.64,1.025
				c25.217,0,48.379-8.948,66.493-23.83c14.856-18.106,23.787-41.255,23.787-66.449c0-32.646-14.99-61.856-38.447-81.115
				C632.826,539.436,641.763,562.593,641.763,587.8"/>
		</defs>
		<clipPath id="SVGID_25_">
			<use xlink:href="#SVGID_24_"  overflow="visible"/>
		</clipPath>
		
			<linearGradient id="SVGID_26_" gradientUnits="userSpaceOnUse" x1="1.1938" y1="-198.3289" x2="2.1938" y2="-198.3289" gradientTransform="matrix(-258.6406 0 0 -258.6406 974.9453 -50688.8906)">
			<stop  offset="0" style="stop-color:#00E2E2"/>
			<stop  offset="1" style="stop-color:#0067BC"/>
		</linearGradient>
		<rect x="551.483" y="521.324" clip-path="url(#SVGID_25_)" fill="url(#SVGID_26_)" width="104.92" height="171.396"/>
	</g>
</g>
<g>
	<g>
		<defs>
			<path id="SVGID_27_" d="M453.06,489.376c22.587-19.255,51.849-30.896,83.784-30.896c4.95,0,9.832,0.29,14.64,0.834
				c4.807-0.544,9.689-0.834,14.64-0.834c31.936,0,61.2,11.642,83.785,30.897c-23.739-27.846-59.053-45.537-98.425-45.537
				C512.112,443.84,476.798,461.531,453.06,489.376"/>
		</defs>
		<clipPath id="SVGID_28_">
			<use xlink:href="#SVGID_27_"  overflow="visible"/>
		</clipPath>
		
			<linearGradient id="SVGID_29_" gradientUnits="userSpaceOnUse" x1="1.6685" y1="-200.1941" x2="2.6712" y2="-200.1941" gradientTransform="matrix(0 -258.6406 258.6406 0 52329.7656 1134.6956)">
			<stop  offset="0" style="stop-color:#00E2E2"/>
			<stop  offset="1" style="stop-color:#0067BC"/>
		</linearGradient>
		<rect x="453.06" y="443.84" clip-path="url(#SVGID_28_)" fill="url(#SVGID_29_)" width="196.849" height="45.537"/>
	</g>
</g>
<g>
	<g>
		<defs>
			<path id="SVGID_30_" d="M558.642,692.449c-2.408-0.172-4.796-0.425-7.158-0.756c26.652-3.738,50.123-17.529,66.448-37.399
				c-18.105,14.856-41.252,23.785-66.448,23.785c-25.205,0-48.362-8.938-66.474-23.806
				C502.784,675.923,529.035,690.353,558.642,692.449"/>
		</defs>
		<clipPath id="SVGID_31_">
			<use xlink:href="#SVGID_30_"  overflow="visible"/>
		</clipPath>
		
			<linearGradient id="SVGID_32_" gradientUnits="userSpaceOnUse" x1="1.6709" y1="-200.1941" x2="2.6709" y2="-200.1941" gradientTransform="matrix(0 -258.6406 258.6406 0 52329.7656 1134.6956)">
			<stop  offset="0" style="stop-color:#00E2E2"/>
			<stop  offset="1" style="stop-color:#0067BC"/>
		</linearGradient>
		<rect x="485.01" y="654.274" clip-path="url(#SVGID_31_)" fill="url(#SVGID_32_)" width="132.922" height="38.176"/>
	</g>
</g>
<g>
	<g>
		<defs>
			<rect id="SVGID_33_" y="0" width="1200" height="1200"/>
		</defs>
		<clipPath id="SVGID_34_">
			<use xlink:href="#SVGID_33_"  overflow="visible"/>
		</clipPath>
		<path clip-path="url(#SVGID_34_)" fill="#607072" d="M506.844,611.14V570.4h-6.797v-5.572c1.914-0.226,3.736-0.949,5.467-2.175
			c1.731-1.224,2.978-2.708,3.736-4.453h5.573v52.94H506.844z"/>
	</g>
	<g>
		<defs>
			<rect id="SVGID_35_" y="0" width="1200" height="1200"/>
		</defs>
		<clipPath id="SVGID_36_">
			<use xlink:href="#SVGID_35_"  overflow="visible"/>
		</clipPath>
		<path clip-path="url(#SVGID_36_)" fill="#607072" d="M548.219,599.065c0,3.518-1.238,6.502-3.715,8.95s-5.446,3.673-8.908,3.673
			c-3.519,0-6.509-1.231-8.971-3.694c-2.464-2.463-3.694-5.438-3.694-8.929v-28.877c0-3.518,1.238-6.508,3.716-8.971
			c2.476-2.463,5.459-3.694,8.949-3.694c3.519,0,6.501,1.239,8.95,3.715c2.448,2.478,3.673,5.46,3.673,8.95V599.065z
			 M539.944,570.019c0-1.266-0.45-2.35-1.352-3.25c-0.9-0.901-1.983-1.351-3.251-1.351c-1.266,0-2.343,0.449-3.229,1.351
			c-0.888,0.9-1.33,1.984-1.33,3.25v28.919c0,1.267,0.442,2.35,1.33,3.251c0.886,0.9,1.963,1.351,3.229,1.351
			c1.268,0,2.351-0.449,3.251-1.351c0.901-0.901,1.352-1.984,1.352-3.251V570.019z"/>
	</g>
	<g>
		<defs>
			<rect id="SVGID_37_" y="0" width="1200" height="1200"/>
		</defs>
		<clipPath id="SVGID_38_">
			<use xlink:href="#SVGID_37_"  overflow="visible"/>
		</clipPath>
		<path clip-path="url(#SVGID_38_)" fill="#607072" d="M566.874,603.496L566.874,603.496c-1.351-0.056-2.477-0.533-3.377-1.435
			c-1.07-1.069-1.604-2.476-1.604-4.222v-2.533c0-1.829,0.225-3.293,0.676-4.391c0.76-1.801,2.194-2.701,4.306-2.701
			c1.21,0,2.153,0.253,2.829,0.76c1.435,1.07,2.153,3.181,2.153,6.332v0.911h7.979v-1.966c0-1.971-0.338-3.646-1.013-5.024
			c-1.295-2.702-3.124-4.714-5.488-6.037c1.069-0.563,2.04-1.323,2.913-2.279c1.969-2.168,2.955-4.897,2.955-8.19v-2.871
			c0-3.405-1.013-6.248-3.04-8.528c-2.252-2.532-5.25-3.799-8.992-3.799h-0.633c-3.716,0-6.699,1.267-8.951,3.799
			c-2.025,2.252-3.039,5.095-3.039,8.528v2.871c0,1.999,0.295,3.659,0.887,4.98c1.182,2.563,2.843,4.392,4.981,5.489
			c-1.239,0.675-2.322,1.534-3.251,2.576c-2.167,2.42-3.25,5.249-3.25,8.485v4.813c0,3.461,1.224,6.431,3.672,8.907
			c2.449,2.478,5.433,3.716,8.951,3.716h0.337V603.496L566.874,603.496z M561.998,568.384c0.296-0.969,0.795-1.762,1.499-2.379
			c0.872-0.758,1.998-1.138,3.377-1.138c0.703,0,1.309,0.113,1.816,0.337c2.222,0.927,3.362,3.199,3.419,6.819
			c0.027,2.021-0.324,3.634-1.056,4.841c-0.873,1.433-2.266,2.146-4.18,2.146s-3.293-0.673-4.137-2.021
			c-0.648-1.01-1.014-2.666-1.099-4.967C561.583,570.565,561.703,569.353,561.998,568.384"/>
	</g>
	<g>
		<defs>
			<rect id="SVGID_39_" y="0" width="1200" height="1200"/>
		</defs>
		<clipPath id="SVGID_40_">
			<use xlink:href="#SVGID_39_"  overflow="visible"/>
		</clipPath>
		<rect x="563.988" y="617.864" clip-path="url(#SVGID_40_)" fill="#A5A5A5" width="2.886" height="2.887"/>
	</g>
	<g>
		<defs>
			<rect id="SVGID_41_" y="0" width="1200" height="1200"/>
		</defs>
		<clipPath id="SVGID_42_">
			<use xlink:href="#SVGID_41_"  overflow="visible"/>
		</clipPath>
		<path clip-path="url(#SVGID_42_)" fill="#A5A5A5" d="M576.192,616.634c0,1.149-0.403,2.125-1.209,2.922
			c-0.807,0.796-1.78,1.193-2.921,1.193c-0.664,0-1.202-0.067-1.617-0.206v-2.549c0.261,0.081,0.773,0.187,1.133,0.199
			c0.129,0.005,0.313,0.005,0.553-0.014c0.423-0.027,0.78-0.18,1.07-0.456s0.435-0.621,0.435-1.036v-13.413h2.557V616.634z"/>
	</g>
	<g>
		<defs>
			<rect id="SVGID_43_" y="0" width="1200" height="1200"/>
		</defs>
		<clipPath id="SVGID_44_">
			<use xlink:href="#SVGID_43_"  overflow="visible"/>
		</clipPath>
		<path clip-path="url(#SVGID_44_)" fill="#A5A5A5" d="M583.263,603.026c1.151,0,2.13,0.405,2.937,1.216
			c0.805,0.812,1.208,1.787,1.208,2.93v9.447c0,1.152-0.405,2.13-1.215,2.938c-0.812,0.806-1.787,1.209-2.93,1.209
			c-1.15,0-2.127-0.406-2.929-1.216c-0.801-0.812-1.201-1.787-1.201-2.931v-9.447c0-1.151,0.405-2.13,1.215-2.937
			C581.159,603.43,582.13,603.026,583.263,603.026 M584.686,607.115c0-0.414-0.145-0.766-0.435-1.057
			c-0.29-0.29-0.643-0.437-1.057-0.437s-0.77,0.146-1.064,0.437c-0.295,0.291-0.442,0.643-0.442,1.057v9.479
			c0,0.414,0.147,0.766,0.442,1.056c0.295,0.291,0.65,0.437,1.064,0.437s0.767-0.146,1.057-0.437c0.29-0.29,0.435-0.642,0.435-1.056
			V607.115z"/>
	</g>
	<g>
		<defs>
			<rect id="SVGID_45_" y="0" width="1200" height="1200"/>
		</defs>
		<clipPath id="SVGID_46_">
			<use xlink:href="#SVGID_45_"  overflow="visible"/>
		</clipPath>
		<path clip-path="url(#SVGID_46_)" fill="#A5A5A5" d="M590.408,620.557v-17.323h3.909c1.031,0,1.962,0.272,2.791,0.815
			c0.709,0.461,1.215,1.175,1.519,2.142c0.166,0.515,0.249,1.128,0.249,1.837c0,1.16-0.309,2.09-0.926,2.79
			c-0.257,0.295-0.562,0.521-0.911,0.677c0.58,0.223,1.072,0.659,1.478,1.313c0.268,0.442,0.466,1.014,0.595,1.714
			c0.063,0.359,0.097,0.759,0.097,1.201c0,1.096-0.208,2.025-0.622,2.791c-0.323,0.599-0.778,1.077-1.368,1.436
			c-0.663,0.406-1.32,0.608-1.975,0.608L590.408,620.557L590.408,620.557z M593.227,610.307h1.092c0.811,0,1.354-0.396,1.63-1.188
			c0.102-0.295,0.151-0.656,0.151-1.091c0-0.718-0.175-1.262-0.524-1.63c-0.322-0.341-0.741-0.511-1.257-0.511h-1.092V610.307
			L593.227,610.307z M593.227,617.974h1.092c0.884,0,1.497-0.456,1.838-1.368c0.119-0.313,0.179-0.672,0.179-1.077
			c0-0.967-0.184-1.672-0.552-2.114c-0.332-0.403-0.82-0.606-1.465-0.606h-1.092V617.974z"/>
	</g>
	<g>
		<defs>
			<rect id="SVGID_47_" y="0" width="1200" height="1200"/>
		</defs>
		<clipPath id="SVGID_48_">
			<use xlink:href="#SVGID_47_"  overflow="visible"/>
		</clipPath>
		<path clip-path="url(#SVGID_48_)" fill="#A5A5A5" d="M609.92,616.245c0.018,1.207-0.295,2.238-0.939,3.097
			c-0.424,0.58-1.021,0.989-1.796,1.229c-0.415,0.129-0.896,0.193-1.449,0.193c-1.022,0-1.869-0.253-2.542-0.759
			c-0.563-0.415-1.008-0.979-1.333-1.693c-0.327-0.713-0.52-1.531-0.573-2.452l2.486-0.179c0.109,1.009,0.378,1.74,0.802,2.193
			c0.313,0.343,0.672,0.505,1.077,0.485c0.569-0.019,1.025-0.3,1.366-0.844c0.177-0.268,0.264-0.65,0.264-1.147
			c0-0.719-0.327-1.434-0.98-2.143c-0.516-0.489-1.29-1.222-2.319-2.199c-0.866-0.839-1.479-1.59-1.839-2.254
			c-0.387-0.746-0.581-1.558-0.581-2.433c0-1.576,0.53-2.771,1.591-3.581c0.652-0.489,1.464-0.733,2.431-0.733
			c0.93,0,1.727,0.207,2.39,0.622c0.518,0.322,0.935,0.773,1.25,1.354c0.318,0.58,0.51,1.248,0.574,2.003l-2.501,0.456
			c-0.074-0.709-0.275-1.263-0.607-1.657c-0.238-0.286-0.585-0.429-1.035-0.429c-0.479,0-0.843,0.212-1.092,0.636
			c-0.202,0.341-0.305,0.764-0.305,1.271c0,0.792,0.342,1.6,1.022,2.417c0.258,0.313,0.645,0.684,1.161,1.105
			c0.606,0.507,1.008,0.861,1.201,1.063c0.645,0.646,1.142,1.28,1.491,1.906c0.165,0.295,0.3,0.567,0.4,0.815
			C609.782,615.205,609.911,615.759,609.92,616.245"/>
	</g>
</g>
</svg>
