<?xml version="1.0" encoding="utf-8"?>
<!-- Generator: Adobe Illustrator 17.0.0, SVG Export Plug-In . SVG Version: 6.00 Build 0)  -->
<!DOCTYPE svg PUBLIC "-//W3C//DTD SVG 1.1//EN" "http://www.w3.org/Graphics/SVG/1.1/DTD/svg11.dtd">
<svg version="1.1" id="content" xmlns="http://www.w3.org/2000/svg" xmlns:xlink="http://www.w3.org/1999/xlink" x="0px" y="0px"
	 width="1050px" height="698px" viewBox="0 0 1050 698" enable-background="new 0 0 1050 698" xml:space="preserve">
<g>
	<g>
		<linearGradient id="SVGID_1_" gradientUnits="userSpaceOnUse" x1="296.3143" y1="530.5912" x2="729.2084" y2="530.5912">
			<stop  offset="0" style="stop-color:#39A6FF"/>
			<stop  offset="1" style="stop-color:#F648FF"/>
		</linearGradient>
		
			<ellipse transform="matrix(-0.016 -0.9999 0.9999 -0.016 -9.5417 1051.7926)" fill="none" stroke="url(#SVGID_1_)" stroke-width="0.9827" stroke-miterlimit="10" cx="512.761" cy="530.591" rx="138.002" ry="215.972"/>
		<linearGradient id="SVGID_2_" gradientUnits="userSpaceOnUse" x1="284.2878" y1="533.146" x2="741.3168" y2="533.146">
			<stop  offset="0" style="stop-color:#39A6FF"/>
			<stop  offset="1" style="stop-color:#F648FF"/>
		</linearGradient>
		
			<ellipse transform="matrix(-0.016 -0.9999 0.9999 -0.016 -12.0545 1054.4293)" fill="none" stroke="url(#SVGID_2_)" stroke-width="0.4846" stroke-miterlimit="10" cx="512.802" cy="533.146" rx="145.873" ry="228.289"/>
		<linearGradient id="SVGID_3_" gradientUnits="userSpaceOnUse" x1="320.9485" y1="530.9833" x2="704.5869" y2="530.9833">
			<stop  offset="0" style="stop-color:#39A6FF"/>
			<stop  offset="1" style="stop-color:#F648FF"/>
		</linearGradient>
		
			<ellipse transform="matrix(-0.016 -0.9999 0.9999 -0.016 -9.9269 1052.1978)" fill="none" stroke="url(#SVGID_3_)" stroke-width="2.9078" stroke-miterlimit="10" cx="512.768" cy="530.983" rx="121.649" ry="190.379"/>
	</g>
	<g>
		<linearGradient id="SVGID_4_" gradientUnits="userSpaceOnUse" x1="335.5189" y1="132.9123" x2="625.8916" y2="132.9123">
			<stop  offset="0" style="stop-color:#39A6FF"/>
			<stop  offset="1" style="stop-color:#F648FF"/>
		</linearGradient>
		<path fill="url(#SVGID_4_)" d="M624.122,106.72c0,0-1.165-0.677-3.35-1.945c-2.163-1.308-5.441-3.04-9.643-5.171
			c-4.244-2.048-9.434-4.478-15.576-6.798c-6.106-2.406-13.152-4.718-20.945-6.828c-1.956-0.497-3.93-1.097-5.984-1.541
			c-2.047-0.47-4.132-0.949-6.253-1.435c-2.136-0.415-4.308-0.837-6.514-1.266c-2.202-0.446-4.467-0.739-6.746-1.125
			c-9.141-1.399-18.858-2.366-28.935-2.767c-10.067-0.419-20.527-0.205-31.064,0.625c-10.543,0.832-21.211,2.315-31.727,4.5
			c-21.029,4.345-41.475,11.583-59.067,21.278c-8.801,4.827-16.847,10.305-23.912,16.153c-7.064,5.849-13.119,12.101-17.989,18.404
			c-4.881,6.299-8.556,12.643-11.154,18.53c-0.605,1.491-1.262,2.907-1.769,4.32c-0.48,1.423-0.943,2.794-1.387,4.112
			c-0.422,1.324-0.697,2.631-1.031,3.859c-0.159,0.616-0.313,1.218-0.465,1.806c-0.107,0.597-0.211,1.179-0.313,1.745
			c-0.201,1.133-0.391,2.206-0.569,3.215c-0.161,1.012-0.208,1.974-0.309,2.861c-0.087,0.889-0.168,1.712-0.241,2.465
			c-0.081,0.753-0.044,1.444-0.07,2.059c-0.046,2.463-0.07,3.776-0.07,3.776l-0.003,0.139c-0.018,0.972-0.82,1.745-1.792,1.727
			s-1.745-0.82-1.727-1.792l0-0.017c0,0,0.039-1.381,0.112-3.969c0.034-0.646,0.006-1.372,0.097-2.162
			c0.085-0.791,0.178-1.654,0.278-2.587c0.115-0.931,0.178-1.94,0.357-2.999c0.198-1.057,0.408-2.18,0.63-3.366
			c0.113-0.593,0.229-1.201,0.348-1.825c0.164-0.614,0.332-1.242,0.504-1.886c0.361-1.282,0.666-2.646,1.121-4.024
			c0.478-1.371,0.976-2.797,1.492-4.277c0.544-1.468,1.24-2.936,1.887-4.481c2.765-6.098,6.642-12.626,11.733-19.058
			c5.08-6.438,11.351-12.775,18.617-18.667c7.267-5.891,15.503-11.371,24.474-16.174c17.933-9.645,38.645-16.729,59.869-20.89
			c10.615-2.092,21.357-3.473,31.976-4.203c10.626-0.727,21.089-0.833,31.212-0.309c10.115,0.506,19.858,1.576,29.015,3.074
			c2.283,0.41,4.551,0.727,6.756,1.197c2.208,0.452,4.382,0.898,6.52,1.336c2.122,0.51,4.208,1.011,6.255,1.503
			c2.054,0.465,4.027,1.087,5.983,1.606c7.79,2.194,14.826,4.583,20.918,7.055c6.127,2.387,11.298,4.873,15.525,6.966
			c4.186,2.177,7.447,3.943,9.595,5.272C622.964,106.032,624.122,106.72,624.122,106.72z"/>
	</g>
	<g>
		<g>
			<linearGradient id="SVGID_5_" gradientUnits="userSpaceOnUse" x1="332.5055" y1="572.9734" x2="693.1403" y2="572.9734">
				<stop  offset="0" style="stop-color:#13477C"/>
				<stop  offset="1" style="stop-color:#6C21AD"/>
			</linearGradient>
			<path fill="url(#SVGID_5_)" d="M514.684,644.761c99.574-1.598,179.466-54.47,178.447-118.096l-0.103-25.517l-360.522,7.937
				l0.038,23.363C333.565,596.072,415.111,646.357,514.684,644.761z"/>
			<linearGradient id="SVGID_6_" gradientUnits="userSpaceOnUse" x1="332.4958" y1="506.1947" x2="693.1024" y2="506.1947">
				<stop  offset="0" style="stop-color:#1A5499"/>
				<stop  offset="1" style="stop-color:#9133D3"/>
			</linearGradient>
			<path fill="url(#SVGID_6_)" d="M510.952,390.99c-99.573,1.596-179.467,54.469-178.446,118.095
				c1.02,63.626,82.567,113.91,182.141,112.314c99.573-1.596,179.467-54.469,178.447-118.095
				C692.073,439.678,610.525,389.394,510.952,390.99z"/>
		</g>
		<g>
			<linearGradient id="SVGID_7_" gradientUnits="userSpaceOnUse" x1="364.4177" y1="543.0695" x2="661.2262" y2="543.0695">
				<stop  offset="0" style="stop-color:#13477C"/>
				<stop  offset="1" style="stop-color:#6C21AD"/>
			</linearGradient>
			<path fill="url(#SVGID_7_)" d="M514.354,602.152c81.951-1.315,147.704-44.83,146.865-97.195l-0.085-21.001l-296.715,6.532
				l0.032,19.228C365.289,562.08,432.403,603.465,514.354,602.152z"/>
			<linearGradient id="SVGID_8_" gradientUnits="userSpaceOnUse" x1="364.4097" y1="488.1094" x2="661.1951" y2="488.1094">
				<stop  offset="0" style="stop-color:#2572BF"/>
				<stop  offset="1" style="stop-color:#9B42E8"/>
			</linearGradient>
			<path fill="url(#SVGID_8_)" d="M511.282,393.294c-81.951,1.314-147.704,44.829-146.865,97.194
				c0.84,52.365,67.954,93.75,149.905,92.436c81.951-1.314,147.704-44.829,146.864-97.194
				C660.348,433.365,593.233,391.98,511.282,393.294z"/>
		</g>
	</g>
	<g>
		<linearGradient id="SVGID_9_" gradientUnits="userSpaceOnUse" x1="511.9101" y1="546.9946" x2="511.9101" y2="33.078">
			<stop  offset="0" style="stop-color:#A1BEBF"/>
			<stop  offset="0.2879" style="stop-color:#A4C0C1"/>
			<stop  offset="0.465" style="stop-color:#ACC7C9"/>
			<stop  offset="0.6122" style="stop-color:#BBD3D5"/>
			<stop  offset="0.7422" style="stop-color:#CFE3E7"/>
			<stop  offset="0.7784" style="stop-color:#D6E9ED"/>
			<stop  offset="1" style="stop-color:#A1BEBF"/>
		</linearGradient>
		<path fill="url(#SVGID_9_)" d="M584.474,111.106L452.815,35.093c-4.989-2.881-10.603-2.499-14.955,0.046l0.001-0.005
			l-18.207,10.562l2.979,5.101l7.853-0.517v379.383c0,11.571,6.173,22.263,16.194,28.049L580.4,534.914l-1.415,0.634l-3.954,4.78
			l2.159,6.667l19.13-11.021l-0.009-0.02c4.55-2.446,7.854-7.189,7.854-13.093v-377.65
			C604.165,131.142,596.659,118.141,584.474,111.106z"/>
		<linearGradient id="SVGID_10_" gradientUnits="userSpaceOnUse" x1="412.2078" y1="109.4643" x2="585.886" y2="109.4643">
			<stop  offset="0" style="stop-color:#CADEE0"/>
			<stop  offset="1" style="stop-color:#F8FEFF"/>
		</linearGradient>
		<path fill="url(#SVGID_10_)" d="M566.195,121.71L434.536,45.697c-9.924-5.73-22.328,1.432-22.328,12.891v16.387l173.678,100.273
			v-19.432C585.886,141.746,578.38,128.745,566.195,121.71z"/>
		<linearGradient id="SVGID_11_" gradientUnits="userSpaceOnUse" x1="499.0469" y1="526.2042" x2="499.0469" y2="74.9752">
			<stop  offset="0" style="stop-color:#1A5499"/>
			<stop  offset="1" style="stop-color:#9133D3"/>
		</linearGradient>
		<polygon fill="url(#SVGID_11_)" points="585.886,175.248 412.208,74.975 412.208,425.931 585.886,526.204 		"/>
		<linearGradient id="SVGID_12_" gradientUnits="userSpaceOnUse" x1="412.2078" y1="487.1497" x2="585.886" y2="487.1497">
			<stop  offset="0" style="stop-color:#CADEE0"/>
			<stop  offset="1" style="stop-color:#F8FEFF"/>
		</linearGradient>
		<path fill="url(#SVGID_12_)" d="M428.402,468.316l135.163,78.037c9.92,5.727,22.321-1.432,22.321-12.887v-7.262L412.208,425.931
			v14.336C412.208,451.838,418.381,462.53,428.402,468.316z"/>
		<path fill="#A1A1A1" d="M492.883,99.559l20.876,12.053c2.17,1.253,3.507,3.568,3.507,6.073l0,0c0,1.52-1.645,2.47-2.962,1.71
			l-21.438-12.377c-1.996-1.152-3.226-3.282-3.226-5.587l0,0C489.641,99.767,491.442,98.727,492.883,99.559z"/>
	</g>
	<g>
		<g>
			<g>
				<linearGradient id="SVGID_13_" gradientUnits="userSpaceOnUse" x1="429.9739" y1="258.4513" x2="429.9739" y2="203.755">
					<stop  offset="0" style="stop-color:#3EC9FF"/>
					<stop  offset="1" style="stop-color:#E257FF"/>
				</linearGradient>
				<polygon opacity="0.8" fill="url(#SVGID_13_)" points="426.03,208.315 426.03,258.451 433.918,253.892 433.918,203.755 				"/>
				<linearGradient id="SVGID_14_" gradientUnits="userSpaceOnUse" x1="426.0303" y1="293.7661" x2="564.1763" y2="293.7661">
					<stop  offset="0" style="stop-color:#3EC9FF"/>
					<stop  offset="1" style="stop-color:#E257FF"/>
				</linearGradient>
				<polygon opacity="0.8" fill="url(#SVGID_14_)" points="556.289,333.656 564.176,329.096 433.918,253.876 426.03,258.451 				"/>
				<linearGradient id="SVGID_15_" gradientUnits="userSpaceOnUse" x1="433.9177" y1="266.4257" x2="564.1763" y2="266.4257">
					<stop  offset="0" style="stop-color:#3EC9FF"/>
					<stop  offset="1" style="stop-color:#E257FF"/>
				</linearGradient>
				<polygon opacity="0.7" fill="url(#SVGID_15_)" points="433.918,203.755 433.918,253.876 564.176,329.096 564.176,278.96 				"/>
				<linearGradient id="SVGID_16_" gradientUnits="userSpaceOnUse" x1="426.0303" y1="270.9855" x2="556.2888" y2="270.9855">
					<stop  offset="0" style="stop-color:#3EC9FF"/>
					<stop  offset="1" style="stop-color:#E257FF"/>
				</linearGradient>
				<polygon opacity="0.4" fill="url(#SVGID_16_)" points="556.289,283.52 426.03,208.315 426.03,258.451 556.289,333.656 				"/>
				<linearGradient id="SVGID_17_" gradientUnits="userSpaceOnUse" x1="426.0303" y1="243.6373" x2="564.1763" y2="243.6373">
					<stop  offset="0" style="stop-color:#3EC9FF"/>
					<stop  offset="1" style="stop-color:#E257FF"/>
				</linearGradient>
				<polygon opacity="0.7" fill="url(#SVGID_17_)" points="556.289,283.52 564.176,278.96 433.918,203.755 426.03,208.315 				"/>
				<linearGradient id="SVGID_18_" gradientUnits="userSpaceOnUse" x1="560.2325" y1="333.6562" x2="560.2325" y2="278.9597">
					<stop  offset="0" style="stop-color:#3EC9FF"/>
					<stop  offset="1" style="stop-color:#E257FF"/>
				</linearGradient>
				<polygon opacity="0.5" fill="url(#SVGID_18_)" points="556.289,283.52 556.289,333.656 564.176,329.096 564.176,278.96 				"/>
			</g>
			<g>
				<linearGradient id="SVGID_19_" gradientUnits="userSpaceOnUse" x1="429.9739" y1="333.7253" x2="429.9739" y2="279.0288">
					<stop  offset="0" style="stop-color:#3EC9FF"/>
					<stop  offset="1" style="stop-color:#E257FF"/>
				</linearGradient>
				<polygon opacity="0.8" fill="url(#SVGID_19_)" points="426.03,283.589 426.03,333.725 433.918,329.165 433.918,279.029 				"/>
				<linearGradient id="SVGID_20_" gradientUnits="userSpaceOnUse" x1="426.0303" y1="369.0399" x2="564.1763" y2="369.0399">
					<stop  offset="0" style="stop-color:#3EC9FF"/>
					<stop  offset="1" style="stop-color:#E257FF"/>
				</linearGradient>
				<polygon opacity="0.8" fill="url(#SVGID_20_)" points="556.289,408.93 564.176,404.37 433.918,329.15 426.03,333.725 				"/>
				<linearGradient id="SVGID_21_" gradientUnits="userSpaceOnUse" x1="433.9177" y1="341.6995" x2="564.1763" y2="341.6995">
					<stop  offset="0" style="stop-color:#3EC9FF"/>
					<stop  offset="1" style="stop-color:#E257FF"/>
				</linearGradient>
				<polygon opacity="0.7" fill="url(#SVGID_21_)" points="433.918,279.029 433.918,329.15 564.176,404.37 564.176,354.234 				"/>
				<linearGradient id="SVGID_22_" gradientUnits="userSpaceOnUse" x1="426.0303" y1="346.2593" x2="556.2888" y2="346.2593">
					<stop  offset="0" style="stop-color:#3EC9FF"/>
					<stop  offset="1" style="stop-color:#E257FF"/>
				</linearGradient>
				<polygon opacity="0.4" fill="url(#SVGID_22_)" points="556.289,358.793 426.03,283.589 426.03,333.725 556.289,408.93 				"/>
				<linearGradient id="SVGID_23_" gradientUnits="userSpaceOnUse" x1="426.0303" y1="318.9111" x2="564.1763" y2="318.9111">
					<stop  offset="0" style="stop-color:#3EC9FF"/>
					<stop  offset="1" style="stop-color:#E257FF"/>
				</linearGradient>
				<polygon opacity="0.7" fill="url(#SVGID_23_)" points="556.289,358.793 564.176,354.234 433.918,279.029 426.03,283.589 				"/>
				<linearGradient id="SVGID_24_" gradientUnits="userSpaceOnUse" x1="560.2325" y1="408.93" x2="560.2325" y2="354.2337">
					<stop  offset="0" style="stop-color:#3EC9FF"/>
					<stop  offset="1" style="stop-color:#E257FF"/>
				</linearGradient>
				<polygon opacity="0.5" fill="url(#SVGID_24_)" points="556.289,358.793 556.289,408.93 564.176,404.37 564.176,354.234 				"/>
			</g>
			<g>
				<linearGradient id="SVGID_25_" gradientUnits="userSpaceOnUse" x1="451.6837" y1="421.4059" x2="451.6837" y2="366.7094">
					<stop  offset="0" style="stop-color:#FFDA40"/>
					<stop  offset="1" style="stop-color:#FF5AB8"/>
				</linearGradient>
				<polygon opacity="0.8" fill="url(#SVGID_25_)" points="447.74,371.269 447.74,421.406 455.627,416.846 455.627,366.709 				"/>
				<linearGradient id="SVGID_26_" gradientUnits="userSpaceOnUse" x1="447.74" y1="444.1709" x2="542.4664" y2="444.1709">
					<stop  offset="0" style="stop-color:#FFDA40"/>
					<stop  offset="1" style="stop-color:#FF5AB8"/>
				</linearGradient>
				<polygon opacity="0.8" fill="url(#SVGID_26_)" points="534.579,471.511 542.466,466.952 455.627,416.831 447.74,421.406 				"/>
				<linearGradient id="SVGID_27_" gradientUnits="userSpaceOnUse" x1="455.6274" y1="416.8305" x2="542.4664" y2="416.8305">
					<stop  offset="0" style="stop-color:#FFDA40"/>
					<stop  offset="1" style="stop-color:#FF5AB8"/>
				</linearGradient>
				<polygon opacity="0.7" fill="url(#SVGID_27_)" points="455.627,366.709 455.627,416.831 542.466,466.952 542.466,416.815 				
					"/>
				<linearGradient id="SVGID_28_" gradientUnits="userSpaceOnUse" x1="447.74" y1="421.3903" x2="534.5791" y2="421.3903">
					<stop  offset="0" style="stop-color:#FFDA40"/>
					<stop  offset="1" style="stop-color:#FF5AB8"/>
				</linearGradient>
				<polygon opacity="0.4" fill="url(#SVGID_28_)" points="534.579,421.375 447.74,371.269 447.74,421.406 534.579,471.511 				"/>
				<linearGradient id="SVGID_29_" gradientUnits="userSpaceOnUse" x1="447.74" y1="394.0421" x2="542.4664" y2="394.0421">
					<stop  offset="0" style="stop-color:#FFDA40"/>
					<stop  offset="1" style="stop-color:#FF5AB8"/>
				</linearGradient>
				<polygon opacity="0.7" fill="url(#SVGID_29_)" points="534.579,421.375 542.466,416.815 455.627,366.709 447.74,371.269 				"/>
				<linearGradient id="SVGID_30_" gradientUnits="userSpaceOnUse" x1="538.5228" y1="471.5113" x2="538.5228" y2="416.815">
					<stop  offset="0" style="stop-color:#FFDA40"/>
					<stop  offset="1" style="stop-color:#FF5AB8"/>
				</linearGradient>
				<polygon opacity="0.5" fill="url(#SVGID_30_)" points="534.579,421.375 534.579,471.511 542.466,466.952 542.466,416.815 				
					"/>
			</g>
		</g>
		<g>
			<g>
				
					<ellipse transform="matrix(-0.9111 0.4122 -0.4122 -0.9111 1032.4836 136.9913)" opacity="0.05" fill="#FFFFFF" cx="501.469" cy="179.837" rx="24.627" ry="38.541"/>
				
					<ellipse transform="matrix(-0.9111 0.4122 -0.4122 -0.9111 1002.1788 158.8668)" opacity="0.3" fill="#FFFFFF" cx="483.957" cy="187.507" rx="24.627" ry="38.541"/>
				<path opacity="0.2" fill="#FFFFFF" d="M523.906,169.686c-8.773-19.393-25.931-30.57-38.323-24.964l-17.511,7.67
					c12.392-5.606,29.55,5.57,38.323,24.964c8.773,19.393,5.84,39.659-6.552,45.265l17.511-7.67
					C529.746,209.345,532.68,189.08,523.906,169.686z"/>
			</g>
			<path fill="#FFFFFF" d="M488.226,190.054c3.002-0.387,5.012-3.018,5.012-7.349c0-6.628-4.69-14.694-10.475-18.015
				c-5.786-3.321-10.475-0.64-10.475,5.989c0,4.332,2.009,9.269,5.012,13.103c-5.705-3.124-10.291-0.422-10.291,6.15v6.924
				l31.51,18.087v-6.924C498.517,201.446,493.931,193.479,488.226,190.054z"/>
		</g>
		<g>
			<path fill="#FFFFFF" d="M455.101,241.871l1.975,1.143l10.02,23.569l0.046,0.027v-17.772l1.534,0.888v20.295l-1.976-1.143
				l-10.018-23.569l-0.046-0.027v17.773l-1.534-0.888V241.871z"/>
			<path fill="#FFFFFF" d="M480.566,256.605l1.58,0.914l6.927,24.303l-1.72-0.996l-1.79-6.425l-8.717-5.044l-1.86,4.313
				l-1.604-0.928L480.566,256.605z M481.286,259.085l-3.836,8.902l7.555,4.371L481.286,259.085z"/>
			<path fill="#FFFFFF" d="M493.617,264.156l2.301,1.331l5.997,20.497l5.998-13.557l2.184,1.264v20.295l-1.534-0.888v-17.887
				l-0.046-0.027l-6.277,14.256l-0.674-0.39l-6.369-21.572l-0.046-0.027v17.887l-1.534-0.887V264.156z"/>
			<path fill="#FFFFFF" d="M516.782,277.559l10.065,5.823v1.72l-8.531-4.936v7.223l7.996,4.626v1.72l-7.996-4.626v7.911l8.903,5.151
				v1.72l-10.437-6.039V277.559z"/>
		</g>
		<g>
			<path fill="#FFFFFF" d="M445.742,320.104c0,2.428-1.332,3.63-2.974,2.686c-1.643-0.945-2.974-3.678-2.974-6.106
				s1.332-3.63,2.974-2.686C444.41,314.942,445.742,317.676,445.742,320.104z"/>
			<path fill="#FFFFFF" d="M457.84,327.06c0,2.428-1.332,3.63-2.974,2.686c-1.643-0.945-2.974-3.678-2.974-6.106
				c0-2.428,1.332-3.63,2.974-2.686C456.508,321.898,457.84,324.632,457.84,327.06z"/>
			<path fill="#FFFFFF" d="M469.938,334.016c0,2.428-1.332,3.63-2.974,2.686c-1.643-0.944-2.974-3.678-2.974-6.106
				c0-2.428,1.332-3.63,2.974-2.686C468.606,328.854,469.938,331.588,469.938,334.016z"/>
			<path fill="#FFFFFF" d="M482.036,340.971c0,2.428-1.332,3.63-2.974,2.686c-1.643-0.944-2.974-3.678-2.974-6.106
				c0-2.428,1.332-3.63,2.974-2.686C480.704,335.81,482.036,338.544,482.036,340.971z"/>
			<path fill="#FFFFFF" d="M494.134,347.927c0,2.428-1.332,3.63-2.974,2.686c-1.643-0.944-2.974-3.678-2.974-6.106
				c0-2.428,1.332-3.63,2.974-2.686C492.802,342.766,494.134,345.5,494.134,347.927z"/>
			<path fill="#FFFFFF" d="M506.232,354.883c0,2.428-1.332,3.63-2.974,2.686c-1.643-0.944-2.974-3.678-2.974-6.106
				c0-2.428,1.332-3.63,2.974-2.686C504.9,349.722,506.232,352.455,506.232,354.883z"/>
			<path fill="#FFFFFF" d="M518.33,361.839c0,2.428-1.332,3.63-2.974,2.686c-1.643-0.944-2.974-3.678-2.974-6.106
				c0-2.428,1.332-3.63,2.974-2.686C516.999,356.677,518.33,359.411,518.33,361.839z"/>
			<path fill="#FFFFFF" d="M530.428,368.795c0,2.428-1.332,3.63-2.974,2.686c-1.643-0.944-2.974-3.678-2.974-6.106
				s1.332-3.63,2.974-2.686C529.097,363.633,530.428,366.367,530.428,368.795z"/>
			<path fill="#FFFFFF" d="M542.526,375.751c0,2.428-1.332,3.63-2.974,2.686c-1.643-0.944-2.974-3.678-2.974-6.106
				c0-2.428,1.332-3.63,2.974-2.686C541.195,370.589,542.526,373.323,542.526,375.751z"/>
		</g>
		<g>
			<path fill="#FFFFFF" d="M455.63,395.333l3.758,2.171c2.732,1.578,3.426,4.233,3.426,6.072c0,1.859-1.011,3.032-2.626,2.346
				l3.034,8.428l-1.811-1.046l-2.717-8.018l-1.615-0.933v6.448l-1.449-0.837V395.333z M457.079,402.618l1.902,1.099
				c1.147,0.663,2.294,0.954,2.294-1.03c0-1.984-1.147-3.019-2.294-3.681l-1.902-1.099V402.618z"/>
			<path fill="#FFFFFF" d="M465.612,401.1l6.897,3.985v1.859l-5.448-3.148v4.362l5.071,2.93v1.859l-5.071-2.93v4.692l5.72,3.305
				v1.859l-7.169-4.142V401.1z"/>
			<path fill="#FFFFFF" d="M484.694,418.572v7.212c-1.041,0.267-2.747-0.244-4.044-0.994c-3.622-2.093-5.721-6.839-5.721-10.994
				c0-4.34,2.309-6.353,5.57-4.469c1.962,1.133,3.155,2.546,3.984,4.203l-1.026,0.915c-0.875-1.663-1.886-2.64-2.958-3.259
				c-2.445-1.412-4.03,0.297-4.03,3.499c0,3.306,1.796,6.867,4.15,8.227c1.011,0.584,1.977,0.873,2.626,0.752v-4.071l-2.369-1.369
				v-1.859L484.694,418.572z"/>
			<path fill="#FFFFFF" d="M488.097,414.09l1.449,0.837v14.631l-1.449-0.837V414.09z"/>
			<path fill="#FFFFFF" d="M493.367,428.707c0.513,1.372,1.404,2.383,2.264,2.879c0.951,0.55,2.128,0.403,2.128-1.208
				c0-3.369-5.268-4.326-5.268-10.03c0-1.715,1.057-3.48,3.622-1.998c1.163,0.672,2.279,1.646,3.079,3.453l-1.177,0.787
				c-0.362-0.975-1.072-1.901-1.902-2.381c-1.599-0.924-2.082,0.12-2.082,1.028c0,3.7,5.267,4.532,5.267,9.801
				c0,2.832-1.66,3.567-3.713,2.382c-1.374-0.794-2.687-2.193-3.411-3.997L493.367,428.707z"/>
			<path fill="#FFFFFF" d="M504.435,425.389l-3.441-1.988v-1.859l8.332,4.813v1.859l-3.442-1.988v12.772l-1.449-0.837V425.389z"/>
			<path fill="#FFFFFF" d="M511.624,427.683l6.897,3.985v1.859l-5.449-3.148v4.362l5.071,2.93v1.859l-5.071-2.93v4.691l5.72,3.305
				v1.859l-7.169-4.142V427.683z"/>
			<path fill="#FFFFFF" d="M521.606,433.45l3.758,2.171c2.732,1.578,3.426,4.233,3.426,6.072c0,1.859-1.012,3.032-2.626,2.346
				l3.034,8.428l-1.811-1.046l-2.717-8.018l-1.615-0.933v6.448l-1.449-0.837V433.45z M523.055,440.735l1.902,1.099
				c1.147,0.663,2.294,0.954,2.294-1.03s-1.147-3.019-2.294-3.681l-1.902-1.099V440.735z"/>
		</g>
	</g>
	<g>
		<g>
			<linearGradient id="SVGID_31_" gradientUnits="userSpaceOnUse" x1="331.0708" y1="414.8633" x2="694.4995" y2="414.8633">
				<stop  offset="0" style="stop-color:#39A6FF"/>
				<stop  offset="1" style="stop-color:#F648FF"/>
			</linearGradient>
			<path fill="url(#SVGID_31_)" d="M334.59,401.3c0,0,0.029,0.556,0.086,1.633c0.073,1.068,0.104,2.696,0.287,4.741
				c0.477,3.963,1.317,9.942,3.822,17.165c2.485,7.208,6.705,15.598,13.127,24.151c0.755,1.104,1.666,2.116,2.531,3.191
				c0.892,1.052,1.732,2.176,2.704,3.216c1.937,2.083,3.872,4.282,6.08,6.329c2.111,2.144,4.469,4.14,6.846,6.224
				c1.19,1.04,2.481,1.991,3.738,3.008c0.634,0.502,1.272,1.007,1.913,1.515c0.645,0.503,1.328,0.964,1.995,1.452
				c1.345,0.963,2.704,1.935,4.077,2.918c1.415,0.922,2.845,1.853,4.287,2.794c1.425,0.968,2.94,1.825,4.448,2.723
				c1.521,0.876,3.01,1.839,4.602,2.652c6.235,3.496,12.957,6.604,19.964,9.556c7.034,2.898,14.441,5.425,22.097,7.724
				c7.684,2.21,15.641,4.094,23.806,5.661c8.183,1.457,16.556,2.67,25.085,3.42c2.128,0.224,4.275,0.313,6.421,0.477
				c2.147,0.154,4.301,0.303,6.465,0.353c2.163,0.076,4.332,0.152,6.505,0.229c2.175,0.007,4.355,0.014,6.539,0.021
				c1.086-0.006,2.2,0.029,3.265-0.011l3.296-0.096c2.195-0.083,4.412-0.085,6.6-0.235c2.192-0.135,4.387-0.27,6.584-0.406
				c2.198-0.13,4.395-0.393,6.597-0.583c8.798-0.861,17.603-2.096,26.302-3.877c17.423-3.421,34.474-8.758,50.438-15.874
				c15.915-7.198,30.719-16.308,43.197-27.329c12.47-10.981,22.444-24.116,28.215-38.243c2.891-7.047,4.71-14.304,5.45-21.433
				c0.094-0.891,0.188-1.779,0.282-2.663c0.051-0.887,0.055-1.772,0.084-2.653c0.037-1.773,0.147-3.491-0.004-5.231
				c-0.046-0.868-0.091-1.731-0.136-2.591c-0.037-0.861-0.081-1.716-0.218-2.552c-0.231-1.678-0.423-3.346-0.679-4.987
				c-2.381-13.141-7.922-24.351-14.084-33.226c-6.237-8.88-12.957-15.638-18.805-20.763c-1.462-1.288-2.841-2.51-4.225-3.56
				c-1.361-1.076-2.637-2.084-3.825-3.022c-2.467-1.752-4.531-3.295-6.266-4.455c-3.498-2.28-5.364-3.495-5.364-3.495
				s1.874,1.204,5.386,3.463c1.743,1.15,3.816,2.68,6.296,4.418c1.194,0.931,2.477,1.932,3.846,3
				c1.391,1.042,2.78,2.257,4.251,3.537c5.886,5.096,12.66,11.822,18.972,20.691c6.236,8.866,11.878,20.092,14.359,33.315
				c0.269,1.656,0.474,3.343,0.717,5.04c0.144,0.849,0.193,1.704,0.235,2.563c0.051,0.859,0.101,1.722,0.152,2.59
				c0.162,1.728,0.065,3.519,0.037,5.285c-0.024,0.888-0.023,1.782-0.069,2.677c-0.089,0.892-0.178,1.788-0.268,2.688
				c-0.702,7.198-2.493,14.538-5.368,21.672c-5.74,14.302-15.728,27.619-28.229,38.767c-12.511,11.188-27.367,20.456-43.348,27.802
				c-16.03,7.265-33.162,12.743-50.681,16.296c-8.747,1.846-17.604,3.145-26.458,4.067c-2.217,0.206-4.423,0.483-6.643,0.629
				c-2.22,0.15-4.438,0.3-6.652,0.45c-2.216,0.165-4.412,0.18-6.613,0.277l-3.296,0.116c-1.13,0.049-2.211,0.019-3.317,0.033
				c-2.2,0.006-4.396,0.013-6.588,0.019c-2.19-0.063-4.376-0.127-6.556-0.19c-2.181-0.037-4.353-0.173-6.518-0.315
				c-2.164-0.152-4.329-0.229-6.476-0.441c-8.604-0.703-17.057-1.874-25.326-3.294c-8.251-1.53-16.299-3.383-24.081-5.57
				c-7.755-2.275-15.264-4.786-22.408-7.678c-7.117-2.946-13.953-6.057-20.311-9.569c-1.622-0.817-3.143-1.786-4.694-2.667
				c-1.539-0.904-3.084-1.766-4.542-2.742c-1.475-0.948-2.936-1.888-4.383-2.818c-1.406-0.993-2.798-1.975-4.175-2.948
				c-0.684-0.493-1.382-0.96-2.044-1.469c-0.658-0.514-1.312-1.026-1.963-1.534c-1.291-1.031-2.613-1.995-3.837-3.05
				c-2.445-2.116-4.868-4.144-7.048-6.328c-2.273-2.084-4.278-4.329-6.28-6.459c-1.004-1.062-1.879-2.214-2.803-3.291
				c-0.897-1.101-1.84-2.138-2.628-3.272c-6.68-8.779-11.124-17.467-13.762-24.969c-2.657-7.516-3.588-13.747-4.117-18.055
				c-0.2-2.111-0.238-3.69-0.318-4.772c-0.063-1.077-0.096-1.633-0.096-1.633c-0.057-0.971,0.684-1.804,1.654-1.861
				c0.971-0.057,1.804,0.684,1.861,1.654L334.59,401.3z"/>
		</g>
		<g>
			<linearGradient id="SVGID_32_" gradientUnits="userSpaceOnUse" x1="512.8502" y1="282.7029" x2="694.4865" y2="282.7029">
				<stop  offset="0" style="stop-color:#39A6FF"/>
				<stop  offset="1" style="stop-color:#F648FF"/>
			</linearGradient>
			<path fill="url(#SVGID_32_)" d="M514.558,338.997c0,0,3.662-0.11,10.072-0.303c0.8-0.03,1.648-0.037,2.527-0.088
				c0.875-0.064,1.791-0.132,2.746-0.202c1.91-0.14,3.976-0.292,6.183-0.454c1.103-0.093,2.245-0.136,3.416-0.278
				c1.171-0.137,2.376-0.279,3.613-0.423c2.474-0.294,5.074-0.602,7.788-0.924c5.389-0.899,11.263-1.704,17.375-3.092
				c1.534-0.318,3.088-0.641,4.662-0.967c1.565-0.364,3.135-0.79,4.731-1.188c3.182-0.831,6.465-1.573,9.715-2.635
				c6.562-1.913,13.251-4.21,19.92-6.862c1.659-0.684,3.325-1.371,4.996-2.06c0.832-0.351,1.68-0.674,2.504-1.05l2.46-1.162
				c3.276-1.567,6.619-3.038,9.792-4.841l4.817-2.592c1.599-0.874,3.119-1.878,4.679-2.808c1.545-0.955,3.109-1.876,4.629-2.852
				c1.485-1.03,2.966-2.057,4.442-3.08c5.927-4.062,11.333-8.638,16.364-13.27c1.273-1.143,2.393-2.422,3.581-3.609
				c1.159-1.212,2.352-2.389,3.451-3.596c2.19-2.488,4.251-4.949,6.113-7.473c3.758-5.023,6.856-10.111,9.277-15.025
				c2.427-4.913,4.173-9.647,5.388-13.932c1.227-4.284,1.94-8.12,2.316-11.299c0.097-0.795,0.188-1.547,0.274-2.255
				c0.05-0.712,0.098-1.378,0.141-1.999c0.044-0.621,0.084-1.195,0.122-1.721c0.012-0.527,0.022-1.006,0.032-1.436
				c0.031-1.717,0.047-2.633,0.047-2.633s-0.003,0.916-0.008,2.634c-0.003,0.43-0.006,0.909-0.01,1.437
				c-0.029,0.527-0.061,1.103-0.096,1.725c-0.035,0.622-0.072,1.291-0.112,2.004c-0.076,0.71-0.156,1.465-0.241,2.263
				c-0.329,3.191-0.986,7.047-2.153,11.367c-1.156,4.32-2.838,9.105-5.206,14.085c-2.362,4.981-5.404,10.152-9.115,15.27
				c-1.838,2.572-3.898,5.107-6.039,7.614c-1.107,1.254-2.278,2.443-3.432,3.688c-1.179,1.215-2.292,2.523-3.557,3.694
				c-5.001,4.747-10.389,9.446-16.305,13.633c-1.473,1.055-2.953,2.113-4.436,3.175c-1.519,1.008-3.082,1.961-4.626,2.948
				c-1.56,0.962-3.081,1.999-4.68,2.905l-4.82,2.688c-3.177,1.868-6.525,3.403-9.81,5.035l-2.467,1.211
				c-0.826,0.392-1.675,0.731-2.51,1.098c-1.676,0.721-3.348,1.439-5.012,2.155c-6.693,2.778-13.412,5.199-20.01,7.231
				c-3.269,1.122-6.57,1.921-9.773,2.809c-1.606,0.427-3.187,0.881-4.763,1.272c-1.585,0.354-3.15,0.703-4.695,1.048
				c-6.157,1.494-12.077,2.399-17.515,3.389c-2.739,0.367-5.363,0.719-7.859,1.053c-1.249,0.165-2.465,0.326-3.648,0.483
				c-1.182,0.161-2.346,0.224-3.465,0.335c-2.244,0.198-4.343,0.384-6.285,0.555c-0.971,0.086-1.903,0.168-2.793,0.246
				c-0.888,0.065-1.729,0.085-2.531,0.126c-6.406,0.289-10.066,0.454-10.066,0.454c-0.971,0.044-1.794-0.708-1.838-1.679
				c-0.044-0.971,0.708-1.795,1.679-1.838C514.537,338.998,514.552,338.998,514.558,338.997z"/>
		</g>
		<g>
			<linearGradient id="SVGID_33_" gradientUnits="userSpaceOnUse" x1="410.5663" y1="307.2605" x2="331.0839" y2="307.2605">
				<stop  offset="0" style="stop-color:#39A6FF"/>
				<stop  offset="1" style="stop-color:#F648FF"/>
			</linearGradient>
			<path fill="url(#SVGID_33_)" d="M408.035,396.082c0,0-0.809-0.394-2.327-1.132c-1.513-0.716-3.752-1.865-6.574-3.347
				c-2.791-1.519-6.176-3.374-9.934-5.716c-3.767-2.324-7.949-5.066-12.31-8.338c-4.366-3.262-8.936-7.022-13.464-11.331
				c-4.524-4.311-8.975-9.206-13.097-14.646c-2.047-2.729-4.027-5.585-5.832-8.6c-1.848-2.989-3.493-6.151-5.004-9.401
				c-3.002-6.513-5.22-13.519-6.417-20.706c-0.604-3.593-0.897-7.229-1.004-10.85l-0.002-2.715
				c-0.016-0.968,0.093-1.805,0.133-2.712l0.169-2.667c0.034-0.444,0.042-0.886,0.098-1.331l0.19-1.337
				c0.858-7.145,2.71-13.971,5.357-20.239c2.615-6.275,5.892-11.99,9.396-17.119c1.872-2.479,3.59-4.968,5.533-7.153
				c0.955-1.104,1.83-2.245,2.804-3.263c0.966-1.024,1.914-2.029,2.843-3.013c0.908-1.005,1.879-1.906,2.819-2.797
				c0.938-0.892,1.854-1.763,2.748-2.612c1.843-1.636,3.639-3.134,5.301-4.569c1.734-1.347,3.357-2.608,4.858-3.773
				c1.504-1.161,2.969-2.113,4.248-3.034c2.549-1.855,4.693-3.103,6.102-4.03c1.424-0.906,2.183-1.389,2.183-1.389
				s-0.752,0.495-2.161,1.422c-1.395,0.948-3.518,2.227-6.036,4.12c-1.263,0.939-2.711,1.912-4.195,3.094
				c-1.48,1.186-3.08,2.469-4.79,3.839c-1.636,1.458-3.404,2.979-5.215,4.637c-0.877,0.86-1.777,1.742-2.698,2.644
				c-0.922,0.901-1.876,1.813-2.764,2.827c-0.909,0.993-1.837,2.007-2.783,3.041c-0.953,1.026-1.806,2.175-2.738,3.286
				c-1.898,2.2-3.564,4.699-5.384,7.184c-3.397,5.14-6.551,10.845-9.036,17.074c-2.516,6.204-4.237,13.007-4.963,19.945l-0.167,1.3
				c-0.049,0.435-0.05,0.885-0.078,1.327l-0.128,2.669c-0.026,0.875-0.124,1.819-0.09,2.641l0.043,2.658
				c0.16,3.543,0.499,7.093,1.144,10.594c1.277,7.003,3.546,13.806,6.574,20.12c1.525,3.15,3.177,6.213,5.028,9.106
				c1.807,2.919,3.786,5.68,5.828,8.318c4.113,5.258,8.541,9.982,13.038,14.138c4.501,4.154,9.038,7.772,13.37,10.907
				c4.327,3.145,8.475,5.774,12.208,8c3.724,2.244,7.08,4.015,9.843,5.466c2.777,1.404,4.959,2.484,6.507,3.188
				c1.528,0.715,2.344,1.096,2.344,1.096c0.881,0.412,1.261,1.46,0.849,2.341s-1.46,1.261-2.341,0.849
				C408.054,396.091,408.04,396.084,408.035,396.082z"/>
		</g>
	</g>
</g>
</svg>
