<svg xmlns="http://www.w3.org/2000/svg" xmlns:xlink="http://www.w3.org/1999/xlink" viewBox="0 0 2939.85 1583.51"><defs><style>.cls-1{isolation:isolate;}.cls-2{fill:#1e2834;}.cls-12,.cls-3{opacity:0.3;}.cls-3{fill:url(#linear-gradient);}.cls-13,.cls-4{opacity:0.1;}.cls-4{fill:url(#linear-gradient-2);}.cls-14,.cls-16,.cls-5,.cls-7{opacity:0.52;}.cls-5{fill:url(#linear-gradient-3);}.cls-6{fill:url(#linear-gradient-4);}.cls-7{fill:url(#linear-gradient-5);}.cls-8{fill:url(#linear-gradient-6);}.cls-9{fill:url(#linear-gradient-7);}.cls-10,.cls-11,.cls-19,.cls-20{opacity:0.22;mix-blend-mode:screen;}.cls-10{fill:url(#linear-gradient-8);}.cls-11{fill:url(#linear-gradient-9);}.cls-12{fill:url(#linear-gradient-10);}.cls-13{fill:url(#linear-gradient-11);}.cls-14{fill:url(#linear-gradient-12);}.cls-15{fill:url(#linear-gradient-13);}.cls-16{fill:url(#linear-gradient-14);}.cls-17{fill:url(#linear-gradient-15);}.cls-18{fill:url(#linear-gradient-16);}.cls-19{fill:url(#linear-gradient-17);}.cls-20{fill:url(#linear-gradient-18);}</style><linearGradient id="linear-gradient" x1="68.46" y1="701.17" x2="525.71" y2="283.49" gradientTransform="translate(-68.94)" gradientUnits="userSpaceOnUse"><stop offset="0" stop-color="#576670"/><stop offset="1" stop-color="#23283f" stop-opacity="0"/></linearGradient><linearGradient id="linear-gradient-2" x1="1047.19" y1="401.65" x2="1507.38" y2="-18.71" gradientTransform="translate(1715.43 1524.01) rotate(180)" gradientUnits="userSpaceOnUse"><stop offset="0" stop-color="#23283f" stop-opacity="0"/><stop offset="1" stop-color="#576670"/></linearGradient><linearGradient id="linear-gradient-3" x1="52.39" y1="222.18" x2="425.05" y2="-116.03" gradientUnits="userSpaceOnUse"><stop offset="0" stop-color="#23283f"/><stop offset="1" stop-color="#576670"/></linearGradient><linearGradient id="linear-gradient-4" x1="-10.06" y1="155" x2="226.68" y2="-59.85" xlink:href="#linear-gradient-3"/><linearGradient id="linear-gradient-5" x1="611.9" y1="328.52" x2="984.56" y2="-9.69" gradientTransform="translate(1874.32 867.5) rotate(180)" xlink:href="#linear-gradient-3"/><linearGradient id="linear-gradient-6" x1="1026.79" y1="857.49" x2="1335.28" y2="577.52" xlink:href="#linear-gradient-3"/><linearGradient id="linear-gradient-7" x1="-37.66" y1="360.77" x2="351.34" y2="5.44" xlink:href="#linear-gradient-3"/><linearGradient id="linear-gradient-8" x1="95.78" y1="355.72" x2="578.54" y2="-82.41" gradientUnits="userSpaceOnUse"><stop offset="0" stop-color="#23283f"/><stop offset="1" stop-color="#558987"/></linearGradient><linearGradient id="linear-gradient-9" x1="399.56" y1="354.11" x2="884.85" y2="-86.31" gradientTransform="translate(1604 795.52) rotate(180)" gradientUnits="userSpaceOnUse"><stop offset="0" stop-color="#558987"/><stop offset="1" stop-color="#23283f"/></linearGradient><linearGradient id="linear-gradient-10" x1="2286.96" y1="-446.21" x2="2744.22" y2="-863.89" xlink:href="#linear-gradient"/><linearGradient id="linear-gradient-11" x1="-1171.32" y1="1549.03" x2="-711.12" y2="1128.66" xlink:href="#linear-gradient-2"/><linearGradient id="linear-gradient-12" x1="1235.56" y1="224.18" x2="1608.23" y2="-114.03" xlink:href="#linear-gradient-3"/><linearGradient id="linear-gradient-13" x1="1173.12" y1="157" x2="1409.86" y2="-57.85" xlink:href="#linear-gradient-3"/><linearGradient id="linear-gradient-14" x1="20.97" y1="327.81" x2="393.63" y2="-10.39" gradientTransform="matrix(1, 0, 0, -1, 1300.54, 867.5)" xlink:href="#linear-gradient-3"/><linearGradient id="linear-gradient-15" x1="1617.71" y1="858.2" x2="1926.21" y2="578.23" gradientTransform="matrix(-1, 0, 0, 1, 3174.85, 0)" xlink:href="#linear-gradient-3"/><linearGradient id="linear-gradient-16" x1="1145.52" y1="362.77" x2="1534.52" y2="7.44" xlink:href="#linear-gradient-3"/><linearGradient id="linear-gradient-17" x1="1278.96" y1="357.72" x2="1761.72" y2="-80.41" xlink:href="#linear-gradient-8"/><linearGradient id="linear-gradient-18" x1="-191.37" y1="354.41" x2="293.92" y2="-86.01" gradientTransform="matrix(1, 0, 0, -1, 1570.85, 795.52)" xlink:href="#linear-gradient-9"/></defs><title>background-tech</title><g class="cls-1"><g id="Layer_1" data-name="Layer 1"><rect class="cls-2" y="837.49" width="1924" height="746.02"/><path class="cls-3" d="M154.42,736.46,629.7,303.87h-234L181.87,497.74A89.08,89.08,0,0,1,122,520.84H1.7V736.46Z" transform="translate(0 843.51)"/><polygon class="cls-4" points="246.07 1579.97 721.35 1147.38 562.05 1147.38 86.77 1579.97 246.07 1579.97"/><path class="cls-5" d="M594.34-.74,430.44,147.73a89.11,89.11,0,0,1-59.83,23.07H1.7V-.74Z" transform="translate(0 843.51)"/><path class="cls-6" d="M227.1-.74H1.7V170.8h96a89.11,89.11,0,0,0,59.83-23.07L321.4-.74Z" transform="translate(0 843.51)"/><path class="cls-7" d="M1291.81,736.46V614.85H966.43a89.16,89.16,0,0,0-59.83,23.07L797.83,736.46Z" transform="translate(0 843.51)"/><path class="cls-8" d="M1197.09,614.85a89.14,89.14,0,0,0-59.82,23.07l-108.78,98.54h263.32V614.85Z" transform="translate(0 843.51)"/><path class="cls-9" d="M1.7,431.86,477-.74H395.66L181.87,193.13A89.08,89.08,0,0,1,122,216.23H1.7Z" transform="translate(0 843.51)"/><path class="cls-10" d="M663.3-.77,462.71,180.7a137,137,0,0,1-92.1,35.51H1.7v41.64H381.28A179.51,179.51,0,0,0,502,211.29L736.39-.77Z" transform="translate(0 843.51)"/><path class="cls-11" d="M719,736.46,859.93,609A136.93,136.93,0,0,1,952,573.48h339.78V531.83H941.36A179.53,179.53,0,0,0,820.6,578.4L651.19,736.46Z" transform="translate(0 843.51)"/><path class="cls-12" d="M2372.93-410.91l475.27-432.6h-234L2400.38-649.64a89.13,89.13,0,0,1-59.87,23.1H2220.2v215.62Z" transform="translate(0 843.51)"/><polygon class="cls-13" points="2464.58 432.6 2939.85 0 2780.55 0 2305.28 432.6 2464.58 432.6"/><path class="cls-14" d="M1777.51,1.26l-163.9,148.47a89.09,89.09,0,0,1-59.83,23.07h-368.9V1.26Z" transform="translate(0 843.51)"/><path class="cls-15" d="M1410.28,1.26h-225.4V172.8h96a89.09,89.09,0,0,0,59.83-23.07L1504.57,1.26Z" transform="translate(0 843.51)"/><path class="cls-16" d="M1292.12,737.17V615.56h325.37a89.09,89.09,0,0,1,59.83,23.07l108.78,98.54Z" transform="translate(0 843.51)"/><path class="cls-17" d="M1386.83,615.56a89.11,89.11,0,0,1,59.83,23.07l108.78,98.54H1292.12V615.56Z" transform="translate(0 843.51)"/><path class="cls-18" d="M1184.88,433.86,1660.15,1.26h-81.32L1365.05,195.13a89.08,89.08,0,0,1-59.86,23.1H1184.88Z" transform="translate(0 843.51)"/><path class="cls-19" d="M1846.47,1.23,1645.89,182.7a137,137,0,0,1-92.11,35.51h-368.9v41.64h379.58a179.51,179.51,0,0,0,120.75-46.56L1919.57,1.23Z" transform="translate(0 843.51)"/><path class="cls-20" d="M1864.91,736.17,1724,608.69a137,137,0,0,0-92.1-35.51H1292.12V531.54h350.45a179.51,179.51,0,0,1,120.75,46.56l169.41,158.07Z" transform="translate(0 843.51)"/></g></g></svg>