<?xml version="1.0" encoding="utf-8"?>
<!-- Generator: Adobe Illustrator 17.0.0, SVG Export Plug-In . SVG Version: 6.00 Build 0)  -->
<!DOCTYPE svg PUBLIC "-//W3C//DTD SVG 1.1//EN" "http://www.w3.org/Graphics/SVG/1.1/DTD/svg11.dtd">
<svg version="1.1" id="Layer_1" xmlns="http://www.w3.org/2000/svg" xmlns:xlink="http://www.w3.org/1999/xlink" x="0px" y="0px"
	 width="41px" height="41px" viewBox="0 0 41 41" enable-background="new 0 0 41 41" xml:space="preserve">
<path fill="#0069FF" d="M38.469,1.833H2.448c-0.979,0-1.776,0.795-1.776,1.771v28.364c0,0.977,0.797,1.773,1.776,1.773h13.002
	c-0.013,0.538-0.051,1.036-0.111,1.455c-0.003,0.013-0.005,0.026-0.007,0.039l-0.013,0.089c-0.002,0.008-0.003,0.015-0.004,0.023
	l-0.002,0.017c-0.003,0.011-0.005,0.022-0.007,0.033c-0.041,0.247-0.093,0.469-0.153,0.658c-0.003,0.008-0.005,0.016-0.008,0.025
	l-0.023,0.066c0,0.001-0.001,0.002-0.001,0.003l-0.045,0.116l-0.009,0.019c-0.004,0.009-0.009,0.019-0.012,0.029
	c-0.003,0.007-0.006,0.013-0.009,0.02l-0.022,0.045c-0.001,0.002-0.002,0.003-0.003,0.005l-0.005,0.011
	c-0.003,0.006-0.006,0.013-0.009,0.019c-0.001,0.002-0.002,0.004-0.003,0.006l-0.007,0.011c-0.005,0.008-0.009,0.016-0.013,0.024
	l-0.005,0.008c-0.004,0.007-0.009,0.014-0.013,0.021l-0.038,0.056c-0.005,0.006-0.01,0.013-0.015,0.019
	c-0.001,0.001-0.002,0.002-0.002,0.003c-0.009,0.007-0.025,0.019-0.051,0.034c-0.044,0.027-0.1,0.054-0.162,0.079l-0.001,0
	c-0.007,0.002-0.014,0.005-0.02,0.008c-0.059,0.024-0.127,0.047-0.192,0.068l-0.004,0.001c-0.005,0.001-0.009,0.003-0.014,0.004
	c-0.012,0.004-0.024,0.008-0.036,0.012l-0.062,0.021c-0.009,0.002-0.018,0.005-0.027,0.008c-0.016,0.004-0.032,0.01-0.047,0.016
	c-0.014,0.004-0.027,0.008-0.04,0.013c-0.016,0.005-0.032,0.011-0.047,0.018c-0.304,0.108-0.609,0.213-0.884,0.305
	c-0.136,0.046-0.258,0.091-0.367,0.179c-0.012,0.01-0.028,0.024-0.04,0.036l-0.004,0.004c-0.001,0.001-0.002,0.002-0.002,0.002
	l-0.016,0.016c-0.013,0.013-0.024,0.026-0.035,0.04l-0.007,0.009c-0.008,0.011-0.016,0.022-0.024,0.033
	c-0.03,0.046-0.054,0.091-0.071,0.14c-0.003,0.009-0.006,0.017-0.009,0.026c-0.002,0.007-0.004,0.014-0.006,0.021
	c-0.003,0.008-0.005,0.017-0.007,0.026c-0.003,0.011-0.005,0.021-0.007,0.032l0,0.001c-0.002,0.01-0.004,0.02-0.006,0.03
	c-0.004,0.02-0.007,0.042-0.008,0.062c-0.002,0.012-0.003,0.024-0.004,0.036c-0.006,0.092-0.018,0.263,0.022,0.433
	c0.073,0.314,0.297,0.523,0.598,0.558c0.01,0.001,0.02,0.002,0.031,0.003c0.007,0.001,0.017,0.002,0.029,0.003
	c0.004,0,0.008,0.001,0.012,0.001c0.139,0.012,0.883,0.073,1.887,0.083c1.707,0.019,3.425,0.028,5.144,0.028
	c1.718,0,3.437-0.009,5.143-0.028c1.033-0.01,1.803-0.076,1.888-0.083c0.003,0,0.006-0.001,0.009-0.001
	c0.016-0.002,0.028-0.003,0.035-0.003c0.01-0.001,0.02-0.001,0.031-0.003c0.279-0.033,0.495-0.222,0.578-0.504l0.011-0.036
	c0.004-0.013,0.007-0.026,0.01-0.039c0.031-0.151,0.026-0.301,0.017-0.414c0-0.004-0.001-0.009-0.001-0.013l-0.002-0.018
	c-0.001-0.008-0.002-0.017-0.003-0.025c-0.003-0.029-0.008-0.058-0.016-0.086l-0.004-0.02c-0.003-0.014-0.006-0.027-0.011-0.041
	c-0.004-0.015-0.01-0.03-0.015-0.045c-0.008-0.019-0.018-0.041-0.028-0.06l-0.002-0.005l-0.004-0.007
	c-0.016-0.031-0.034-0.061-0.056-0.088c-0.022-0.027-0.045-0.052-0.071-0.074c-0.008-0.008-0.017-0.016-0.026-0.023
	c-0.114-0.095-0.245-0.14-0.375-0.185c-0.254-0.085-0.542-0.185-0.88-0.304l-0.002-0.001c-0.004-0.002-0.008-0.003-0.012-0.005
	c-0.022-0.009-0.044-0.017-0.068-0.023c-0.001,0-0.002-0.001-0.003-0.001c-0.006-0.002-0.012-0.004-0.018-0.006l-0.123-0.04
	c-0.012-0.005-0.025-0.009-0.037-0.013c-0.005-0.002-0.011-0.004-0.016-0.005c-0.079-0.026-0.187-0.062-0.28-0.104
	c-0.009-0.005-0.019-0.01-0.029-0.015c-0.069-0.033-0.104-0.059-0.117-0.07l-0.001-0.001c-0.001-0.001-0.003-0.003-0.004-0.004
	c0-0.001-0.001-0.001-0.001-0.002l-0.009-0.013c-0.004-0.005-0.007-0.01-0.011-0.015c-0.002-0.003-0.004-0.006-0.006-0.009
	l-0.014-0.021l-0.001-0.002c-0.005-0.009-0.011-0.018-0.017-0.026l-0.002-0.003c-0.004-0.007-0.008-0.015-0.013-0.022l-0.003-0.007
	c-0.004-0.008-0.009-0.017-0.013-0.025c-0.005-0.01-0.01-0.021-0.016-0.031l-0.023-0.046c-0.005-0.013-0.011-0.025-0.017-0.037
	l-0.02-0.049c-0.003-0.007-0.006-0.015-0.01-0.022l-0.003-0.009c-0.003-0.009-0.007-0.019-0.011-0.028
	c-0.001-0.004-0.003-0.008-0.004-0.011l-0.009-0.022c-0.002-0.005-0.004-0.01-0.005-0.016l-0.007-0.02
	c-0.004-0.013-0.008-0.026-0.013-0.038l-0.004-0.013c-0.002-0.006-0.004-0.013-0.006-0.019l-0.002-0.005
	c-0.003-0.011-0.007-0.021-0.01-0.032l-0.006-0.021c-0.001-0.003-0.002-0.006-0.003-0.009l-0.003-0.011
	c-0.002-0.005-0.003-0.01-0.005-0.016c-0.002-0.007-0.003-0.013-0.005-0.019l-0.032-0.116c0-0.002-0.001-0.004-0.001-0.005l0-0.002
	c-0.003-0.013-0.006-0.025-0.009-0.038l-0.007-0.03c-0.001-0.003-0.001-0.006-0.002-0.009l-0.004-0.018
	c-0.002-0.011-0.004-0.023-0.007-0.034c-0.008-0.034-0.017-0.071-0.024-0.107c0-0.002-0.001-0.004-0.001-0.006l-0.003-0.02
	c-0.001-0.004-0.001-0.007-0.002-0.011c-0.02-0.102-0.039-0.215-0.057-0.346c-0.002-0.013-0.004-0.026-0.007-0.039
	c-0.055-0.404-0.09-0.871-0.104-1.417h13.059c0.979,0,1.776-0.795,1.776-1.773V3.605C40.245,2.628,39.448,1.833,38.469,1.833z
	 M27.502,38.836c-0.012,0.001-0.02,0.001-0.024,0.001C27.486,38.837,27.494,38.837,27.502,38.836z M37.692,25.623H3.216V4.413
	h34.477V25.623z"/>
</svg>
