<?xml version="1.0" encoding="utf-8"?>
<!-- Generator: Adobe Illustrator 17.0.0, SVG Export Plug-In . SVG Version: 6.00 Build 0)  -->
<!DOCTYPE svg PUBLIC "-//W3C//DTD SVG 1.1//EN" "http://www.w3.org/Graphics/SVG/1.1/DTD/svg11.dtd">
<svg version="1.1" id="Layer_1" xmlns="http://www.w3.org/2000/svg" xmlns:xlink="http://www.w3.org/1999/xlink" x="0px" y="0px"
	 width="41px" height="41px" viewBox="0 0 41 41" enable-background="new 0 0 41 41" xml:space="preserve">
<g>
	<g>
		<path fill="#0069FF" d="M32.77,38.641c-0.19,0-0.378-0.066-0.528-0.194l-8.186-6.939H5.921c-3.096,0-5.614-2.533-5.614-5.645
			V9.749c0-3.113,2.518-5.645,5.614-5.645h29.158c3.096,0,5.614,2.533,5.614,5.645v16.113c0,3.113-2.518,5.645-5.614,5.645h-1.489
			v6.309c0,0.321-0.185,0.612-0.474,0.747C33.005,38.615,32.887,38.641,32.77,38.641z M5.921,5.752
			c-2.192,0-3.975,1.793-3.975,3.997v16.113c0,2.204,1.783,3.997,3.975,3.997h18.434c0.193,0,0.38,0.069,0.528,0.194l7.066,5.991
			v-5.361c0-0.455,0.367-0.824,0.82-0.824h2.309c2.192,0,3.975-1.793,3.975-3.997V9.749c0-2.204-1.783-3.997-3.975-3.997
			C35.079,5.752,5.921,5.752,5.921,5.752z"/>
	</g>
	<g>
		<g>
			<path fill="#0069FF" d="M33.701,13.334H7.299c-0.453,0-0.82-0.369-0.82-0.824c0-0.455,0.367-0.824,0.82-0.824h26.402
				c0.453,0,0.82,0.369,0.82,0.824C34.521,12.965,34.154,13.334,33.701,13.334z"/>
		</g>
		<g>
			<path fill="#0069FF" d="M33.701,18.611H7.299c-0.453,0-0.82-0.369-0.82-0.824c0-0.455,0.367-0.824,0.82-0.824h26.402
				c0.453,0,0.82,0.369,0.82,0.824C34.521,18.242,34.154,18.611,33.701,18.611z"/>
		</g>
		<g>
			<path fill="#0069FF" d="M33.701,23.889H7.299c-0.453,0-0.82-0.369-0.82-0.824c0-0.455,0.367-0.824,0.82-0.824h26.402
				c0.453,0,0.82,0.369,0.82,0.824C34.521,23.52,34.154,23.889,33.701,23.889z"/>
		</g>
	</g>
</g>
</svg>
