<?xml version="1.0" encoding="utf-8"?>
<!-- Generator: Adobe Illustrator 17.0.0, SVG Export Plug-In . SVG Version: 6.00 Build 0)  -->
<!DOCTYPE svg PUBLIC "-//W3C//DTD SVG 1.1//EN" "http://www.w3.org/Graphics/SVG/1.1/DTD/svg11.dtd">
<svg version="1.1" id="content" xmlns="http://www.w3.org/2000/svg" xmlns:xlink="http://www.w3.org/1999/xlink" x="0px" y="0px"
	 width="1050px" height="698px" viewBox="0 0 1050 698" enable-background="new 0 0 1050 698" xml:space="preserve">
<g>
	<linearGradient id="SVGID_1_" gradientUnits="userSpaceOnUse" x1="424.4321" y1="641.8745" x2="705.2018" y2="155.5671">
		<stop  offset="0" style="stop-color:#92D6F7"/>
		<stop  offset="0.1897" style="stop-color:#35BBFB"/>
		<stop  offset="0.1926" style="stop-color:#35B6FA"/>
		<stop  offset="0.2171" style="stop-color:#3390F1"/>
		<stop  offset="0.2426" style="stop-color:#3171EA"/>
		<stop  offset="0.2691" style="stop-color:#3059E5"/>
		<stop  offset="0.2969" style="stop-color:#2F47E1"/>
		<stop  offset="0.3271" style="stop-color:#2E3DDF"/>
		<stop  offset="0.3636" style="stop-color:#2E3ADE"/>
		<stop  offset="0.6324" style="stop-color:#14B1FD"/>
		<stop  offset="0.6761" style="stop-color:#1DB4FD"/>
		<stop  offset="0.7484" style="stop-color:#36BBFB"/>
		<stop  offset="0.8403" style="stop-color:#5FC7F9"/>
		<stop  offset="0.9473" style="stop-color:#98D8F6"/>
		<stop  offset="1" style="stop-color:#B6E1F5"/>
	</linearGradient>
	<path fill="url(#SVGID_1_)" d="M946.879,508.786l-53.195-30.713c-0.398-0.23-0.894-0.23-1.291,0l-14.108,8.144l-73.091-41.868l0,0
		L469.781,250.698c-0.397-0.233-0.892-0.233-1.291,0l-40.194,23.207l-12.675-7.433v-8.533l42.555-24.496
		c0.359-0.208,0.58-0.589,0.58-1.002V127.048c0-0.413-0.219-0.795-0.578-1c-0.352-0.203-0.792-0.205-1.153-0.002l-41.754,24.036
		v-10.268l42.905-24.697c0.359-0.208,0.58-0.589,0.58-1.002V13.948c0-0.413-0.219-0.795-0.578-1
		c-0.352-0.203-0.792-0.206-1.153-0.002l-90.917,52.335c-0.359,0.208-0.58,0.589-0.58,1.002v100.163c0,0.413,0.219,0.795,0.578,1
		c0.178,0.104,0.377,0.156,0.578,0.156c0.199,0,0.397-0.052,0.576-0.153l45.701-26.307v10.268l-46.852,26.97
		c-0.359,0.208-0.58,0.589-0.58,1.002v105.394c0,0.413,0.219,0.795,0.578,1c0.178,0.104,0.377,0.156,0.578,0.156
		c0.199,0,0.397-0.052,0.576-0.153l46.051-26.51v7.867c0,0.054,0.05,0.088,0.059,0.14c0.018,0.154,0.086,0.262,0.163,0.398
		c0.077,0.133,0.135,0.246,0.257,0.338c0.043,0.034,0.045,0.095,0.093,0.122l12.113,7.101l-118.79,68.584l-6.032-3.481l74.08-42.834
		c0.402-0.23,0.646-0.657,0.646-1.117s-0.246-0.887-0.646-1.115l-54.026-31.194c-0.402-0.232-0.894-0.232-1.291,0L119.4,380.03
		c-0.402,0.23-0.646,0.655-0.646,1.115s0.246,0.889,0.646,1.12l27.336,15.779l-12.388,6.993c-0.106,0.059-0.127,0.18-0.208,0.266
		c-0.083,0.081-0.21,0.099-0.271,0.203c-0.031,0.054,0,0.117-0.022,0.172c-0.068,0.158-0.063,0.303-0.066,0.474
		c-0.002,0.172-0.007,0.312,0.056,0.469c0.023,0.059-0.009,0.117,0.023,0.172c0.11,0.199,0.271,0.348,0.451,0.46
		c0.009,0,0.009,0.018,0.018,0.018l36.047,21.119l-55.875,32.311c-0.402,0.23-0.646,0.655-0.646,1.115s0.246,0.885,0.646,1.115
		l153.435,88.59c0.199,0.113,0.424,0.172,0.646,0.172c0.223,0,0.445-0.059,0.645-0.172l27.185-15.724l71.85,41.494l-24.447,14.112
		c-0.399,0.23-0.645,0.655-0.645,1.12c0,0.46,0.246,0.885,0.645,1.115l60.938,35.187c0.199,0.113,0.423,0.172,0.646,0.172
		c0.221,0,0.445-0.059,0.644-0.172l24.074-13.905l137.463,79.096l0,0c0.194,0.113,0.42,0.172,0.641,0.172
		c0.226,0,0.442-0.059,0.637-0.167h0.005l93.313-53.327l66.938,38.857c0.199,0.117,0.424,0.176,0.65,0.176
		c0.221,0,0.447-0.059,0.645-0.176l192.9-111.578c0.402-0.23,0.645-0.659,0.645-1.12s-0.248-0.885-0.645-1.115l-61.133-35.173
		l17.404-9.72l24.491,14.14c0.199,0.117,0.424,0.176,0.65,0.176c0.216,0,0.442-0.059,0.641-0.176l41.516-23.968
		c0.398-0.23,0.646-0.655,0.646-1.115C947.525,509.441,947.277,509.017,946.879,508.786z M367.839,164.449V66.951l88.606-51.004
		v97.497L367.839,164.449z M367.839,282.777V180.051l88.606-51.004v102.725L367.839,282.777z M307.282,346.749
		c0.117,0.036,0.235,0.099,0.354,0.099c0.445,0,0.881-0.234,1.117-0.645c0.059-0.104,0.014-0.217,0.043-0.325l160.338-92.574
		l332.83,192.162L572.339,578.041l-332.83-192.16L307.282,346.749z M122.621,381.145l197.959-114.463l51.451,29.704L174.072,410.852
		L122.621,381.145z M268.583,548.912l-150.86-87.096l110.156-63.696l150.858,87.096L268.583,548.912z M298.988,534.307
		l82.972-47.977c0.399-0.23,0.645-0.655,0.645-1.115s-0.248-0.889-0.645-1.12l-153.438-88.586c-0.4-0.235-0.894-0.226-1.289,0
		l-54.285,31.39l-35.377-20.722l11.761-6.636l24.094,13.914c0.201,0.113,0.424,0.172,0.645,0.172c0.224,0,0.447-0.059,0.646-0.172
		l123.879-71.633l6.029,3.481l-68.342,39.457c-0.398,0.23-0.644,0.655-0.644,1.12c0,0.46,0.246,0.885,0.644,1.115l258.066,148.995
		l-75.13,43.291l-26.553-15.332c-0.399-0.235-0.894-0.235-1.291,0l-20.532,11.85L298.988,534.307z M405.4,626.216l-58.36-33.693
		l24.435-14.108c0.002,0,0.005,0,0.007-0.005l20.539-11.86l26.563,15.336c0,0.005,0,0.005,0,0.005l31.794,18.356L405.4,626.216z
		 M920.08,566.858L729.763,676.946l-134.242-77.936L785.41,489.374l73.502,42.293h0.005L920.08,566.858z M859.567,529.066
		l-73.516-42.298c-0.398-0.23-0.889-0.23-1.287,0L592.298,597.892c-0.393,0.23-0.641,0.655-0.641,1.11
		c0,0.465,0.244,0.889,0.641,1.12l67.295,39.069l-91.371,52.22L432.7,613.435l20.905-12.072c0.397-0.23,0.646-0.655,0.646-1.115
		s-0.248-0.889-0.646-1.12l-31.801-18.356l75.13-43.29l74.76,43.164c0.199,0.117,0.424,0.176,0.645,0.176
		c0.221,0,0.442-0.059,0.646-0.176L804.547,446.95l71.155,40.762l-24.826,14.33c-0.397,0.23-0.641,0.655-0.641,1.119
		c0,0.461,0.244,0.885,0.641,1.116l26.099,15.065L859.567,529.066z M904.722,532.38l-50.618-29.219l38.934-22.482l50.618,29.223
		L904.722,532.38z"/>
	<g>
		<linearGradient id="SVGID_2_" gradientUnits="userSpaceOnUse" x1="373.8719" y1="93.4781" x2="445.494" y2="93.4781">
			<stop  offset="0" style="stop-color:#0CAFFD"/>
			<stop  offset="0.2052" style="stop-color:#1591F5"/>
			<stop  offset="0.5656" style="stop-color:#2262E9"/>
			<stop  offset="0.8423" style="stop-color:#2B45E1"/>
			<stop  offset="1" style="stop-color:#2E3ADE"/>
		</linearGradient>
		<path fill="url(#SVGID_2_)" d="M445.494,58.286c-4.438-2.684-10.113-3.097-16.46-1.031l-0.722,4.18
			c-2.063,0.619-4.23,1.598-6.501,2.889c-10.734,6.192-20.126,18.11-25.492,30.909l-2.736-0.569
			c-3.354,7.896-5.261,16.049-5.314,23.686c0,10.733,3.765,18.266,9.959,21.672l-14.449-9.031
			c-6.14-3.404-9.959-10.939-9.907-21.672c0-7.636,1.959-15.79,5.264-23.684l2.786,0.567c5.316-12.797,14.758-24.717,25.491-30.909
			c2.219-1.289,4.386-2.271,6.501-2.889l0.67-4.178c2.684-0.878,5.264-1.291,7.688-1.291c3.354,0,6.4,0.827,8.98,2.373h0.052
			c0.052,0.052,0.104,0.104,0.154,0.104L445.494,58.286z"/>
		<g>
			<path fill="#A4FBFF" d="M455.144,79.493l-2.58,1.6l-18.835,11.765l-12.022,7.483l6.605-38.907l0.722-4.18
				c6.347-2.066,12.022-1.653,16.46,1.031c0.26,0.052,0.517,0.208,0.723,0.465c0.258,0.102,0.517,0.309,0.774,0.515
				C451.997,62.981,455.092,69.947,455.144,79.493z"/>
			<path opacity="0.5" fill="#5A9DFF" d="M421.707,100.341l-19.814,33.437l-3.664,6.244c-6.194-3.406-9.959-10.939-9.959-21.672
				c0.052-7.636,1.96-15.79,5.314-23.686l2.736,0.569L421.707,100.341z"/>
			<path fill="#FFC017" d="M452.564,81.093v0.156c-0.052,19.659-13.932,43.498-30.961,53.356c-2.115,1.237-4.181,2.167-6.192,2.889
				l0.156-0.93l0.361-2.269l0.928-5.521l2.167-12.799l0.052-0.052l2.632-15.582l12.022-7.483L452.564,81.093z"/>
			<path fill="#F1F2F2" d="M428.312,61.435l-6.605,38.907l-25.388-5.108c5.366-12.799,14.758-24.717,25.492-30.909
				C424.081,63.033,426.249,62.053,428.312,61.435z"/>
			<path fill="#F1F2F2" d="M421.707,100.341l-2.632,15.582l-0.052,0.052l-2.167,12.799l-0.928,5.521
				c-1.343,0.463-2.632,0.772-3.871,0.98h-0.052c-3.767,0.618-7.223,0.104-10.061-1.445c0-0.052-0.052-0.052-0.052-0.052
				L421.707,100.341z"/>
		</g>
	</g>
	<g>
		<linearGradient id="SVGID_3_" gradientUnits="userSpaceOnUse" x1="381.4319" y1="216.7089" x2="447.4966" y2="216.7089">
			<stop  offset="0" style="stop-color:#0CAFFD"/>
			<stop  offset="0.2052" style="stop-color:#1591F5"/>
			<stop  offset="0.5656" style="stop-color:#2262E9"/>
			<stop  offset="0.8423" style="stop-color:#2B45E1"/>
			<stop  offset="1" style="stop-color:#2E3ADE"/>
		</linearGradient>
		<path fill="url(#SVGID_3_)" d="M436.506,231.089v-44.18l10.991-6.363l-9.978-6.002l-5.038,2.916v55.968l-11.016,6.339v-62.812
			l11.016-6.363l-4.217-2.531c-2.46-0.433-5.111-0.458-8.485,0.77c-1.277,0.458-2.507,1.014-3.688,1.616
			c-0.023,2.675-2.025,5.977-4.603,7.761v16.126l-4.025-2.435l-11.016,6.363v14.196l-4.025-2.411l-10.991,6.341v34.731l2.722,1.639
			c-1.589,1.422-2.722,3.519-2.722,5.255c0,0.964,0.362,1.639,0.939,1.978c0.072,0.047,0.144,0.095,0.216,0.144l9.305,5.494
			c-0.314-0.361-0.483-0.914-0.483-1.591c0-2.167,1.736-4.917,3.905-6.144c1.566-0.917,2.891-0.748,3.519,0.241l48.663-28.25
			l-4.339-2.628L436.506,231.089z M402.425,250.782l-11.016,6.339v-34.708l11.016-6.363V250.782z M417.44,242.104l-11.016,6.339
			v-44.18l11.016-6.341V242.104z"/>
		<linearGradient id="SVGID_4_" gradientUnits="userSpaceOnUse" x1="380.4668" y1="180.2205" x2="447.7629" y2="180.2205">
			<stop  offset="0" style="stop-color:#0CAFFD"/>
			<stop  offset="0.2052" style="stop-color:#1591F5"/>
			<stop  offset="0.5656" style="stop-color:#2262E9"/>
			<stop  offset="0.8423" style="stop-color:#2B45E1"/>
			<stop  offset="1" style="stop-color:#2E3ADE"/>
		</linearGradient>
		<path fill="url(#SVGID_4_)" d="M447.763,165.458c-0.242-0.072-0.506-0.049-0.723,0.095c-6.533,3.761-10.485,2.677-14.679,1.519
			c-3.736-1.011-7.594-2.072-13.232-0.047c-1.205,0.433-2.363,0.939-3.496,1.47c-0.82-1.325-2.625-1.542-4.747-0.314
			c-2.58,1.494-4.749,4.652-5.135,7.352c-9.086,8.652-13.738,20.174-15.255,24.465c-0.122,0.386,0,0.795,0.289,1.036l-9.883-5.93
			c-0.339-0.264-0.531-0.675-0.386-1.108c1.519-4.314,6.194-15.812,15.282-24.465c0.386-2.722,2.506-5.858,5.108-7.352
			c2.122-1.228,3.93-1.012,4.75,0.338c1.133-0.555,2.289-1.061,3.494-1.494c5.641-2.05,9.496-0.989,13.232,0.047
			c4.194,1.133,8.147,2.242,14.655-1.517c0.169-0.097,0.313-0.145,0.483-0.145c0.145,0,0.264,0.048,0.386,0.095l0.073,0.025
			c0.047,0.048,0.095,0.072,0.144,0.12L447.763,165.458z"/>
		<g opacity="0.7">
			<polygon fill="#FFFFFF" points="402.425,216.049 402.425,250.782 391.409,257.12 391.409,222.412 			"/>
			<polygon fill="#FFFFFF" points="417.44,197.922 417.44,242.104 406.425,248.443 406.425,204.263 			"/>
			<polygon fill="#FFFFFF" points="447.497,180.546 447.497,224.75 443.158,227.256 436.506,231.089 436.506,186.909 			"/>
			<polygon fill="#FFFFFF" points="432.481,170.591 432.481,233.428 421.465,239.766 421.465,176.954 			"/>
			<g>
				<path fill="#FFFFFF" d="M447.979,167.191c-7.207,4.172-11.738,2.942-16.126,1.713c-1.203-0.313-2.384-0.627-3.589-0.844
					c-2.46-0.433-5.111-0.458-8.485,0.77c-1.277,0.458-2.507,1.014-3.688,1.616c-1.639,0.82-3.158,1.759-4.603,2.797
					c-2.025,1.422-3.858,3.036-5.497,4.722c-8.074,8.219-12.268,18.656-13.69,22.681c-0.12,0.386-0.506,0.628-0.892,0.628
					c-0.095,0-0.216,0-0.313-0.05c-0.12-0.047-0.217-0.095-0.312-0.192c-0.289-0.241-0.411-0.65-0.289-1.036
					c1.517-4.291,6.169-15.812,15.255-24.465c2.844-2.747,6.124-5.183,9.882-7.038c1.133-0.531,2.291-1.036,3.496-1.47
					c5.639-2.025,9.496-0.964,13.232,0.047c4.194,1.158,8.147,2.242,14.679-1.519c0.217-0.144,0.481-0.167,0.723-0.095
					c0.025,0,0.072,0.023,0.097,0.048c0.192,0.047,0.384,0.192,0.481,0.386C448.607,166.35,448.438,166.952,447.979,167.191z"/>
			</g>
			<path fill="#FFFFFF" d="M416.091,170.374v0.072c-0.023,2.675-2.025,5.977-4.603,7.761c-0.194,0.145-0.386,0.264-0.603,0.386
				c-2.266,1.303-4.194,0.964-4.894-0.627c-0.144-0.289-0.241-0.625-0.264-1.012c-0.048-0.169-0.048-0.361-0.048-0.555
				c0-0.289,0.023-0.553,0.07-0.867c0.386-2.7,2.555-5.858,5.135-7.352c2.122-1.228,3.928-1.012,4.747,0.314
				C415.921,168.975,416.091,169.602,416.091,170.374z"/>
			<path fill="#FFFFFF" d="M447.497,229.884v3.808l-49.072,28.489c-0.7,1.422-1.808,2.749-3.11,3.496
				c-1.495,0.867-2.772,0.77-3.422-0.049c-0.314-0.361-0.483-0.914-0.483-1.591c0-2.167,1.736-4.917,3.905-6.144
				c1.566-0.917,2.891-0.748,3.519,0.241L447.497,229.884z"/>
		</g>
	</g>
	<g>
		<g>
			<path fill="#FFFFFF" d="M860.154,206.751L557.811,32.302c-1.196-0.729-2.461-0.824-3.562-0.314v-0.009l-7.567,2.91l3.869,3.936
				l-68.92,206.437c-1.185,4.027,0.831,7.813,6.203,10.618l302.654,173.196l-1.842,4.912l7.652-2.939l-0.009-0.009
				c1.336-0.434,2.438-1.752,3.224-3.869l66.522-208.888C867.698,212.292,865.011,209.362,860.154,206.751z"/>
			<path fill="#F1F2F2" d="M852.66,209.636c4.853,2.609,7.539,5.539,5.878,11.53l-66.522,208.886
				c-1.318,3.539-3.495,4.907-6.216,3.513L480.336,258.763c-5.375-2.806-7.388-6.591-6.203-10.618l69.931-209.466
				c0.953-3.851,3.761-5.011,6.248-3.494L852.66,209.636z"/>
			<path fill="#8191F7" d="M839.576,222.283l-59.724,187.589l-9.422-5.346l-81.782-46.798l-13.444-7.657l-3.354-1.914l-11.729-6.744
				l-9.174-5.269c-0.04,0-0.04,0-0.04,0l-19.467-11.128l-8.939-5.106l-4.429-2.553l-9.133-5.225l-11.408-6.544l-3.35-1.914
				l-13.25-7.58l-3.309-1.876l-73.606-42.128l-3.271-1.876l-7.259-4.106L556.041,58.76L839.576,222.283z"/>
			<linearGradient id="SVGID_5_" gradientUnits="userSpaceOnUse" x1="620.2383" y1="316.9488" x2="715.0389" y2="152.7495">
				<stop  offset="0" style="stop-color:#0CAFFD"/>
				<stop  offset="0.2052" style="stop-color:#1591F5"/>
				<stop  offset="0.5656" style="stop-color:#2262E9"/>
				<stop  offset="0.8423" style="stop-color:#2B45E1"/>
				<stop  offset="1" style="stop-color:#2E3ADE"/>
			</linearGradient>
			<path fill="url(#SVGID_5_)" d="M837.332,223.356l-58.486,183.722l-10.555-6.059l-80.098-45.832l-13.169-7.499l-3.278-1.878
				l-11.49-6.605l-8.984-5.156c-0.041,0-0.041,0-0.041,0l-19.07-10.9l-8.749-5.002l-4.339-2.499l-8.948-5.119l-11.174-6.408
				l-3.287-1.876l-12.97-7.422l-3.242-1.837l-72.091-41.261l-3.203-1.838l-8.402-4.806l61.268-183.487L837.332,223.356z"/>
			<path fill="#D1D3D4" d="M785.03,440.133L581.436,557.404c-3.413,1.964-8.975,1.964-12.379,0.018L263.565,382.603
				c-1.72-0.984-2.575-2.275-2.573-3.562l-0.02,7.065c-0.002,1.287,0.853,2.578,2.573,3.562l305.49,174.819
				c3.404,1.946,8.97,1.946,12.379-0.018l203.595-117.267c1.693-0.98,2.532-2.253,2.537-3.522l0.018-7.065
				C787.559,437.889,786.719,439.162,785.03,440.133z"/>
			<path fill="#F1F2F2" d="M784.99,433.045c3.404,1.945,3.449,5.124,0.04,7.088L581.436,557.404
				c-3.413,1.964-8.975,1.964-12.379,0.018L263.565,382.603c-3.433-1.964-3.424-5.142-0.011-7.106l203.593-117.269
				c3.411-1.964,8.919-1.964,12.352,0L784.99,433.045z"/>
			<polygon fill="#FFFFFF" points="493.922,277.332 477.561,286.754 461.121,277.348 477.482,267.924 			"/>
			<polygon fill="#FFFFFF" points="514.771,289.262 498.41,298.686 481.97,289.278 498.331,279.855 			"/>
			<polygon fill="#FFFFFF" points="535.621,301.194 519.261,310.618 502.794,301.194 519.154,291.77 			"/>
			<polygon fill="#FFFFFF" points="556.443,313.108 540.082,322.532 523.642,313.124 540.003,303.702 			"/>
			<polygon fill="#FFFFFF" points="577.291,325.042 560.935,334.464 544.493,325.056 560.854,315.632 			"/>
			<polygon fill="#FFFFFF" points="598.144,336.97 581.783,346.392 565.314,336.97 581.675,327.548 			"/>
			<polygon fill="#FFFFFF" points="618.992,348.902 602.632,358.328 586.167,348.902 602.523,339.48 			"/>
			<polygon fill="#FFFFFF" points="639.814,360.816 623.453,370.238 607.011,360.834 623.376,351.412 			"/>
			<polygon fill="#FFFFFF" points="660.667,372.748 644.301,382.174 627.837,372.748 644.198,363.326 			"/>
			<polygon fill="#FFFFFF" points="681.515,384.68 665.155,394.102 648.685,384.68 665.046,375.258 			"/>
			<polygon fill="#FFFFFF" points="702.337,396.594 685.976,406.021 669.534,396.612 685.894,387.186 			"/>
			<polygon fill="#FFFFFF" points="723.185,408.526 706.824,417.948 690.355,408.526 706.716,399.105 			"/>
			<polygon fill="#FFFFFF" points="744.038,420.458 727.673,429.881 711.208,420.458 727.569,411.032 			"/>
			<polygon fill="#FFFFFF" points="764.86,432.372 748.494,441.794 732.057,432.39 748.417,422.969 			"/>
			<polygon fill="#FFFFFF" points="465.221,293.862 448.86,303.286 432.42,293.878 448.781,284.456 			"/>
			<polygon fill="#FFFFFF" points="486.071,305.794 469.711,315.216 453.271,305.81 469.632,296.386 			"/>
			<polygon fill="#FFFFFF" points="506.92,317.726 490.559,327.146 474.092,317.726 490.453,308.302 			"/>
			<polygon fill="#FFFFFF" points="527.743,329.643 511.383,339.064 494.943,329.656 511.304,320.232 			"/>
			<polygon fill="#FFFFFF" points="548.592,341.57 532.231,350.992 515.791,341.588 532.152,332.167 			"/>
			<polygon fill="#FFFFFF" points="569.445,353.502 553.079,362.929 536.615,353.502 552.976,344.076 			"/>
			<polygon fill="#FFFFFF" points="590.289,365.435 573.933,374.856 557.463,365.435 573.824,356.013 			"/>
			<polygon fill="#FFFFFF" points="611.115,377.349 594.754,386.775 578.311,377.362 594.677,367.94 			"/>
			<polygon fill="#FFFFFF" points="631.963,389.281 615.602,398.702 599.133,389.281 615.498,379.859 			"/>
			<polygon fill="#FFFFFF" points="652.816,401.213 636.455,410.635 619.986,401.213 636.347,391.786 			"/>
			<polygon fill="#FFFFFF" points="694.486,425.059 678.125,434.481 661.655,425.059 678.016,415.632 			"/>
			<polygon fill="#FFFFFF" points="715.334,436.991 698.973,446.413 682.504,436.991 698.87,427.564 			"/>
			<polygon fill="#FFFFFF" points="736.156,448.905 719.795,458.327 703.357,448.918 719.718,439.497 			"/>
			<polygon fill="#FFFFFF" points="445.365,305.3 429.034,314.706 412.594,305.3 428.926,295.892 			"/>
			<polygon fill="#FFFFFF" points="466.216,317.23 449.882,326.64 433.445,317.23 449.776,307.823 			"/>
			<polygon fill="#FFFFFF" points="487.067,329.164 470.733,338.568 454.266,329.146 470.598,319.738 			"/>
			<polygon fill="#FFFFFF" points="507.888,341.074 491.554,350.487 475.114,341.074 491.448,331.67 			"/>
			<polygon fill="#FFFFFF" points="528.737,353.01 512.405,362.414 495.965,353.01 512.299,343.597 			"/>
			<polygon fill="#FFFFFF" points="549.585,364.938 533.254,374.346 516.786,364.92 533.12,355.516 			"/>
			<polygon fill="#FFFFFF" points="570.438,376.87 554.104,386.278 537.637,376.857 553.969,367.443 			"/>
			<polygon fill="#FFFFFF" points="591.259,388.784 574.926,398.192 558.488,388.784 574.822,379.38 			"/>
			<polygon fill="#FFFFFF" points="612.113,400.716 595.778,410.124 579.309,400.703 595.643,391.294 			"/>
			<polygon fill="#FFFFFF" points="632.956,412.648 616.627,422.057 600.158,412.63 616.491,403.226 			"/>
			<polygon fill="#FFFFFF" points="674.631,436.494 658.297,445.903 641.832,436.476 658.166,427.073 			"/>
			<polygon fill="#FFFFFF" points="695.479,448.426 679.145,457.835 662.68,448.408 679.01,439 			"/>
			<polygon fill="#FFFFFF" points="716.301,460.34 699.967,469.749 683.529,460.34 699.863,450.932 			"/>
			<polygon fill="#FFFFFF" points="425.513,316.736 409.179,326.144 392.739,316.736 409.072,307.327 			"/>
			<polygon fill="#FFFFFF" points="446.361,328.667 430.029,338.076 413.59,328.667 429.921,319.259 			"/>
			<polygon fill="#FFFFFF" points="467.212,340.6 450.878,350.004 434.411,340.582 450.745,331.173 			"/>
			<polygon fill="#FFFFFF" points="488.033,352.514 471.699,361.922 455.262,352.514 471.593,343.105 			"/>
			<polygon fill="#FFFFFF" points="508.884,364.446 492.55,373.854 476.11,364.446 492.444,355.037 			"/>
			<polygon fill="#FFFFFF" points="529.732,376.374 513.401,385.782 496.931,376.36 513.265,366.951 			"/>
			<polygon fill="#FFFFFF" points="550.583,388.305 534.249,397.714 517.782,388.287 534.116,378.883 			"/>
			<polygon fill="#FFFFFF" points="571.404,400.224 555.07,409.628 538.633,400.224 554.962,390.816 			"/>
			<polygon fill="#FFFFFF" points="405.684,328.158 389.326,337.58 372.884,328.171 389.245,318.749 			"/>
			<polygon fill="#FFFFFF" points="426.535,340.085 410.174,349.511 393.734,340.103 410.095,330.681 			"/>
			<polygon fill="#FFFFFF" points="447.383,352.017 431.023,361.444 414.556,352.017 430.916,342.595 			"/>
			<polygon fill="#FFFFFF" points="468.207,363.931 451.846,373.358 435.406,363.949 451.767,354.527 			"/>
			<polygon fill="#FFFFFF" points="489.056,375.863 472.695,385.29 456.255,375.881 472.616,366.455 			"/>
			<polygon fill="#FFFFFF" points="509.906,387.795 493.545,397.217 477.078,387.795 493.439,378.373 			"/>
			<polygon fill="#FFFFFF" points="530.755,399.727 514.396,409.149 497.927,399.727 514.288,390.301 			"/>
			<polygon fill="#FFFFFF" points="551.576,411.642 535.217,421.064 518.777,411.66 535.138,402.238 			"/>
			<polygon fill="#FFFFFF" points="592.253,412.151 575.919,421.56 559.454,412.138 575.788,402.729 			"/>
			<polygon fill="#FFFFFF" points="613.101,424.084 593.277,435.506 579.44,443.474 576.917,444.928 539.599,423.573 
				555.96,414.147 576.808,426.079 596.636,414.662 			"/>
			<polygon fill="#FFFFFF" points="654.776,447.93 638.446,457.338 621.977,447.916 638.31,438.503 			"/>
			<polygon fill="#FFFFFF" points="675.624,459.862 659.29,469.27 642.825,459.844 659.159,450.44 			"/>
			<polygon fill="#FFFFFF" points="696.445,471.776 680.111,481.184 663.674,471.776 680.008,462.367 			"/>
			<polygon fill="#FFFFFF" points="634.952,459.352 618.586,468.774 602.121,459.352 618.483,449.925 			"/>
			<polygon fill="#FFFFFF" points="655.8,471.28 639.439,480.706 622.97,471.28 639.331,461.857 			"/>
			<polygon fill="#FFFFFF" points="676.622,483.198 660.261,492.62 643.819,483.211 660.179,473.789 			"/>
			<polygon fill="#FFFFFF" points="406.68,351.525 390.348,360.929 353.058,339.593 369.391,330.185 			"/>
			<polygon fill="#FFFFFF" points="427.531,363.452 411.197,372.861 394.73,363.439 411.061,354.031 			"/>
			<polygon fill="#FFFFFF" points="448.352,375.371 432.018,384.775 415.578,375.371 431.912,365.963 			"/>
			<polygon fill="#FFFFFF" points="469.2,387.298 452.869,396.707 436.429,387.298 452.763,377.895 			"/>
			<polygon fill="#FFFFFF" points="490.051,399.231 473.717,408.639 457.25,399.217 473.584,389.809 			"/>
			<polygon fill="#FFFFFF" points="510.902,411.163 494.568,420.571 478.101,411.145 494.432,401.741 			"/>
			<polygon fill="#FFFFFF" points="573.422,446.941 557.088,456.35 498.949,423.082 515.283,413.668 			"/>
			<polygon fill="#FFFFFF" points="615.097,470.787 598.763,480.196 582.294,470.769 598.627,461.361 			"/>
			<polygon fill="#FFFFFF" points="635.945,482.719 619.611,492.123 603.142,482.701 619.476,473.297 			"/>
			<polygon fill="#FFFFFF" points="656.766,494.633 640.432,504.042 623.995,494.633 640.329,485.225 			"/>
			<polygon fill="#FFFFFF" points="366.003,351.01 349.643,360.432 333.202,351.028 349.564,341.607 			"/>
			<polygon fill="#FFFFFF" points="386.854,362.942 370.493,372.369 354.053,362.956 370.414,353.534 			"/>
			<polygon fill="#FFFFFF" points="511.897,434.499 495.536,443.921 374.875,374.874 391.235,365.453 			"/>
			<polygon fill="#FFFFFF" points="532.746,446.431 516.385,455.853 499.918,446.431 516.279,437.009 			"/>
			<polygon fill="#FFFFFF" points="553.594,458.358 537.235,467.785 520.768,458.358 537.127,448.937 			"/>
			<polygon fill="#FFFFFF" points="595.268,482.204 578.907,491.631 562.438,482.204 578.799,472.783 			"/>
			<polygon fill="#FFFFFF" points="616.117,494.141 599.756,503.563 583.291,494.141 599.652,484.715 			"/>
			<g>
				<polygon fill="#E6E7E8" points="493.922,277.332 493.916,279.097 477.557,288.521 477.561,286.754 				"/>
				<polygon fill="#E6E7E8" points="477.561,286.754 477.557,288.521 461.117,279.113 461.121,277.348 				"/>
				<polygon fill="#E6E7E8" points="514.771,289.262 514.766,291.029 498.405,300.451 498.41,298.686 				"/>
				<polygon fill="#E6E7E8" points="498.41,298.686 498.405,300.451 481.965,291.045 481.97,289.278 				"/>
				<polygon fill="#E6E7E8" points="535.621,301.194 535.617,302.959 519.256,312.384 519.261,310.618 				"/>
				<polygon fill="#E6E7E8" points="519.261,310.618 519.256,312.384 502.787,302.959 502.794,301.194 				"/>
				<polygon fill="#E6E7E8" points="556.443,313.108 556.438,314.875 540.077,324.297 540.082,322.532 				"/>
				<polygon fill="#E6E7E8" points="540.082,322.532 540.077,324.297 523.637,314.891 523.642,313.124 				"/>
				<polygon fill="#E6E7E8" points="577.291,325.042 577.286,326.808 560.93,336.23 560.935,334.464 				"/>
				<polygon fill="#E6E7E8" points="560.935,334.464 560.93,336.23 544.488,326.821 544.493,325.056 				"/>
				<polygon fill="#E6E7E8" points="598.144,336.97 598.135,338.735 581.774,348.161 581.783,346.392 				"/>
				<polygon fill="#E6E7E8" points="581.783,346.392 581.774,348.161 565.309,338.735 565.314,336.97 				"/>
				<polygon fill="#E6E7E8" points="618.992,348.902 618.988,350.667 602.627,360.094 602.632,358.328 				"/>
				<polygon fill="#E6E7E8" points="602.632,358.328 602.627,360.094 586.163,350.667 586.167,348.902 				"/>
				<polygon fill="#E6E7E8" points="639.814,360.816 639.81,362.586 623.449,372.008 623.453,370.238 				"/>
				<polygon fill="#E6E7E8" points="623.453,370.238 623.449,372.008 607.007,362.599 607.011,360.834 				"/>
				<polygon fill="#E6E7E8" points="660.667,372.748 660.658,374.513 644.301,383.94 644.301,382.174 				"/>
				<polygon fill="#E6E7E8" points="644.301,382.174 644.301,383.94 627.832,374.513 627.837,372.748 				"/>
				<polygon fill="#E6E7E8" points="681.515,384.68 681.511,386.446 665.145,395.868 665.155,394.102 				"/>
				<polygon fill="#E6E7E8" points="665.155,394.102 665.145,395.868 648.681,386.446 648.685,384.68 				"/>
				<polygon fill="#E6E7E8" points="702.337,396.594 702.332,398.359 685.967,407.786 685.976,406.021 				"/>
				<polygon fill="#E6E7E8" points="685.976,406.021 685.967,407.786 669.534,398.377 669.534,396.612 				"/>
				<polygon fill="#E6E7E8" points="723.185,408.526 723.18,410.292 706.82,419.714 706.824,417.948 				"/>
				<polygon fill="#E6E7E8" points="706.824,417.948 706.82,419.714 690.355,410.292 690.355,408.526 				"/>
				<polygon fill="#E6E7E8" points="744.038,420.458 744.034,422.224 727.668,431.646 727.673,429.881 				"/>
				<polygon fill="#E6E7E8" points="727.673,429.881 727.668,431.646 711.203,422.224 711.208,420.458 				"/>
				<polygon fill="#E6E7E8" points="764.86,432.372 764.85,434.142 748.49,443.564 748.494,441.794 				"/>
				<polygon fill="#E6E7E8" points="748.494,441.794 748.49,443.564 732.052,434.156 732.057,432.39 				"/>
				<polygon fill="#E6E7E8" points="465.221,293.862 465.216,295.629 448.855,305.052 448.86,303.286 				"/>
				<polygon fill="#E6E7E8" points="448.86,303.286 448.855,305.052 432.415,295.646 432.42,293.878 				"/>
				<polygon fill="#E6E7E8" points="486.071,305.794 486.067,307.559 469.706,316.984 469.711,315.216 				"/>
				<polygon fill="#E6E7E8" points="469.711,315.216 469.706,316.984 453.266,307.575 453.271,305.81 				"/>
				<polygon fill="#E6E7E8" points="506.92,317.726 506.915,319.492 490.554,328.916 490.559,327.146 				"/>
				<polygon fill="#E6E7E8" points="490.559,327.146 490.554,328.916 474.087,319.492 474.092,317.726 				"/>
				<polygon fill="#E6E7E8" points="527.743,329.643 527.737,331.403 511.376,340.83 511.383,339.064 				"/>
				<polygon fill="#E6E7E8" points="511.383,339.064 511.376,340.83 494.938,331.421 494.943,329.656 				"/>
				<polygon fill="#E6E7E8" points="548.592,341.57 548.587,343.34 532.227,352.762 532.231,350.992 				"/>
				<polygon fill="#E6E7E8" points="532.231,350.992 532.227,352.762 515.787,343.354 515.791,341.588 				"/>
				<polygon fill="#E6E7E8" points="569.445,353.502 569.44,355.267 553.075,364.689 553.079,362.929 				"/>
				<polygon fill="#E6E7E8" points="553.079,362.929 553.075,364.689 536.608,355.267 536.615,353.502 				"/>
				<polygon fill="#E6E7E8" points="590.289,365.435 590.289,367.2 573.928,376.626 573.933,374.856 				"/>
				<polygon fill="#E6E7E8" points="573.933,374.856 573.928,376.626 557.459,367.2 557.463,365.435 				"/>
				<polygon fill="#E6E7E8" points="611.115,377.349 611.11,379.114 594.745,388.536 594.754,386.775 				"/>
				<polygon fill="#E6E7E8" points="594.754,386.775 594.745,388.536 578.307,379.132 578.311,377.362 				"/>
				<polygon fill="#E6E7E8" points="631.963,389.281 631.958,391.046 615.598,400.473 615.602,398.702 				"/>
				<polygon fill="#E6E7E8" points="615.602,398.702 615.598,400.473 599.129,391.046 599.133,389.281 				"/>
				<polygon fill="#E6E7E8" points="652.816,401.213 652.812,402.978 636.446,412.4 636.455,410.635 				"/>
				<polygon fill="#E6E7E8" points="636.455,410.635 636.446,412.4 619.977,402.978 619.986,401.213 				"/>
				<polygon fill="#E6E7E8" points="694.486,425.059 694.481,426.824 678.121,436.246 678.125,434.481 				"/>
				<polygon fill="#E6E7E8" points="678.125,434.481 678.121,436.246 661.651,426.824 661.655,425.059 				"/>
				<polygon fill="#E6E7E8" points="715.334,436.991 715.33,438.756 698.969,448.178 698.973,446.413 				"/>
				<polygon fill="#E6E7E8" points="698.973,446.413 698.969,448.178 682.499,438.756 682.504,436.991 				"/>
				<polygon fill="#E6E7E8" points="736.156,448.905 736.151,450.67 719.79,460.092 719.795,458.327 				"/>
				<polygon fill="#E6E7E8" points="719.795,458.327 719.79,460.092 703.353,450.688 703.357,448.918 				"/>
				<polygon fill="#E6E7E8" points="445.365,305.3 445.361,307.065 429.029,316.473 429.034,314.706 				"/>
				<polygon fill="#E6E7E8" points="429.034,314.706 429.029,316.473 412.59,307.065 412.594,305.3 				"/>
				<polygon fill="#E6E7E8" points="466.216,317.23 466.212,318.995 449.878,328.406 449.882,326.64 				"/>
				<polygon fill="#E6E7E8" points="449.882,326.64 449.878,328.406 433.438,318.997 433.445,317.23 				"/>
				<polygon fill="#E6E7E8" points="487.067,329.164 487.06,330.929 470.729,340.338 470.733,338.568 				"/>
				<polygon fill="#E6E7E8" points="470.733,338.568 470.729,340.338 454.259,330.911 454.266,329.146 				"/>
				<polygon fill="#E6E7E8" points="507.888,341.074 507.884,342.843 491.55,352.252 491.554,350.487 				"/>
				<polygon fill="#E6E7E8" points="491.554,350.487 491.55,352.252 475.11,342.843 475.114,341.074 				"/>
				<polygon fill="#E6E7E8" points="528.737,353.01 528.732,354.771 512.401,364.184 512.405,362.414 				"/>
				<polygon fill="#E6E7E8" points="512.405,362.414 512.401,364.184 495.961,354.771 495.965,353.01 				"/>
				<polygon fill="#E6E7E8" points="549.585,364.938 549.585,366.707 533.249,376.111 533.254,374.346 				"/>
				<polygon fill="#E6E7E8" points="533.254,374.346 533.249,376.111 516.782,366.689 516.786,364.92 				"/>
				<polygon fill="#E6E7E8" points="570.438,376.87 570.429,378.635 554.1,388.044 554.104,386.278 				"/>
				<polygon fill="#E6E7E8" points="554.104,386.278 554.1,388.044 537.63,378.617 537.637,376.857 				"/>
				<polygon fill="#E6E7E8" points="591.259,388.784 591.255,390.554 574.921,399.958 574.926,398.192 				"/>
				<polygon fill="#E6E7E8" points="574.926,398.192 574.921,399.958 558.484,390.554 558.488,388.784 				"/>
				<polygon fill="#E6E7E8" points="612.113,400.716 612.103,402.481 595.774,411.89 595.778,410.124 				"/>
				<polygon fill="#E6E7E8" points="595.778,410.124 595.774,411.89 579.305,402.463 579.309,400.703 				"/>
				<polygon fill="#E6E7E8" points="632.956,412.648 632.956,414.414 616.618,423.822 616.627,422.057 				"/>
				<polygon fill="#E6E7E8" points="616.627,422.057 616.618,423.822 600.153,414.4 600.158,412.63 				"/>
				<polygon fill="#E6E7E8" points="674.631,436.494 674.626,438.26 658.292,447.668 658.297,445.903 				"/>
				<polygon fill="#E6E7E8" points="658.297,445.903 658.292,447.668 641.828,438.246 641.832,436.476 				"/>
				<polygon fill="#E6E7E8" points="695.479,448.426 695.475,450.191 679.145,459.6 679.145,457.835 				"/>
				<polygon fill="#E6E7E8" points="679.145,457.835 679.145,459.6 662.676,450.173 662.68,448.408 				"/>
				<polygon fill="#E6E7E8" points="716.301,460.34 716.301,462.106 699.967,471.514 699.967,469.749 				"/>
				<polygon fill="#E6E7E8" points="699.967,469.749 699.967,471.514 683.524,462.106 683.529,460.34 				"/>
				<polygon fill="#E6E7E8" points="425.513,316.736 425.506,318.501 409.174,327.909 409.179,326.144 				"/>
				<polygon fill="#E6E7E8" points="409.179,326.144 409.174,327.909 392.734,318.501 392.739,316.736 				"/>
				<polygon fill="#E6E7E8" points="446.361,328.667 446.357,330.433 430.023,339.841 430.029,338.076 				"/>
				<polygon fill="#E6E7E8" points="430.029,338.076 430.023,339.841 413.585,330.433 413.59,328.667 				"/>
				<polygon fill="#E6E7E8" points="467.212,340.6 467.207,342.36 450.873,351.773 450.878,350.004 				"/>
				<polygon fill="#E6E7E8" points="450.878,350.004 450.873,351.773 434.406,342.347 434.411,340.582 				"/>
				<polygon fill="#E6E7E8" points="488.033,352.514 488.029,354.279 471.695,363.687 471.699,361.922 				"/>
				<polygon fill="#E6E7E8" points="471.699,361.922 471.695,363.687 455.255,354.279 455.262,352.514 				"/>
				<polygon fill="#E6E7E8" points="508.884,364.446 508.877,366.211 492.545,375.62 492.55,373.854 				"/>
				<polygon fill="#E6E7E8" points="492.55,373.854 492.545,375.62 476.105,366.211 476.11,364.446 				"/>
				<polygon fill="#E6E7E8" points="529.732,376.374 529.728,378.143 513.394,387.547 513.401,385.782 				"/>
				<polygon fill="#E6E7E8" points="513.401,385.782 513.394,387.547 496.927,378.125 496.931,376.36 				"/>
				<polygon fill="#E6E7E8" points="550.583,388.305 550.578,390.071 534.245,399.479 534.249,397.714 				"/>
				<polygon fill="#E6E7E8" points="534.249,397.714 534.245,399.479 517.777,390.057 517.782,388.287 				"/>
				<polygon fill="#E6E7E8" points="571.404,400.224 571.4,401.989 555.066,411.393 555.07,409.628 				"/>
				<polygon fill="#E6E7E8" points="555.07,409.628 555.066,411.393 538.626,401.989 538.633,400.224 				"/>
				<polygon fill="#E6E7E8" points="405.684,328.158 405.68,329.918 389.319,339.345 389.326,337.58 				"/>
				<polygon fill="#E6E7E8" points="389.326,337.58 389.319,339.345 372.879,329.936 372.884,328.171 				"/>
				<polygon fill="#E6E7E8" points="426.535,340.085 426.531,341.855 410.169,351.277 410.174,349.511 				"/>
				<polygon fill="#E6E7E8" points="410.174,349.511 410.169,351.277 393.73,341.868 393.734,340.103 				"/>
				<polygon fill="#E6E7E8" points="447.383,352.017 447.379,353.782 431.018,363.209 431.023,361.444 				"/>
				<polygon fill="#E6E7E8" points="431.023,361.444 431.018,363.209 414.551,353.782 414.556,352.017 				"/>
				<polygon fill="#E6E7E8" points="468.207,363.931 468.2,365.701 451.839,375.123 451.846,373.358 				"/>
				<polygon fill="#E6E7E8" points="451.846,373.358 451.839,375.123 435.402,365.714 435.406,363.949 				"/>
				<polygon fill="#E6E7E8" points="489.056,375.863 489.051,377.628 472.69,387.055 472.695,385.29 				"/>
				<polygon fill="#E6E7E8" points="472.695,385.29 472.69,387.055 456.25,377.647 456.255,375.881 				"/>
				<polygon fill="#E6E7E8" points="509.906,387.795 509.902,389.561 493.541,398.987 493.545,397.217 				"/>
				<polygon fill="#E6E7E8" points="493.545,397.217 493.541,398.987 477.072,389.561 477.078,387.795 				"/>
				<polygon fill="#E6E7E8" points="530.755,399.727 530.75,401.493 514.389,410.914 514.396,409.149 				"/>
				<polygon fill="#E6E7E8" points="514.396,409.149 514.389,410.914 497.922,401.493 497.927,399.727 				"/>
				<polygon fill="#E6E7E8" points="551.576,411.642 551.571,413.411 535.211,422.833 535.217,421.064 				"/>
				<polygon fill="#E6E7E8" points="535.217,421.064 535.211,422.833 518.773,413.425 518.777,411.66 				"/>
				<polygon fill="#E6E7E8" points="592.253,412.151 592.248,413.917 575.919,423.33 575.919,421.56 				"/>
				<polygon fill="#E6E7E8" points="575.919,421.56 575.919,423.33 559.45,413.903 559.454,412.138 				"/>
				<polygon fill="#E6E7E8" points="613.101,424.084 613.096,425.849 593.273,437.271 593.277,435.506 				"/>
				<polygon fill="#E6E7E8" points="593.277,435.506 593.273,437.271 579.436,445.239 579.44,443.474 				"/>
				<polygon fill="#E6E7E8" points="579.44,443.474 579.436,445.239 576.912,446.697 576.917,444.928 				"/>
				<polygon fill="#E6E7E8" points="576.917,444.928 576.912,446.697 539.594,425.339 539.599,423.573 				"/>
				<polygon fill="#E6E7E8" points="654.776,447.93 654.771,449.695 638.437,459.104 638.446,457.338 				"/>
				<polygon fill="#E6E7E8" points="638.446,457.338 638.437,459.104 621.972,449.682 621.977,447.916 				"/>
				<polygon fill="#E6E7E8" points="675.624,459.862 675.62,461.627 659.286,471.035 659.29,469.27 				"/>
				<polygon fill="#E6E7E8" points="659.29,469.27 659.286,471.035 642.821,461.609 642.825,459.844 				"/>
				<polygon fill="#E6E7E8" points="696.445,471.776 696.445,473.541 680.107,482.95 680.111,481.184 				"/>
				<polygon fill="#E6E7E8" points="680.111,481.184 680.107,482.95 663.669,473.541 663.674,471.776 				"/>
				<polygon fill="#E6E7E8" points="634.952,459.352 634.943,461.117 618.582,470.544 618.586,468.774 				"/>
				<polygon fill="#E6E7E8" points="618.586,468.774 618.582,470.544 602.117,461.117 602.121,459.352 				"/>
				<polygon fill="#E6E7E8" points="655.8,471.28 655.796,473.049 639.43,482.471 639.439,480.706 				"/>
				<polygon fill="#E6E7E8" points="639.439,480.706 639.43,482.471 622.965,473.049 622.97,471.28 				"/>
				<polygon fill="#E6E7E8" points="676.622,483.198 676.617,484.963 660.251,494.39 660.261,492.62 				"/>
				<polygon fill="#E6E7E8" points="660.261,492.62 660.251,494.39 643.814,484.976 643.819,483.211 				"/>
				<polygon fill="#E6E7E8" points="406.68,351.525 406.675,353.286 390.342,362.699 390.348,360.929 				"/>
				<polygon fill="#E6E7E8" points="390.348,360.929 390.342,362.699 353.053,341.358 353.058,339.593 				"/>
				<polygon fill="#E6E7E8" points="427.531,363.452 427.526,365.223 411.192,374.626 411.197,372.861 				"/>
				<polygon fill="#E6E7E8" points="411.197,372.861 411.192,374.626 394.725,365.204 394.73,363.439 				"/>
				<polygon fill="#E6E7E8" points="448.352,375.371 448.347,377.136 432.013,386.545 432.018,384.775 				"/>
				<polygon fill="#E6E7E8" points="432.018,384.775 432.013,386.545 415.574,377.136 415.578,375.371 				"/>
				<polygon fill="#E6E7E8" points="469.2,387.298 469.196,389.069 452.864,398.472 452.869,396.707 				"/>
				<polygon fill="#E6E7E8" points="452.869,396.707 452.864,398.472 436.424,389.069 436.429,387.298 				"/>
				<polygon fill="#E6E7E8" points="490.051,399.231 490.047,400.996 473.713,410.404 473.717,408.639 				"/>
				<polygon fill="#E6E7E8" points="473.717,408.639 473.713,410.404 457.246,400.982 457.25,399.217 				"/>
				<polygon fill="#E6E7E8" points="510.902,411.163 510.895,412.928 494.563,422.336 494.568,420.571 				"/>
				<polygon fill="#E6E7E8" points="494.568,420.571 494.563,422.336 478.096,412.915 478.101,411.145 				"/>
				<polygon fill="#E6E7E8" points="573.422,446.941 573.418,448.706 557.084,458.115 557.088,456.35 				"/>
				<polygon fill="#E6E7E8" points="557.088,456.35 557.084,458.115 498.945,424.842 498.949,423.082 				"/>
				<polygon fill="#E6E7E8" points="615.097,470.787 615.092,472.552 598.758,481.961 598.763,480.196 				"/>
				<polygon fill="#E6E7E8" points="598.763,480.196 598.758,481.961 582.289,472.534 582.294,470.769 				"/>
				<polygon fill="#E6E7E8" points="635.945,482.719 635.94,484.485 619.606,493.893 619.611,492.123 				"/>
				<polygon fill="#E6E7E8" points="619.611,492.123 619.606,493.893 603.137,484.471 603.142,482.701 				"/>
				<polygon fill="#E6E7E8" points="656.766,494.633 656.762,496.399 640.428,505.807 640.432,504.042 				"/>
				<polygon fill="#E6E7E8" points="640.432,504.042 640.428,505.807 623.99,496.399 623.995,494.633 				"/>
				<polygon fill="#E6E7E8" points="366.003,351.01 365.999,352.78 349.638,362.202 349.643,360.432 				"/>
				<polygon fill="#E6E7E8" points="349.643,360.432 349.638,362.202 333.198,352.794 333.202,351.028 				"/>
				<polygon fill="#E6E7E8" points="386.854,362.942 386.847,364.708 370.488,374.134 370.493,372.369 				"/>
				<polygon fill="#E6E7E8" points="370.493,372.369 370.488,374.134 354.046,364.726 354.053,362.956 				"/>
				<polygon fill="#E6E7E8" points="511.897,434.499 511.89,436.264 495.53,445.686 495.536,443.921 				"/>
				<polygon fill="#E6E7E8" points="495.536,443.921 495.53,445.686 374.87,376.64 374.875,374.874 				"/>
				<polygon fill="#E6E7E8" points="532.746,446.431 532.741,448.196 516.38,457.623 516.385,455.853 				"/>
				<polygon fill="#E6E7E8" points="516.385,455.853 516.38,457.623 499.913,448.196 499.918,446.431 				"/>
				<polygon fill="#E6E7E8" points="553.594,458.358 553.59,460.128 537.231,469.55 537.235,467.785 				"/>
				<polygon fill="#E6E7E8" points="537.235,467.785 537.231,469.55 520.762,460.128 520.768,458.358 				"/>
				<polygon fill="#E6E7E8" points="595.268,482.204 595.259,483.975 578.903,493.396 578.907,491.631 				"/>
				<polygon fill="#E6E7E8" points="578.907,491.631 578.903,493.396 562.434,483.975 562.438,482.204 				"/>
				<polygon fill="#E6E7E8" points="616.117,494.141 616.112,495.902 599.751,505.329 599.756,503.563 				"/>
				<polygon fill="#E6E7E8" points="599.756,503.563 599.751,505.329 583.282,495.902 583.291,494.141 				"/>
				<polygon fill="#E6E7E8" points="636.938,506.051 636.934,507.821 620.573,517.242 620.577,515.477 				"/>
				<polygon fill="#E6E7E8" points="620.577,515.477 620.573,517.242 604.135,507.839 604.139,506.069 				"/>
			</g>
			<polygon fill="#FFFFFF" points="636.938,506.051 620.577,515.477 604.139,506.069 620.496,496.647 			"/>
			<g>
				<path fill="#FFFFFF" d="M397.626,436.625l-7.348,4.235c-1.693,0.97-1.711,2.55,0.02,3.544l33.855,19.377l10.427-6.009
					L397.626,436.625z"/>
				<path fill="#FFFFFF" d="M426.693,465.234l33.884,19.391c1.731,0.988,4.485,0.97,6.178,0l7.348-4.235l-36.981-21.165
					L426.693,465.234z"/>
				<path fill="#FFFFFF" d="M505.252,458.891l-70.281-40.216c-1.731-0.993-4.485-0.98-6.176,0l-28.672,16.509l76.477,43.765
					l28.672-16.514C506.963,461.46,506.983,459.88,505.252,458.891z"/>
			</g>
		</g>
		<g>
			<path opacity="0.7" fill="#5BFCFF" d="M694.016,227.312c-9.097,7.964-18.478,30.988-26.925,36.51
				c-7.679,5.022-14.397-1.086-15.665-12.334c-2.239-19.853,5.733-54.642,7.002-67.2c3.467-34.372-14.438-34.18-26.577-12.395
				c-5.743,10.3-37.837,78.161-55.683,67.97c-14.537-8.305-8.416-31.015-7.964-49.966c0.172-7.165-5.535-20.584-17.724-12.832
				c-10.027,6.381-29.124,39.426-33.103,47.965l-8.081,21.81l174.681,99.66l7.165-22.268l22.501-69.886
				C720.788,232.141,706.115,216.724,694.016,227.312z"/>
			<g>
				<polygon fill="#FFFFFF" points="509.672,246.822 508.922,246.858 563.535,99.493 564.253,99.472 				"/>
			</g>
			<g>
				<polygon fill="#FFFFFF" points="544.678,266.795 543.933,266.833 597.3,118.845 598.018,118.822 				"/>
			</g>
			<g>
				<polygon fill="#FFFFFF" points="579.653,286.749 578.907,286.79 631.033,138.176 631.746,138.151 				"/>
			</g>
			<g>
				<polygon fill="#FFFFFF" points="614.591,306.682 613.85,306.724 664.739,157.49 665.448,157.465 				"/>
			</g>
			<g>
				<polygon fill="#FFFFFF" points="649.489,326.595 648.757,326.64 698.409,176.785 699.113,176.758 				"/>
			</g>
			<g>
				<polygon fill="#FFFFFF" points="684.364,346.487 683.633,346.537 732.043,196.062 732.747,196.033 				"/>
			</g>
			<g>
				<path fill="#FFFFFF" d="M515.461,230.199c-0.115,0.007-0.23-0.005-0.334-0.031c-0.521-0.147-0.634-0.691-0.248-1.217
					l50.778-69.274c0.37-0.505,1.088-0.797,1.598-0.657c0.51,0.147,0.628,0.673,0.253,1.181l-50.731,69.275
					C516.466,229.895,515.931,230.179,515.461,230.199z"/>
			</g>
			<g>
				<path fill="#FFFFFF" d="M576.497,233.739c-0.424,0.02-0.75-0.18-0.804-0.54l-10.248-72.843c-0.068-0.472,0.388-1.041,1.02-1.275
					c0.623-0.228,1.188-0.036,1.255,0.438l10.275,72.798c0.068,0.485-0.388,1.075-1.03,1.321
					C576.804,233.7,576.646,233.732,576.497,233.739z"/>
			</g>
			<g>
				<path fill="#FFFFFF" d="M576.497,233.739c-0.176,0.009-0.343-0.018-0.479-0.09c-0.447-0.228-0.442-0.81,0.018-1.305
					l76.139-82.222c0.433-0.47,1.142-0.668,1.576-0.44c0.429,0.223,0.433,0.781,0.005,1.251l-76.103,82.24
					C577.341,233.513,576.889,233.721,576.497,233.739z"/>
			</g>
			<g>
				<path fill="#FFFFFF" d="M659.89,255.937c-0.442,0.023-0.777-0.203-0.803-0.594l-7.237-104.459
					c-0.032-0.481,0.438-1.027,1.056-1.226c0.605-0.203,1.133,0.032,1.164,0.512l7.277,104.4c0.036,0.499-0.442,1.074-1.065,1.289
					C660.148,255.908,660.017,255.933,659.89,255.937z"/>
			</g>
			<g>
				<path fill="#FFFFFF" d="M659.89,255.937c-0.28,0.016-0.528-0.068-0.677-0.253c-0.289-0.366-0.077-0.987,0.479-1.388l51.81-37.57
					c0.533-0.386,1.201-0.416,1.494-0.054c0.284,0.356,0.09,0.963-0.451,1.356l-51.801,37.591
					C660.473,255.815,660.166,255.924,659.89,255.937z"/>
			</g>
			<g>
				<path fill="#FFFFFF" d="M711.709,218.335c-0.271,0.013-0.51-0.067-0.659-0.241c-0.294-0.355-0.099-0.962,0.438-1.357
					l17.729-13.099c0.528-0.392,1.196-0.424,1.494-0.074c0.294,0.352,0.099,0.953-0.424,1.345l-17.729,13.108
					C712.287,218.215,711.985,218.324,711.709,218.335z"/>
			</g>
			<path fill="#FFFFFF" d="M580.149,234.646c-0.705,1.989-2.759,2.759-4.587,1.713c-1.824-1.042-2.731-3.501-2.023-5.49
				c0.709-1.984,2.763-2.749,4.582-1.706C579.946,230.204,580.853,232.66,580.149,234.646z"/>
			<path fill="#FFFFFF" d="M569.386,163.076c-0.705,1.93-2.736,2.661-4.542,1.627c-1.806-1.031-2.695-3.435-1.986-5.363
				c0.699-1.928,2.736-2.654,4.532-1.623C569.196,158.749,570.086,161.146,569.386,163.076z"/>
			<path fill="#FFFFFF" d="M655.737,153.675c-0.655,1.903-2.632,2.618-4.406,1.598c-1.779-1.018-2.691-3.388-2.036-5.289
				c0.655-1.898,2.628-2.612,4.406-1.594C655.475,149.408,656.387,151.774,655.737,153.675z"/>
			<path fill="#FFFFFF" d="M715.072,219.78c-0.627,1.943-2.587,2.689-4.375,1.666c-1.788-1.023-2.722-3.429-2.09-5.37
				c0.632-1.939,2.591-2.684,4.375-1.661C714.765,215.437,715.705,217.839,715.072,219.78z"/>
			<path fill="#FFFFFF" d="M664.152,254.872c-0.664,1.986-2.668,2.756-4.483,1.72c-1.81-1.036-2.74-3.485-2.077-5.469
				c0.669-1.982,2.673-2.749,4.483-1.716C663.881,250.443,664.816,252.888,664.152,254.872z"/>
		</g>
		<g>
			<polygon fill="#F1F2F2" points="804.561,244.236 814.502,259.45 819.572,243.299 			"/>
			<g>
				<polygon fill="#F1F2F2" points="792.272,227.676 792.272,227.676 792.755,226.136 				"/>
				<polygon fill="#F1F2F2" points="802.191,242.876 792.272,227.676 787.198,243.827 				"/>
			</g>
			<polygon fill="#E6E7E8" points="820.055,241.759 803.618,242.786 792.755,226.136 791.952,228.495 801.062,242.949 
				787.198,243.827 814.502,259.45 804.561,244.236 819.572,243.299 			"/>
			<polygon fill="#FFFFFF" points="792.755,226.136 803.618,242.786 820.055,241.759 			"/>
		</g>
		<g>
			<polygon opacity="0.7" fill="#5BFCFF" points="798.61,284.838 736.278,243.592 738.102,237.951 800.439,279.199 			"/>
			<polygon opacity="0.7" fill="#5BFCFF" points="777.563,285.318 732.436,255.459 734.259,249.818 779.387,279.678 			"/>
			<polygon opacity="0.7" fill="#5BFCFF" points="787.094,320.438 724.756,279.192 726.58,273.551 788.918,314.799 			"/>
			<polygon opacity="0.7" fill="#5BFCFF" points="783.252,332.302 720.919,291.056 722.738,285.418 785.076,326.663 			"/>
			<polygon opacity="0.7" fill="#5BFCFF" points="779.41,344.171 717.077,302.923 718.901,297.285 781.238,338.532 			"/>
			<polygon opacity="0.7" fill="#5BFCFF" points="736.214,329.991 713.235,314.79 715.063,309.151 738.034,324.351 			"/>
			<polygon opacity="0.7" fill="#5BFCFF" points="771.735,367.904 709.393,326.659 711.221,321.017 773.554,362.265 			"/>
			<polygon opacity="0.7" fill="#5BFCFF" points="767.893,379.768 705.555,338.523 707.38,332.884 769.717,374.13 			"/>
			<polygon opacity="0.7" fill="#5BFCFF" points="735.614,372.82 701.718,350.392 703.538,344.748 737.438,367.182 			"/>
		</g>
		<polygon fill="#5BFCFF" points="557.025,61.593 554.181,70.112 834.57,232.053 837.332,223.356 		"/>
		<g>
			<path fill="#FF57CA" d="M833.757,224.563c0.099,1.53-1.092,2.774-2.65,2.777c-1.566,0.002-2.912-1.237-3.006-2.768
				c-0.099-1.533,1.088-2.774,2.65-2.778C832.312,221.791,833.662,223.03,833.757,224.563z"/>
			<path fill="#E6E7E8" d="M826.213,220.423c0.099,1.533-1.088,2.777-2.65,2.778c-1.562,0.002-2.907-1.237-3.007-2.77
				c-0.099-1.53,1.092-2.774,2.65-2.777C824.773,217.654,826.118,218.893,826.213,220.423z"/>
			<path fill="#E6E7E8" d="M818.678,216.286c0.095,1.53-1.093,2.774-2.654,2.776c-1.562,0.005-2.908-1.237-3.007-2.767
				c-0.099-1.53,1.088-2.774,2.655-2.777C817.234,213.516,818.579,214.755,818.678,216.286z"/>
		</g>
	</g>
	<g>
		<linearGradient id="SVGID_6_" gradientUnits="userSpaceOnUse" x1="656.3006" y1="578.6409" x2="814.5126" y2="479.839">
			<stop  offset="0" style="stop-color:#58DFEC"/>
			<stop  offset="1" style="stop-color:#5A9DFF"/>
		</linearGradient>
		<polygon fill="url(#SVGID_6_)" points="800.064,503.794 777.749,516.764 753.704,502.882 		"/>
		<linearGradient id="SVGID_7_" gradientUnits="userSpaceOnUse" x1="684.9471" y1="624.5361" x2="843.1729" y2="525.7256">
			<stop  offset="0" style="stop-color:#58DFEC"/>
			<stop  offset="1" style="stop-color:#5A9DFF"/>
		</linearGradient>
		<polygon fill="url(#SVGID_7_)" points="847.901,551.626 847.869,561.102 791.988,528.836 792.015,519.364 		"/>
		<linearGradient id="SVGID_8_" gradientUnits="userSpaceOnUse" x1="682.7783" y1="621.0613" x2="841.0032" y2="522.2513">
			<stop  offset="0" style="stop-color:#58DFEC"/>
			<stop  offset="1" style="stop-color:#5A9DFF"/>
		</linearGradient>
		<polygon fill="url(#SVGID_8_)" points="847.901,551.626 843.228,554.339 787.347,522.077 792.015,519.364 		"/>
		<linearGradient id="SVGID_9_" gradientUnits="userSpaceOnUse" x1="682.0771" y1="619.9243" x2="840.2917" y2="521.1207">
			<stop  offset="0" style="stop-color:#58DFEC"/>
			<stop  offset="1" style="stop-color:#5A9DFF"/>
		</linearGradient>
		<polygon fill="url(#SVGID_9_)" points="854.583,573.824 851.436,575.652 748.995,516.507 752.142,514.678 		"/>
		<linearGradient id="SVGID_10_" gradientUnits="userSpaceOnUse" x1="681.9461" y1="619.7113" x2="840.16" y2="520.9081">
			<stop  offset="0" style="stop-color:#58DFEC"/>
			<stop  offset="1" style="stop-color:#5A9DFF"/>
		</linearGradient>
		<polygon fill="url(#SVGID_10_)" points="847.775,577.779 844.606,579.625 742.165,520.479 745.334,518.633 		"/>
		<linearGradient id="SVGID_11_" gradientUnits="userSpaceOnUse" x1="659.0193" y1="582.9972" x2="817.2183" y2="484.2034">
			<stop  offset="0" style="stop-color:#58DFEC"/>
			<stop  offset="1" style="stop-color:#5A9DFF"/>
		</linearGradient>
		<polygon fill="url(#SVGID_11_)" points="680.481,584.036 677.335,585.865 653.416,572.054 656.559,570.226 		"/>
		<linearGradient id="SVGID_12_" gradientUnits="userSpaceOnUse" x1="681.674" y1="619.2886" x2="839.8951" y2="520.4809">
			<stop  offset="0" style="stop-color:#58DFEC"/>
			<stop  offset="1" style="stop-color:#5A9DFF"/>
		</linearGradient>
		<polygon fill="url(#SVGID_12_)" points="834.109,585.72 830.967,587.548 728.521,528.407 731.673,526.579 		"/>
		<linearGradient id="SVGID_13_" gradientUnits="userSpaceOnUse" x1="681.5474" y1="619.0726" x2="839.7614" y2="520.2694">
			<stop  offset="0" style="stop-color:#58DFEC"/>
			<stop  offset="1" style="stop-color:#5A9DFF"/>
		</linearGradient>
		<polygon fill="url(#SVGID_13_)" points="827.278,589.693 824.132,591.517 721.691,532.376 724.837,530.547 		"/>
		<linearGradient id="SVGID_14_" gradientUnits="userSpaceOnUse" x1="681.2825" y1="618.6455" x2="839.491" y2="519.8458">
			<stop  offset="0" style="stop-color:#58DFEC"/>
			<stop  offset="1" style="stop-color:#5A9DFF"/>
		</linearGradient>
		<polygon fill="url(#SVGID_14_)" points="813.635,597.621 810.466,599.458 708.025,540.317 711.199,538.475 		"/>
		<linearGradient id="SVGID_15_" gradientUnits="userSpaceOnUse" x1="681.1481" y1="618.4323" x2="839.361" y2="519.6298">
			<stop  offset="0" style="stop-color:#58DFEC"/>
			<stop  offset="1" style="stop-color:#5A9DFF"/>
		</linearGradient>
		<polygon fill="url(#SVGID_15_)" points="806.805,601.589 803.658,603.417 701.217,544.271 704.364,542.443 		"/>
		<linearGradient id="SVGID_16_" gradientUnits="userSpaceOnUse" x1="680.617" y1="617.5815" x2="838.8309" y2="518.7783">
			<stop  offset="0" style="stop-color:#58DFEC"/>
			<stop  offset="1" style="stop-color:#5A9DFF"/>
		</linearGradient>
		<polygon fill="url(#SVGID_16_)" points="779.5,617.458 776.354,619.286 673.913,560.14 677.06,558.312 		"/>
		<linearGradient id="SVGID_17_" gradientUnits="userSpaceOnUse" x1="700.9854" y1="650.2012" x2="859.2243" y2="551.3825">
			<stop  offset="0" style="stop-color:#58DFEC"/>
			<stop  offset="1" style="stop-color:#5A9DFF"/>
		</linearGradient>
		<polygon fill="url(#SVGID_17_)" points="737.352,641.949 734.178,643.796 710.233,629.968 713.402,628.13 		"/>
		<path fill="#F1F2F2" d="M800.064,503.794l-22.315,12.97l-24.045-13.882l-146.115,84.911l122.775,70.888l168.43-97.886
			L800.064,503.794z M792.015,519.364l55.886,32.261l-4.673,2.714l-55.882-32.262L792.015,519.364z M677.335,585.865l-23.923-13.815
			l3.147-1.824l23.923,13.81L677.335,585.865z M734.178,643.796l-23.945-13.828l3.169-1.842l23.95,13.824L734.178,643.796z
			 M740.151,640.324l-23.945-13.828l3.169-1.842l23.95,13.828L740.151,640.324z M762.688,627.227l-102.44-59.146l3.146-1.824
			l102.441,59.141L762.688,627.227z M769.523,623.259l-102.441-59.146l3.146-1.833l102.436,59.151L769.523,623.259z
			 M776.354,619.286L673.913,560.14l3.147-1.828L779.5,617.458L776.354,619.286z M783.162,615.327l-102.441-59.141l3.169-1.842
			l102.441,59.146L783.162,615.327z M803.658,603.417l-102.44-59.146l3.146-1.828l102.441,59.146L803.658,603.417z M810.466,599.458
			l-102.441-59.141l3.174-1.842l102.436,59.146L810.466,599.458z M817.296,595.49l-102.44-59.141l3.146-1.829l102.446,59.141
			L817.296,595.49z M824.132,591.517l-102.441-59.141l3.146-1.828l102.441,59.141L824.132,591.517z M830.967,587.548
			l-102.446-59.141l3.151-1.828l102.436,59.141L830.967,587.548z M837.797,583.58l-102.441-59.146l3.142-1.828l102.446,59.146
			L837.797,583.58z M844.606,579.625l-102.441-59.15l3.169-1.842l102.441,59.146L844.606,579.625z M748.995,516.507l3.147-1.828
			l102.441,59.146l-3.147,1.828L748.995,516.507z"/>
		<linearGradient id="SVGID_18_" gradientUnits="userSpaceOnUse" x1="681.8134" y1="619.4993" x2="840.028" y2="520.6957">
			<stop  offset="0" style="stop-color:#58DFEC"/>
			<stop  offset="1" style="stop-color:#5A9DFF"/>
		</linearGradient>
		<polygon fill="url(#SVGID_18_)" points="840.944,581.751 837.797,583.58 735.356,524.434 738.503,522.606 		"/>
		<linearGradient id="SVGID_19_" gradientUnits="userSpaceOnUse" x1="681.4045" y1="618.8655" x2="839.6351" y2="520.0519">
			<stop  offset="0" style="stop-color:#58DFEC"/>
			<stop  offset="1" style="stop-color:#5A9DFF"/>
		</linearGradient>
		<polygon fill="url(#SVGID_19_)" points="820.448,593.661 817.296,595.49 714.856,536.349 718.002,534.52 		"/>
		<linearGradient id="SVGID_20_" gradientUnits="userSpaceOnUse" x1="680.751" y1="617.795" x2="838.959" y2="518.9955">
			<stop  offset="0" style="stop-color:#58DFEC"/>
			<stop  offset="1" style="stop-color:#5A9DFF"/>
		</linearGradient>
		<polygon fill="url(#SVGID_20_)" points="786.331,613.489 783.162,615.327 680.721,556.186 683.89,554.343 		"/>
		<linearGradient id="SVGID_21_" gradientUnits="userSpaceOnUse" x1="680.4864" y1="617.3689" x2="838.6888" y2="518.5729">
			<stop  offset="0" style="stop-color:#58DFEC"/>
			<stop  offset="1" style="stop-color:#5A9DFF"/>
		</linearGradient>
		<polygon fill="url(#SVGID_21_)" points="772.665,621.431 769.523,623.259 667.082,564.113 670.229,562.285 		"/>
		<linearGradient id="SVGID_22_" gradientUnits="userSpaceOnUse" x1="680.3489" y1="617.1582" x2="838.5695" y2="518.3509">
			<stop  offset="0" style="stop-color:#58DFEC"/>
			<stop  offset="1" style="stop-color:#5A9DFF"/>
		</linearGradient>
		<polygon fill="url(#SVGID_22_)" points="765.835,625.399 762.688,627.227 660.247,568.086 663.394,566.258 		"/>
		<linearGradient id="SVGID_23_" gradientUnits="userSpaceOnUse" x1="701.1096" y1="650.3829" x2="859.2903" y2="551.6005">
			<stop  offset="0" style="stop-color:#58DFEC"/>
			<stop  offset="1" style="stop-color:#5A9DFF"/>
		</linearGradient>
		<polygon fill="url(#SVGID_23_)" points="743.32,638.482 740.151,640.324 716.206,626.496 719.375,624.654 		"/>
		<polygon fill="#D1D3D4" points="898.794,560.795 898.767,570.271 730.341,668.152 730.364,658.681 		"/>
		<polygon fill="#D1D3D4" points="730.364,658.681 730.341,668.152 607.566,597.268 607.589,587.792 		"/>
	</g>
	<g>
		<path fill="#F2CAAA" d="M434.925,422.783c0,0,8.386,1.02,10.964,2.614c2.578,1.584,9.007,8.988,8.212,10.275
			c-0.795,1.291-3.458,1.449-5.693,0.072c-2.233-1.381-4.86-4.614-5.718-4.971c-2.339-0.962-7.282,0.849-10.813-2.275
			C428.35,425.375,434.925,422.783,434.925,422.783z"/>
		<g>
			<path fill="#E1E2E3" d="M430.851,597.914c-0.135-0.086-0.239-0.185-0.386-0.271c-3.517-2.027-8.598-1.435-12.117,0.596
				l-12.74,7.359l-2.634-0.925l0.016,4.447h0.005c-0.072,1.381,0.785,2.777,2.614,3.833c3.517,2.031,9.223,2.031,12.74,0
				l12.117-7.951c1.639-0.948,2.483-2.167,2.593-3.409h0.045l-0.481-3.494L430.851,597.914z"/>
			<path fill="#302B2D" d="M430.465,601.593l-12.117,7.951c-3.517,2.031-9.223,2.031-12.74,0l0,0c-3.519-2.027-3.519-7.237,0-9.264
				c0,0,8.966-5.088,13.458-6.452c5.894-1.792,9.273-0.641,11.546,0.695C432.639,595.716,433.984,599.566,430.465,601.593z"/>
		</g>
		<g>
			<path fill="#E1E2E3" d="M394.339,582.298c-0.135-0.086-0.239-0.185-0.386-0.271c-3.519-2.031-8.598-1.435-12.117,0.596
				l-12.74,7.354l-2.639-0.659l0.02,4.18h0.004c-0.072,1.386,0.786,2.781,2.614,3.837c3.517,2.027,9.221,2.027,12.74,0l12.117-7.955
				c1.639-0.944,2.483-2.162,2.594-3.404h0.045l-0.481-3.494L394.339,582.298z"/>
			<path fill="#302B2D" d="M393.953,585.977l-12.117,7.95c-3.519,2.036-9.223,2.036-12.74,0l0,0c-3.519-2.027-3.519-7.232,0-9.269
				c0,0,8.966-5.083,13.458-6.447c5.894-1.792,9.273-0.641,11.546,0.695C396.127,580.099,397.473,583.946,393.953,585.977z"/>
		</g>
		<path fill="#ADADAD" d="M366.459,588.808c0,2.447,4.2,3.747,6.48,4.262c2.544,0.506,5.772,0.072,8.117-0.84
			c2.255-0.763,4.149-2.108,4.659-4.108c0,0,0.763-2.551,1.892-7.246c0.072-0.325,0.147-0.619,0.219-0.944
			c0.219-0.84,0.4-1.68,0.655-2.587c2.438-10.812,6.115-37.381,8.517-60.753c0.147-1.124,0.255-2.257,0.366-3.381
			c0.291,0.763,0.546,1.526,0.799,2.361c7.28,23.115,5.316,78.044,5.751,84.265c0,0.366,0.036,0.659,0.036,0.876
			c0,0.325,0.038,0.655,0.11,0.912c0.327,1.237,1.273,2.108,2.549,2.659c1.366,0.731,3.72,1.052,4.185,1.052
			c3.636,0.302,7.151-0.33,8.627-1.309c1.237-0.727,2.074-1.639,2.438-2.659c0.553-4.939,6.977-67.972,6.298-99.552
			c-0.402-18.672-1.638-30.031-2.074-33.309c-0.11-0.794-0.183-1.196-0.183-1.196c-8.591,0.835-15.98,1.778-21.659,3.566
			c-0.435-3.277-1.892,0.582-1.892,0.582l-32.214-3.494l-0.727-0.077c0,0,0,0.04,0,0.113c-0.038,0.253-0.074,0.835-0.111,1.747
			c-0.072,1.273-0.144,3.092-0.219,5.571c-0.073,4.185-0.145,10.189,0.036,17.688C369.446,505.089,375.705,534.755,366.459,588.808z
			"/>
		<path fill="#D6D6D6" d="M416.109,496.791c1.894-0.655,3.677-1.49,5.314-2.438c6.406-3.711,10.738-8.627,10.338-13.467
			c0,0-0.582-12.776-1.237-27.991h-0.109C412.251,451.618,414.142,482.051,416.109,496.791z"/>
		<path fill="#D6D6D6" d="M379.382,375.547c2.438,7.607,8.736,10.442,14.523,12.193c8.444,2.474,16.853,1.562,19.108,1.124
			c0.438-0.067,0.657-0.144,0.657-0.144l-2.293,2.912l-1.312,4.371v15.76l18.237,22.641c0,0,0.619,0.474,1.603,1.314
			c-0.219-6.591-0.438-12.961-0.546-18.275c0-11.359-2.44-27.192-4.623-31.995c-0.474-0.948-0.982-1.675-1.564-2.257
			c-0.765-0.767-1.458-1.459-2.113-2.077c-8.553-8.226-9.864-7.025-9.864-7.025l-19.036-6.844l-0.948-0.325c0,0-0.436,0-1.201,0.109
			h-0.036c-0.436,0.072-1.018,0.18-1.675,0.33c-0.691,0.144-1.454,0.366-2.329,0.619v-1.346c-0.582-0.113-1.201-0.185-1.82-0.221
			c0.255,0.036,0.546,0.144,0.838,0.221C380.983,368.482,378.181,371.723,379.382,375.547z"/>
		<path fill="#D6D6D6" d="M362.274,392.473c0.219-3.097,0.727-6.262,1.492-9.246C362.965,385.886,362.457,388.906,362.274,392.473z"
			/>
		<path fill="#C7C7C7" d="M395.816,388.066c16.015,2.587,26.48-5.765,26.48-5.765c-0.438-0.438-0.817-0.822-1.219-1.187
			c-1.273,0.984-10.993,7.828-24.97,5.571c-15.105-2.402-16.523-8.772-16.16-13.142c0.363-3.783,5.041-6.406,6.023-6.912
			l-1.684-0.239c0,0-5.323,3.074-5.758,7.625C378.163,378.676,379.655,385.484,395.816,388.066z"/>
		<path fill="#FFDE17" d="M414.02,318.169c-11.575,2.106-17.519-1.052-21.977,4.892c-3.961,5.201,2.538,19.684-2.415,26.867
			c-3.528,5.201-15.725-0.307-18.758-10.524c-2.6-12.817-0.262-25.559,3.943-30.932c9.471-12.102,25.711-14.014,38.094-10.67
			c6.065,1.673,10.399,4.149,13.248,6.873C427.765,309.751,425.659,316.065,414.02,318.169z"/>
		<path fill="#FFDE17" d="M414.567,319.381c-11.489,2.221-17.388-1.11-21.81,5.16c-3.934,5.49,2.517,20.781-2.397,28.356
			c-3.503,5.49-15.607-0.325-18.616-11.106c-2.582-13.526-0.262-26.977,3.912-32.647c9.402-12.772,25.516-14.79,37.805-11.262
			c6.02,1.766,10.323,4.379,13.149,7.253C428.208,310.494,426.117,317.158,414.567,319.381z"/>
		<path fill="#F5D4B3" d="M421.822,354.821c-0.372,0.867-0.806,1.607-1.239,2.162c-5.51,7.124-16.095,7.494-22.657,5.697
			c-2.725-0.745-3.158-8.23-2.788-16.776c0.558-12.135,2.788-26.435,2.788-26.435l27.052,1.857
			C424.978,321.327,425.968,345.408,421.822,354.821z"/>
		<path fill="#FFFFFF" d="M386.4,367.511c0,0-3.943,3.182-1.061,7.729c2.881,4.551,9.858,6.677,16.379,5.616
			c6.522-1.066,13.769-4.081,14.494-4.081c0.727,0-4.989-4.497-4.989-4.497L386.4,367.511z"/>
		<path fill="#EBC4A5" d="M401.262,349.308l-0.079-0.041l-6.054-3.359c-0.117,2.501-0.158,4.925-0.079,7.07
			c0.038,0.51,0.038,1.016,0.079,1.485c0,0.235,0.038,0.47,0.038,0.664c0.077,0.98,0.194,1.837,0.312,2.659h-0.038l-9.453-3.047
			v16.122c0.016,0.045,0,3.801,3.718,5.729c5.05,2.618,12.76,2.556,17.844,0c4.255-2.14,3.675-5.025,3.675-5.025
			c0.002-0.081,0-8.74,0-8.74l-0.077-0.036c3.742-0.966,7.05-2.713,9.453-5.788c0.429-0.582,0.86-1.327,1.212-2.185
			C410.052,361.457,401.262,349.308,401.262,349.308z"/>
		<path fill="#FFC017" d="M430.427,313.031c-0.185,4.828-7.368,9.657-11.081,13.375c-5.325,5.322,0.684,14.036-3.032,14.632
			c-3.666,0.587-3.149-11.354-9.907-6.808c-3.702,2.487-6.068,18.794-6.068,22.88c0,4.149-12.713,9.016-18.386,3.341
			c-5.219-5.219-9.41-12.442-11.083-21.047c3.034,10.217,15.23,15.725,18.758,10.524c4.953-7.183-1.546-21.666,2.415-26.867
			c4.458-5.943,10.402-2.785,21.977-4.892c11.639-2.103,13.745-8.417,12.135-13.494h0.061
			C429.126,307.521,430.488,310.555,430.427,313.031z"/>
		<path fill="#D6D6D6" d="M412.761,419.989c3.966,6.519,18.345,31.593,27.189,31.526c8.919-0.113,10.192-8.885,8.519-15.4
			c-0.147-0.51-0.291-1.02-0.474-1.49c-2.293-6.555-14.923-47.1-23.842-49.394c-4.332-1.133-8.3,0.871-11.284,4.365
			c-1.42,1.675-2.621,3.711-3.531,5.896C406.571,402.012,408.757,413.438,412.761,419.989z"/>
		<path fill="#B5B5B5" d="M412.614,531.518l-1.819,73.818c0,0.072,0,0,0,0c2.219,0.126,6.201,0.302,8.627-1.309
			c1.237-0.727,2.074-1.639,2.438-2.659c0.052-0.46,0.587-6.433,0.838-8.334c3.531-36.618,5.896-70.979,5.46-91.218
			C425.61,502.29,412.614,506.073,412.614,531.518z"/>
		<path fill="#B5B5B5" d="M381.057,592.23c2.255-0.763,4.149-2.108,4.659-4.108c1.115-3.729,2.271-9.011,2.765-10.777
			c2.438-10.812,6.115-37.381,8.517-60.753c-3.966,3.752-7.97,10.591-9.499,23.007C385.425,556.632,382.804,578.036,381.057,592.23z
			"/>
		<path fill="#C7C7C7" d="M412.761,419.989c3.966,6.519,18.345,31.593,27.189,31.526c8.919-0.113,10.192-8.885,8.519-15.4
			l-0.51-0.294c-7.754,8.447-18.054-3.711-28.756-18.961c-10.702-15.251-6.262-27.264-6.262-27.264h-0.072
			c-1.42,1.675-2.621,3.711-3.531,5.896C406.571,402.012,408.757,413.438,412.761,419.989z"/>
		<path fill="#C7C7C7" d="M362.965,430.729c0.147,2.144,3.968,6.551,4.77,6.365c-0.036,0.587-1.092,38.911-1.275,40.88
			c-0.474,4.826,4.031,15.142,21.149,20.126l1.639-16.817l1.673,17.512c9.941,1.494,18.27,0.533,25.189-2.005
			c-1.966-14.74-3.858-45.173,14.307-43.895h0.109c-0.183-5.571-0.438-11.467-0.619-17.178c-0.984-0.84-1.603-1.314-1.603-1.314
			l-18.237-22.641v-15.76l1.312-4.371l2.293-2.912c-1.066,0.352-10.404,1.76-19.765-0.98c-5.788-1.752-12.086-4.586-14.523-12.193
			c-1.201-3.824,1.6-7.066,5.605-8.917c-7.093-1.76-18.42,5.278-21.221,16.596c-1.045,4.077-1.637,8.528-1.637,13.286
			C362.13,396.513,361.728,412.964,362.965,430.729z"/>
		<path fill="#C7C7C7" d="M364.13,381.953c2.039-6.04,5.461-9.756,9.429-12.451c0.582-0.402,1.237-0.799,1.856-1.16
			c2.657-1.571,5.824-2.19,8.736-1.932C373.559,363.642,367.116,371.723,364.13,381.953z"/>
	</g>
	<g>
		<path fill="#302B2D" d="M892.767,474.282c0,0,3.905,1.251,3.905,7.702c0,6.447,0,18.609,0,18.609h-2.483
			c0,0-0.131-10.176-0.867-10.176c-0.745,0-1.531,9.056-1.531,10.176c0,1.11-3.061,5.083-6.411,6.822
			c-3.35,1.738-8.808,2.356-9.801,1.363c-0.993-0.993-1.887-7.273,4.144-11.634L892.767,474.282z"/>
		<path fill="#EBC4A5" d="M893.368,473.058c0,3.219,1.422,3.246-0.677,7.932c-2.966,6.704-2.099,15.011-5.95,18.862
			c-2.171,2.171-5.3,2.289-7.074,1.472c-1.35-0.61-1.937-1.774-0.745-2.966c2.799-2.799,3.364-16.384,3.364-24.808
			c0-4.813-0.587-19.305-1.097-30.93c0-0.022,0-0.022,0-0.022c-0.402-8.844-0.75-16.036-0.75-16.036l19.21-1.399
			C899.647,457.419,893.368,469.812,893.368,473.058z"/>
		<path fill="#302B2D" d="M914.92,485.361c0,0,2.348-0.154,2.348,6.916c0,7.074,1.617,15.756,0.745,19.607
			c-0.867,3.842-5.083,10.79-10.795,10.79c-5.707,0-3.102-15.087-3.102-19.083c0-3.991,1.323-16.397,1.323-16.397L914.92,485.361z"
			/>
		<path fill="#EBC4A5" d="M915.683,471.166c-0.023,3.689-1.309,12.23-0.492,15.241c0.844,3.011,0,12.375,0,17.178
			c0,4.294-1.869,8.452-5.368,9.034c-0.442,0.073-0.912,0.095-1.399,0.045c-3.011-0.298-3.151-4.69-3.219-10.081
			c-0.095-6.442,0.23-13.864,0.23-15.381c0-1.472-1.774-18.135-3.503-33.846c0-0.023,0-0.023,0-0.023
			c-1.585-14.609-3.124-28.36-3.124-28.36l18.483,0.234C921.751,443.37,915.706,465.704,915.683,471.166z"/>
		<path fill="#FFD00D" d="M919.999,431.695c0,0-0.582,9.079-19.675,9.079c-19.097,0-21.029-9.079-21.029-9.079
			s-0.402-0.957-1.007-2.799h-0.023c-1.724-5.273-5.322-17.833-6.767-36.225c-1.964-24.835,7.354-36.32,7.354-36.32l14.586-0.65
			l27.796-1.219c0,0,4.903,2.524,6.628,26.844C929.593,405.344,919.999,431.695,919.999,431.695z"/>
		<path fill="#FFC017" d="M919.999,431.695c0,0-0.582,9.079-19.675,9.079c-19.097,0-21.029-9.079-21.029-9.079
			s-0.402-0.957-1.007-2.799c26.329,14.776,34.148-3.318,36.275-32.447c2.144-29.128-17.883-30.622-17.883-30.622l-3.242-10.126
			l27.796-1.219c0,0,4.903,2.524,6.628,26.844C929.593,405.344,919.999,431.695,919.999,431.695z"/>
		<path fill="#E6E7E8" d="M925.859,302.059c0,4.903-1.142,17.203-2.334,28.803c-1.309,12.885-2.682,24.907-2.709,25.02
			c-0.325,2.686-2.077,5.138-6.208,7.074c-8.262,3.901-21.728,4.018-29.95,0c-5.485-2.659-6.23-7.047-6.23-7.047
			c-2.127-6-4.528-14.749-6.208-23.105c-1.752-8.594-2.754-16.763-2.009-21.056c1.309-7.54,10.668-23.668,14.686-27.474
			c5.48-5.228,26.862-2.452,26.862-2.452S925.859,291.695,925.859,302.059z"/>
		<path fill="#D1D3D4" d="M913.575,312.397c0,0-8.79,7.465-10.271,12.695c-1.471,5.228,2.339,3.625,2.339,3.625L913.575,312.397z"/>
		<path fill="#D1D3D4" d="M923.525,330.861c-1.309,12.885-2.682,24.907-2.709,25.02c-0.325,2.686-2.077,5.138-6.208,7.074
			c-8.262,3.901-21.728,4.018-29.95,0c-5.485-2.659-6.23-7.047-6.23-7.047c-2.127-6-4.528-14.749-6.208-23.105h6.068l16.027-4.086
			l28.23,1.07L923.525,330.861z"/>
		<path fill="#F5D4B3" d="M907.137,334.712c-3.196,0.442-6.555,0.538-7.512,0.325c-2.568-0.56-5.278-0.745-10.04-0.018
			c0,0-0.863-0.14-1.517-1.612c-0.298-0.677-0.56-1.634-0.65-2.966c-0.33-4.271,1.864-5.598,1.864-5.598s7.494-0.447,11.043-0.447
			c0.65,0,1.449,0.163,2.307,0.47c3.761,1.214,8.826,4.645,9.201,5.715C912.275,331.936,910.293,334.293,907.137,334.712z"/>
		<path fill="#EBC4A5" d="M907.137,334.712c-3.196,0.442-6.555,0.538-7.512,0.325c-2.568-0.56-5.278-0.745-10.04-0.018
			c0,0-0.863-0.14-1.517-1.612c0,0,8.429,0.767,11.557-0.397c3.007-1.124,3.007-7.634,3.007-8.144
			c3.761,1.214,8.826,4.645,9.201,5.715C912.275,331.936,910.293,334.293,907.137,334.712z"/>
		<path fill="#E6E7E8" d="M858.709,335.087c12.871,2.953,30.88-0.068,30.88-0.068s-1.833-0.275-2.18-4.582
			c-0.312-4.271,1.869-5.589,1.869-5.589l-21.512-3.12l5.932-14.505l26.618-25.472c-7.878-4.165-21.029-7.67-27.9,2.948
			c-6.907,10.655-13.224,22.905-17.557,28.943C850.484,319.715,845.833,332.171,858.709,335.087z"/>
		<path fill="#EBC4A5" d="M891.936,281.756c0,0-6.614,6.979-3.255,16.045c4.397,11.837,20.104-3.544,22.343-7.663
			c2.239-4.12,1.164-7.862,1.164-7.862L891.936,281.756z"/>
		<path fill="#E6E7E8" d="M930.55,323.579c-6.136,12.84-16.244,22.036-22.293,28.009c-6.04,5.978-14.772,5.3-20.911-0.14
			c-0.14-0.113-0.28-0.253-0.42-0.398c-0.023-0.023-0.045-0.023-0.073-0.045c-1.097-0.98-1.955-1.869-2.754-2.709
			c-0.135-0.185-0.275-0.348-0.37-0.442c-2.804-3.174-4.285-5.977-11.729-12.329l15.553-0.37c0,0,14.311,6.397,16.998-3.029
			c2.681-9.434,9.219-21.524,13.982-26.214c4.758-4.693,0.09-18.043,0.09-18.043s2.709,2.217,7.494,6.977
			c0.352,0.327,0.7,0.677,1.07,1.052C933.774,302.456,936.69,310.72,930.55,323.579z"/>
		<path fill="#D1D3D4" d="M890.415,336.194c0,0-12.365,1.165-10.853,6.659l-6.587-6.487c0,0,3.115,0.162,8.293-0.375
			c5.178-0.533,6.664-0.673,6.664-0.673L890.415,336.194z"/>
		<path fill="#D1D3D4" d="M879.363,291.077c0,0-9.846,16.923-13.851,20.929s-3.914,8.644,2.249,9.711
			c6.158,1.066,0.226-9.767,0.226-9.767S878.294,298.566,879.363,291.077z"/>
		<path fill="#F5D4B3" d="M880.09,323.51l-12.329-1.797c0,0-1.422-1.237-2.799-2.217c-0.257-0.187-0.492-0.584-0.677-1.074
			c-0.677-2.054-0.51-5.997,1.237-6.418c2.171-0.537,7.305,2.869,9.101,4.668c0.212,0.21,0.442,0.465,0.677,0.745
			C877.219,319.566,880.09,323.51,880.09,323.51z"/>
		<path fill="#D1D3D4" d="M930.55,323.579c-6.136,12.84-16.244,22.036-22.293,28.009c-6.04,5.978-14.772,5.3-20.911-0.14
			c-0.14-0.113-0.28-0.253-0.42-0.398c2.406,1.539,6.442,2.664,13.399,0.705c12.487-3.503,24.415-23.038,28.054-35.435
			c3.476-11.832-1.77-20.656-2.262-21.474c0.352,0.327,0.7,0.677,1.07,1.052C933.774,302.456,936.69,310.72,930.55,323.579z"/>
		<path fill="#302B2D" d="M929.57,218.008c0,9.149-7.422,16.548-16.573,16.548c-9.124,0-16.551-7.4-16.551-16.548
			c0-1.704,0.262-3.361,0.749-4.903c2.077-6.745,8.379-11.646,15.801-11.646c1.634,0,3.196,0.233,4.668,0.677
			C924.55,204.144,929.57,210.491,929.57,218.008z"/>
		<path fill="#231F20" d="M929.57,218.008c0,9.149-7.422,16.548-16.573,16.548c-9.124,0-16.763-16.727-16.271-18.269
			c0,0,9.047,1.206,15.462-3.103c5.444-3.655,5.991-9.67,5.476-11.047C924.55,204.144,929.57,210.491,929.57,218.008z"/>
		<path fill="#EBC4A5" d="M891.399,282.276V261.82h20.79v20.456c0.013,1.546-0.993,3.097-3.038,4.275
			c-4.063,2.345-10.646,2.345-14.709,0C892.397,285.373,891.386,283.822,891.399,282.276z"/>
		<path fill="#302B2D" d="M924.013,254.116c-5.156,14.029-13.16,15.498-13.16,15.498l-1.471-11.273l-0.745-5.625
			c-0.073-0.537-0.117-1.097-0.212-1.609c0-0.025,0-0.025,0-0.048l-0.42-3.199v-0.022l-0.844-6.302l-11.061-7.025l-5.67-2.569
			l-14.357,6.395c0,0,0.325-20.657,24.975-22.873c2.122-0.187,4.108-0.165,5.932,0.048
			C926.229,217.798,928.73,241.303,924.013,254.116z"/>
		<path fill="#F5D4B3" d="M918.532,254.538c-1.192,10.783-5.91,10.853-6.023,10.853c0,1.564-0.677,3.034-1.796,4.411
			c-0.027,0-0.027,0.048-0.073,0.048c-0.749,0.91-1.706,1.797-2.776,2.661c-1.147,0.909-2.429,1.772-3.806,2.636
			c-3.783,2.404-10.103,5.93-15.079,4.365c-0.98-0.305-1.864-0.702-2.704-1.144c-7.959-4.341-10.32-15.219-10.691-24.835
			c-0.049-0.327-0.049-0.513-0.049-0.513c-0.28-8.941,1.074-16.668,1.074-16.668c11.788-8.822,20.586-5.601,26.559,0.165
			c0.655,0.63,1.287,1.307,1.869,1.984c1.96,2.287,3.549,4.761,4.763,6.98c2.032,3.664,3.011,6.582,3.011,6.582
			s0.068-0.117,0.162-0.282c0.375-0.56,1.237-1.797,2.194-2.262C916.965,248.608,919.092,249.473,918.532,254.538z"/>
		<path fill="#302B2D" d="M906.745,251.409c0,0-4.018,2.147-10.108,2.521c-0.303,0-0.867-8.356-1.048-11.507V242.4
			c-0.05-0.702-0.072-1.145-0.072-1.145s-0.05,0.49-0.095,1.26c-0.258,3.199-0.957,11.438-1.355,11.438
			c-2.285-0.07-4.763-0.63-7.467-1.189c-9.477-1.984-12.303-7.12-12.303-7.12s-1.192-9.291,4.131-14.751
			c6.862-7.05,18.37-6.769,18.37-6.769s2.361,0.467,4.808,3.174C904.668,230.683,907.864,237.568,906.745,251.409z"/>
		<path fill="#EBC4A5" d="M918.532,254.538c-1.192,10.783-5.91,10.853-6.023,10.853c0,1.564-0.677,3.034-1.796,4.411
			c-0.027,0-0.027,0.048-0.073,0.048c-1.539,1.889-3.923,3.641-6.582,5.298c-3.783,2.404-10.103,5.93-15.079,4.365
			c-0.98-0.305-1.864-0.702-2.704-1.144c4.714,0.817,10.759-0.538,15.522-5.276c6.185-6.185,6.302-23.41,3.241-34.591
			c5.233,6.068,7.774,13.562,7.774,13.562s1.097-1.939,2.356-2.544C916.965,248.608,919.092,249.473,918.532,254.538z"/>
		<path fill="#302B2D" d="M912.997,251.854c0,0-0.465,7.445-2.799,7.445c-1.354,0-1.192-4.481-1.774-8.192
			c-0.14-0.912-0.398-1.752-0.655-2.474c-0.515-1.379-1.075-2.311-1.075-2.311l-5.088-9.968l1.562,0.165l6.677,0.655l1.309,6.09
			l1.819,8.519L912.997,251.854z"/>
		<path fill="#231F20" d="M895.422,242.515c-0.258,3.199-0.957,11.438-1.355,11.438c-2.285-0.07-4.763-0.63-7.467-1.189
			c-9.477-1.984-12.303-7.12-12.303-7.12S887.345,248.095,895.422,242.515z"/>
		<path fill="#231F20" d="M906.745,251.409c0,0-4.018,2.147-10.108,2.521c-0.303,0-0.867-8.356-1.048-11.507V242.4
			c3.874-2.731,6.578-7.377,6.018-15.104C904.668,230.683,907.864,237.568,906.745,251.409z"/>
		<path fill="#231F20" d="M924.013,254.116c-5.156,14.029-13.16,15.498-13.16,15.498c1.048-1.33,1.657-2.729,1.657-4.224
			c0.113,0,4.831-0.07,6.023-10.853c0.56-5.065-1.567-5.93-3.364-5.018c-0.957,0.465-1.819,1.702-2.194,2.262l0.023,0.072
			c0,0-0.465,7.445-2.799,7.445c-0.374,0-0.655-0.35-0.817-0.957c-0.398-1.214-0.515-3.431-0.745-5.625
			c-0.073-0.537-0.117-1.097-0.212-1.609c0-0.025,0-0.025,0-0.048c-0.14-0.887-0.398-1.727-0.655-2.427l0.234-0.772v-0.022
			c0,0,0.768-0.865,1.797-2.357c0.42-0.632,0.885-1.377,1.354-2.219c3.476-6.162,7.187-17.505-4.176-27.751
			C926.229,217.798,928.73,241.303,924.013,254.116z"/>
		<path fill="#EBC4A5" d="M880.09,323.51l-12.329-1.797c0,0-1.422-1.237-2.799-2.217c-0.257-0.187-0.492-0.584-0.677-1.074
			l0.027-0.023c0,0,8.329,6.093,10.988-0.982C877.219,319.566,880.09,323.51,880.09,323.51z"/>
		<path fill="#F5D4B3" d="M888.957,481.785c-1.702,10.975-5.553,16.808-9.291,19.539c-1.35-0.61-1.937-1.774-0.745-2.966
			c2.799-2.799,3.364-16.384,3.364-24.808c0-4.813-0.587-19.305-1.097-30.93C881.697,443.411,892.248,460.688,888.957,481.785z"/>
		<path fill="#F5D4B3" d="M909.823,512.619c-0.442,0.073-0.912,0.095-1.399,0.045c-3.011-0.298-3.151-4.69-3.219-10.081
			c-0.095-6.442,0.23-13.864,0.23-15.381c0-1.472-1.774-18.135-3.503-33.846c0,0,10.018,3.056,10.018,19.679
			C911.95,486.548,912.974,503.753,909.823,512.619z"/>
	</g>
	<g>
		<polygon fill="#F1F2F2" points="240.987,238.016 275.118,257.72 309.248,238.016 275.118,218.31 		"/>
		<polygon fill="#F1F2F2" points="192.184,212.852 226.315,232.556 260.445,212.852 226.315,193.146 		"/>
		<polygon fill="#F1F2F2" points="142.16,190.487 176.291,210.193 210.421,190.487 176.291,170.781 		"/>
		<polygon fill="#F1F2F2" points="289.792,262.271 323.923,281.977 358.053,262.271 323.923,242.565 		"/>
		<linearGradient id="SVGID_24_" gradientUnits="userSpaceOnUse" x1="159.2254" y1="400.7028" x2="159.2254" y2="190.4869">
			<stop  offset="0" style="stop-color:#2E3ADE"/>
			<stop  offset="0.1577" style="stop-color:#2B45E1"/>
			<stop  offset="0.4344" style="stop-color:#2262E9"/>
			<stop  offset="0.7948" style="stop-color:#1591F5"/>
			<stop  offset="1" style="stop-color:#0CAFFD"/>
		</linearGradient>
		<polygon fill="url(#SVGID_24_)" points="176.291,210.193 176.291,400.703 142.16,380.996 142.16,190.487 		"/>
		<linearGradient id="SVGID_25_" gradientUnits="userSpaceOnUse" x1="306.8576" y1="315.3381" x2="306.8576" y2="262.2712">
			<stop  offset="0" style="stop-color:#2E3ADE"/>
			<stop  offset="0.1577" style="stop-color:#2B45E1"/>
			<stop  offset="0.4344" style="stop-color:#2262E9"/>
			<stop  offset="0.7948" style="stop-color:#1591F5"/>
			<stop  offset="1" style="stop-color:#0CAFFD"/>
		</linearGradient>
		<polygon fill="url(#SVGID_25_)" points="323.923,281.977 323.923,315.338 289.792,295.632 289.792,262.271 		"/>
		<linearGradient id="SVGID_26_" gradientUnits="userSpaceOnUse" x1="340.9879" y1="315.3381" x2="340.9879" y2="262.2712">
			<stop  offset="0" style="stop-color:#2E3ADE"/>
			<stop  offset="0.1058" style="stop-color:#2657E6"/>
			<stop  offset="0.3559" style="stop-color:#1396F6"/>
			<stop  offset="0.4743" style="stop-color:#0CAFFD"/>
			<stop  offset="0.5452" style="stop-color:#10B0FD"/>
			<stop  offset="0.6145" style="stop-color:#1CB4FC"/>
			<stop  offset="0.6832" style="stop-color:#2FB9FB"/>
			<stop  offset="0.7514" style="stop-color:#4BC1FA"/>
			<stop  offset="0.8195" style="stop-color:#6FCCF8"/>
			<stop  offset="0.8873" style="stop-color:#9AD9F6"/>
			<stop  offset="0.9538" style="stop-color:#CDE7F4"/>
			<stop  offset="0.996" style="stop-color:#F1F2F2"/>
		</linearGradient>
		<polygon fill="url(#SVGID_26_)" points="358.053,262.271 358.053,295.632 323.923,315.338 323.923,281.977 		"/>
		<linearGradient id="SVGID_27_" gradientUnits="userSpaceOnUse" x1="292.183" y1="343.5025" x2="292.183" y2="238.0164">
			<stop  offset="0" style="stop-color:#2E3ADE"/>
			<stop  offset="0.1058" style="stop-color:#2657E6"/>
			<stop  offset="0.3559" style="stop-color:#1396F6"/>
			<stop  offset="0.4743" style="stop-color:#0CAFFD"/>
			<stop  offset="0.5452" style="stop-color:#10B0FD"/>
			<stop  offset="0.6145" style="stop-color:#1CB4FC"/>
			<stop  offset="0.6832" style="stop-color:#2FB9FB"/>
			<stop  offset="0.7514" style="stop-color:#4BC1FA"/>
			<stop  offset="0.8195" style="stop-color:#6FCCF8"/>
			<stop  offset="0.8873" style="stop-color:#9AD9F6"/>
			<stop  offset="0.9538" style="stop-color:#CDE7F4"/>
			<stop  offset="0.996" style="stop-color:#F1F2F2"/>
		</linearGradient>
		<polygon fill="url(#SVGID_27_)" points="309.248,238.016 309.248,323.796 275.118,343.502 275.118,257.72 		"/>
		<linearGradient id="SVGID_28_" gradientUnits="userSpaceOnUse" x1="258.0524" y1="343.5025" x2="258.0524" y2="238.0164">
			<stop  offset="0" style="stop-color:#2E3ADE"/>
			<stop  offset="0.1577" style="stop-color:#2B45E1"/>
			<stop  offset="0.4344" style="stop-color:#2262E9"/>
			<stop  offset="0.7948" style="stop-color:#1591F5"/>
			<stop  offset="1" style="stop-color:#0CAFFD"/>
		</linearGradient>
		<polygon fill="url(#SVGID_28_)" points="240.987,238.016 275.118,257.72 275.118,343.502 240.987,323.796 		"/>
		<linearGradient id="SVGID_29_" gradientUnits="userSpaceOnUse" x1="243.3798" y1="371.6692" x2="243.3798" y2="212.8523">
			<stop  offset="0" style="stop-color:#2E3ADE"/>
			<stop  offset="0.1058" style="stop-color:#2657E6"/>
			<stop  offset="0.3559" style="stop-color:#1396F6"/>
			<stop  offset="0.4743" style="stop-color:#0CAFFD"/>
			<stop  offset="0.5452" style="stop-color:#10B0FD"/>
			<stop  offset="0.6145" style="stop-color:#1CB4FC"/>
			<stop  offset="0.6832" style="stop-color:#2FB9FB"/>
			<stop  offset="0.7514" style="stop-color:#4BC1FA"/>
			<stop  offset="0.8195" style="stop-color:#6FCCF8"/>
			<stop  offset="0.8873" style="stop-color:#9AD9F6"/>
			<stop  offset="0.9538" style="stop-color:#CDE7F4"/>
			<stop  offset="0.996" style="stop-color:#F1F2F2"/>
		</linearGradient>
		<polygon fill="url(#SVGID_29_)" points="260.445,212.852 260.445,351.963 226.315,371.669 226.315,232.556 		"/>
		<linearGradient id="SVGID_30_" gradientUnits="userSpaceOnUse" x1="209.2495" y1="371.6692" x2="209.2495" y2="212.8523">
			<stop  offset="0" style="stop-color:#2E3ADE"/>
			<stop  offset="0.1577" style="stop-color:#2B45E1"/>
			<stop  offset="0.4344" style="stop-color:#2262E9"/>
			<stop  offset="0.7948" style="stop-color:#1591F5"/>
			<stop  offset="1" style="stop-color:#0CAFFD"/>
		</linearGradient>
		<polygon fill="url(#SVGID_30_)" points="192.184,212.852 226.315,232.556 226.315,371.669 192.184,351.963 		"/>
		<linearGradient id="SVGID_31_" gradientUnits="userSpaceOnUse" x1="193.3558" y1="400.7028" x2="193.3558" y2="190.4869">
			<stop  offset="0" style="stop-color:#2E3ADE"/>
			<stop  offset="0.1058" style="stop-color:#2657E6"/>
			<stop  offset="0.3559" style="stop-color:#1396F6"/>
			<stop  offset="0.4743" style="stop-color:#0CAFFD"/>
			<stop  offset="0.5452" style="stop-color:#10B0FD"/>
			<stop  offset="0.6145" style="stop-color:#1CB4FC"/>
			<stop  offset="0.6832" style="stop-color:#2FB9FB"/>
			<stop  offset="0.7514" style="stop-color:#4BC1FA"/>
			<stop  offset="0.8195" style="stop-color:#6FCCF8"/>
			<stop  offset="0.8873" style="stop-color:#9AD9F6"/>
			<stop  offset="0.9538" style="stop-color:#CDE7F4"/>
			<stop  offset="0.996" style="stop-color:#F1F2F2"/>
		</linearGradient>
		<polygon fill="url(#SVGID_31_)" points="210.421,190.487 210.421,380.996 176.291,400.703 176.291,210.193 		"/>
	</g>
</g>
</svg>
