<?xml version="1.0" encoding="utf-8"?>
<!-- Generator: Adobe Illustrator 17.0.0, SVG Export Plug-In . SVG Version: 6.00 Build 0)  -->
<!DOCTYPE svg PUBLIC "-//W3C//DTD SVG 1.1//EN" "http://www.w3.org/Graphics/SVG/1.1/DTD/svg11.dtd">
<svg version="1.1" id="content" xmlns="http://www.w3.org/2000/svg" xmlns:xlink="http://www.w3.org/1999/xlink" x="0px" y="0px"
	 width="1050px" height="698px" viewBox="0 0 1050 698" enable-background="new 0 0 1050 698" xml:space="preserve">
<g>
	<g>
		<g>
			<g>
				<path fill="#BCBCBC" d="M447.775,122.377l-1.977,1.188c-2.93,1.76-5.047,0.232-4.248-3.067l0.002-0.009l-0.011,0.007
					c0.369-1.653,0.169-3.153-2.155-3.566c-0.706-0.126-1.587,0.073-2.482,0.638c-2.494,1.575-4.483,4.818-4.483,7.33
					c0,0.371,0.056,0.696,0.135,0.997l-0.011,0.007l0,0c0.805,2.337-1.313,6.416-4.246,8.178l-1.977,1.188
					c-2.258,1.357-4.088,4.287-4.088,6.545v0.764l29.63-17.803v-0.764C451.863,121.75,450.033,121.02,447.775,122.377z
					 M437.048,124.509c-1.337,0.803-2.415,0.373-2.415-0.953c0-1.337,1.078-3.063,2.415-3.866c1.337-0.803,2.415-0.373,2.415,0.964
					C439.463,121.98,438.385,123.706,437.048,124.509z"/>
				<path fill="#D3D3D3" d="M473.085,122.13l-72.071,43.305v-1.849c0-5.492,4.453-12.62,9.945-15.92l52.181-31.354
					c5.493-3.3,9.945-1.523,9.945,3.969V122.13z"/>
			</g>
			<g>
				<path fill="#0B4656" d="M522.012,95.983l-4.442-1.817l-0.014,0.027c-1.069-0.423-2.318-0.412-3.44,0.278l-162.022,99.578
					c-3.208,1.972-5.163,5.467-5.163,9.233v264.047c0,1.763,0.966,3.186,2.308,3.937h0l0,0c0.313,0.175,0.648,0.31,0.995,0.408
					l3.389,1.389l1.349-2.608l160.83-98.845c2.627-1.615,4.227-4.477,4.227-7.56V97.777c0-0.486-0.11-0.927-0.264-1.343l1.704,0.485
					L522.012,95.983z"/>
				<path fill="#063444" d="M524.239,99.487v266.272c0,3.083-1.601,5.946-4.228,7.56l-161.998,99.563
					c-3.006,1.847-6.873-0.315-6.873-3.843V204.991c0-3.766,1.955-7.261,5.163-9.233l162.022-99.578
					C520.911,94.591,524.239,96.452,524.239,99.487z"/>
				<path fill="#4DE4E8" d="M518.325,106.192v258.083c0,1.155-0.599,2.227-1.583,2.832L359.36,463.833
					c-1.009,0.62-2.306-0.106-2.306-1.289V204.855c0-1.679,0.872-3.238,2.302-4.117l156.28-96.049
					C516.812,103.966,518.325,104.812,518.325,106.192z"/>
			</g>
			<g>
				<path fill="#0FB1B5" d="M428.98,174.316v96.264c0,0.431-0.224,0.831-0.591,1.056l-58.703,36.078
					c-0.376,0.231-0.86-0.039-0.86-0.481v-96.117c0-0.626,0.325-1.208,0.859-1.536l58.292-35.826
					C428.416,173.486,428.98,173.801,428.98,174.316z"/>
				<path fill="#0FB1B5" d="M428.98,288.744v9.227c0,0.431-0.224,0.831-0.591,1.056l-58.703,36.079
					c-0.376,0.231-0.86-0.039-0.86-0.481v-9.08c0-0.626,0.325-1.208,0.859-1.536l58.292-35.826
					C428.416,287.914,428.98,288.23,428.98,288.744z"/>
				<path fill="#1CC6C6" d="M422.831,258.373v7.341c0,0.343-0.178,0.661-0.47,0.84l-46.701,28.702
					c-0.299,0.184-0.684-0.031-0.684-0.383v-7.224c0-0.498,0.259-0.961,0.683-1.222l46.374-28.501
					C422.382,257.713,422.831,257.964,422.831,258.373z"/>
				<path fill="#0FB1B5" d="M428.98,307.885v9.227c0,0.431-0.224,0.831-0.591,1.056l-58.703,36.078
					c-0.376,0.231-0.86-0.039-0.86-0.481v-9.08c0-0.626,0.325-1.208,0.859-1.536l58.292-35.826
					C428.416,307.055,428.98,307.37,428.98,307.885z"/>
				<path fill="#0FB1B5" d="M415.628,335.224v9.227c0,0.431-0.224,0.831-0.591,1.056l-45.35,27.88
					c-0.376,0.231-0.86-0.039-0.86-0.481v-9.08c0-0.626,0.325-1.208,0.859-1.536l44.939-27.628
					C415.063,334.394,415.628,334.709,415.628,335.224z"/>
				<path fill="#0FB1B5" d="M493.045,276.82v9.227c0,0.431-0.224,0.831-0.591,1.056l-45.35,27.88
					c-0.376,0.231-0.86-0.039-0.86-0.481v-9.08c0-0.626,0.325-1.208,0.859-1.536l44.939-27.628
					C492.48,275.99,493.045,276.305,493.045,276.82z"/>
				<path fill="#0FB1B5" d="M493.045,304.01v9.227c0,0.431-0.224,0.83-0.591,1.056l-45.35,27.88c-0.376,0.231-0.86-0.039-0.86-0.481
					v-9.08c0-0.626,0.325-1.208,0.859-1.536l44.939-27.628C492.48,303.179,493.045,303.495,493.045,304.01z"/>
				<path fill="#0FB1B5" d="M428.98,346.167v9.227c0,0.431-0.224,0.831-0.591,1.056l-58.703,36.078
					c-0.376,0.231-0.86-0.039-0.86-0.481v-9.08c0-0.626,0.325-1.208,0.859-1.536l58.292-35.826
					C428.416,345.337,428.98,345.652,428.98,346.167z"/>
				<path fill="#0FB1B5" d="M387.792,404.357v13.376c0,0.624-0.324,1.204-0.856,1.531l-12.447,7.561
					c-0.545,0.335-1.247-0.057-1.247-0.697v-13.163c0-0.908,0.471-1.751,1.245-2.226l11.851-7.195
					C386.974,403.153,387.792,403.611,387.792,404.357z"/>
				<path fill="#FFDC79" d="M408.386,391.772v13.376c0,0.624-0.324,1.204-0.856,1.531l-12.447,7.561
					c-0.545,0.335-1.247-0.057-1.247-0.697V400.38c0-0.908,0.471-1.751,1.245-2.226l11.851-7.195
					C407.568,390.568,408.386,391.025,408.386,391.772z"/>
				<path fill="#FE5C99" d="M428.98,379.186v13.376c0,0.624-0.324,1.204-0.856,1.531l-12.447,7.561
					c-0.545,0.335-1.247-0.057-1.247-0.697v-13.163c0-0.908,0.471-1.751,1.245-2.226l11.851-7.195
					C428.162,377.983,428.98,378.44,428.98,379.186z"/>
				<path fill="#0FB1B5" d="M482.746,142.125v3.51c0,0.431-0.224,0.831-0.591,1.056l-39.314,24.177
					c-0.376,0.231-0.86-0.039-0.86-0.481v-3.363c0-0.626,0.325-1.208,0.859-1.536l38.903-23.924
					C482.182,141.294,482.746,141.61,482.746,142.125z"/>
				<path fill="#0FB1B5" d="M468.31,161.177v3.51c0,0.431-0.224,0.831-0.591,1.056l-24.877,15.384
					c-0.376,0.231-0.86-0.039-0.86-0.481v-3.363c0-0.626,0.325-1.208,0.859-1.536l24.466-15.132
					C467.745,160.347,468.31,160.662,468.31,161.177z"/>
				<path fill="#0FB1B5" d="M502.135,150.743v3.51c0,0.431-0.224,0.83-0.591,1.056l-58.703,36.079
					c-0.376,0.231-0.86-0.039-0.86-0.481v-3.363c0-0.626,0.325-1.208,0.859-1.536l58.292-35.826
					C501.571,149.913,502.135,150.228,502.135,150.743z"/>
				<path fill="#0FB1B5" d="M496.903,164.125v3.51c0,0.431-0.224,0.831-0.591,1.056l-53.471,32.957
					c-0.376,0.231-0.86-0.039-0.86-0.481v-3.363c0-0.626,0.325-1.208,0.859-1.536l53.06-32.704
					C496.339,163.294,496.903,163.61,496.903,164.125z"/>
				<path fill="#0FB1B5" d="M473.576,188.789v3.51c0,0.431-0.224,0.831-0.591,1.056l-30.143,18.553
					c-0.376,0.231-0.86-0.039-0.86-0.481v-3.363c0-0.626,0.325-1.208,0.859-1.536l29.732-18.301
					C473.011,187.958,473.576,188.274,473.576,188.789z"/>
				<path fill="#0FB1B5" d="M502.135,181.524v3.51c0,0.431-0.224,0.83-0.591,1.056l-58.703,36.079
					c-0.376,0.231-0.86-0.039-0.86-0.481v-3.363c0-0.626,0.325-1.208,0.859-1.536l58.292-35.826
					C501.571,180.693,502.135,181.009,502.135,181.524z"/>
				<path fill="#0FB1B5" d="M502.135,191.784v3.51c0,0.431-0.224,0.83-0.591,1.056l-58.703,36.079
					c-0.376,0.231-0.86-0.039-0.86-0.481v-3.363c0-0.626,0.325-1.208,0.859-1.536l58.292-35.826
					C501.571,190.954,502.135,191.269,502.135,191.784z"/>
				<path fill="#0FB1B5" d="M488.05,210.756v3.51c0,0.431-0.224,0.831-0.591,1.056l-44.618,27.367
					c-0.376,0.231-0.86-0.039-0.86-0.481v-3.363c0-0.626,0.325-1.208,0.859-1.536l44.207-27.114
					C487.486,209.926,488.05,210.241,488.05,210.756z"/>
				<path fill="#0FB1B5" d="M502.135,212.304v3.51c0,0.431-0.224,0.83-0.591,1.056l-58.703,36.079
					c-0.376,0.231-0.86-0.039-0.86-0.481v-3.363c0-0.626,0.325-1.208,0.859-1.536l58.292-35.826
					C501.571,211.474,502.135,211.789,502.135,212.304z"/>
				<path fill="#0FB1B5" d="M502.135,222.565v3.51c0,0.431-0.224,0.83-0.591,1.056l-58.703,36.079
					c-0.376,0.231-0.86-0.039-0.86-0.481v-3.363c0-0.626,0.325-1.208,0.859-1.536l58.292-35.826
					C501.571,221.734,502.135,222.05,502.135,222.565z"/>
				<g>
					<path fill="#FFFFFF" d="M408.789,216.605c0,5.459-4.425,16.625-9.885,20.036s-9.885-2.224-9.885-7.683
						c0-5.459,4.425-12.65,9.885-16.061S408.789,211.145,408.789,216.605z"/>
					<path fill="#FFFFFF" d="M422.831,247.196v1.607l-47.855,29.903V277.1c0-13.215,10.713-30.622,23.928-38.879
						c6.612-4.132,12.592-5.19,16.921-3.566C420.153,236.278,422.831,240.593,422.831,247.196z"/>
				</g>
				<g>
					<path fill="#FFFFFF" d="M478.017,124.498l-72.071,43.305v-1.849c0-5.492,4.453-12.62,9.945-15.92l52.181-31.354
						c5.493-3.3,9.945-1.523,9.945,3.969V124.498z"/>
					<path fill="#EAEAEA" d="M452.708,124.744l-1.977,1.188c-2.93,1.76-5.047,0.232-4.248-3.067l0.002-0.009l-0.011,0.007
						c0.369-1.653,0.169-3.153-2.155-3.566c-0.706-0.126-1.587,0.073-2.482,0.638c-2.494,1.575-4.483,4.818-4.483,7.33
						c0,0.371,0.056,0.696,0.135,0.997l-0.011,0.007l0,0c0.805,2.337-1.313,6.416-4.246,8.178l-1.977,1.188
						c-2.258,1.357-4.088,4.287-4.088,6.545v0.764l29.63-17.803v-0.764C456.796,124.118,454.965,123.388,452.708,124.744z
						 M441.981,126.876c-1.337,0.803-2.415,0.373-2.415-0.953c0-1.337,1.078-3.063,2.415-3.866c1.336-0.803,2.415-0.373,2.415,0.964
						C444.396,124.347,443.318,126.073,441.981,126.876z"/>
				</g>
				<path fill="#0FB1B5" d="M502.135,171.125v3.51c0,0.431-0.224,0.831-0.591,1.056l-24.108,14.974
					c-0.376,0.231-0.86-0.039-0.86-0.481v-3.363c0-0.626,0.325-1.208,0.859-1.536l23.697-14.721
					C501.571,170.294,502.135,170.61,502.135,171.125z"/>
			</g>
		</g>
		<g opacity="0.6">
			<g>
				<path fill="#BCBCBC" d="M614.561,72.536l-1.367,0.821c-2.026,1.217-3.491,0.16-2.938-2.121l0.001-0.006l-0.008,0.005
					c0.255-1.143,0.117-2.181-1.491-2.467c-0.489-0.087-1.098,0.05-1.717,0.441c-1.725,1.089-3.1,3.332-3.1,5.07
					c0,0.257,0.039,0.482,0.093,0.69l-0.008,0.005l0,0c0.557,1.616-0.908,4.438-2.937,5.657l-1.367,0.821
					c-1.562,0.938-2.828,2.965-2.828,4.527v0.528l20.494-12.314v-0.528C617.388,72.103,616.122,71.597,614.561,72.536z
					 M607.142,74.01c-0.924,0.555-1.67,0.258-1.67-0.659c0-0.925,0.746-2.118,1.67-2.674c0.924-0.555,1.67-0.258,1.67,0.667
					C608.812,72.261,608.066,73.455,607.142,74.01z"/>
				<path fill="#D3D3D3" d="M632.067,72.365l-49.849,29.952v-1.279c0-3.799,3.08-8.729,6.879-11.012l36.092-21.686
					c3.799-2.283,6.878-1.053,6.878,2.745V72.365z"/>
			</g>
			<g>
				<path fill="#0B4656" d="M665.908,54.28l-3.073-1.257l-0.01,0.019c-0.739-0.293-1.603-0.285-2.379,0.192l-112.064,68.874
					c-2.219,1.364-3.571,3.782-3.571,6.386v182.631c0,1.22,0.668,2.203,1.596,2.723h0l0,0c0.217,0.121,0.448,0.214,0.688,0.282
					l2.344,0.961l0.933-1.804l111.24-68.367c1.817-1.117,2.924-3.097,2.924-5.229V55.521c0-0.336-0.076-0.641-0.182-0.929
					l1.179,0.335L665.908,54.28z"/>
				<path fill="#063444" d="M667.448,56.704v184.17c0,2.133-1.107,4.112-2.924,5.229l-112.047,68.864
					c-2.079,1.278-4.754-0.218-4.754-2.658V129.677c0-2.605,1.352-5.022,3.571-6.386l112.064-68.874
					C665.146,53.318,667.448,54.605,667.448,56.704z"/>
				<path fill="#4DE4E8" d="M663.358,61.342v178.506c0,0.799-0.415,1.54-1.095,1.958l-108.855,66.902
					c-0.698,0.429-1.595-0.073-1.595-0.892V129.582c0-1.161,0.603-2.24,1.592-2.848l108.093-66.433
					C662.311,59.802,663.358,60.387,663.358,61.342z"/>
			</g>
			<g>
				<path fill="#0FB1B5" d="M601.561,108.46v66.582c0,0.298-0.155,0.574-0.409,0.73l-40.603,24.954
					c-0.26,0.16-0.595-0.027-0.595-0.333v-66.48c0-0.433,0.225-0.835,0.594-1.062l40.318-24.779
					C601.171,107.886,601.561,108.104,601.561,108.46z"/>
				<path fill="#0FB1B5" d="M601.561,187.606v6.382c0,0.298-0.155,0.575-0.409,0.731l-40.603,24.954
					c-0.26,0.16-0.595-0.027-0.595-0.333v-6.28c0-0.433,0.225-0.835,0.594-1.062l40.318-24.779
					C601.171,187.031,601.561,187.25,601.561,187.606z"/>
				<path fill="#1CC6C6" d="M597.308,166.599v5.077c0,0.237-0.123,0.457-0.325,0.581l-32.301,19.852
					c-0.207,0.127-0.473-0.022-0.473-0.265v-4.996c0-0.345,0.179-0.665,0.473-0.845l32.075-19.713
					C596.998,166.142,597.308,166.316,597.308,166.599z"/>
				<path fill="#0FB1B5" d="M601.561,200.845v6.382c0,0.298-0.155,0.574-0.409,0.73l-40.603,24.954
					c-0.26,0.16-0.595-0.027-0.595-0.333v-6.28c0-0.433,0.225-0.835,0.594-1.062l40.318-24.779
					C601.171,200.27,601.561,200.489,601.561,200.845z"/>
				<path fill="#0FB1B5" d="M592.326,219.754v6.382c0,0.298-0.155,0.574-0.409,0.731L560.55,246.15
					c-0.26,0.16-0.595-0.027-0.595-0.333v-6.28c0-0.433,0.225-0.835,0.594-1.062l31.083-19.109
					C591.935,219.18,592.326,219.398,592.326,219.754z"/>
				<path fill="#0FB1B5" d="M645.872,179.358v6.382c0,0.298-0.155,0.574-0.409,0.73l-31.367,19.284
					c-0.26,0.16-0.595-0.027-0.595-0.333v-6.28c0-0.433,0.225-0.835,0.594-1.062l31.083-19.109
					C645.482,178.784,645.872,179.002,645.872,179.358z"/>
				<path fill="#0FB1B5" d="M645.872,198.164v6.382c0,0.298-0.155,0.574-0.409,0.731l-31.367,19.284
					c-0.26,0.16-0.595-0.027-0.595-0.333v-6.28c0-0.433,0.225-0.835,0.594-1.062l31.083-19.109
					C645.482,197.59,645.872,197.808,645.872,198.164z"/>
				<path fill="#0FB1B5" d="M601.561,227.323v6.382c0,0.298-0.155,0.574-0.409,0.73l-40.603,24.954
					c-0.26,0.16-0.595-0.027-0.595-0.333v-6.28c0-0.433,0.225-0.835,0.594-1.062l40.318-24.779
					C601.171,226.748,601.561,226.967,601.561,227.323z"/>
				<path fill="#0FB1B5" d="M573.073,267.57v9.252c0,0.432-0.224,0.833-0.592,1.059l-8.609,5.23
					c-0.377,0.232-0.863-0.039-0.863-0.482v-9.104c0-0.628,0.326-1.211,0.861-1.54l8.197-4.977
					C572.507,266.738,573.073,267.054,573.073,267.57z"/>
				<path fill="#FFDC79" d="M587.317,258.866v9.252c0,0.432-0.224,0.833-0.592,1.059l-8.609,5.23
					c-0.377,0.232-0.862-0.04-0.862-0.482v-9.104c0-0.628,0.326-1.211,0.861-1.54l8.197-4.977
					C586.751,258.033,587.317,258.349,587.317,258.866z"/>
				<path fill="#FE5C99" d="M601.561,250.161v9.252c0,0.432-0.224,0.833-0.592,1.059l-8.609,5.23
					c-0.377,0.232-0.863-0.04-0.863-0.482v-9.104c0-0.628,0.326-1.211,0.861-1.54l8.197-4.977
					C600.996,249.328,601.561,249.645,601.561,250.161z"/>
				<path fill="#0FB1B5" d="M638.749,86.195v2.428c0,0.298-0.155,0.575-0.409,0.731l-27.192,16.722
					c-0.26,0.16-0.595-0.027-0.595-0.333v-2.326c0-0.433,0.225-0.835,0.594-1.062l26.908-16.547
					C638.359,85.62,638.749,85.838,638.749,86.195z"/>
				<path fill="#0FB1B5" d="M628.764,99.373v2.428c0,0.298-0.155,0.574-0.409,0.731l-17.207,10.641
					c-0.26,0.16-0.595-0.027-0.595-0.333v-2.326c0-0.433,0.225-0.835,0.594-1.062l16.922-10.466
					C628.374,98.798,628.764,99.016,628.764,99.373z"/>
				<path fill="#0FB1B5" d="M652.16,92.156v2.428c0,0.298-0.155,0.575-0.409,0.731l-40.603,24.954
					c-0.26,0.16-0.595-0.027-0.595-0.333v-2.326c0-0.433,0.225-0.835,0.594-1.062l40.318-24.779
					C651.77,91.581,652.16,91.8,652.16,92.156z"/>
				<path fill="#0FB1B5" d="M648.541,101.411v2.428c0,0.298-0.155,0.574-0.409,0.73l-36.984,22.795
					c-0.26,0.16-0.595-0.027-0.595-0.333v-2.326c0-0.433,0.225-0.835,0.594-1.062l36.699-22.62
					C648.151,100.837,648.541,101.055,648.541,101.411z"/>
				<path fill="#0FB1B5" d="M632.406,118.47v2.428c0,0.298-0.155,0.574-0.409,0.73l-20.849,12.833
					c-0.26,0.16-0.595-0.027-0.595-0.333v-2.326c0-0.433,0.225-0.835,0.594-1.062l20.564-12.658
					C632.016,117.896,632.406,118.114,632.406,118.47z"/>
				<path fill="#0FB1B5" d="M652.16,113.445v2.428c0,0.298-0.155,0.574-0.409,0.731l-40.603,24.954
					c-0.26,0.16-0.595-0.027-0.595-0.333v-2.326c0-0.433,0.225-0.835,0.594-1.062l40.318-24.779
					C651.77,112.871,652.16,113.089,652.16,113.445z"/>
				<path fill="#0FB1B5" d="M652.16,120.542v2.428c0,0.298-0.155,0.574-0.409,0.731l-40.603,24.954
					c-0.26,0.16-0.595-0.027-0.595-0.333v-2.326c0-0.433,0.225-0.835,0.594-1.062l40.318-24.779
					C651.77,119.968,652.16,120.186,652.16,120.542z"/>
				<path fill="#0FB1B5" d="M642.418,133.664v2.428c0,0.298-0.155,0.574-0.409,0.73l-30.86,18.928
					c-0.26,0.16-0.595-0.027-0.595-0.333v-2.326c0-0.433,0.225-0.835,0.594-1.062l30.576-18.754
					C642.027,133.09,642.418,133.308,642.418,133.664z"/>
				<path fill="#0FB1B5" d="M652.16,134.735v2.428c0,0.298-0.155,0.574-0.409,0.731l-40.603,24.954
					c-0.26,0.16-0.595-0.027-0.595-0.333v-2.326c0-0.433,0.225-0.835,0.594-1.062l40.318-24.779
					C651.77,134.161,652.16,134.379,652.16,134.735z"/>
				<path fill="#0FB1B5" d="M652.16,141.832v2.428c0,0.298-0.155,0.574-0.409,0.73l-40.603,24.954
					c-0.26,0.16-0.595-0.027-0.595-0.333v-2.326c0-0.433,0.225-0.835,0.594-1.062l40.318-24.779
					C651.77,141.257,652.16,141.476,652.16,141.832z"/>
				<g>
					<path fill="#FFFFFF" d="M587.596,137.709c0,3.776-3.061,11.499-6.837,13.859c-3.776,2.36-6.837-1.538-6.837-5.314
						c0-3.776,3.061-8.75,6.837-11.109C584.535,132.785,587.596,133.933,587.596,137.709z"/>
					<path fill="#FFFFFF" d="M597.308,158.869v1.111l-33.1,20.683v-1.111c0-9.14,7.41-21.18,16.55-26.891
						c4.573-2.858,8.709-3.59,11.703-2.467C595.456,151.317,597.308,154.301,597.308,158.869z"/>
				</g>
				<g>
					<path fill="#FFFFFF" d="M635.478,74.003l-49.849,29.952v-1.279c0-3.799,3.079-8.729,6.878-11.011L628.6,69.979
						c3.799-2.283,6.879-1.053,6.879,2.745V74.003z"/>
					<path fill="#EAEAEA" d="M617.972,74.173l-1.367,0.821c-2.026,1.217-3.491,0.16-2.938-2.121l0.002-0.006l-0.008,0.005
						c0.255-1.143,0.117-2.181-1.491-2.467c-0.489-0.087-1.098,0.05-1.717,0.441c-1.725,1.089-3.101,3.332-3.101,5.07
						c0,0.256,0.039,0.482,0.093,0.69l-0.008,0.005l0,0c0.557,1.616-0.908,4.438-2.937,5.657l-1.367,0.822
						c-1.562,0.938-2.828,2.965-2.828,4.527v0.528L620.8,75.83v-0.528C620.8,73.74,619.534,73.235,617.972,74.173z M610.553,75.648
						c-0.925,0.555-1.67,0.258-1.67-0.659c0-0.925,0.746-2.118,1.67-2.674c0.924-0.555,1.67-0.258,1.67,0.667
						C612.224,73.899,611.478,75.093,610.553,75.648z"/>
				</g>
				<path fill="#0FB1B5" d="M652.16,106.253v2.428c0,0.298-0.155,0.574-0.409,0.73l-16.674,10.357
					c-0.26,0.16-0.595-0.027-0.595-0.333v-2.326c0-0.433,0.225-0.835,0.594-1.062l16.39-10.182
					C651.77,105.678,652.16,105.896,652.16,106.253z"/>
			</g>
		</g>
		<g opacity="0.4">
			<g>
				<path fill="#BCBCBC" d="M272.214,282.2l-1.367,0.821c-2.026,1.217-3.491,0.16-2.938-2.121l0.002-0.006l-0.008,0.005
					c0.255-1.143,0.117-2.181-1.491-2.467c-0.488-0.087-1.098,0.051-1.717,0.441c-1.725,1.089-3.1,3.332-3.1,5.07
					c0,0.256,0.039,0.482,0.093,0.69l-0.008,0.005l0,0c0.557,1.616-0.908,4.438-2.937,5.656l-1.367,0.822
					c-1.562,0.938-2.828,2.965-2.828,4.527v0.528l20.494-12.314v-0.528C275.042,281.767,273.776,281.262,272.214,282.2z
					 M264.795,283.675c-0.924,0.555-1.67,0.258-1.67-0.659c0-0.924,0.746-2.118,1.67-2.674c0.925-0.555,1.67-0.258,1.67,0.667
					C266.466,281.926,265.72,283.12,264.795,283.675z"/>
				<path fill="#D3D3D3" d="M289.72,282.03l-49.849,29.952v-1.279c0-3.799,3.08-8.729,6.878-11.011l36.092-21.686
					c3.799-2.283,6.879-1.053,6.879,2.745V282.03z"/>
			</g>
			<g>
				<path fill="#0B4656" d="M323.562,263.945l-3.073-1.257l-0.01,0.019c-0.739-0.293-1.603-0.285-2.379,0.192l-112.064,68.874
					c-2.219,1.364-3.571,3.782-3.571,6.386V520.79c0,1.22,0.668,2.203,1.596,2.723l0,0l0,0c0.217,0.121,0.448,0.214,0.688,0.282
					l2.344,0.961l0.933-1.804l111.24-68.367c1.817-1.117,2.924-3.097,2.924-5.229v-184.17c0-0.336-0.076-0.641-0.182-0.929
					l1.179,0.335L323.562,263.945z"/>
				<path fill="#063444" d="M325.102,266.369v184.17c0,2.133-1.107,4.113-2.924,5.229L210.13,524.631
					c-2.079,1.278-4.754-0.218-4.754-2.658V339.342c0-2.605,1.352-5.022,3.571-6.386l112.064-68.874
					C322.8,262.982,325.102,264.269,325.102,266.369z"/>
				<path fill="#4DE4E8" d="M321.012,271.006v178.506c0,0.799-0.415,1.54-1.095,1.958l-108.855,66.901
					c-0.698,0.429-1.595-0.073-1.595-0.892V339.247c0-1.161,0.603-2.24,1.592-2.848l108.093-66.433
					C319.965,269.466,321.012,270.052,321.012,271.006z"/>
			</g>
			<g>
				<path fill="#0FB1B5" d="M259.215,318.125v66.582c0,0.298-0.155,0.574-0.408,0.73l-40.603,24.954
					c-0.26,0.16-0.595-0.027-0.595-0.333v-66.48c0-0.433,0.225-0.835,0.594-1.062l40.318-24.779
					C258.825,317.55,259.215,317.769,259.215,318.125z"/>
				<path fill="#0FB1B5" d="M259.215,397.27v6.382c0,0.298-0.155,0.575-0.408,0.731l-40.603,24.954
					c-0.26,0.16-0.595-0.027-0.595-0.333v-6.281c0-0.433,0.225-0.835,0.594-1.062l40.318-24.779
					C258.825,396.696,259.215,396.914,259.215,397.27z"/>
				<path fill="#1CC6C6" d="M254.962,376.264v5.077c0,0.237-0.123,0.457-0.325,0.581l-32.301,19.852
					c-0.207,0.127-0.473-0.022-0.473-0.265v-4.996c0-0.345,0.179-0.665,0.472-0.845l32.075-19.713
					C254.651,375.807,254.962,375.981,254.962,376.264z"/>
				<path fill="#0FB1B5" d="M259.215,410.509v6.382c0,0.298-0.155,0.575-0.408,0.731l-40.603,24.954
					c-0.26,0.16-0.595-0.027-0.595-0.333v-6.28c0-0.433,0.225-0.835,0.594-1.062l40.318-24.779
					C258.825,409.935,259.215,410.153,259.215,410.509z"/>
				<path fill="#0FB1B5" d="M249.979,429.419v6.382c0,0.298-0.155,0.574-0.408,0.73l-31.367,19.284
					c-0.26,0.16-0.595-0.027-0.595-0.333v-6.28c0-0.433,0.225-0.835,0.594-1.062l31.083-19.109
					C249.589,428.844,249.979,429.063,249.979,429.419z"/>
				<path fill="#0FB1B5" d="M303.526,389.023v6.382c0,0.298-0.155,0.575-0.408,0.73l-31.367,19.284
					c-0.26,0.16-0.595-0.027-0.595-0.333v-6.28c0-0.433,0.225-0.835,0.594-1.062l31.083-19.109
					C303.136,388.449,303.526,388.667,303.526,389.023z"/>
				<path fill="#0FB1B5" d="M303.526,407.829v6.382c0,0.298-0.155,0.574-0.408,0.731l-31.367,19.284
					c-0.26,0.16-0.595-0.027-0.595-0.333v-6.28c0-0.433,0.225-0.835,0.594-1.062l31.083-19.109
					C303.136,407.254,303.526,407.473,303.526,407.829z"/>
				<path fill="#0FB1B5" d="M259.215,436.987v6.382c0,0.298-0.155,0.574-0.408,0.73l-40.603,24.954
					c-0.26,0.16-0.595-0.027-0.595-0.333v-6.28c0-0.433,0.225-0.835,0.594-1.062l40.318-24.779
					C258.825,436.413,259.215,436.631,259.215,436.987z"/>
				<path fill="#0FB1B5" d="M230.727,477.235v9.252c0,0.432-0.224,0.833-0.592,1.059l-8.609,5.23
					c-0.377,0.232-0.862-0.039-0.862-0.482v-9.104c0-0.628,0.326-1.211,0.861-1.54l8.197-4.977
					C230.161,476.402,230.727,476.719,230.727,477.235z"/>
				<path fill="#FFDC79" d="M244.971,468.53v9.252c0,0.432-0.224,0.833-0.592,1.059l-8.609,5.23
					c-0.377,0.232-0.863-0.04-0.863-0.482v-9.104c0-0.628,0.326-1.211,0.861-1.54l8.197-4.977
					C244.405,467.698,244.971,468.014,244.971,468.53z"/>
				<path fill="#FE5C99" d="M259.215,459.825v9.252c0,0.432-0.224,0.833-0.592,1.059l-8.609,5.23
					c-0.377,0.232-0.862-0.039-0.862-0.482v-9.104c0-0.628,0.326-1.211,0.861-1.54l8.197-4.977
					C258.649,458.993,259.215,459.309,259.215,459.825z"/>
				<path fill="#0FB1B5" d="M296.403,295.859v2.428c0,0.298-0.155,0.575-0.408,0.731l-27.192,16.722
					c-0.26,0.16-0.595-0.027-0.595-0.333v-2.326c0-0.433,0.225-0.835,0.594-1.062l26.908-16.547
					C296.012,295.285,296.403,295.503,296.403,295.859z"/>
				<path fill="#0FB1B5" d="M286.418,309.037v2.428c0,0.298-0.155,0.574-0.408,0.73l-17.207,10.641
					c-0.26,0.16-0.595-0.027-0.595-0.333v-2.326c0-0.433,0.225-0.835,0.594-1.062l16.922-10.466
					C286.027,308.463,286.418,308.681,286.418,309.037z"/>
				<path fill="#0FB1B5" d="M309.814,301.82v2.428c0,0.298-0.155,0.574-0.409,0.731l-40.603,24.954
					c-0.26,0.16-0.595-0.027-0.595-0.333v-2.326c0-0.433,0.225-0.835,0.594-1.062l40.318-24.779
					C309.423,301.246,309.814,301.464,309.814,301.82z"/>
				<path fill="#0FB1B5" d="M306.195,311.076v2.428c0,0.298-0.155,0.575-0.409,0.731l-36.984,22.795
					c-0.26,0.16-0.595-0.027-0.595-0.333v-2.326c0-0.433,0.225-0.835,0.594-1.062l36.7-22.62
					C305.805,310.501,306.195,310.72,306.195,311.076z"/>
				<path fill="#0FB1B5" d="M290.06,328.135v2.428c0,0.298-0.155,0.575-0.409,0.73l-20.849,12.833
					c-0.26,0.16-0.595-0.027-0.595-0.333v-2.326c0-0.433,0.225-0.835,0.594-1.062l20.565-12.658
					C289.669,327.56,290.06,327.779,290.06,328.135z"/>
				<path fill="#0FB1B5" d="M309.814,323.11v2.428c0,0.298-0.155,0.574-0.409,0.731l-40.603,24.954
					c-0.26,0.16-0.595-0.027-0.595-0.333v-2.326c0-0.433,0.225-0.835,0.594-1.062l40.318-24.779
					C309.423,322.536,309.814,322.754,309.814,323.11z"/>
				<path fill="#0FB1B5" d="M309.814,330.207v2.428c0,0.298-0.155,0.574-0.409,0.73l-40.603,24.954
					c-0.26,0.16-0.595-0.027-0.595-0.333v-2.326c0-0.433,0.225-0.835,0.594-1.062l40.318-24.779
					C309.423,329.632,309.814,329.851,309.814,330.207z"/>
				<path fill="#0FB1B5" d="M300.071,343.329v2.428c0,0.298-0.155,0.574-0.408,0.73l-30.86,18.928
					c-0.26,0.16-0.595-0.027-0.595-0.333v-2.326c0-0.433,0.225-0.835,0.594-1.062l30.576-18.754
					C299.681,342.755,300.071,342.973,300.071,343.329z"/>
				<path fill="#0FB1B5" d="M309.814,344.4v2.428c0,0.298-0.155,0.574-0.409,0.73l-40.603,24.954
					c-0.26,0.16-0.595-0.027-0.595-0.333v-2.326c0-0.433,0.225-0.835,0.594-1.062l40.318-24.779
					C309.423,343.825,309.814,344.044,309.814,344.4z"/>
				<path fill="#0FB1B5" d="M309.814,351.496v2.428c0,0.298-0.155,0.574-0.409,0.73l-40.603,24.954
					c-0.26,0.16-0.595-0.027-0.595-0.333v-2.326c0-0.433,0.225-0.835,0.594-1.062l40.318-24.779
					C309.423,350.922,309.814,351.14,309.814,351.496z"/>
				<g>
					<path fill="#FFFFFF" d="M245.249,347.374c0,3.776-3.061,11.499-6.837,13.859c-3.776,2.359-6.837-1.538-6.837-5.314
						s3.061-8.75,6.837-11.109C242.188,342.45,245.249,343.598,245.249,347.374z"/>
					<path fill="#FFFFFF" d="M254.962,368.533v1.111l-33.1,20.683v-1.111c0-9.14,7.409-21.18,16.55-26.891
						c4.573-2.858,8.709-3.59,11.703-2.467C253.11,360.982,254.962,363.966,254.962,368.533z"/>
				</g>
				<g>
					<path fill="#FFFFFF" d="M293.132,283.667l-49.849,29.952v-1.279c0-3.799,3.08-8.729,6.879-11.012l36.092-21.686
						c3.799-2.283,6.878-1.053,6.878,2.745V283.667z"/>
					<path fill="#EAEAEA" d="M275.626,283.838l-1.367,0.821c-2.026,1.217-3.491,0.16-2.938-2.121l0.001-0.006l-0.008,0.005
						c0.255-1.143,0.117-2.181-1.491-2.467c-0.489-0.087-1.098,0.051-1.717,0.441c-1.725,1.089-3.1,3.332-3.1,5.07
						c0,0.256,0.039,0.482,0.093,0.69l-0.008,0.005l0,0c0.557,1.616-0.908,4.438-2.937,5.657l-1.367,0.822
						c-1.562,0.938-2.828,2.965-2.828,4.527v0.528l20.494-12.314v-0.528C278.454,283.405,277.188,282.9,275.626,283.838z
						 M268.207,285.313c-0.925,0.555-1.67,0.258-1.67-0.659c0-0.925,0.746-2.118,1.67-2.674c0.924-0.555,1.67-0.258,1.67,0.667
						C269.877,283.563,269.132,284.757,268.207,285.313z"/>
				</g>
				<path fill="#0FB1B5" d="M309.814,315.917v2.428c0,0.298-0.155,0.575-0.409,0.731l-16.674,10.357
					c-0.26,0.16-0.595-0.027-0.595-0.333v-2.326c0-0.433,0.225-0.835,0.594-1.062l16.39-10.182
					C309.423,315.343,309.814,315.561,309.814,315.917z"/>
			</g>
		</g>
	</g>
	<g>
		<path opacity="0.5" fill="#076D6D" d="M552.47,499.703l-66.272,39.955c-2.436,1.469-5.487,1.46-7.914-0.023l-66.594-40.683
			c-1.632-0.997-1.625-3.369,0.013-4.356l67.653-40.787c2.1-1.266,4.73-1.258,6.822,0.02l66.308,40.508
			C554.496,495.564,554.488,498.487,552.47,499.703z"/>
		<path fill="#EDEDED" d="M553.964,479.061c-0.061-0.964-0.541-1.905-1.477-2.477l-66.308-40.508
			c-2.092-1.278-4.722-1.286-6.822-0.02l-67.653,40.787c-0.831,0.501-1.238,1.359-1.228,2.213h-0.005v11.08l0.057,0.009
			c0.123,0.673,0.501,1.305,1.163,1.709l66.594,40.683c2.427,1.483,5.478,1.492,7.914,0.023l66.272-39.955
			c1.08-0.651,1.565-1.789,1.492-2.896l0.026,0.002v-10.655L553.964,479.061z"/>
		<path fill="#FFFFFF" d="M552.47,481.951l-66.272,39.955c-2.436,1.469-5.487,1.46-7.914-0.023L411.69,481.2
			c-1.632-0.997-1.625-3.369,0.013-4.356l67.653-40.787c2.1-1.266,4.73-1.258,6.822,0.02l66.308,40.508
			C554.496,477.812,554.488,480.735,552.47,481.951z"/>
	</g>
	<g>
		<path opacity="0.5" fill="#076D6D" d="M722.442,612.536l-66.272,39.954c-2.436,1.469-5.487,1.46-7.914-0.023l-66.594-40.683
			c-1.632-0.997-1.625-3.369,0.013-4.356l67.653-40.788c2.1-1.266,4.73-1.258,6.822,0.02l66.308,40.508
			C724.468,608.398,724.459,611.32,722.442,612.536z"/>
		<path fill="#EDEDED" d="M723.935,590.704c-0.062-0.964-0.541-1.905-1.477-2.477l-66.308-40.508
			c-2.092-1.278-4.722-1.286-6.822-0.02l-67.653,40.787c-0.831,0.501-1.238,1.359-1.228,2.213h-0.005v11.081l0.057,0.008
			c0.123,0.673,0.501,1.305,1.163,1.709l66.594,40.683c2.427,1.483,5.478,1.492,7.914,0.023l66.272-39.955
			c1.08-0.651,1.565-1.789,1.492-2.896l0.026,0.002V590.7L723.935,590.704z"/>
		<path fill="#FFFFFF" d="M722.442,593.595l-66.272,39.954c-2.436,1.469-5.487,1.46-7.914-0.023l-66.594-40.683
			c-1.632-0.997-1.625-3.369,0.013-4.356l67.653-40.788c2.1-1.266,4.73-1.258,6.822,0.02l66.308,40.508
			C724.468,589.456,724.459,592.378,722.442,593.595z"/>
	</g>
	<g>
		<path fill="#190B05" d="M683.373,593.42v0.132c0,0,0,0.066-0.022,0.154c-0.022,0.066-0.044,0.11-0.044,0.198
			c-0.242,0.859-1.233,3.083-4.999,3.743c-0.22,0.044-0.462,0.066-0.705,0.088c-0.088,0.022-0.198,0.044-0.286,0.044
			c-0.837,0.066-1.762,0.088-2.819,0.044c-0.308-0.022-0.617-0.044-0.925-0.088c-4.096-0.837-7.905-3.986-8.896-4.844
			c-0.176-0.154-0.264-0.242-0.264-0.242v-0.771c0,0-2.708-1.806-3.699-2.4c-3.017-1.784-7.355-3.303-11.494-5.351
			c-1.277-0.638-2.224-1.321-2.906-1.96c-0.132-0.132-0.264-0.286-0.396-0.396c-0.088-0.066-0.154-0.154-0.242-0.242
			c-0.088-0.11-0.154-0.242-0.242-0.352c-0.176-0.242-0.33-0.462-0.462-0.661c-0.066-0.132-0.132-0.242-0.176-0.33
			c-0.066-0.132-0.11-0.22-0.154-0.308c-0.044-0.11-0.088-0.22-0.11-0.33c0-0.022,0-0.022,0-0.022
			c-0.154-0.507-0.242-1.035-0.242-1.563v-2.708l25.213,10.327l13.784,5.153L683.373,593.42z"/>
		<path fill="#442312" d="M668.363,574.609c0,0-4.224-0.192-11.105-1.37c-6.881-1.178-11.629-1.514-12.518,0.631
			c-0.863,2.082-1.06,4.312,5.087,8.518c6.147,4.207,10.904,4.645,15.827,8.61c3.647,2.938,6.93,3.634,10.6,3.887
			c3.67,0.252,6.147-1.155,6.947-2.65c1.858-3.473-0.065-10.054-0.065-10.054"/>
		<path fill="#190B05" d="M658.568,597.426l0.022,3.417c0.008,1.229-0.623,2.432-1.735,2.953c-0.437,0.205-0.937,0.357-1.489,0.419
			c-4.266,0.482-10.835-0.529-10.835-0.529v-1.262c0,0-2.338-0.261-9.226-1.117c-7.118-0.884-11.922-2.993-14.265-4.25
			c-1.015-0.544-1.653-1.588-1.647-2.74l0.013-2.501l27.084,4.778L658.568,597.426z"/>
		<path fill="#442312" d="M639.567,585.429c0,0-3.015,2.837-6.561,2.837s-10.462-0.089-12.236,1.153
			c-0.886,0.62-1.33,1.374-1.385,2.216c-0.056,0.842,0.277,1.773,0.942,2.749c1.33,1.951,10.285,4.877,17.024,5.409
			c6.738,0.532,7.093,0.443,10.285,0.975c3.192,0.532,6.512,0.783,8.522-0.212c3.475-1.72,3.714-6.97,1.586-10.428
			C655.615,586.67,639.567,585.429,639.567,585.429z"/>
		<path fill="#063444" d="M655.203,354.04L607.9,382.513l-16.47-40c-0.621-1.507-0.047-3.241,1.349-4.082l42.319-25.473
			c1.345-0.809,3.095-0.231,3.693,1.22L655.203,354.04z"/>
		<path fill="#4DE4E8" d="M653.056,353.265l-43.981,26.563L593.869,342.9c-0.688-1.832-0.664-2.658,1.245-3.768l40.606-24.528
			c0.596-0.36,1.373-0.104,1.638,0.54L653.056,353.265z"/>
		<path opacity="0.5" fill="#DEFFFE" d="M611.307,345.58l-9.222,5.551c-0.247,0.149-0.569,0.042-0.679-0.224l-3.361-8.163
			c-0.089-0.215-0.007-0.463,0.193-0.583l9.222-5.551c0.247-0.149,0.569-0.042,0.679,0.224l3.361,8.163
			C611.588,345.212,611.506,345.46,611.307,345.58z"/>
		<path opacity="0.75" fill="#DEFFFE" d="M624.832,337.441l-9.222,5.551c-0.247,0.149-0.569,0.043-0.679-0.224l-3.361-8.163
			c-0.089-0.215-0.007-0.463,0.193-0.583l9.222-5.551c0.247-0.149,0.569-0.042,0.679,0.224l3.361,8.163
			C625.114,337.073,625.032,337.321,624.832,337.441z"/>
		<path fill="#DEFFFE" d="M630.952,357.229l-14.966,9.009c-0.401,0.242-0.923,0.069-1.102-0.364l-5.455-13.249
			c-0.144-0.349-0.011-0.752,0.313-0.946l14.967-9.009c0.401-0.242,0.923-0.069,1.102,0.364l5.455,13.248
			C631.409,356.632,631.276,357.034,630.952,357.229z"/>
		<path fill="#DEFFFE" d="M633.727,341.907l-4.992,3.005c-0.134,0.081-0.308,0.023-0.367-0.122l-0.108-0.312
			c-0.048-0.116-0.004-0.251,0.104-0.316l4.992-3.005c0.134-0.081,0.308-0.023,0.367,0.122l0.107,0.312
			C633.879,341.708,633.835,341.842,633.727,341.907z"/>
		<path fill="#DEFFFE" d="M629.777,346.48c-0.237,0.143-0.546,0.041-0.651-0.215l-0.19-0.553c-0.085-0.206-0.007-0.444,0.185-0.559
			l8.843-5.323c0.237-0.143,0.546-0.041,0.651,0.215l0.19,0.553c0.085,0.206,0.007,0.444-0.185,0.559"/>
		<path fill="#DEFFFE" d="M639.28,342.755l-8.843,5.323c-0.237,0.143-0.546,0.041-0.651-0.215l-0.19-0.553
			c-0.085-0.206-0.006-0.444,0.185-0.559l8.843-5.323c0.237-0.143,0.546-0.041,0.651,0.215l0.191,0.553
			C639.549,342.402,639.471,342.64,639.28,342.755z"/>
		<path fill="#DEFFFE" d="M639.94,344.352l-8.843,5.323c-0.237,0.143-0.545,0.041-0.651-0.215l-0.191-0.553
			c-0.085-0.206-0.006-0.444,0.185-0.559l8.843-5.323c0.237-0.143,0.546-0.041,0.651,0.215l0.19,0.553
			C640.21,343.999,640.131,344.237,639.94,344.352z"/>
		<path opacity="0.75" fill="#DEFFFE" d="M640.6,345.949l-8.843,5.323c-0.237,0.143-0.546,0.041-0.651-0.215l-0.19-0.553
			c-0.085-0.206-0.007-0.444,0.185-0.559l8.843-5.323c0.237-0.143,0.546-0.041,0.651,0.215l0.191,0.553
			C640.87,345.596,640.791,345.834,640.6,345.949z"/>
		<path opacity="0.5" fill="#DEFFFE" d="M641.26,347.546l-8.843,5.323c-0.237,0.143-0.545,0.041-0.651-0.215l-0.191-0.553
			c-0.085-0.206-0.006-0.444,0.185-0.559l8.843-5.323c0.237-0.143,0.546-0.041,0.651,0.215l0.19,0.553
			C641.53,347.193,641.451,347.431,641.26,347.546z"/>
		<path fill="#DEFFFE" d="M638.358,329.302l-9.222,5.551c-0.247,0.149-0.569,0.042-0.679-0.224l-3.361-8.163
			c-0.089-0.215-0.007-0.463,0.193-0.583l9.222-5.551c0.247-0.149,0.569-0.042,0.679,0.224l3.361,8.163
			C638.639,328.934,638.557,329.182,638.358,329.302z"/>
		<path fill="#F4D0AE" d="M654.542,340.128c-1.01,1.152-2.905,2.257-3.441,2.557l-0.6-0.772c-0.374-0.481-0.916-0.795-1.52-0.875
			c-1.169-0.154-3.175-0.582-4.209-1.747c-0.789-0.884-1.721-2.541-2.431-3.899c0,0-0.016-0.016-0.031-0.063
			c-0.016-0.063-0.063-0.142-0.126-0.253c-0.237-0.552-0.726-1.673-0.758-1.831c-0.032-0.142,0.079-0.268,0.142-0.331
			c0.032-0.016,0.048-0.032,0.048-0.032c0.41-0.221,1.026-0.474,1.389-0.253c0.395,0.221,1.089,1.137,1.799,2.036
			c0.568,0.726,1.342,1.247,2.194,1.594c0.095,0.047,0.189,0.079,0.268,0.126c0,0,0.537-0.3,0.126-1.294l-2.999-7.324
			c3.047,0.111,5.619,3.994,6.882,7.214C651.543,335.266,653.642,338.155,654.542,340.128z"/>
		<path fill="#FFE1BD" d="M612.065,376.433l-4.609,3.836l-0.868,0.726c0,0-1.058-4.42-2.92-6.093
			c-0.647-0.568-2.51-1.326-3.567-1.61c-0.616-0.174-1.152-0.521-1.531-1.026c-0.9-1.231-2.226-3.93-1.531-8.619
			c0.126-0.9,0.347-1.515,0.6-1.942c0.016-0.016,0.016-0.032,0.016-0.032c0.568-0.979,1.279-0.947,1.279-0.947s3.11,2.21,4.01,2.873
			c0.742,0.552,1.689,1.626,2.415,0.821c0.395-0.41-1.878-3.283-2.51-4.593c-0.616-1.31,0.584-2.731,1.121-2.226
			c0.521,0.521,3.71,4.53,5.004,7.924C610.265,368.904,612.065,376.433,612.065,376.433z"/>
		<path opacity="0.5" fill="#E9C69E" d="M608.513,376.986l-1.058,3.283l-0.868,0.726c0,0-1.058-4.42-2.92-6.093
			c-0.647-0.568-2.51-1.326-3.567-1.61c-0.616-0.174-1.152-0.521-1.531-1.026c-0.9-1.231-2.226-3.93-1.531-8.619
			c0.126-0.9,0.347-1.515,0.6-1.942c0.016-0.016,0.016-0.032,0.016-0.032s0.032,0.805,1.31,1.942
			c1.279,1.121,3.157,2.163,4.057,2.731c0.884,0.568,2.273,2.636,3.125,4.704C607.014,373.134,608.513,376.986,608.513,376.986z"/>
		<path fill="#FFE1BD" d="M676.349,334.608l0.55,1.277l-0.837,4.228l-13.476,6.782l-0.793-0.11l-2.158-0.264l-3.391-0.44v-4.668
			c0-2.4-1.299-4.734-3.501-5.681c-0.088-0.044-0.154-0.066-0.154-0.066c-0.749-0.286-1.519-0.771-2.29-1.541l-0.198-0.198
			c-2.598-2.753-4.91-8.94-4.25-22.482c0.132-2.356,0.661-6.452,1.74-8.544c1.96-3.765,6.122-6.254,14.709-3.897
			c14.313,3.963,20.567,10.459,21.293,16.074C684.32,320.67,676.349,334.608,676.349,334.608z"/>
		<path fill="#FFFFFF" d="M650.997,343.826l-0.68-1.65c0,0,3.231-1.996,3.897-2.884c0,0,0.495,0.609,0.988,1.439
			C655.203,340.73,654.241,342.467,650.997,343.826z"/>
		<path fill="#232323" d="M650.916,343.628c0,0,3.3-2.176,4.433-3.457c0,0,1.17,1.913,2.136,3.621
			c0.966,1.708,0.78,5.311,0.78,5.311l-4.468,1.52L650.916,343.628z"/>
		<path fill="#E9C69E" d="M656.245,346.08v-4.668c0-2.4-1.299-4.734-3.501-5.681c0.705,0.308,2.876,1.35,5.769,2.899
			c1.158,0.62,1.124,4.346,1.124,7.891L656.245,346.08z"/>
		<path fill="#EFEFEF" d="M605.725,380.892l-0.805-2.572c-0.154-0.491-0.122-1.02,0.101-1.484c0.443-0.925,1.268-2.486,2.107-3.256
			c1.239-1.135,2.871-1.324,3.855-0.624c0.4,0.284,0.726,1.281,1.002,1.943c0.235,0.563,0.268,2.124,0.199,2.297
			c-0.069,0.173-1.71,2.521-1.9,2.729C610.095,380.132,605.725,380.892,605.725,380.892z"/>
		<path fill="#3A3A3A" d="M690.156,462.675c-3.193,17.44-5.483,39.063-5.483,39.063s5.329,43.313-0.661,81.033
			c-0.264,1.784-0.881,5.549-3.171,7.024c-1.299,0.793-4.734,1.365-7.399-0.044c-0.11-0.066-0.22-0.11-0.33-0.176
			c-8.94-4.888-7.993-11.23-9.292-15.392c0.022-16.779,1.784-58.066-1.784-67.138l-3.193-36.597l1.167-26.16h32.017v0.088
			l0.154-0.088C692.181,444.289,694.912,451.313,690.156,462.675z"/>
		<path fill="#2D2D2D" d="M680.379,463.38c-3.017,9.909-6.892,35.782-7.707,42.102c0,0,2.973,49.831,0.44,84.093
			c-8.94-4.888-7.993-11.23-9.292-15.392c0.022-16.779,1.784-58.066-1.784-67.138l-3.193-36.597l1.167-26.16h22.02
			C682.03,444.289,683.395,453.471,680.379,463.38z"/>
		<path fill="#3A3A3A" d="M678.331,452.92c-1.013,4.492-2.995,10.768-6.914,16.735c-0.617,0.925-1.167,1.872-1.696,2.819
			c-0.11,0.44-1.673,6.298-3.611,14.159c-1.96,7.861-4.294,17.726-5.967,26.115c0.925,10.525,3.523,47.387-1.431,79.315
			c-0.352,2.268-1.982,4.14-4.206,4.756c-1.035,0.286-2.224,0.463-3.523,0.374c-0.947-0.066-1.938-0.264-2.951-0.705
			c-5.241-2.202-9.028-10.592-9.028-10.592s-0.132-53.023-2.885-66.94c-0.529-2.664-0.793-5.351-0.969-8.037
			c-0.507-8.522-1.431-24.068-1.718-30.564c-0.55-12.639-0.638-23.253-0.198-27.987l26.226,0.33L678.331,452.92z"/>
		<path fill="#2D2D2D" d="M659.46,452.7c-0.132,1.564-0.22,2.598-0.22,2.598s-0.264,6.606-3.589,16.515
			c-3.347,9.909-6.665,33.404-7.017,42.212c-0.352,8.103,3.956,46.726,2.349,83.169c-0.947-0.066-1.938-0.264-2.951-0.705
			c-5.241-2.202-9.028-10.592-9.028-10.592s-0.132-53.023-2.885-66.94c-0.529-2.664-0.793-5.351-0.969-8.037
			c-0.507-8.522-1.431-24.068-1.718-30.564c-0.55-12.639-0.638-23.253-0.198-27.987L659.46,452.7z"/>
		<path fill="#353535" d="M695.286,378.956c-4.228,12.838-6.606,33.932-4.052,42.74c2.576,8.808,4.052,21.293,4.052,21.293
			c-2.4,6.606-24.772,20.919-37.258,22.02c-1.519,0.132-3.061,0.066-4.58-0.176c-10.988-1.629-21.293-11.384-21.293-11.384
			s2.378-36.156,3.854-59.277c0.991-15.37,3.259-24.948,4.69-29.639c0.705-2.356,1.189-3.479,1.189-3.479
			c1.321-1.74,5.263-4.69,10.283-7.993c0.022,0,0.066-0.022,0.11-0.044c3.369-2.246,7.201-4.624,11.054-6.892h0.022
			c5.13-3.039,10.305-5.879,14.445-7.949c0.484-0.242,0.947-0.462,1.387-0.661c2.928-1.431,5.197-2.378,6.364-2.598
			c5.879-1.101,13.762,2.004,16.141,12.661C704.094,358.213,699.492,366.096,695.286,378.956z"/>
		<path fill="#232323" d="M652.127,421.542c-0.749,9.865,0.749,34.483,1.321,43.291c-10.988-1.629-21.293-11.384-21.293-11.384
			s2.378-36.156,3.854-59.277c0.991-15.37,3.259-24.948,4.69-29.639c1.189-1.365,1.96-2.224,1.96-2.224h14.489
			c0,0,7.531,1.541,4.8,18.695C659.174,398.157,653.03,409.431,652.127,421.542z"/>
		<path fill="#CCCCCC" d="M585.895,310.21"/>
		<path fill="#232323" d="M679.278,342.932c-2.202,3.017-10.1,7.378-13.733,8.148c-3.656,0.749-6.562,0.376-8.287,0.351
			c-2.421-0.034-4.294,1.299-4.977,1.586c-0.044,0.022-0.088,0.044-0.11,0.044c-0.022,0.022-0.044,0.022-0.044,0.022l2.158-3.281
			l2.51-1.607c0,0,3.677-1.343,4.492-1.718c0.264-0.132,1.057-0.242,2.048-0.352h0.022c2.18-0.264,5.307-0.485,5.791-0.551
			c0.683-0.088,6.364-3.986,6.606-4.14c0.132-0.088,1.255-1.938,2.048-3.259c0.484-0.242,0.947-0.462,1.387-0.661
			C679.982,338.506,681.017,340.531,679.278,342.932z"/>
		<path fill="#713E23" d="M687.359,315.583c-1.233,7.354-7.464,18.915-10.613,19.972c-1.916,0.661-3.699,0.925-5.197,0.991
			c-2.466,0.132-4.668-1.629-5.109-4.052c-0.396-2.07-1.035-4.646-2.136-6.65c-2.202-4.074-5.086-6.21-6.54-5.439
			c-1.453,0.749-1.299,3.369-1.299,3.369l-0.947-0.022c0,0-0.088-0.837-0.22-1.96c-0.11-1.101-0.22-2.51-0.286-3.589
			c0-2.752-0.859-5.439-2.532-7.619c-1.013-1.343-2.224-3.391-3.523-6.496c-0.859-2.07-1.057-4.03-0.881-5.813v-0.022
			c0.594-5.659,2.899-7.977,5.087-9.579c7.123-5.215,22.02,4.47,27.525,9.094c3.017,2.532,5.109,5.439,6.166,8.764v0.022
			C687.733,309.285,687.91,312.28,687.359,315.583z"/>
		<path fill="#FFFFFF" d="M678.255,337.162l-1.363-1.268c-8.9,9.817-20.643,10.184-20.643,10.184s-3.219,3.246-4.133,7.013
			l1.875-1.212c0.985-0.637,2.087-1.083,3.246-1.264c0.737-0.115,2.369-0.197,2.369-0.197c7.353-0.101,14.672-5.235,18.499-8.405
			C679.611,340.766,679.686,338.493,678.255,337.162z"/>
		<path fill="none" stroke="#381E1E" stroke-width="0.6975" stroke-miterlimit="10" d="M606.149,377.779"/>
		<path fill="none" stroke="#381E1E" stroke-width="0.6975" stroke-miterlimit="10" d="M592.293,344.493"/>
		<path fill="#474747" d="M644.971,581.208c0.116,0.246,0.297,0.452,0.464,0.667C645.252,581.633,645.096,581.407,644.971,581.208z"
			/>
		<path fill="#474747" d="M645.676,582.22c-0.098-0.105-0.154-0.235-0.241-0.346c0.141,0.186,0.292,0.378,0.483,0.589
			C645.83,582.397,645.764,582.309,645.676,582.22z"/>
		<path fill="#3A3A3A" d="M658.733,374.31c-1.387,8.103-16.845,31.686-17.484,32.633c-2.775,4.426-5.483,8.279-7.729,11.032h-0.022
			c-2.048,2.554-3.743,4.206-4.8,4.514c-0.198,0.066-0.396,0.11-0.617,0.154c-4.8,1.145-8.434-1.96-9.755-5.439
			c-1.255-2.753-4.998-9.248-8.059-17.616c-2.048-5.571-3.281-12.375-4.602-17.924c-0.308-1.343-0.154-2.752,0.551-3.964
			c0.066-0.088,0.11-0.198,0.176-0.286c0.859-1.431,2.048-3.039,3.105-3.215c1.938-0.286,2.312,0.22,2.312,0.22
			s3.545,5.703,6.364,10.107c2.18,3.413,4.624,9.38,5.615,11.891c0.264,0.749,0.44,1.189,0.44,1.189
			c5.109-11.869,11.781-26.446,14.489-32.545c3.281-7.376,13.256-8.962,18.431-2.752c0.066,0.088,0.132,0.176,0.22,0.264
			c0.33,0.396,0.55,0.925,0.727,1.475l0.022-0.022c0,0,0.022,0.022,0.044,0.044C658.425,364.401,660.032,366.735,658.733,374.31z"/>
		<path fill="#442312" d="M687.359,315.583c-1.233,7.354-7.464,18.915-10.613,19.972c-1.916,0.661-3.699,0.925-5.197,0.991
			c-2.466,0.132-4.668-1.629-5.109-4.052c-0.396-2.07-1.035-4.646-2.136-6.65c-2.202-4.074-5.086-6.21-6.54-5.439
			c-1.453,0.749-1.299,3.369-1.299,3.369l-0.947-0.022c0,0-0.088-0.837-0.22-1.96c-0.11-1.101-0.22-2.51-0.286-3.589
			c0-2.752-0.859-5.439-2.532-7.619c-1.013-1.343-2.224-3.391-3.523-6.496c-0.859-2.07-1.057-4.03-0.881-5.813
			c0.705,1.784,6.628,15.612,23.209,19.091c17.307,3.633,15.678-10.107,15.568-10.812
			C687.733,309.285,687.91,312.28,687.359,315.583z"/>
		<path fill="#141414" d="M622.841,404.763c0,0-0.947-6.012,0.947-8.345c0.264,0.749,0.44,1.189,0.44,1.189
			S622.577,401.042,622.841,404.763z"/>
		<path fill="#2D2D2D" d="M658.161,364.071l-0.066-0.022c0,0,0.528,6.76-5.879,18.034c-6.426,11.289-20.06,38.267-26.798,37.522
			c-3.552-0.393-4.813-6.033-6.232-7.046c-3.073-2.194-5.153-10.019-8.081-17.814c-2.334-6.232-4.096-14.335-4.712-17.33
			c-0.066,0.088-0.11,0.198-0.176,0.286c-0.705,1.211-0.859,2.62-0.551,3.964c1.321,5.549,2.554,12.353,4.602,17.924
			c3.061,8.367,6.804,14.863,8.059,17.616c1.33,3.482,4.959,6.533,9.755,5.408v0.031c0.22-0.044,0.418-0.088,0.617-0.154
			c1.057-0.308,2.752-1.96,4.8-4.514h0.022c2.246-2.753,4.954-6.606,7.729-11.032c0.639-0.947,16.096-24.53,17.484-32.633
			C660.032,366.735,658.425,364.401,658.161,364.071z"/>
	</g>
	<g>
		<polygon opacity="0.5" fill="#076D6D" points="396.219,519.306 439.543,545.791 448.667,540.282 405.343,513.797 		"/>
		<polygon fill="#063444" points="448.667,499.176 448.667,535.26 439.543,540.753 439.543,504.685 		"/>
		<polygon fill="#022636" points="405.343,472.691 405.343,508.775 396.219,514.268 396.219,478.2 		"/>
		<polygon fill="#063444" points="448.667,499.176 448.667,535.26 439.543,540.753 439.543,504.685 		"/>
		<polygon fill="#0B4656" points="396.219,478.2 439.543,504.685 448.667,499.176 405.343,472.691 		"/>
		<polygon fill="#022636" points="439.55,540.753 396.227,514.268 396.227,478.2 439.55,504.685 		"/>
		<polygon fill="#063444" points="396.219,478.2 417.881,509.476 439.543,504.685 		"/>
		<path fill="#82441D" d="M431.295,486.125v7.103c0,0.521-0.331,0.947-0.773,1.105c-0.126,0.047-0.268,0.079-0.41,0.079
			c-0.663,0-1.184-0.521-1.184-1.184v-7.103c0-0.679-0.363-1.31-0.931-1.657l-10.844-6.63c-0.253-0.158-0.537-0.158-0.789-0.016
			c-0.063,0.032-0.111,0.063-0.158,0.11c0,0-0.016,0.016-0.047,0.032c-0.126,0.142-0.189,0.331-0.189,0.537v5.367
			c0,0.489-0.316,0.916-0.742,1.089c-0.142,0.063-0.284,0.095-0.442,0.095c-0.663,0-1.184-0.537-1.184-1.184V478.5
			c0-1.168,0.6-2.194,1.61-2.747c0.253-0.142,0.505-0.253,0.773-0.3c0.805-0.221,1.657-0.095,2.399,0.363l10.844,6.63
			C430.506,483.22,431.295,484.625,431.295,486.125z"/>
		<polygon fill="#F7AA57" points="420.336,508.201 420.336,511.886 419.519,512.378 419.519,508.694 		"/>
		<polygon fill="#F4B77A" points="415.097,505.994 419.519,508.694 420.336,508.201 415.915,505.502 		"/>
		<polygon fill="#ECA140" points="419.519,512.378 415.097,509.675 415.097,505.994 419.519,508.694 		"/>
		<path fill="#9B5934" d="M431.295,486.125v7.103c0,0.521-0.331,0.947-0.773,1.105v-7.119c0-2.589-1.058-3.552-1.058-3.552
			l-13.48-8.208c0.805-0.221,1.657-0.095,2.399,0.363l10.844,6.63C430.506,483.22,431.295,484.625,431.295,486.125z"/>
		<path fill="#9B5934" d="M416.158,477.964c-0.126,0.142-0.189,0.331-0.189,0.537v5.367c0,0.489-0.316,0.916-0.742,1.089v-5.462
			C415.226,478.564,415.968,478.074,416.158,477.964z"/>
	</g>
	<g>
		<path fill="#190B05" d="M452.819,482.282c0,0,0.687,2.729,1.081,5.031c0.395,2.302,0.518,5.253,0.781,7.687
			c0.263,2.433,2.524,8.246,3.576,9.693c1.052,1.447,2.836,3.058,5.095,3.626c3.234,0.812,6.906,0.193,7.845-0.156
			c1.439-0.534,2.008-2.005,2.008-2.005"/>
		<path fill="#190B05" d="M512.867,473.383c0,1.515-2.257,2.573-4.578,2.762c-2.178,0.173-4.765-0.308-7.512-1.05
			c-2.731-0.742-3.896-1.394-5.827-2.202c-2.164-0.906-4.278-0.379-4.278-0.379s0,0.252-0.016,0.537c0,0-5.367,0.774-10.434-1.752
			c-0.016,0-0.016-0.016-0.032-0.016c0,0-0.047-1.199,0.032-2.225c0.047-0.884,0.205-2.178,0.205-2.178l32.438,5.414V473.383z"/>
		<path fill="#7F391B" d="M474.122,503.565c-0.032,0.284-0.079,0.568-0.126,0.837c-0.316,1.547-1.152,2.715-2.794,3.283
			c-3.046,1.042-8.682,0.489-11.46-2.526c-2.778-3.015-4.751-10.781-4.751-15.422c0-4.641-2.431-8.934-2.431-8.934h12.628
			c0.095,0.111,0.205,0.253,0.3,0.41c2.178,3.047,7.845,14.633,8.398,18.374C474.106,501.055,474.217,502.397,474.122,503.565z"/>
		<path fill="#934B32" d="M474.122,503.565c-0.063-0.079-0.111-0.189-0.126-0.316c-0.552-3.015-3.441-8.824-4.972-11.886
			c-1.531-3.062-4.388-8.634-4.388-8.634s0.379-0.663,0.852-1.515c2.178,3.047,7.845,14.633,8.398,18.374
			C474.106,501.055,474.217,502.397,474.122,503.565z"/>
		<path fill="#682C17" d="M473.998,504.395c-0.316,1.547-1.152,2.715-2.794,3.283c-3.046,1.042-8.682,0.489-11.46-2.526
			c-2.778-3.015-4.751-10.781-4.751-15.422c0-4.641-2.431-8.934-2.431-8.934h5.13l0.41,2.668c0,0,0.142,10.781,2.699,16.116
			c2.573,5.32,7.245,6.44,9.282,6.314c2.036-0.142,3.331-0.41,3.899-1.484C473.982,504.411,473.982,504.395,473.998,504.395z"/>
		<path fill="#7F391B" d="M512.874,472.879c-0.079,0.758-0.521,1.326-1.137,1.626c-2.115,0.963-6.551,0.647-9.25,0
			c-2.699-0.663-7.719-3.031-10.371-3.315c-2.652-0.268-7.814-0.742-9.108-1.105c-1.31-0.379-2.652-1.073-2.936-3.583
			c-0.268-2.51,0.979-4.562,0.979-4.562l2.084,0.126l12.281,0.789l0.284,0.016c0,0,4.278,1.531,6.267,2.241
			c2.005,0.695,6.188,1.342,8.934,3.899c0.458,0.426,0.821,0.837,1.105,1.231l0.016,0.016
			C512.732,471.253,512.969,472.153,512.874,472.879z"/>
		<path fill="#934B32" d="M512.006,470.243c-2.005-1.721-6.203-2.999-9.629-3.883c-3.457-0.9-6.819-1.973-6.819-1.973
			s-0.079-0.663-0.142-1.531l0.284,0.016c0,0,4.278,1.531,6.267,2.241c2.005,0.695,6.188,1.342,8.934,3.899
			C511.359,469.438,511.722,469.849,512.006,470.243z"/>
		<path fill="#682C17" d="M512.876,472.873c-0.079,0.758-0.521,1.326-1.137,1.626c-2.115,0.963-6.551,0.647-9.25,0
			c-2.699-0.663-7.719-3.031-10.371-3.315c-2.652-0.268-7.814-0.742-9.108-1.105c-1.31-0.379-2.652-1.073-2.936-3.583
			c-0.268-2.51,0.979-4.562,0.979-4.562l2.084,0.126l-0.063,0.663c0,0-1.926,2.668-0.647,4.688c1.279,2.02,6.061,1.721,8.982,2.068
			c2.904,0.347,7.103,2.715,11.144,3.41c4.041,0.695,8.887,1.279,10.308,0L512.876,472.873z"/>
		<path fill="#3A3A3A" d="M503.435,395.833c-0.505,2.052-0.916,4.057-1.263,5.982c-0.016,0.063-0.016,0.111-0.016,0.111
			c-0.331,1.894-0.6,3.709-0.852,5.414c-0.016,0.063-0.016,0.111-0.032,0.174c-0.032,0.189-0.079,0.489-0.142,0.931
			c-0.063,0.442-0.126,0.868-0.189,1.279c-0.537,3.488-1.515,10.686-2.368,20.473c-0.016,0.079-0.016,0.142-0.016,0.221
			c-0.347,3.252-0.647,7.656-0.9,12.328c-0.063,1.073-0.126,2.163-0.174,3.267c-0.3,6.109-0.537,12.344-0.679,16.906
			c-0.032,1.137-0.679,2.178-1.689,2.715c-0.805,0.442-1.657,0.679-2.668,0.71c-2.699,0.079-4.862-0.316-6.566-0.868
			c-1.642-0.552-2.857-1.279-3.694-1.878c-0.931-0.695-1.452-1.799-1.405-2.952c0.111-3.867,0.347-14.112-0.063-24.356
			c-0.505-12.991-1.515-37.442-1.515-37.442l4.578-40.993l8.508-1.894c-0.442-2.384-0.916-5.114-1.247-7.04
			c-0.253-1.484-0.426-2.494-0.426-2.494h16.653c0,0,0.016,0.237,0.032,0.695C507.507,351.493,508.375,376.023,503.435,395.833z"/>
		<path opacity="0.5" fill="#595959" d="M503.435,395.833c-0.505,2.052-0.916,4.057-1.263,5.982
			c0.158-1.405,1.689-14.948,2.384-21.862c0.726-7.308-0.458-30.133-0.458-30.133s1.452-1.231,3.204-2.699
			C507.507,351.493,508.375,376.023,503.435,395.833z"/>
		<path fill="#2D2D2D" d="M496.167,352.755c0,0-0.379,23.583-6.093,47.907c-3.457,14.68-4.167,43.945-4.199,64.813
			c-1.642-0.552-2.857-1.279-3.694-1.878c-0.931-0.695-1.452-1.799-1.405-2.952c0.111-3.867,0.347-14.112-0.063-24.356
			c-0.505-12.991-1.515-37.442-1.515-37.442l4.578-40.993l8.508-1.894c-0.442-2.383-0.916-5.114-1.247-7.04L496.167,352.755z"/>
		<path fill="#3A3A3A" d="M488.953,354.807c0,0,1.405,29.707-9.771,62.303c0,0.016,0,0.016,0,0.032
			c-2.084,5.209-3.694,9.424-4.136,11.207c-0.931,3.678-5.146,40.599-6.156,49.517c-0.158,1.452-0.631,2.857-1.405,4.088
			c-1.531,2.447-3.741,4.53-7.735,4.151c-1.184-0.111-2.32-0.363-3.362-0.663c-1.721-0.505-3.22-1.184-4.293-1.736
			c-1.121-0.568-1.799-1.72-1.768-2.983c0.284-9.55,1.531-51.443,2.32-56.668c0.884-5.904,4.514-18.784,6.219-42.414
			c0.237-3.41,0.063-6.882-1.058-10.118c-3.015-8.761-0.268-16.448-0.268-16.448s1.058,0.395,2.478,0.931
			c-0.047-2.241-0.142-3.252-0.142-3.252l0.805,0.016l29.155,0.615L488.953,354.807z"/>
		<path fill="#2D2D2D" d="M470.074,372.486c0.868,8.303-8.603,45.192-9.597,54.663c-0.994,9.471-4.073,58.294-4.073,58.294
			s0,0-0.016,0c-1.721-0.505-3.22-1.184-4.293-1.736c-1.121-0.568-1.799-1.72-1.768-2.983c0.284-9.55,1.531-51.443,2.32-56.668
			c0.884-5.904,4.514-18.784,6.219-42.414c0.237-3.41,0.063-6.882-1.058-10.118c-3.015-8.761-0.268-16.448-0.268-16.448
			s1.058,0.395,2.478,0.931c-0.047-2.241-0.142-3.252-0.142-3.252l0.805,0.016c5.288,2.92,9.771,5.714,9.771,5.714
			S469.222,364.215,470.074,372.486z"/>
		<path fill="#845424" d="M457.373,354.331c0,0-0.276,0.946-0.464,2.272c-0.06,0.423,0.111,0.848,0.465,1.086
			c0.822,0.55,2.677,1.623,6.288,2.992c4.078,1.546,9.487,1.784,13.401,1.422c1.646-0.152,17.749-3.706,27.372-9.794
			c2.442-1.545,3.682-4.432,3.211-7.282l-0.009-0.057C507.315,343.07,457.373,354.331,457.373,354.331z"/>
		<path fill="#FFFFFF" d="M519.365,306.206c-0.631,0.521-1.31,0.979-2.036,1.421c-0.032,0-0.047,0.016-0.079,0.032
			c-0.095,0.047-0.158,0.095-0.221,0.142c-3.362,1.91-7.545,3.094-11.697,3.804c-0.052,1.78-0.103,3.573-0.155,5.364
			c-0.115,4.004,0.179,8.007,0.875,11.952c0.59,3.345,1.298,7.449,1.759,10.418c0.916,5.888-0.679,10.165-3.615,11.918
			c0,0.016,0,0.016,0,0.016c-0.016,0-0.047,0.016-0.063,0.032c-9.439,5.84-20.363,8.508-26.203,9.613
			c-0.931,0.173-1.878,0.3-2.826,0.379c-2.036,0.158-4.072,0.095-6.077-0.253c-0.821-0.126-1.642-0.3-2.462-0.537l-0.758-0.237
			c-0.892-0.279-1.756-0.674-2.544-1.176c-3.848-2.451-4.148-4.315-4.417-6.496c-0.221-1.894,2.289-11.397,2.699-14.585
			c0.11-0.805,0.174-1.295,0.174-1.295c0.032-0.237,0.063-0.489,0.095-0.726c0.11-1.184,0.158-2.289,0.079-3.236
			c0,0,0-0.032-0.016-0.111c-0.047-0.742-0.174-1.421-0.363-2.02c-0.063-0.189-0.126-0.379-0.205-0.584c0-0.016,0-0.032-0.016-0.047
			c-0.016-0.063-0.047-0.142-0.063-0.221c-3.836-1.737-7.169-6.272-10.863-14.686c-3.583-8.161-3.17-25.282-2.017-32.053
			c0.174-1.026,0.363-1.799,0.537-2.289c0.647-1.815,2.589-3.962,4.799-5.919c0-0.016,0-0.016,0-0.016
			c2.257-2.021,4.783-3.836,6.472-4.925c0.079-0.047,0.142-0.095,0.221-0.142c1.5-0.963,2.889-1.831,4.956-2.873
			c1.673-0.836,3.804-1.799,6.819-2.983c1.073-0.426,2.178-0.805,3.299-1.152c2.068-0.631,4.183-1.152,6.33-1.594
			c3.299-0.694,6.645-1.231,9.85-1.847c0.552,0,1.105,0.016,1.657,0.047c8.224,0.537,15.438,5.762,19.147,13.117
			c3.047,6.061,7.293,15.28,8.192,21.31C521.733,301.091,521.228,304.327,519.365,306.206z"/>
		<path opacity="0.39" fill="#E2E2E2" d="M498.734,311.651c-3.346,3.094-10.276,8.934-17.884,11.981
			c-6.661,2.652-12.517,3.015-15.959,2.904c-1.484,0.142-2.573,0.032-3.252-0.284c-2.241-1.042-5.549-4.73-8.709-14.648
			c-2.614-8.208-1.804-21.944-0.382-30.578c4.909-8.411,12.485-9.358,12.485-9.358l0.001-0.011c3.468,0.863,6.479,0.384,8.622-0.31
			c2.353-0.762,4.89-0.719,7.169,0.241c2.939,1.238,5.58,1.974,5.58,1.974l2.099,1.531l1.421,22.462l2.431-5.635l-1.863-19.1
			l-7.151-9.139l-7.892-0.947c-1.121,0.347-2.226,0.726-3.299,1.152c-4.795,1.884-7.354,3.179-9.422,4.399
			c-0.069,0.041-0.139,0.082-0.208,0.123c-0.257,0.154-0.509,0.306-0.756,0.459c-0.287,0.177-0.576,0.358-0.859,0.538
			c-0.176,0.112-0.353,0.224-0.532,0.338c-0.079,0.047-0.142,0.095-0.221,0.142c-1.689,1.089-4.215,2.904-6.472,4.925
			c0,0,0,0,0,0.016c-2.21,1.957-4.151,4.104-4.799,5.919c-0.042,0.116-0.084,0.249-0.126,0.399c-0.137,0.474-0.278,1.108-0.411,1.89
			c0.003,0.001,0.006,0.002,0.009,0.003c-1.156,6.782-1.573,23.887,2.008,32.051c3.694,8.413,7.027,12.949,10.863,14.686
			c0,0,20.157,2.81,38.199-18.105C499.223,311.667,498.987,311.651,498.734,311.651z"/>
		<path fill="#EDCDAB" d="M473.774,252.009v8.876c0,0,9.08,6.553,13.903,5.603c2.075-0.409,3.164-3.064,2.73-6.811l-4.388-0.888
			L473.774,252.009z"/>
		<path fill="#FFFFFF" d="M488.762,265.974l3.6,4.826c0,0,1.759-6.043-1.694-9.759c-3.361-3.616-3.502-0.493-3.502-0.493
			S490.348,264.223,488.762,265.974z"/>
		<path fill="#FFE1BD" d="M498.847,240.203c0,0,0.738,7.43-0.796,14.224c-1.534,6.794-2,8.328-4.739,9.534
			c-2.74,1.205-5.204,1.337-9.806-1.622c-4.602-2.959-7.123-7.78-7.123-7.78s-0.656,0.431-2.301-1.425
			c-2.575-2.904-3.068-4.356-3.068-8.301c0-3.945,0.986-8.903,4.055-14.054c3.068-5.15,12.492-3.507,16.766-1.315
			C496.107,231.655,498.033,235.797,498.847,240.203z"/>
		<path fill="#713E23" d="M502.569,240.535c-4.704,8.319-16.432,2.841-16.432,2.841c-0.868,3.615-3.394,3.946-4.609,4.609
			c-1.2,0.663-1.468,4.167-1.468,4.167h-1.105c0,0-0.047-3.504-0.6-5.272c-0.552-1.752-3.836-3.11-5.477-0.537
			c-1.484,2.305,0.221,4.878,1.2,6.788c0.316,3.031-0.3,4.293-0.3,4.293s-1.784-1.768-2.983-5.383c-1.2-3.615-2.084-11.176,0-19.289
			c0.221-0.852,0.537-1.626,0.963-2.336c3.599-6.077,13.859-7.261,17.884-5.888c3.473,1.184,12.075,5.099,13.685,10.655
			C503.8,236.825,503.642,238.625,502.569,240.535z"/>
		<path fill="#3A3A3A" d="M502.916,406.383c-0.063,0.442-0.126,0.868-0.189,1.279C502.789,407.156,502.852,406.73,502.916,406.383z"
			/>
		<path fill="#3A3A3A" d="M503.089,405.278c-0.016,0.063-0.016,0.111-0.032,0.174C503.073,405.341,503.089,405.278,503.089,405.278z
			"/>
		<path opacity="0.39" fill="#EFEFEF" d="M466.613,301.874c0,0-1.816-7.581-1.553-12.579c0.263-4.999,3.025-0.526,3.289,3.552
			c0.263,4.078,2.665,12.891,2.665,12.891"/>
		<path fill="#FFFFFF" d="M473.776,259.981c0,0-0.555,0.737-0.987,1.838c-0.359,0.916-0.63,2.06-0.63,2.06s4.812,5.647,15.007,8.936
			l0.07-6.261C487.236,266.553,478.293,265.342,473.776,259.981z"/>
		<path fill="#FFE1BD" d="M480.172,307.699c0,0-3.741-0.379-10.797,2.636c-1.61-3.757-2.399-6.582-2.762-8.461
			c0.032-0.095,0.079-0.189,0.142-0.284c1.973-3.157,12.612-1.184,12.612-1.184L480.172,307.699z"/>
		<path fill="#FFE1BD" d="M504.496,295.614c-2.084,0.047-4.862,0.379-7.34,0.71c0.189-0.6,0.427-8.148,6.093-8.808
			c0.474,2.447,0.805,4.657,1.01,6.156c0.047,0.347,0.079,0.647,0.111,0.915c0.032,0.253,0.063,0.474,0.079,0.647
			C504.48,295.472,504.496,295.614,504.496,295.614z"/>
		<path fill="#EDEDED" d="M505.332,311.604c0,0-0.837,1.294-2.526,3.315v0.016c-2.447,2.936-6.661,7.387-12.738,11.681
			c-1.547,1.105-3.22,2.194-5.02,3.236c-0.11,0.063-0.221,0.126-0.316,0.189c-8.066,4.704-13.37,12.991-14.238,22.272
			c-0.268,2.904-0.363,5.304-0.047,6.172c0.726,1.973,3.204,2.604,4.657,2.81c-2.036,0.158-4.072,0.095-6.077-0.253
			c-0.821-0.126-1.642-0.3-2.462-0.537l-0.758-0.237c-0.9-0.284-1.768-0.679-2.557-1.184c-3.836-2.447-4.136-4.309-4.404-6.488
			c-0.221-1.894,2.289-11.397,2.699-14.585c0.11-0.805,0.174-1.295,0.174-1.295c0.189-1.468,0.268-2.825,0.174-3.962
			c0,0,0-0.032-0.016-0.111c-0.047-0.742-0.174-1.421-0.363-2.02c-0.063-0.189-0.126-0.379-0.205-0.584c0-0.016,0-0.032-0.016-0.047
			c-0.016-0.063-0.047-0.142-0.063-0.221c0,0,12.502,1.736,26.629-7.751c3.82-2.541,7.735-5.919,11.57-10.355
			c0,0,0.205,0.016,0.537,0.016C501.181,311.73,504.133,311.809,505.332,311.604z"/>
		<path fill="#EDEDED" d="M461.841,335.614c0,0-5.627,15.373-5.43,19.32c0.197,3.946,12.616,6.109,12.616,6.109l-5.316-14.199
			L461.841,335.614z"/>
		<path opacity="0.39" fill="#EFEFEF" d="M499.024,275.022c0,0,0.795-0.987,2.472,1.283s7.695,16.377,7.794,19.435
			s-18.054,1.48-18.054,1.48s8.491-1.459,13.261-1.611C504.498,295.609,502.878,280.251,499.024,275.022z"/>
		<path opacity="0.39" fill="#E2E2E2" d="M469.375,310.335c0,0-1.948,2.243-1.553,3.558c0.395,1.315,2.565-0.73,7.366-1.779
			c4.801-1.049,18.613-0.852,18.613-0.852s-11.142-2.466-13.45-2.335l-0.179-1.229C480.172,307.699,475.137,307.303,469.375,310.335
			z"/>
		<path fill="#3A3A3A" d="M487.236,266.553l-0.07,6.261l2.163,1.995l3.033-0.97V270.8l-3.6-4.826
			C488.762,265.974,488.432,266.371,487.236,266.553z"/>
		<path fill="#3A3A3A" d="M489.926,297.555c-0.253-12.312-0.6-22.746-0.6-22.746l3.031-0.979c1.01,4.625,2.431,13.386,3.804,22.635
			C496.161,296.466,493.588,296.877,489.926,297.555z"/>
		<path fill="#3A3A3A" d="M500.565,330.593l-3.078,8.066c-0.158,0.442-0.695,0.584-1.058,0.284l-5.73-4.735
			c-0.584-0.489-0.9-1.215-0.852-1.957c0.095-1.563,0.174-3.473,0.221-5.635c0.047-1.894,0.079-3.994,0.079-6.219v-0.016
			c0.379-0.284,0.758-0.568,1.137-0.884c0.35-0.269,0.7-0.582,1.05-0.869c0.706-0.594,1.489-1.275,2.306-2.025
			c0.444-0.416,0.888-0.813,1.332-1.257c0.253-0.221,0.505-0.489,0.758-0.742c0.426-0.426,0.837-0.868,1.263-1.326
			c0.174-0.174,0.347-0.347,0.505-0.537c0.3,2.131,0.584,4.151,0.837,6.014c0.679,5.035,1.2,8.887,1.389,10.418
			C500.786,329.662,500.739,330.135,500.565,330.593z"/>
		<path fill="#EDEDED" d="M499.334,318.754c-2.368,2.415-5.446,5.162-9.266,7.861c0.047-1.894,0.079-3.994,0.079-6.219v-0.016
			c0.379-0.284,0.758-0.568,1.137-0.884c1.531-1.397,3.125-2.589,4.688-4.151c0.253-0.221,0.505-0.489,0.758-0.742
			c0.426-0.426,0.837-0.868,1.263-1.326c0.174-0.174,0.347-0.347,0.505-0.537C498.797,314.871,499.081,316.892,499.334,318.754z"/>
		<path fill="#442312" d="M502.569,240.535c-4.704,8.319-16.432,2.841-16.432,2.841c-0.868,3.615-3.394,3.946-4.609,4.609
			c-1.2,0.663-1.468,4.167-1.468,4.167h-1.105c0,0-0.047-3.504-0.6-5.272c-0.552-1.752-3.836-3.11-5.477-0.537
			c-1.484,2.305,0.221,4.878,1.2,6.788c0.316,3.031-0.3,4.293-0.3,4.293s-1.784-1.768-2.983-5.383c-1.2-3.615-2.084-11.176,0-19.289
			c0.221-0.852,0.537-1.626,0.963-2.336c1.973,1.689,7.64,6.282,13.575,8.776c7.372,3.094,13.086,2.431,14.933,0.852
			s2.81-2.857,3.046-4.846l0.016-0.016C503.8,236.825,503.642,238.625,502.569,240.535z"/>
	</g>
	<g>
		<path fill="#442312" d="M340.016,353.473c0.063-0.41,0.126-0.837,0.189-1.279C340.143,352.542,340.08,352.968,340.016,353.473z"/>
		<path fill="#442312" d="M340.348,351.263c0.016-0.063,0.016-0.111,0.032-0.174C340.38,351.089,340.364,351.152,340.348,351.263z"
			/>
	</g>
	<g>
		<path opacity="0.5" fill="#076D6D" d="M622.262,661.266c0.261-0.154,0.263-0.529,0.006-0.688l-27.613-16.983
			c-0.03-0.015-0.03-0.03-0.061-0.045c-0.015-0.015-0.03-0.03-0.06-0.046l-0.167-0.106c-0.045-0.03-0.091-0.045-0.136-0.076
			c-0.273-0.121-0.56-0.197-0.848-0.227c-0.545-0.061-1.121,0.061-1.651,0.318l-4.181-2.606c2.227-1.803,3.56-4.015,3.636-6.454
			l0.106-3.469c0.182-6.409-8.53-11.878-19.468-12.196c-10.863-0.318-19.832,4.545-20.135,10.908l-0.015-0.03v0.152
			c0,0.015,0,0.03,0,0.03l-0.106,3.439c0,0.015,0,0.015,0,0.015l-0.015,0.545l0.015-0.015c0.303,6.181,8.833,11.348,19.468,11.666
			c4.56,0.136,8.787-0.667,12.181-2.091c0.061,0.076,0.136,0.167,0.212,0.227c0.091,0.06,0.182,0.121,0.273,0.167l5.545,3.454
			c-0.045,0.621,0.015,1.212,0.212,1.727c0.197,0.5,0.5,0.939,0.909,1.242c0.136,0.121,0.288,0.212,0.47,0.303l23.617,14.517
			c0.467,0.287,1.049,0.296,1.522,0.018C617.504,664.065,620.907,662.065,622.262,661.266z M571.187,640.079
			c-9.196-0.273-16.529-4.863-16.377-10.272c0,0,0.409-1.591,2-3.394c-0.818,1.06-1.288,2.242-1.318,3.485
			c-0.015,0.303,0.015,0.606,0.045,0.894c0.015,0.076,0.03,0.136,0.046,0.212c0.03,0.227,0.091,0.439,0.151,0.651
			c0.03,0.091,0.061,0.182,0.091,0.273c0.061,0.197,0.152,0.394,0.242,0.576c0.045,0.091,0.076,0.182,0.121,0.273
			c0.106,0.197,0.227,0.394,0.349,0.591c0.061,0.076,0.091,0.136,0.151,0.212c0.182,0.258,0.379,0.515,0.591,0.758
			c0.061,0.076,0.136,0.136,0.197,0.197c0.152,0.167,0.318,0.348,0.5,0.515c0.136,0.121,0.273,0.242,0.424,0.349
			c0.076,0.076,0.152,0.151,0.242,0.212c1.439,1.136,3.287,2.106,5.439,2.803c2.151,0.697,4.606,1.121,7.196,1.197
			c8.863,0.258,16.18-3.666,16.332-8.757c0.091-3.227-2.712-6.151-7.03-7.924c-0.076-0.03-0.136-0.061-0.212-0.091
			c-0.454-0.167-0.924-0.348-1.409-0.5c5.181,1.485,7.666,4.242,8.802,6.227c0.257,0.712,0.409,1.47,0.379,2.227
			C587.988,636.186,580.398,640.352,571.187,640.079z"/>
		<path fill="#DBDBDB" d="M591.675,621.562l-4.683-4.868l-13.513-3.342l-13.685,2.542l-4.961,4.584l-1.291,2.858l1.959,0.686
			c0,0,2.309-9.296,17.925-8.837c15.616,0.459,17.374,9.875,17.374,9.875l1.996-0.57L591.675,621.562z"/>
		<path fill="#EDEDED" d="M592.794,625.623c-0.727-1.741-2.084-3.352-3.927-4.738c0.912,1.287,1.398,2.694,1.355,4.158
			c-0.165,5.622-8.071,9.95-17.66,9.668c-9.589-0.282-17.226-5.068-17.061-10.69c0.043-1.464,0.611-2.84,1.597-4.071
			c-2.083,1.382-3.612,3.061-4.395,4.928l-0.473-1.112l-0.113,3.766c0,0.003,0,0.006,0,0.009c0,0.002,0,0.004,0,0.006l-0.017,0.577
			l0.025-0.031c0.304,6.442,9.191,11.831,20.275,12.157c11.4,0.335,20.798-4.812,20.995-11.496l0.106-3.617L592.794,625.623z"/>
		<path fill="#81C5E8" d="M573.216,612.426c-11.4-0.335-20.798,4.812-20.995,11.499c-0.018,0.614,0.042,1.221,0.175,1.815
			c1.316,5.871,9.755,10.591,20.107,10.895c10.353,0.305,19.054-3.911,20.713-9.694c0.168-0.586,0.264-1.188,0.282-1.802
			C593.696,618.453,584.617,612.762,573.216,612.426z M572.561,634.711c-9.589-0.282-17.226-5.068-17.061-10.69
			c0.043-1.464,0.611-2.84,1.597-4.071c2.799-3.494,8.971-5.809,16.063-5.6c7.092,0.209,13.118,2.882,15.706,6.535
			c0.912,1.287,1.398,2.694,1.355,4.158C590.055,630.665,582.15,634.994,572.561,634.711z"/>
		<path fill="#FFFFFF" d="M573.216,612.426c-11.4-0.335-20.798,4.812-20.995,11.499c-0.018,0.614,0.042,1.221,0.175,1.815
			c1.316,5.871,9.755,10.591,20.107,10.895c10.353,0.305,19.054-3.911,20.713-9.694c0.168-0.586,0.264-1.188,0.282-1.802
			C593.696,618.453,584.617,612.762,573.216,612.426z M572.561,634.711c-9.589-0.282-17.226-5.068-17.061-10.69
			c0.043-1.464,0.611-2.84,1.597-4.071c2.799-3.494,8.971-5.809,16.063-5.6c7.092,0.209,13.118,2.882,15.706,6.535
			c0.912,1.287,1.398,2.694,1.355,4.158C590.055,630.665,582.15,634.994,572.561,634.711z"/>
		<path fill="#EDEDED" d="M595.975,639.451l-0.394,0.585c-0.003,0.003-0.006,0.003-0.006,0.003l-1.768,2.618l-0.454,0.673
			l-7.755-4.838l-0.003,0c-0.103-0.049-0.197-0.107-0.281-0.176c-0.241-0.187-0.424-0.444-0.537-0.743
			c-0.057-0.149-0.098-0.31-0.119-0.478l-0.003,0c-0.067-0.483,0.013-1.022,0.257-1.536c0.302-0.631,0.794-1.095,1.33-1.313
			c0.287-0.119,0.587-0.168,0.879-0.136c0.173,0.017,0.343,0.062,0.503,0.139c0.029,0.012,0.057,0.028,0.083,0.043l0.105,0.067
			c0.014,0.006,0.026,0.015,0.037,0.024L595.975,639.451z"/>
		<path fill="#FFFFFF" d="M595.975,639.451l-0.394,0.585c-0.003,0.003-0.006,0.003-0.006,0.003l-9.334-5.794
			c0.287-0.119,0.587-0.168,0.879-0.136c0.173,0.017,0.343,0.062,0.503,0.139c0.029,0.012,0.057,0.028,0.083,0.043l0.105,0.067
			c0.014,0.006,0.026,0.015,0.037,0.024L595.975,639.451z"/>
		<path fill="#DBDBDB" d="M593.807,642.657l-0.454,0.673l-7.755-4.838l-0.003,0c-0.103-0.049-0.197-0.107-0.281-0.176
			c-0.241-0.187-0.424-0.444-0.537-0.743c-0.057-0.149-0.098-0.31-0.119-0.478L593.807,642.657z"/>
		<path fill="#394356" d="M620.664,653l-1.127,1.985l-2.895,5.101l-23.607-14.589c0,0-0.003,0-0.003-0.003l-0.006,0
			c-0.18-0.086-0.342-0.187-0.489-0.307c-0.422-0.325-0.742-0.772-0.938-1.293c-0.387-1.016-0.34-2.306,0.237-3.512
			c0.216-0.451,0.488-0.854,0.797-1.196c0,0,0.003-0.003,0.003-0.006c0.853-0.942,1.988-1.441,3.048-1.324
			c0.303,0.029,0.599,0.108,0.876,0.243c0.051,0.019,0.1,0.046,0.146,0.074l0.182,0.115c0.026,0.012,0.046,0.027,0.065,0.042
			c0.017,0.012,0.031,0.027,0.048,0.039L620.664,653z"/>
		<path fill="#485366" d="M620.664,653l-1.127,1.985l-2.839-0.854l-24.069-14.935c0,0,0-0.003,0.003-0.009
			c0,0,0.003-0.003,0.003-0.006c0.853-0.942,1.988-1.441,3.048-1.324c0.303,0.029,0.599,0.108,0.876,0.243
			c0.051,0.019,0.1,0.046,0.146,0.074l0.182,0.115c0.026,0.012,0.046,0.027,0.065,0.042c0.017,0.012,0.031,0.027,0.048,0.039
			L620.664,653z"/>
		<path fill="#6A7384" d="M621.856,658.111c-0.979,2.041-3.088,3.064-4.721,2.284l-0.005,0c-0.179-0.086-0.343-0.187-0.491-0.307
			c-0.419-0.325-0.739-0.774-0.936-1.294c-0.389-1.016-0.341-2.306,0.234-3.511c0.812-1.692,2.401-2.685,3.849-2.526
			c0.302,0.029,0.597,0.108,0.876,0.243c0.05,0.022,0.099,0.048,0.144,0.075l0.183,0.116c0.025,0.011,0.045,0.027,0.064,0.042
			C622.376,654.17,622.749,656.245,621.856,658.111z"/>
		
			<ellipse transform="matrix(0.9996 0.0294 -0.0294 0.9996 18.6151 -16.5777)" opacity="0.2" fill="#FFFFFF" cx="572.933" cy="624.608" rx="16.74" ry="9.619"/>
		<path opacity="0.2" fill="#FFFFFF" d="M582.361,616.842c-16.666,0.366-21.486,8.58-22.878,13.22
			c-2.124-1.681-3.35-3.748-3.286-5.949c0.16-5.307,7.778-9.389,17.019-9.119C576.611,615.096,579.756,615.77,582.361,616.842z"/>
		<path opacity="0.4" fill="#FFFFFF" d="M588.792,625.076c-0.148,5.031-7.367,8.901-16.127,8.644
			c-8.76-0.257-15.736-4.544-15.588-9.581c0.006-0.148,0.013-0.289,0.032-0.436c0.488,4.723,7.207,8.619,15.556,8.869
			c8.497,0.257,15.543-3.382,16.095-8.189C588.792,624.607,588.798,624.845,588.792,625.076z"/>
	</g>
	<g>
		<g>
			<g>
				<path fill="#FFD05A" d="M588.888,179.578v47.069c0,1.265-0.609,2.459-1.662,3.185c-0.047,0.024-0.094,0.07-0.141,0.094
					l-15.385,9.484l-31.778,19.577c-0.562,0.351-1.194,0.305-1.663-0.023l-6.229-3.84c-0.562-0.328-0.89-0.937-0.89-1.569v-45.5
					c0-1.78,0.913-3.443,2.435-4.356l46.694-28.803c0.609-0.375,1.358-0.375,1.967-0.024l5.924,3.606
					c0.07,0.024,0.141,0.07,0.211,0.117C588.677,178.805,588.888,179.156,588.888,179.578z"/>
				<path fill="#FFDC79" d="M588.888,179.578v47.069c0,1.265-0.609,2.459-1.662,3.185c-0.047,0.024-0.094,0.07-0.141,0.094
					l-15.385,9.484l-31.778,19.577c-0.562,0.351-1.194,0.305-1.663-0.023c-0.398-0.258-0.703-0.726-0.703-1.288V211.8
					c0-1.663,0.866-3.208,2.271-4.098l47.28-29.131c0.351-0.211,0.726-0.234,1.054-0.094c0.07,0.024,0.141,0.07,0.211,0.117
					C588.677,178.805,588.888,179.156,588.888,179.578z"/>
			</g>
			<path fill="#FFFFFF" d="M565.55,208.871l3.15,4.707c0.186,0.279,0.541,0.391,0.854,0.27l6.827-2.638
				c0.652-0.252,1.241,0.483,0.855,1.065l-5.44,8.196c-0.103,0.156-0.142,0.346-0.107,0.529l1.403,7.434
				c0.083,0.439-0.253,0.847-0.7,0.849l-7.298,0.044c-0.195,0.001-0.382,0.082-0.516,0.224l-6.666,7.049
				c-0.484,0.511-1.337,0.092-1.228-0.604l1.172-7.458c0.05-0.32-0.121-0.635-0.418-0.766l-5.162-2.287
				c-0.514-0.228-0.577-0.933-0.111-1.248l8.207-5.557c0.12-0.081,0.213-0.197,0.266-0.332l3.651-9.339
				C564.498,208.47,565.228,208.39,565.55,208.871z"/>
		</g>
		<g>
			<g>
				<path fill="#73AAE0" d="M370.603,370.372V402.1c0,0.852-0.41,1.657-1.121,2.147c-0.032,0.016-0.063,0.047-0.095,0.063
					l-10.371,6.393l-21.42,13.196c-0.379,0.237-0.805,0.205-1.121-0.016l-4.199-2.589c-0.379-0.221-0.6-0.631-0.6-1.058v-30.67
					c0-1.2,0.616-2.32,1.641-2.936l31.475-19.415c0.41-0.253,0.916-0.253,1.326-0.016l3.993,2.431
					c0.047,0.016,0.095,0.047,0.142,0.079C370.461,369.851,370.603,370.088,370.603,370.372z"/>
				<path fill="#ACD3FF" d="M370.603,370.372V402.1c0,0.852-0.41,1.657-1.121,2.147c-0.032,0.016-0.063,0.047-0.095,0.063
					l-10.371,6.393l-21.42,13.196c-0.379,0.237-0.805,0.205-1.121-0.016c-0.268-0.174-0.473-0.489-0.473-0.868v-30.923
					c0-1.121,0.584-2.163,1.531-2.762l31.87-19.636c0.237-0.142,0.489-0.158,0.71-0.063c0.047,0.016,0.095,0.047,0.142,0.079
					C370.461,369.851,370.603,370.088,370.603,370.372z"/>
			</g>
			<g>
				<path fill="#FFFFFF" d="M358.172,388.358c0,2.51-2.035,5.767-4.544,7.275c-2.51,1.508-4.544,0.696-4.544-1.814
					c0-2.51,2.035-5.767,4.544-7.275C356.137,385.036,358.172,385.848,358.172,388.358z"/>
				<path fill="#FFFFFF" d="M363.916,400.833l-20.568,12.358c0.023-5.673,4.601-13.002,10.284-16.417
					c2.83-1.7,5.407-2.098,7.27-1.354C362.765,396.164,363.916,398.003,363.916,400.833z"/>
			</g>
		</g>
		<g>
			<g>
				<g>
					<path fill="#779A0A" d="M370.603,476.905v31.728c0,0.852-0.41,1.657-1.121,2.147c-0.032,0.016-0.063,0.047-0.095,0.063
						l-10.371,6.393l-21.42,13.196c-0.379,0.237-0.805,0.205-1.121-0.016l-4.199-2.589c-0.379-0.221-0.6-0.631-0.6-1.058V496.1
						c0-1.2,0.616-2.32,1.641-2.936l31.475-19.415c0.41-0.253,0.916-0.253,1.326-0.016l3.993,2.431
						c0.047,0.016,0.095,0.047,0.142,0.079C370.461,476.384,370.603,476.621,370.603,476.905z"/>
					<path fill="#C3D600" d="M370.603,476.905v31.728c0,0.852-0.41,1.657-1.121,2.147c-0.032,0.016-0.063,0.047-0.095,0.063
						l-10.371,6.393l-21.42,13.196c-0.379,0.237-0.805,0.205-1.121-0.016c-0.268-0.174-0.473-0.489-0.473-0.868v-30.923
						c0-1.121,0.584-2.163,1.531-2.762l31.87-19.636c0.237-0.142,0.489-0.158,0.71-0.063c0.047,0.016,0.095,0.047,0.142,0.079
						C370.461,476.384,370.603,476.621,370.603,476.905z"/>
					<path opacity="0.3" fill="#C3D600" d="M327.114,462.243v31.728c0,0.852-0.41,1.657-1.121,2.147
						c-0.032,0.016-0.063,0.047-0.095,0.063l-10.371,6.393l-21.42,13.196c-0.379,0.237-0.805,0.205-1.121-0.016
						c-0.268-0.174-0.473-0.489-0.473-0.868v-30.923c0-1.121,0.584-2.163,1.531-2.762l31.87-19.636
						c0.237-0.142,0.489-0.158,0.71-0.063c0.048,0.016,0.095,0.047,0.142,0.079C326.972,461.722,327.114,461.959,327.114,462.243z"
						/>
				</g>
			</g>
			<g>
				<polygon fill="#FFFFFF" points="364.419,489.546 364.419,491.749 354.137,503.816 343.833,504.602 343.833,502.409 				"/>
				<polygon fill="#FFFFFF" points="354.137,505.095 364.419,493.029 364.419,504.29 343.833,517.154 343.833,505.881 				"/>
			</g>
		</g>
		<g>
			<g>
				<g>
					<g>
						<path fill="#8BA6FC" d="M308.473,218.749v31.728c0,0.852-0.41,1.657-1.121,2.147c-0.032,0.016-0.063,0.047-0.095,0.063
							l-10.371,6.393l-21.42,13.196c-0.379,0.237-0.805,0.205-1.121-0.016l-4.199-2.589c-0.379-0.221-0.6-0.631-0.6-1.058v-30.67
							c0-1.2,0.616-2.32,1.641-2.936l31.475-19.415c0.41-0.253,0.916-0.253,1.326-0.016l3.993,2.431
							c0.048,0.016,0.095,0.047,0.142,0.079C308.331,218.228,308.473,218.465,308.473,218.749z"/>
						<path fill="#C9D4FE" d="M308.473,218.749v31.728c0,0.852-0.41,1.657-1.121,2.147c-0.032,0.016-0.063,0.047-0.095,0.063
							l-10.371,6.393l-21.42,13.196c-0.379,0.237-0.805,0.205-1.121-0.016c-0.268-0.174-0.473-0.489-0.473-0.868v-30.923
							c0-1.121,0.584-2.163,1.531-2.762l31.87-19.636c0.237-0.142,0.489-0.158,0.71-0.063c0.048,0.016,0.095,0.047,0.142,0.079
							C308.331,218.228,308.473,218.465,308.473,218.749z"/>
						<path opacity="0.3" fill="#C9D4FE" d="M337.203,166.227v22.193c0,0.596-0.287,1.159-0.784,1.501
							c-0.022,0.011-0.044,0.033-0.066,0.044l-7.254,4.472l-14.983,9.23c-0.265,0.166-0.563,0.143-0.784-0.011
							c-0.188-0.121-0.331-0.342-0.331-0.607v-21.629c0-0.784,0.409-1.513,1.071-1.932l22.292-13.735
							c0.166-0.099,0.342-0.111,0.497-0.044c0.033,0.011,0.066,0.033,0.099,0.055C337.103,165.863,337.203,166.028,337.203,166.227z
							"/>
						<path opacity="0.3" fill="#C9D4FE" d="M494.183,69.647V91.84c0,0.596-0.287,1.159-0.784,1.501
							c-0.022,0.011-0.044,0.033-0.066,0.044l-7.254,4.472l-14.983,9.23c-0.265,0.166-0.563,0.143-0.784-0.011
							c-0.188-0.121-0.331-0.342-0.331-0.607V84.839c0-0.784,0.409-1.513,1.071-1.932l22.292-13.735
							c0.166-0.099,0.342-0.11,0.497-0.044c0.033,0.011,0.066,0.033,0.099,0.055C494.084,69.283,494.183,69.448,494.183,69.647z"/>
						<path opacity="0.1" fill="#FFFFFF" d="M540.115,27.534v33.199c0,0.892-0.43,1.734-1.173,2.246
							c-0.033,0.017-0.066,0.05-0.099,0.066l-10.852,6.689l-22.414,13.808c-0.396,0.248-0.842,0.215-1.173-0.017
							c-0.281-0.182-0.495-0.512-0.495-0.908V50.261c0-1.173,0.611-2.263,1.602-2.89l33.348-20.547
							c0.248-0.149,0.512-0.165,0.743-0.066c0.05,0.016,0.099,0.05,0.149,0.083C539.966,26.989,540.115,27.237,540.115,27.534z"/>
						<path opacity="0.1" fill="#FFFFFF" d="M310.616,495.33v33.199c0,0.892-0.43,1.734-1.173,2.246
							c-0.033,0.017-0.066,0.05-0.099,0.066l-10.852,6.689l-22.414,13.808c-0.396,0.248-0.842,0.215-1.173-0.017
							c-0.281-0.182-0.495-0.512-0.495-0.908v-32.357c0-1.173,0.611-2.263,1.602-2.89l33.348-20.547
							c0.248-0.149,0.512-0.165,0.743-0.066c0.05,0.016,0.099,0.05,0.149,0.083C310.467,494.785,310.616,495.033,310.616,495.33z"/>
					</g>
				</g>
			</g>
			<g>
				<path fill="#FFFFFF" d="M290.173,258.673l-9.262-3.697c-0.873-0.348-0.873-1.763,0-3.159c0.872-1.396,2.287-2.247,3.159-1.898
					l5.271,2.103l10.326-22.911c0.647-1.439,2.025-2.592,3.074-2.573c1.05,0.018,1.375,1.199,0.726,2.638L290.173,258.673z"/>
			</g>
		</g>
		<g>
			<path fill="#00E0C1" d="M746.097,248.42v31.728c0,0.852-0.41,1.657-1.121,2.147c-0.032,0.016-0.063,0.047-0.095,0.063
				l-10.371,6.393l-21.42,13.196c-0.379,0.237-0.805,0.205-1.121-0.016l-4.199-2.589c-0.379-0.221-0.6-0.631-0.6-1.058v-30.67
				c0-1.2,0.616-2.32,1.642-2.936l31.475-19.415c0.41-0.253,0.916-0.253,1.326-0.016l3.994,2.431
				c0.047,0.016,0.095,0.047,0.142,0.079C745.955,247.899,746.097,248.136,746.097,248.42z"/>
			<path fill="#02F5D0" d="M746.097,248.42v31.728c0,0.852-0.41,1.657-1.121,2.147c-0.032,0.016-0.063,0.047-0.095,0.063
				l-10.371,6.393l-21.42,13.196c-0.379,0.237-0.805,0.205-1.121-0.016c-0.268-0.174-0.474-0.489-0.474-0.868V270.14
				c0-1.121,0.584-2.163,1.531-2.762l31.87-19.636c0.237-0.142,0.489-0.158,0.71-0.063c0.047,0.016,0.095,0.047,0.142,0.079
				C745.955,247.899,746.097,248.136,746.097,248.42z"/>
			<path opacity="0.2" fill="#FFFFFF" d="M781.978,255.984v37.831c0,1.016-0.489,1.976-1.336,2.56
				c-0.038,0.019-0.075,0.056-0.113,0.075l-12.366,7.623l-25.541,15.735c-0.452,0.282-0.96,0.245-1.336-0.019
				c-0.32-0.207-0.565-0.583-0.565-1.035v-36.871c0-1.336,0.696-2.579,1.826-3.294l38-23.414c0.282-0.169,0.584-0.188,0.847-0.075
				c0.057,0.019,0.113,0.057,0.169,0.094C781.809,255.363,781.978,255.646,781.978,255.984z"/>
			<path opacity="0.2" fill="#FFFFFF" d="M576.126,35.662v37.831c0,1.016-0.489,1.976-1.336,2.56
				c-0.038,0.019-0.075,0.056-0.113,0.075l-12.366,7.623L536.77,99.485c-0.452,0.282-0.96,0.245-1.336-0.019
				c-0.32-0.207-0.565-0.584-0.565-1.035V61.56c0-1.336,0.696-2.578,1.826-3.294l38.001-23.414c0.282-0.169,0.583-0.188,0.847-0.075
				c0.056,0.019,0.113,0.057,0.169,0.094C575.956,35.041,576.126,35.323,576.126,35.662z"/>
			<path opacity="0.2" fill="#FFFFFF" d="M555.497,322.922v37.831c0,1.016-0.489,1.976-1.336,2.56
				c-0.038,0.019-0.075,0.056-0.113,0.075l-12.366,7.623l-25.541,15.735c-0.452,0.282-0.96,0.245-1.336-0.019
				c-0.32-0.207-0.565-0.584-0.565-1.035v-36.871c0-1.336,0.696-2.578,1.826-3.294l38.001-23.414
				c0.282-0.169,0.583-0.188,0.847-0.075c0.057,0.019,0.113,0.056,0.169,0.094C555.328,322.301,555.497,322.584,555.497,322.922z"/>
			<ellipse fill="#FFFFFF" cx="721.372" cy="281.096" rx="2.618" ry="3.018"/>
			<ellipse fill="#FFFFFF" cx="729.738" cy="275.886" rx="2.618" ry="3.018"/>
			<ellipse fill="#FFFFFF" cx="738.104" cy="270.676" rx="2.618" ry="3.018"/>
		</g>
	</g>
	<g>
		<g>
			<ellipse opacity="0.5" fill="#076D6D" cx="561.067" cy="554.603" rx="15.027" ry="7.633"/>
			<path fill="#EFC356" d="M546.04,541.975v7.633c0,4.216,6.728,7.633,15.027,7.633s15.027-3.418,15.027-7.633v-7.633H546.04z"/>
			<ellipse fill="#FFDC79" cx="561.067" cy="541.975" rx="15.027" ry="7.633"/>
			<ellipse fill="#FFFFFF" cx="561.067" cy="541.975" rx="6.764" ry="3.436"/>
		</g>
		<g>
			<ellipse opacity="0.5" fill="#076D6D" cx="531.013" cy="572.673" rx="15.027" ry="7.633"/>
			<path fill="#E83D83" d="M515.985,560.045v7.633c0,4.216,6.728,7.633,15.027,7.633c8.299,0,15.027-3.417,15.027-7.633v-7.633
				H515.985z"/>
			<ellipse fill="#FE5C99" cx="531.013" cy="560.045" rx="15.027" ry="7.633"/>
			<polygon fill="#FFFFFF" points="528.303,554.134 540.008,561.284 523.632,563.382 			"/>
		</g>
		<g>
			<ellipse opacity="0.5" fill="#076D6D" cx="591.122" cy="536.532" rx="15.027" ry="7.633"/>
			<path fill="#00E0C1" d="M576.095,523.904v7.633c0,4.216,6.728,7.633,15.027,7.633c8.299,0,15.027-3.417,15.027-7.633v-7.633
				H576.095z"/>
			<ellipse fill="#02F5D0" cx="591.122" cy="523.904" rx="15.027" ry="7.633"/>
			<polygon fill="#FFFFFF" points="581.849,521.748 593.555,528.899 598.158,519.553 			"/>
		</g>
	</g>
</g>
</svg>
