<?xml version="1.0" encoding="utf-8"?>
<!-- Generator: Adobe Illustrator 17.0.0, SVG Export Plug-In . SVG Version: 6.00 Build 0)  -->
<!DOCTYPE svg PUBLIC "-//W3C//DTD SVG 1.1//EN" "http://www.w3.org/Graphics/SVG/1.1/DTD/svg11.dtd">
<svg version="1.1" id="Layer_1" xmlns="http://www.w3.org/2000/svg" xmlns:xlink="http://www.w3.org/1999/xlink" x="0px" y="0px"
	 width="41px" height="41px" viewBox="0 0 41 41" enable-background="new 0 0 41 41" xml:space="preserve">
<g>
	<g>
		<path fill="#0069FF" d="M39.707,6.037l-5.045-5.045c-0.735-0.735-1.93-0.735-2.665,0l-9.498,9.498
			c-0.238,0.238-0.238,0.623,0,0.861c0.238,0.238,0.623,0.238,0.861,0l9.498-9.498c0.126-0.126,0.293-0.195,0.471-0.195
			c0.178,0,0.345,0.069,0.471,0.195l5.045,5.045c0.126,0.126,0.195,0.293,0.195,0.471c0,0.178-0.069,0.345-0.195,0.471l-1.238,1.238
			l-3.244-3.244c-0.238-0.238-0.623-0.238-0.861,0c-0.238,0.238-0.238,0.623,0,0.861l3.244,3.244l-1.414,1.414L33.906,9.93
			c-0.238-0.238-0.623-0.238-0.861,0c-0.238,0.238-0.238,0.623,0,0.861l1.426,1.426l-1.414,1.414l-1.426-1.426
			c-0.238-0.238-0.623-0.238-0.861,0c-0.238,0.238-0.238,0.623,0,0.861l1.426,1.426l-1.414,1.414l-3.244-3.244
			c-0.238-0.238-0.623-0.238-0.861,0c-0.238,0.238-0.238,0.623,0,0.861l3.244,3.244l-1.414,1.414l-1.426-1.426
			c-0.238-0.238-0.623-0.238-0.861,0c-0.238,0.238-0.238,0.623,0,0.861l1.426,1.426l-1.197,1.197l-5.987-5.987l1.114-1.114
			c0.238-0.238,0.238-0.623,0-0.861c-0.238-0.238-0.623-0.238-0.861,0l-1.114,1.114L8.364,2.157
			c-0.781-0.781-1.82-1.212-2.925-1.212c-1.105,0-2.144,0.43-2.925,1.212c-0.781,0.781-1.212,1.82-1.212,2.925
			c0,1.105,0.43,2.144,1.212,2.925l11.234,11.234L1.351,31.639c-0.735,0.735-0.735,1.93,0,2.665l5.045,5.045
			c0.356,0.356,0.829,0.552,1.333,0.552s0.977-0.196,1.333-0.552l12.397-12.397l0.883,0.883c0.238,0.238,0.623,0.238,0.861,0
			c0.238-0.238,0.238-0.623,0-0.861l-1.219-1.219c-0.024-0.037-0.051-0.073-0.084-0.106s-0.068-0.06-0.106-0.084L8.598,12.369
			l1.633-1.633l1.01,1.01c0.119,0.119,0.275,0.178,0.431,0.178c0.156,0,0.312-0.059,0.431-0.178c0.238-0.238,0.238-0.623,0-0.861
			l-1.01-1.01l1.633-1.633l6.441,6.441c0,0,0,0.001,0.001,0.001c0,0,0.001,0,0.001,0.001l6.788,6.788
			c0.017,0.022,0.035,0.044,0.055,0.064s0.042,0.038,0.064,0.055l9.038,9.038l-1.633,1.633l-9.119-9.119
			c-0.005-0.006-0.01-0.012-0.016-0.018L20.71,19.49c-0.006-0.006-0.013-0.011-0.019-0.017l-6.423-6.423
			c-0.238-0.238-0.623-0.238-0.861,0c-0.238,0.238-0.238,0.623,0,0.861l19.213,19.213l-1.633,1.633l-5.788-5.788
			c-0.238-0.238-0.623-0.238-0.861,0c-0.238,0.238-0.238,0.623,0,0.861l6.218,6.218c0.059,0.059,0.132,0.107,0.21,0.137l7.358,2.857
			c0.116,0.045,0.237,0.067,0.357,0.067c0.258,0,0.511-0.101,0.699-0.29c0.277-0.277,0.364-0.692,0.222-1.056l-2.86-7.355
			c-0.03-0.078-0.078-0.151-0.137-0.21l-9.097-9.097L39.707,8.703C40.442,7.968,40.442,6.772,39.707,6.037z M20.597,26.091
			l-1.195,1.195l-1.426-1.426c-0.238-0.238-0.623-0.238-0.861,0c-0.238,0.238-0.238,0.623,0,0.861l1.426,1.426l-1.414,1.414
			l-3.244-3.244c-0.238-0.238-0.623-0.238-0.861,0c-0.238,0.238-0.238,0.623,0,0.861l3.244,3.244l-1.414,1.414l-1.426-1.426
			c-0.238-0.238-0.623-0.238-0.861,0c-0.238,0.238-0.238,0.623,0,0.861l1.426,1.426l-1.414,1.414l-1.426-1.426
			c-0.238-0.238-0.623-0.238-0.861,0c-0.238,0.238-0.238,0.623,0,0.861l1.426,1.426l-1.414,1.414l-3.244-3.244
			c-0.238-0.238-0.623-0.238-0.861,0c-0.238,0.238-0.238,0.623,0,0.861l3.244,3.244L8.2,38.488
			c-0.126,0.126-0.293,0.195-0.471,0.195s-0.345-0.069-0.471-0.195l-5.045-5.045c-0.26-0.26-0.26-0.683,0-0.943l12.397-12.397
			L20.597,26.091z M3.375,7.146c-1.138-1.138-1.138-2.99,0-4.128c1.138-1.138,2.99-1.138,4.128,0l1.925,1.925L5.3,9.071L3.375,7.146
			z M9.801,9.444C9.801,9.444,9.8,9.444,9.801,9.444C9.8,9.444,9.8,9.444,9.801,9.444l-2.064,2.064L6.161,9.933l4.128-4.128
			l1.575,1.575L9.801,9.444z M38.078,37.718l-6.001-2.33l3.669-3.669L38.078,37.718z"/>
	</g>
</g>
</svg>
