<svg id="Layer_1" data-name="Layer 1" xmlns="http://www.w3.org/2000/svg" viewBox="0 0 592.18 381.11"><defs><style>.cls-1{fill:#fff;}</style></defs><title>hal tech</title><path class="cls-1" d="M151.61,585.3V523.62H164v24.67H213.3L201,560.63H164V585.3Zm61.69,0V523.62h12.33V585.3Z" transform="translate(-151.61 -204.2)"/><path class="cls-1" d="M250.31,536,238,523.62h74L299.66,536ZM238,585.3v-37h74v37H299.66V560.63H250.31V585.3Z" transform="translate(-151.61 -204.2)"/><path class="cls-1" d="M324.33,585.3V523.62h12.34V573h61.68L386,585.3Z" transform="translate(-151.61 -204.2)"/><path class="cls-1" d="M478.54,585.3V536H460L447.7,523.62h74L509.39,536H490.88V585.3Z" transform="translate(-151.61 -204.2)"/><path class="cls-1" d="M546.4,585.3a11.89,11.89,0,0,1-8.77-3.56,12.13,12.13,0,0,1-3.57-8.77V548.29a11.8,11.8,0,0,1,3.57-8.67A12,12,0,0,1,546.4,536h49.35l-18.51,18.5L564.3,566.8H552.57l18.5-18.51h-18.5a6.08,6.08,0,0,0-6.17,6.17V566.8a5.94,5.94,0,0,0,6.17,6.17h43.18a11.78,11.78,0,0,1-3.67,8.77,12,12,0,0,1-8.67,3.56Z" transform="translate(-151.61 -204.2)"/><path class="cls-1" d="M620.42,585.3a11.89,11.89,0,0,1-8.77-3.56,12.13,12.13,0,0,1-3.57-8.77V536h61.69l-12.34,12.33h-37V566.8a5.94,5.94,0,0,0,6.17,6.17h43.18L657.43,585.3Z" transform="translate(-151.61 -204.2)"/><path class="cls-1" d="M682.1,585.3V523.62h12.34V536h37a11.66,11.66,0,0,1,8.68,3.66,11.85,11.85,0,0,1,3.66,8.67v26.92L731.45,585.3V554.46a6.25,6.25,0,0,0-6.17-6.17H694.44v37Z" transform="translate(-151.61 -204.2)"/><polygon class="cls-1" points="148.04 356.43 148.04 328.01 160.38 319.42 160.55 359.57 148.04 356.43"/><polygon class="cls-1" points="274.44 71.52 286.59 71.1 286.59 0 343.8 0 364 69.83 286.59 307.95 286.59 127.05 273.97 127.05 274.44 71.52"/><polygon class="cls-1" points="270.23 71.33 256.72 71.98 256.72 0.89 199.51 0.89 180.16 70.25 257.56 307.95 257.56 127.05 270.18 127.05 270.23 71.33"/></svg>