<?xml version="1.0" encoding="utf-8"?>
<!-- Generator: Adobe Illustrator 17.0.0, SVG Export Plug-In . SVG Version: 6.00 Build 0)  -->
<!DOCTYPE svg PUBLIC "-//W3C//DTD SVG 1.1//EN" "http://www.w3.org/Graphics/SVG/1.1/DTD/svg11.dtd">
<svg version="1.1" id="Layer_1" xmlns="http://www.w3.org/2000/svg" xmlns:xlink="http://www.w3.org/1999/xlink" x="0px" y="0px"
	 width="41px" height="41px" viewBox="0 0 41 41" enable-background="new 0 0 41 41" xml:space="preserve">
<g>
	<g>
		<g>
			<path fill="#0069FF" d="M38.044,3.542H13.465c-0.318,0-0.575,0.258-0.575,0.575c0,0.318,0.258,0.575,0.575,0.575h24.579
				c0.522,0,0.947,0.425,0.947,0.947v3.65H2.009v-3.65c0-0.522,0.425-0.947,0.947-0.947h8.16c0.318,0,0.575-0.258,0.575-0.575
				c0-0.318-0.258-0.575-0.575-0.575h-8.16c-1.157,0-2.098,0.941-2.098,2.098v30.548c0,0.701,0.57,1.271,1.271,1.271h12.26
				c0.318,0,0.575-0.258,0.575-0.575s-0.258-0.575-0.575-0.575h-2.741v-13.11l1.119-2.662c0.047-0.113,0.058-0.238,0.029-0.357
				l-1.155-4.828c-0.062-0.259-0.293-0.441-0.56-0.441H8.771c-0.266,0-0.498,0.183-0.56,0.441l-1.155,4.828
				c-0.028,0.119-0.018,0.244,0.029,0.357l1.11,2.642v13.131H2.129c-0.066,0-0.12-0.054-0.12-0.12V10.44h36.982v2.517
				c0,0.318,0.258,0.575,0.575,0.575c0.318,0,0.575-0.258,0.575-0.575V5.639C40.142,4.483,39.201,3.542,38.044,3.542z M9.225,16.059
				h1.403l1.006,4.204l-1.046,2.489c-0.057,0.089-0.09,0.195-0.09,0.309v13.247H9.347V23.061c0-0.077-0.015-0.152-0.045-0.223
				l-1.082-2.575L9.225,16.059z"/>
		</g>
	</g>
	<g>
		<g>
			<path fill="#0069FF" d="M39.566,14.731c-0.318,0-0.575,0.258-0.575,0.575v20.881c0,0.066-0.054,0.12-0.12,0.12H28.4v-3.075
				c2.957-1.36,4.847-4.291,4.847-7.572c0-1.46-0.383-2.897-1.108-4.156c-0.703-1.22-1.712-2.251-2.917-2.98
				c-0.344-0.208-0.776-0.215-1.126-0.018c-0.353,0.199-0.564,0.56-0.564,0.966v4.497h-5.24v-4.497c0-0.406-0.211-0.767-0.564-0.966
				c-0.35-0.197-0.781-0.19-1.126,0.018c-1.205,0.729-2.214,1.76-2.917,2.98c-0.725,1.258-1.108,2.696-1.108,4.156
				c0,3.281,1.889,6.212,4.847,7.572v3.075h-4.684c-0.318,0-0.575,0.258-0.575,0.575c0,0.318,0.258,0.575,0.575,0.575h22.132
				c0.701,0,1.271-0.57,1.271-1.271V15.306C40.142,14.988,39.884,14.731,39.566,14.731z M27.249,32.855v3.453h-1.762v-5.69
				c0-0.318-0.258-0.575-0.575-0.575c-0.318,0-0.575,0.258-0.575,0.575v5.69h-1.763v-3.453c0-0.234-0.142-0.445-0.359-0.533
				c-2.726-1.105-4.487-3.719-4.487-6.661c0-2.514,1.275-4.796,3.414-6.117v5.001c0,0.318,0.258,0.575,0.575,0.575h6.391
				c0.318,0,0.575-0.258,0.575-0.575v-5.001c2.139,1.321,3.414,3.602,3.414,6.117c0,2.941-1.761,5.556-4.487,6.661
				C27.392,32.41,27.249,32.621,27.249,32.855z"/>
		</g>
	</g>
	<g>
		<g>
			<path fill="#0069FF" d="M27.075,6.522H6.548c-0.318,0-0.575,0.258-0.575,0.575c0,0.318,0.258,0.575,0.575,0.575h20.527
				c0.318,0,0.575-0.258,0.575-0.575C27.65,6.779,27.393,6.522,27.075,6.522z"/>
		</g>
	</g>
	<g>
		<g>
			<path fill="#0069FF" d="M29.858,6.365c-0.318,0-0.575,0.258-0.575,0.575v0.1c0,0.318,0.258,0.575,0.575,0.575
				c0.318,0,0.575-0.258,0.575-0.575v-0.1C30.433,6.623,30.176,6.365,29.858,6.365z"/>
		</g>
	</g>
	<g>
		<g>
			<path fill="#0069FF" d="M32.155,6.365c-0.318,0-0.575,0.258-0.575,0.575v0.1c0,0.318,0.258,0.575,0.575,0.575
				c0.318,0,0.575-0.258,0.575-0.575v-0.1C32.73,6.623,32.473,6.365,32.155,6.365z"/>
		</g>
	</g>
	<g>
		<g>
			<path fill="#0069FF" d="M34.452,6.365c-0.318,0-0.575,0.258-0.575,0.575v0.1c0,0.318,0.258,0.575,0.575,0.575
				c0.318,0,0.575-0.258,0.575-0.575v-0.1C35.027,6.623,34.77,6.365,34.452,6.365z"/>
		</g>
	</g>
	<g>
		<g>
			<path fill="#0069FF" d="M16.72,16.548H16.32v-0.399c0-0.318-0.258-0.575-0.575-0.575s-0.575,0.258-0.575,0.575v0.399H14.77
				c-0.318,0-0.575,0.258-0.575,0.575c0,0.318,0.258,0.575,0.575,0.575h0.399v0.399c0,0.318,0.258,0.575,0.575,0.575
				s0.575-0.258,0.575-0.575v-0.399h0.399c0.318,0,0.575-0.258,0.575-0.575C17.295,16.805,17.037,16.548,16.72,16.548z"/>
		</g>
	</g>
	<g>
		<g>
			<path fill="#0069FF" d="M33.492,16.599h-0.399v-0.399c0-0.318-0.258-0.575-0.575-0.575c-0.318,0-0.575,0.258-0.575,0.575v0.399
				h-0.399c-0.318,0-0.575,0.258-0.575,0.575s0.258,0.575,0.575,0.575h0.399v0.399c0,0.318,0.258,0.575,0.575,0.575
				c0.318,0,0.575-0.258,0.575-0.575V17.75h0.399c0.318,0,0.575-0.258,0.575-0.575S33.81,16.599,33.492,16.599z"/>
		</g>
	</g>
</g>
</svg>
