<?xml version="1.0" encoding="utf-8"?>
<!-- Generator: Adobe Illustrator 17.0.0, SVG Export Plug-In . SVG Version: 6.00 Build 0)  -->
<!DOCTYPE svg PUBLIC "-//W3C//DTD SVG 1.1//EN" "http://www.w3.org/Graphics/SVG/1.1/DTD/svg11.dtd">
<svg version="1.1" id="Layer_1" xmlns="http://www.w3.org/2000/svg" xmlns:xlink="http://www.w3.org/1999/xlink" x="0px" y="0px"
	 width="41px" height="41px" viewBox="0 0 41 41" enable-background="new 0 0 41 41" xml:space="preserve">
<g>
	<path fill="#0069FF" d="M30.118,0.477h-17.22c-2.369,0-4.296,1.927-4.296,4.296v31.456c0,2.369,1.927,4.296,4.296,4.296h17.22
		c2.369,0,4.296-1.927,4.296-4.296V4.772C34.414,2.404,32.487,0.477,30.118,0.477z M25.099,2.823v1.235
		c0,0.171-0.139,0.31-0.31,0.31h-6.562c-0.171,0-0.31-0.139-0.31-0.31V2.823H25.099z M32.067,36.228
		c0,1.075-0.874,1.949-1.949,1.949h-17.22c-1.075,0-1.949-0.874-1.949-1.949V4.772c0-1.075,0.874-1.949,1.949-1.949h2.672v1.235
		c0,1.465,1.192,2.657,2.657,2.657h6.562c1.465,0,2.657-1.192,2.657-2.657V2.823h2.672c1.075,0,1.949,0.874,1.949,1.949V36.228z"/>
	<path fill="#0069FF" d="M25.916,34.241h-8.817c-0.648,0-1.173,0.525-1.173,1.173c0,0.648,0.525,1.173,1.173,1.173h8.817
		c0.648,0,1.173-0.525,1.173-1.173C27.09,34.766,26.564,34.241,25.916,34.241z"/>
	<path fill="#0069FF" d="M19.392,15.759c0.648,0,1.173-0.525,1.173-1.173v-1.044c0-0.648-0.525-1.173-1.173-1.173
		c-0.648,0-1.173,0.525-1.173,1.173v1.044C18.218,15.233,18.744,15.759,19.392,15.759z"/>
	<path fill="#0069FF" d="M23.624,15.759c0.648,0,1.173-0.525,1.173-1.173v-1.044c0-0.648-0.525-1.173-1.173-1.173
		c-0.648,0-1.173,0.525-1.173,1.173v1.044C22.451,15.233,22.976,15.759,23.624,15.759z"/>
	<path fill="#0069FF" d="M20.335,17.977c0,0.648,0.525,1.173,1.173,1.173c0.648,0,1.173-0.525,1.173-1.173v-1.044
		c0-0.648-0.525-1.173-1.173-1.173c-0.648,0-1.173,0.525-1.173,1.173V17.977z"/>
	<path fill="#0069FF" d="M17.169,19.151c0.648,0,1.173-0.525,1.173-1.173v-1.044c0-0.648-0.525-1.173-1.173-1.173
		c-0.648,0-1.173,0.525-1.173,1.173v1.044C15.996,18.625,16.521,19.151,17.169,19.151z"/>
	<path fill="#0069FF" d="M24.673,17.977c0,0.648,0.525,1.173,1.173,1.173c0.648,0,1.173-0.525,1.173-1.173v-1.044
		c0-0.648-0.525-1.173-1.173-1.173c-0.648,0-1.173,0.525-1.173,1.173V17.977z"/>
	<path fill="#0069FF" d="M17.595,31.857h7.826c0.901,0,1.634-0.733,1.634-1.634v-3.614c0-0.901-0.733-1.634-1.634-1.634h-7.826
		c-0.901,0-1.634,0.733-1.634,1.634v3.614C15.961,31.124,16.694,31.857,17.595,31.857z M18.308,27.322h6.4v2.188h-6.4V27.322z"/>
</g>
</svg>
