<?xml version="1.0" encoding="utf-8"?>
<!-- Generator: Adobe Illustrator 17.0.0, SVG Export Plug-In . SVG Version: 6.00 Build 0)  -->
<!DOCTYPE svg PUBLIC "-//W3C//DTD SVG 1.1//EN" "http://www.w3.org/Graphics/SVG/1.1/DTD/svg11.dtd">
<svg version="1.1" id="content" xmlns="http://www.w3.org/2000/svg" xmlns:xlink="http://www.w3.org/1999/xlink" x="0px" y="0px"
	 width="1050px" height="698px" viewBox="0 0 1050 698" enable-background="new 0 0 1050 698" xml:space="preserve">
<g>
	<g>
		<polygon fill="#DDF9FF" points="554.37,672.908 911.28,466.547 475.28,214.288 118.37,420.65 		"/>
		<polygon fill="#C8E6ED" points="554.37,635.613 911.28,429.252 475.28,176.993 118.37,383.355 		"/>
		<polygon fill="#63AAC0" points="554.37,635.613 554.37,642.709 911.28,436.327 911.28,429.252 		"/>
		<polygon fill="#7CC5D2" points="554.37,642.709 118.37,390.44 118.37,383.355 554.37,635.613 		"/>
	</g>
	<g>
		<polygon fill="#97C6DE" points="290.947,326.304 535.498,467.497 698.533,373.368 453.981,232.176 		"/>
		<polygon fill="#69A4DD" points="290.947,298.15 535.498,439.342 698.533,345.214 453.981,204.021 		"/>
		<polygon fill="#558FBC" points="535.498,441.997 535.498,439.342 698.533,345.214 698.533,347.869 		"/>
		<path fill="#84CAF0" d="M686.26,150.461L472.175,27.09c-8.348-4.811-18.775,1.215-18.775,10.85v166.587l240.62,138.662
			l1.449,3.847l2.712-1.449V171.09C698.181,162.577,693.636,154.712,686.26,150.461z"/>
		<polygon fill="#558FBC" points="535.498,441.997 290.947,300.805 290.947,298.15 535.498,439.342 		"/>
		<path fill="#4B91C6" d="M695.47,347.036l-244.78-141.06V39.39c0-9.636,10.427-15.661,18.775-10.851L683.549,151.91
			c7.376,4.25,11.921,12.116,11.921,20.628V347.036z"/>
		<polygon fill="#F5FBFF" points="686.501,335.304 459.658,204.581 459.658,34.621 686.501,165.344 		"/>
		<g>
			<path fill="#2E7DA2" d="M464.394,237.851l-15.458-8.943c-0.686-0.397-0.513-1.14,0.387-1.659l6.72-3.876
				c0.9-0.519,2.186-0.618,2.872-0.221l15.459,8.943c0.686,0.397,0.512,1.139-0.387,1.659l-6.721,3.875
				C466.366,238.149,465.08,238.248,464.394,237.851z"/>
			<path fill="#2E7DA2" d="M483.796,249.074l-15.458-8.943c-0.686-0.397-0.513-1.139,0.387-1.659l6.72-3.876
				c0.9-0.519,2.186-0.618,2.872-0.221l15.458,8.943c0.686,0.398,0.513,1.14-0.387,1.659l-6.72,3.876
				C485.768,249.372,484.482,249.472,483.796,249.074z"/>
			<path fill="#2E7DA2" d="M503.197,260.298l-15.459-8.943c-0.686-0.397-0.512-1.14,0.388-1.659l6.72-3.876
				c0.9-0.519,2.186-0.618,2.872-0.221l15.458,8.943c0.686,0.397,0.512,1.139-0.388,1.659l-6.72,3.875
				C505.169,260.596,503.883,260.695,503.197,260.298z"/>
			<path fill="#2E7DA2" d="M522.598,271.522l-15.458-8.943c-0.686-0.397-0.513-1.139,0.387-1.659l6.72-3.876
				c0.899-0.519,2.185-0.618,2.871-0.221l15.459,8.943c0.686,0.398,0.513,1.14-0.387,1.659l-6.72,3.876
				C524.57,271.82,523.284,271.919,522.598,271.522z"/>
			<path fill="#2E7DA2" d="M542,282.746l-15.458-8.943c-0.686-0.397-0.513-1.14,0.387-1.659l6.721-3.876
				c0.9-0.519,2.186-0.618,2.872-0.221l15.458,8.943c0.686,0.397,0.513,1.139-0.387,1.659l-6.72,3.875
				C543.972,283.044,542.686,283.143,542,282.746z"/>
			<path fill="#2E7DA2" d="M561.401,293.969l-15.458-8.943c-0.686-0.397-0.513-1.139,0.387-1.659l6.72-3.876
				c0.9-0.519,2.186-0.618,2.872-0.221l15.458,8.943c0.686,0.398,0.512,1.14-0.387,1.659l-6.721,3.876
				C563.373,294.267,562.087,294.367,561.401,293.969z"/>
			<path fill="#2E7DA2" d="M580.803,305.194l-15.458-8.943c-0.686-0.397-0.513-1.14,0.387-1.659l6.721-3.876
				c0.9-0.519,2.185-0.618,2.871-0.221l15.458,8.943c0.686,0.397,0.513,1.139-0.387,1.659l-6.721,3.875
				C582.774,305.491,581.489,305.59,580.803,305.194z"/>
			<path fill="#2E7DA2" d="M600.204,316.417l-15.458-8.943c-0.686-0.397-0.513-1.139,0.387-1.659l6.72-3.876
				c0.9-0.519,2.186-0.618,2.872-0.221l15.458,8.943c0.687,0.398,0.513,1.14-0.387,1.659l-6.72,3.876
				C602.176,316.715,600.89,316.815,600.204,316.417z"/>
			<path fill="#2E7DA2" d="M619.605,327.641l-15.458-8.943c-0.686-0.397-0.513-1.14,0.387-1.659l6.72-3.876
				c0.9-0.519,2.186-0.618,2.872-0.221l15.458,8.943c0.686,0.397,0.513,1.139-0.387,1.659l-6.721,3.875
				C621.577,327.939,620.291,328.038,619.605,327.641z"/>
			<path fill="#2E7DA2" d="M639.007,338.865l-15.458-8.943c-0.686-0.397-0.513-1.139,0.387-1.659l6.721-3.876
				c0.9-0.519,2.186-0.618,2.872-0.221l15.458,8.943c0.686,0.398,0.513,1.14-0.387,1.659l-6.721,3.876
				C640.979,339.163,639.693,339.262,639.007,338.865z"/>
			<path fill="#2E7DA2" d="M658.408,350.089l-15.458-8.943c-0.686-0.397-0.512-1.14,0.388-1.659l6.72-3.876
				c0.9-0.519,2.186-0.618,2.872-0.221l15.458,8.943c0.686,0.397,0.513,1.139-0.387,1.659l-6.72,3.875
				C660.38,350.387,659.094,350.486,658.408,350.089z"/>
			<path fill="#2E7DA2" d="M446.938,247.572l-14.858-8.595c-0.852-0.493-0.637-1.415,0.48-2.059l11.332-6.536
				c1.117-0.644,2.713-0.767,3.565-0.274l14.858,8.595c0.852,0.493,0.637,1.415-0.48,2.059l-11.332,6.536
				C449.386,247.943,447.79,248.065,446.938,247.572z"/>
			<path fill="#2E7DA2" d="M466.339,258.796l-14.859-8.596c-0.851-0.492-0.637-1.414,0.48-2.058l11.332-6.536
				c1.117-0.645,2.713-0.767,3.565-0.275l14.859,8.596c0.851,0.492,0.637,1.415-0.481,2.058l-11.331,6.536
				C468.787,259.166,467.191,259.289,466.339,258.796z"/>
			<path fill="#2E7DA2" d="M485.741,270.02l-14.858-8.595c-0.852-0.493-0.637-1.415,0.48-2.059l11.332-6.536
				c1.117-0.644,2.713-0.767,3.565-0.274l14.859,8.595c0.852,0.493,0.637,1.415-0.48,2.059l-11.332,6.536
				C488.189,270.39,486.593,270.513,485.741,270.02z"/>
			<path fill="#2E7DA2" d="M505.143,281.244l-14.859-8.596c-0.852-0.492-0.637-1.414,0.48-2.058l11.332-6.536
				c1.117-0.645,2.713-0.767,3.565-0.275l14.858,8.596c0.852,0.492,0.637,1.415-0.48,2.059l-11.332,6.537
				C507.59,281.614,505.994,281.736,505.143,281.244z"/>
			<path fill="#2E7DA2" d="M524.544,292.467l-14.859-8.595c-0.851-0.493-0.637-1.415,0.481-2.059l11.331-6.536
				c1.118-0.644,2.713-0.767,3.565-0.274l14.859,8.595c0.851,0.493,0.637,1.415-0.481,2.059l-11.331,6.536
				C526.992,292.838,525.396,292.961,524.544,292.467z"/>
			<path fill="#2E7DA2" d="M543.945,303.691l-14.858-8.596c-0.852-0.492-0.637-1.414,0.48-2.059l11.332-6.536
				c1.117-0.645,2.713-0.767,3.564-0.275l14.859,8.596c0.852,0.492,0.637,1.415-0.48,2.058l-11.332,6.537
				C546.393,304.061,544.797,304.184,543.945,303.691z"/>
			<path fill="#2E7DA2" d="M563.347,314.915l-14.859-8.595c-0.851-0.493-0.637-1.415,0.48-2.059l11.332-6.536
				c1.117-0.644,2.713-0.767,3.565-0.274l14.858,8.595c0.852,0.493,0.637,1.415-0.48,2.059l-11.331,6.536
				C565.794,315.285,564.198,315.408,563.347,314.915z"/>
			<path fill="#2E7DA2" d="M582.748,326.139l-14.858-8.596c-0.852-0.492-0.638-1.414,0.48-2.058l11.331-6.536
				c1.118-0.645,2.714-0.767,3.565-0.275l14.859,8.596c0.851,0.492,0.637,1.415-0.48,2.058l-11.332,6.537
				C585.196,326.509,583.6,326.632,582.748,326.139z"/>
			<path fill="#2E7DA2" d="M602.149,337.363l-14.858-8.595c-0.852-0.493-0.637-1.415,0.48-2.059l11.332-6.536
				c1.117-0.644,2.713-0.767,3.565-0.274l14.858,8.595c0.852,0.493,0.637,1.415-0.48,2.059l-11.332,6.536
				C604.597,337.733,603.001,337.856,602.149,337.363z"/>
			<path fill="#2E7DA2" d="M621.551,348.587l-14.859-8.596c-0.851-0.492-0.637-1.414,0.481-2.058l11.332-6.536
				c1.117-0.645,2.713-0.767,3.565-0.275l14.859,8.596c0.851,0.492,0.637,1.415-0.481,2.058l-11.332,6.537
				C623.998,348.956,622.403,349.079,621.551,348.587z"/>
			<path fill="#2E7DA2" d="M640.952,359.81l-14.858-8.595c-0.852-0.493-0.637-1.415,0.48-2.059l11.332-6.536
				c1.117-0.644,2.713-0.767,3.564-0.274l14.859,8.595c0.852,0.493,0.637,1.415-0.48,2.059l-11.332,6.536
				C643.4,360.181,641.804,360.303,640.952,359.81z"/>
			<path fill="#2E7DA2" d="M429.782,257.468l-14.858-8.596c-0.852-0.492-0.638-1.414,0.48-2.058l11.331-6.536
				c1.118-0.645,2.714-0.767,3.565-0.275l14.859,8.596c0.851,0.492,0.637,1.414-0.48,2.058l-11.332,6.536
				C432.23,257.838,430.634,257.96,429.782,257.468z"/>
			<path fill="#2E7DA2" d="M449.183,268.691l-14.858-8.595c-0.852-0.493-0.637-1.415,0.48-2.059l11.332-6.536
				c1.117-0.644,2.713-0.767,3.565-0.274l14.858,8.595c0.852,0.493,0.637,1.415-0.48,2.059l-11.332,6.536
				C451.631,269.062,450.035,269.185,449.183,268.691z"/>
			<path fill="#2E7DA2" d="M468.585,279.916l-14.859-8.596c-0.851-0.492-0.637-1.414,0.481-2.058l11.331-6.536
				c1.117-0.645,2.713-0.767,3.565-0.275l14.859,8.596c0.851,0.492,0.637,1.414-0.481,2.058l-11.331,6.536
				C471.032,280.285,469.437,280.408,468.585,279.916z"/>
			<path fill="#2E7DA2" d="M487.986,291.139l-14.858-8.595c-0.852-0.493-0.637-1.415,0.48-2.059l11.332-6.536
				c1.117-0.644,2.713-0.767,3.564-0.274l14.859,8.595c0.852,0.493,0.637,1.415-0.48,2.059l-11.332,6.536
				C490.434,291.509,488.838,291.632,487.986,291.139z"/>
			<path fill="#2E7DA2" d="M507.388,302.363l-14.859-8.596c-0.852-0.492-0.637-1.414,0.48-2.058l11.332-6.536
				c1.117-0.645,2.713-0.767,3.565-0.275l14.858,8.596c0.852,0.492,0.637,1.414-0.48,2.059l-11.332,6.536
				C509.835,302.733,508.239,302.856,507.388,302.363z"/>
			<path fill="#2E7DA2" d="M526.789,313.587l-14.859-8.595c-0.851-0.493-0.637-1.415,0.481-2.059l11.332-6.536
				c1.117-0.644,2.714-0.767,3.565-0.274l14.859,8.595c0.851,0.493,0.637,1.415-0.48,2.059l-11.332,6.536
				C529.237,313.957,527.641,314.08,526.789,313.587z"/>
			<path fill="#2E7DA2" d="M546.19,324.811l-14.858-8.596c-0.852-0.492-0.637-1.414,0.48-2.058l11.332-6.536
				c1.117-0.645,2.713-0.767,3.565-0.275l14.858,8.596c0.852,0.492,0.637,1.414-0.48,2.058l-11.332,6.536
				C548.638,325.181,547.042,325.303,546.19,324.811z"/>
			<path fill="#2E7DA2" d="M565.592,336.034l-14.859-8.595c-0.851-0.493-0.637-1.415,0.48-2.059l11.332-6.536
				c1.117-0.644,2.713-0.767,3.565-0.274l14.858,8.595c0.852,0.493,0.638,1.415-0.48,2.059l-11.331,6.536
				C568.039,336.405,566.443,336.528,565.592,336.034z"/>
			<path fill="#2E7DA2" d="M584.993,347.259l-14.858-8.596c-0.852-0.492-0.637-1.414,0.48-2.058l11.331-6.536
				c1.118-0.645,2.714-0.767,3.565-0.275l14.859,8.596c0.852,0.492,0.637,1.414-0.48,2.058l-11.332,6.536
				C587.441,347.628,585.845,347.751,584.993,347.259z"/>
			<path fill="#2E7DA2" d="M604.395,358.482l-14.859-8.595c-0.852-0.493-0.637-1.415,0.48-2.059l11.332-6.536
				c1.117-0.644,2.713-0.767,3.565-0.274l14.858,8.595c0.852,0.493,0.637,1.415-0.48,2.059l-11.332,6.536
				C606.842,358.852,605.246,358.975,604.395,358.482z"/>
			<path fill="#2E7DA2" d="M623.796,369.706l-14.859-8.596c-0.851-0.492-0.637-1.414,0.481-2.058l11.331-6.536
				c1.118-0.645,2.713-0.767,3.565-0.275l14.859,8.596c0.851,0.492,0.637,1.414-0.481,2.058l-11.331,6.536
				C626.244,370.076,624.648,370.198,623.796,369.706z"/>
			<path fill="#2E7DA2" d="M412.626,267.363l-14.859-8.595c-0.851-0.493-0.637-1.415,0.48-2.059l11.332-6.536
				c1.117-0.644,2.713-0.767,3.565-0.274l14.858,8.595c0.852,0.493,0.638,1.415-0.48,2.059l-11.331,6.536
				C415.073,267.733,413.477,267.856,412.626,267.363z"/>
			<path fill="#2E7DA2" d="M432.027,278.587l-14.858-8.596c-0.852-0.492-0.637-1.414,0.48-2.058l11.332-6.536
				c1.117-0.645,2.714-0.767,3.565-0.275l14.859,8.596c0.852,0.492,0.637,1.414-0.48,2.058l-11.332,6.536
				C434.475,278.957,432.879,279.08,432.027,278.587z"/>
			<path fill="#2E7DA2" d="M451.429,289.811l-14.859-8.595c-0.852-0.493-0.637-1.415,0.48-2.059l11.332-6.536
				c1.117-0.644,2.713-0.767,3.565-0.274l14.858,8.595c0.852,0.493,0.637,1.415-0.48,2.059l-11.332,6.536
				C453.876,290.181,452.28,290.304,451.429,289.811z"/>
			<path fill="#2E7DA2" d="M470.83,301.035l-14.859-8.596c-0.851-0.492-0.637-1.414,0.481-2.058l11.331-6.536
				c1.118-0.645,2.713-0.767,3.565-0.275l14.859,8.596c0.851,0.492,0.637,1.414-0.481,2.058l-11.331,6.536
				C473.278,301.405,471.682,301.527,470.83,301.035z"/>
			<path fill="#2E7DA2" d="M490.231,312.258l-14.858-8.595c-0.852-0.493-0.637-1.415,0.48-2.059l11.332-6.536
				c1.117-0.644,2.713-0.767,3.564-0.274l14.859,8.595c0.852,0.493,0.637,1.415-0.48,2.059l-11.332,6.536
				C492.679,312.629,491.083,312.752,490.231,312.258z"/>
			<path fill="#2E7DA2" d="M509.633,323.482l-14.859-8.596c-0.851-0.492-0.637-1.414,0.48-2.058l11.332-6.536
				c1.117-0.645,2.713-0.767,3.565-0.275l14.858,8.596c0.852,0.492,0.637,1.414-0.48,2.059l-11.331,6.536
				C512.081,323.852,510.484,323.975,509.633,323.482z"/>
			<path fill="#2E7DA2" d="M529.034,334.706l-14.858-8.595c-0.852-0.493-0.638-1.415,0.48-2.059l11.331-6.536
				c1.118-0.644,2.714-0.767,3.565-0.274l14.859,8.595c0.851,0.493,0.637,1.415-0.48,2.059l-11.332,6.536
				C531.482,335.076,529.886,335.199,529.034,334.706z"/>
			<path fill="#2E7DA2" d="M548.435,345.93l-14.858-8.596c-0.852-0.492-0.637-1.414,0.48-2.059l11.332-6.536
				c1.117-0.645,2.713-0.767,3.565-0.275l14.858,8.596c0.852,0.492,0.637,1.414-0.48,2.058l-11.332,6.536
				C550.884,346.3,549.287,346.422,548.435,345.93z"/>
			<path fill="#2E7DA2" d="M567.837,357.153l-14.859-8.595c-0.851-0.493-0.637-1.415,0.48-2.059l11.332-6.536
				c1.117-0.644,2.713-0.767,3.565-0.274l14.859,8.595c0.851,0.493,0.637,1.415-0.481,2.059l-11.331,6.536
				C570.285,357.524,568.689,357.647,567.837,357.153z"/>
			<path fill="#2E7DA2" d="M587.238,368.378l-14.858-8.596c-0.852-0.492-0.637-1.414,0.48-2.058l11.332-6.536
				c1.117-0.645,2.713-0.767,3.564-0.275l14.859,8.596c0.852,0.492,0.637,1.414-0.48,2.058l-11.332,6.536
				C589.687,368.747,588.09,368.87,587.238,368.378z"/>
			<path fill="#2E7DA2" d="M606.64,379.601l-14.859-8.595c-0.852-0.493-0.637-1.415,0.48-2.059l11.332-6.536
				c1.117-0.645,2.713-0.767,3.565-0.274l14.858,8.595c0.852,0.493,0.637,1.415-0.48,2.059l-11.332,6.536
				C609.088,379.972,607.492,380.094,606.64,379.601z"/>
			<path fill="#2E7DA2" d="M395.469,277.259l-14.858-8.596c-0.852-0.492-0.637-1.415,0.48-2.059l11.332-6.537
				c1.117-0.644,2.713-0.766,3.565-0.274l14.858,8.596c0.852,0.492,0.637,1.414-0.48,2.058l-11.332,6.536
				C397.917,277.629,396.321,277.751,395.469,277.259z"/>
			<path fill="#2E7DA2" d="M414.871,288.482l-14.859-8.595c-0.851-0.493-0.637-1.415,0.48-2.059l11.332-6.536
				c1.117-0.644,2.713-0.767,3.565-0.274l14.859,8.595c0.851,0.493,0.637,1.415-0.481,2.059l-11.331,6.536
				C417.319,288.853,415.723,288.976,414.871,288.482z"/>
			<path fill="#2E7DA2" d="M434.272,299.706l-14.858-8.596c-0.852-0.492-0.637-1.415,0.48-2.058l11.332-6.537
				c1.117-0.644,2.713-0.766,3.565-0.274l14.859,8.596c0.852,0.492,0.637,1.414-0.48,2.058l-11.332,6.536
				C436.72,300.076,435.124,300.199,434.272,299.706z"/>
			<path fill="#2E7DA2" d="M453.674,310.93l-14.859-8.595c-0.852-0.493-0.637-1.415,0.48-2.059l11.332-6.536
				c1.117-0.644,2.713-0.767,3.565-0.274l14.858,8.595c0.852,0.493,0.637,1.415-0.48,2.059l-11.332,6.536
				C456.122,311.3,454.526,311.423,453.674,310.93z"/>
			<path fill="#2E7DA2" d="M473.075,322.154l-14.859-8.596c-0.851-0.492-0.637-1.415,0.481-2.058l11.331-6.536
				c1.118-0.645,2.714-0.767,3.565-0.275l14.859,8.596c0.851,0.492,0.637,1.414-0.48,2.058l-11.332,6.536
				C475.524,322.524,473.927,322.647,473.075,322.154z"/>
			<path fill="#2E7DA2" d="M492.476,333.378l-14.858-8.595c-0.852-0.493-0.637-1.415,0.48-2.059l11.332-6.536
				c1.117-0.644,2.713-0.767,3.565-0.274l14.858,8.595c0.852,0.493,0.637,1.415-0.48,2.059l-11.332,6.536
				C494.925,333.748,493.329,333.871,492.476,333.378z"/>
			<path fill="#2E7DA2" d="M511.878,344.602l-14.859-8.596c-0.851-0.492-0.637-1.415,0.48-2.058l11.332-6.536
				c1.117-0.645,2.713-0.767,3.565-0.275l14.858,8.596c0.852,0.492,0.638,1.414-0.48,2.059l-11.331,6.536
				C514.326,344.971,512.73,345.094,511.878,344.602z"/>
			<path fill="#2E7DA2" d="M531.279,355.825l-14.858-8.595c-0.852-0.493-0.637-1.415,0.48-2.059l11.331-6.536
				c1.118-0.644,2.714-0.767,3.565-0.274l14.859,8.595c0.851,0.493,0.637,1.415-0.48,2.059l-11.332,6.536
				C533.728,356.196,532.132,356.318,531.279,355.825z"/>
			<path fill="#2E7DA2" d="M550.681,367.049l-14.859-8.596c-0.852-0.492-0.637-1.414,0.48-2.058l11.332-6.536
				c1.117-0.645,2.713-0.767,3.565-0.275l14.858,8.596c0.852,0.492,0.637,1.414-0.48,2.059l-11.332,6.536
				C553.129,367.419,551.533,367.542,550.681,367.049z"/>
			<path fill="#2E7DA2" d="M570.083,378.273l-14.859-8.595c-0.851-0.493-0.637-1.415,0.481-2.059l11.332-6.536
				c1.117-0.645,2.713-0.767,3.565-0.274l14.859,8.595c0.851,0.493,0.637,1.415-0.481,2.059l-11.332,6.536
				C572.53,378.643,570.935,378.766,570.083,378.273z"/>
			<path fill="#2E7DA2" d="M589.484,389.497l-14.858-8.596c-0.852-0.492-0.637-1.414,0.48-2.058l11.332-6.536
				c1.117-0.645,2.713-0.767,3.564-0.275l14.859,8.596c0.852,0.492,0.637,1.414-0.48,2.058l-11.332,6.536
				C591.932,389.867,590.336,389.989,589.484,389.497z"/>
			<path fill="#2E7DA2" d="M378.313,287.154l-14.858-8.595c-0.852-0.493-0.637-1.415,0.48-2.059l11.331-6.536
				c1.118-0.644,2.714-0.767,3.565-0.275l14.859,8.596c0.851,0.492,0.637,1.415-0.48,2.059l-11.332,6.536
				C380.762,287.524,379.165,287.647,378.313,287.154z"/>
			<path fill="#2E7DA2" d="M397.715,298.378l-14.859-8.596c-0.852-0.492-0.637-1.415,0.48-2.058l11.332-6.537
				c1.117-0.644,2.713-0.766,3.565-0.274l14.858,8.596c0.852,0.492,0.637,1.414-0.48,2.058l-11.332,6.536
				C400.163,298.748,398.567,298.871,397.715,298.378z"/>
			<path fill="#2E7DA2" d="M417.117,309.602l-14.859-8.595c-0.851-0.493-0.637-1.415,0.481-2.059l11.331-6.536
				c1.118-0.644,2.713-0.767,3.565-0.275l14.859,8.596c0.851,0.492,0.637,1.415-0.481,2.059l-11.331,6.536
				C419.564,309.972,417.969,310.095,417.117,309.602z"/>
			<path fill="#2E7DA2" d="M533.269,376.796l-111.354-64.418c-0.993-0.574-0.743-1.649,0.56-2.4l10.661-6.149
				c1.302-0.751,3.163-0.895,4.156-0.32l111.353,64.418c0.993,0.575,0.743,1.649-0.56,2.4l-10.661,6.149
				C536.123,377.228,534.262,377.371,533.269,376.796z"/>
			<path fill="#2E7DA2" d="M552.927,388.169l-14.859-8.596c-0.852-0.492-0.637-1.415,0.48-2.058l11.332-6.537
				c1.117-0.644,2.713-0.766,3.565-0.274l14.858,8.596c0.852,0.492,0.637,1.414-0.48,2.059l-11.332,6.536
				C555.374,388.538,553.778,388.661,552.927,388.169z"/>
			<path fill="#2E7DA2" d="M572.328,399.392l-14.859-8.595c-0.852-0.493-0.637-1.415,0.481-2.059l11.331-6.536
				c1.118-0.645,2.713-0.767,3.565-0.274l14.859,8.595c0.851,0.493,0.637,1.415-0.481,2.059l-11.331,6.536
				C574.776,399.763,573.18,399.885,572.328,399.392z"/>
		</g>
		<g>
			<path fill="#418AB7" d="M464.394,237.355l-15.458-8.943c-0.686-0.398-0.513-1.14,0.387-1.659l6.72-3.876
				c0.9-0.519,2.186-0.618,2.872-0.221l15.459,8.943c0.686,0.397,0.512,1.139-0.387,1.659l-6.721,3.876
				C466.366,237.653,465.08,237.752,464.394,237.355z"/>
			<path fill="#418AB7" d="M483.796,248.579l-15.458-8.943c-0.686-0.397-0.513-1.139,0.387-1.659l6.72-3.876
				c0.9-0.519,2.186-0.618,2.872-0.221l15.458,8.943c0.686,0.397,0.513,1.14-0.387,1.659l-6.72,3.876
				C485.768,248.877,484.482,248.976,483.796,248.579z"/>
			<path fill="#418AB7" d="M503.197,259.803l-15.459-8.943c-0.686-0.398-0.512-1.14,0.388-1.659l6.72-3.876
				c0.9-0.519,2.186-0.618,2.872-0.221l15.458,8.943c0.686,0.397,0.512,1.139-0.388,1.659l-6.72,3.876
				C505.169,260.101,503.883,260.199,503.197,259.803z"/>
			<path fill="#418AB7" d="M522.598,271.026l-15.458-8.943c-0.686-0.397-0.513-1.139,0.387-1.659l6.72-3.876
				c0.899-0.519,2.185-0.618,2.871-0.221l15.459,8.943c0.686,0.397,0.513,1.14-0.387,1.659l-6.72,3.876
				C524.57,271.324,523.284,271.424,522.598,271.026z"/>
			<path fill="#418AB7" d="M542,282.25l-15.458-8.943c-0.686-0.398-0.513-1.14,0.387-1.659l6.721-3.876
				c0.9-0.519,2.186-0.618,2.872-0.221l15.458,8.943c0.686,0.397,0.513,1.139-0.387,1.659l-6.72,3.876
				C543.972,282.548,542.686,282.647,542,282.25z"/>
			<path fill="#418AB7" d="M561.401,293.474l-15.458-8.943c-0.686-0.397-0.513-1.139,0.387-1.659l6.72-3.876
				c0.9-0.519,2.186-0.618,2.872-0.221l15.458,8.943c0.686,0.397,0.512,1.14-0.387,1.659l-6.721,3.876
				C563.373,293.772,562.087,293.871,561.401,293.474z"/>
			<path fill="#418AB7" d="M580.803,304.698l-15.458-8.943c-0.686-0.398-0.513-1.14,0.387-1.659l6.721-3.876
				c0.9-0.519,2.185-0.618,2.871-0.221l15.458,8.943c0.686,0.397,0.513,1.139-0.387,1.659l-6.721,3.876
				C582.774,304.996,581.489,305.095,580.803,304.698z"/>
			<path fill="#418AB7" d="M600.204,315.921l-15.458-8.943c-0.686-0.397-0.513-1.139,0.387-1.659l6.72-3.876
				c0.9-0.519,2.186-0.618,2.872-0.221l15.458,8.943c0.687,0.397,0.513,1.14-0.387,1.659l-6.72,3.876
				C602.176,316.219,600.89,316.319,600.204,315.921z"/>
			<path fill="#418AB7" d="M619.605,327.146l-15.458-8.943c-0.686-0.398-0.513-1.14,0.387-1.659l6.72-3.876
				c0.9-0.519,2.186-0.618,2.872-0.221l15.458,8.943c0.686,0.397,0.513,1.139-0.387,1.659l-6.721,3.875
				C621.577,327.444,620.291,327.542,619.605,327.146z"/>
			<path fill="#418AB7" d="M639.007,338.369l-15.458-8.943c-0.686-0.397-0.513-1.139,0.387-1.659l6.721-3.876
				c0.9-0.519,2.186-0.618,2.872-0.221l15.458,8.943c0.686,0.397,0.513,1.14-0.387,1.659l-6.721,3.876
				C640.979,338.667,639.693,338.766,639.007,338.369z"/>
			<path fill="#418AB7" d="M658.408,349.593l-15.458-8.943c-0.686-0.398-0.512-1.14,0.388-1.659l6.72-3.876
				c0.9-0.519,2.186-0.618,2.872-0.221l15.458,8.943c0.686,0.397,0.513,1.139-0.387,1.659l-6.72,3.876
				C660.38,349.891,659.094,349.99,658.408,349.593z"/>
			<path fill="#418AB7" d="M446.938,247.077l-14.858-8.595c-0.852-0.493-0.637-1.415,0.48-2.059l11.332-6.536
				c1.117-0.645,2.713-0.767,3.565-0.274l14.858,8.595c0.852,0.493,0.637,1.415-0.48,2.059l-11.332,6.536
				C449.386,247.447,447.79,247.57,446.938,247.077z"/>
			<path fill="#418AB7" d="M466.339,258.301l-14.859-8.596c-0.851-0.492-0.637-1.414,0.48-2.058l11.332-6.536
				c1.117-0.645,2.713-0.767,3.565-0.275l14.859,8.596c0.851,0.492,0.637,1.415-0.481,2.059l-11.331,6.536
				C468.787,258.671,467.191,258.793,466.339,258.301z"/>
			<path fill="#418AB7" d="M485.741,269.524l-14.858-8.595c-0.852-0.493-0.637-1.415,0.48-2.059l11.332-6.536
				c1.117-0.645,2.713-0.767,3.565-0.274l14.859,8.595c0.852,0.493,0.637,1.415-0.48,2.059l-11.332,6.536
				C488.189,269.895,486.593,270.017,485.741,269.524z"/>
			<path fill="#418AB7" d="M505.143,280.748l-14.859-8.596c-0.852-0.492-0.637-1.414,0.48-2.058l11.332-6.536
				c1.117-0.645,2.713-0.767,3.565-0.275l14.858,8.596c0.852,0.492,0.637,1.415-0.48,2.059l-11.332,6.537
				C507.59,281.118,505.994,281.241,505.143,280.748z"/>
			<path fill="#418AB7" d="M524.544,291.972l-14.859-8.595c-0.851-0.493-0.637-1.415,0.481-2.059l11.331-6.536
				c1.118-0.645,2.713-0.767,3.565-0.274l14.859,8.595c0.851,0.493,0.637,1.415-0.481,2.059l-11.331,6.536
				C526.992,292.342,525.396,292.465,524.544,291.972z"/>
			<path fill="#418AB7" d="M543.945,303.196l-14.858-8.596c-0.852-0.492-0.637-1.414,0.48-2.058l11.332-6.536
				c1.117-0.645,2.713-0.767,3.564-0.275l14.859,8.596c0.852,0.492,0.637,1.415-0.48,2.059l-11.332,6.537
				C546.393,303.566,544.797,303.688,543.945,303.196z"/>
			<path fill="#418AB7" d="M563.347,314.419l-14.859-8.595c-0.851-0.493-0.637-1.415,0.48-2.059l11.332-6.536
				c1.117-0.645,2.713-0.767,3.565-0.274l14.858,8.595c0.852,0.493,0.637,1.415-0.48,2.059l-11.331,6.536
				C565.794,314.79,564.198,314.913,563.347,314.419z"/>
			<path fill="#418AB7" d="M582.748,325.644l-14.858-8.596c-0.852-0.492-0.638-1.414,0.48-2.058l11.331-6.536
				c1.118-0.645,2.714-0.767,3.565-0.275l14.859,8.596c0.851,0.492,0.637,1.415-0.48,2.059l-11.332,6.537
				C585.196,326.013,583.6,326.136,582.748,325.644z"/>
			<path fill="#418AB7" d="M602.149,336.867l-14.858-8.595c-0.852-0.493-0.637-1.415,0.48-2.059l11.332-6.536
				c1.117-0.645,2.713-0.767,3.565-0.274l14.858,8.595c0.852,0.493,0.637,1.415-0.48,2.059l-11.332,6.536
				C604.597,337.237,603.001,337.36,602.149,336.867z"/>
			<path fill="#418AB7" d="M621.551,348.091l-14.859-8.596c-0.851-0.492-0.637-1.414,0.481-2.058l11.332-6.536
				c1.117-0.645,2.713-0.767,3.565-0.275l14.859,8.596c0.851,0.492,0.637,1.415-0.481,2.059l-11.332,6.537
				C623.998,348.461,622.403,348.584,621.551,348.091z"/>
			<path fill="#418AB7" d="M640.952,359.315l-14.858-8.595c-0.852-0.493-0.637-1.415,0.48-2.059l11.332-6.536
				c1.117-0.645,2.713-0.767,3.564-0.274l14.859,8.595c0.852,0.493,0.637,1.415-0.48,2.059l-11.332,6.536
				C643.4,359.685,641.804,359.808,640.952,359.315z"/>
			<path fill="#418AB7" d="M429.782,256.972l-14.858-8.596c-0.852-0.492-0.638-1.414,0.48-2.058l11.331-6.536
				c1.118-0.645,2.714-0.767,3.565-0.275l14.859,8.596c0.851,0.492,0.637,1.414-0.48,2.059l-11.332,6.536
				C432.23,257.342,430.634,257.465,429.782,256.972z"/>
			<path fill="#418AB7" d="M449.183,268.196l-14.858-8.595c-0.852-0.493-0.637-1.415,0.48-2.059l11.332-6.536
				c1.117-0.645,2.713-0.767,3.565-0.274l14.858,8.595c0.852,0.493,0.637,1.415-0.48,2.059l-11.332,6.536
				C451.631,268.566,450.035,268.689,449.183,268.196z"/>
			<path fill="#418AB7" d="M468.585,279.42l-14.859-8.596c-0.851-0.492-0.637-1.414,0.481-2.058l11.331-6.536
				c1.117-0.645,2.713-0.767,3.565-0.275l14.859,8.596c0.851,0.492,0.637,1.414-0.481,2.059l-11.331,6.536
				C471.032,279.79,469.437,279.912,468.585,279.42z"/>
			<path fill="#418AB7" d="M487.986,290.643l-14.858-8.595c-0.852-0.493-0.637-1.415,0.48-2.059l11.332-6.536
				c1.117-0.645,2.713-0.767,3.564-0.274l14.859,8.595c0.852,0.493,0.637,1.415-0.48,2.059l-11.332,6.536
				C490.434,291.014,488.838,291.137,487.986,290.643z"/>
			<path fill="#418AB7" d="M507.388,301.868l-14.859-8.596c-0.852-0.492-0.637-1.414,0.48-2.058l11.332-6.536
				c1.117-0.645,2.713-0.767,3.565-0.275l14.858,8.596c0.852,0.492,0.637,1.414-0.48,2.059l-11.332,6.536
				C509.835,302.237,508.239,302.36,507.388,301.868z"/>
			<path fill="#418AB7" d="M526.789,313.091l-14.859-8.595c-0.851-0.493-0.637-1.415,0.481-2.059l11.332-6.536
				c1.117-0.645,2.714-0.767,3.565-0.274l14.859,8.595c0.851,0.493,0.637,1.415-0.48,2.059l-11.332,6.536
				C529.237,313.462,527.641,313.584,526.789,313.091z"/>
			<path fill="#418AB7" d="M546.19,324.315l-14.858-8.596c-0.852-0.492-0.637-1.414,0.48-2.059l11.332-6.536
				c1.117-0.645,2.713-0.767,3.565-0.275l14.858,8.596c0.852,0.492,0.637,1.414-0.48,2.059l-11.332,6.536
				C548.638,324.685,547.042,324.808,546.19,324.315z"/>
			<path fill="#418AB7" d="M565.592,335.539l-14.859-8.595c-0.851-0.493-0.637-1.415,0.48-2.059l11.332-6.536
				c1.117-0.645,2.713-0.767,3.565-0.274l14.858,8.595c0.852,0.493,0.638,1.415-0.48,2.059l-11.331,6.536
				C568.039,335.909,566.443,336.032,565.592,335.539z"/>
			<path fill="#418AB7" d="M584.993,346.763l-14.858-8.596c-0.852-0.492-0.637-1.414,0.48-2.058l11.331-6.536
				c1.118-0.645,2.714-0.767,3.565-0.275l14.859,8.596c0.852,0.492,0.637,1.414-0.48,2.059l-11.332,6.536
				C587.441,347.133,585.845,347.255,584.993,346.763z"/>
			<path fill="#418AB7" d="M604.395,357.986l-14.859-8.595c-0.852-0.493-0.637-1.415,0.48-2.059l11.332-6.536
				c1.117-0.645,2.713-0.767,3.565-0.274l14.858,8.595c0.852,0.493,0.637,1.415-0.48,2.059l-11.332,6.536
				C606.842,358.357,605.246,358.479,604.395,357.986z"/>
			<path fill="#418AB7" d="M623.796,369.21l-14.859-8.596c-0.851-0.492-0.637-1.414,0.481-2.058l11.331-6.536
				c1.118-0.645,2.713-0.767,3.565-0.275l14.859,8.596c0.851,0.492,0.637,1.414-0.481,2.059l-11.331,6.536
				C626.244,369.58,624.648,369.703,623.796,369.21z"/>
			<path fill="#418AB7" d="M412.626,266.868l-14.859-8.595c-0.851-0.493-0.637-1.415,0.48-2.059l11.332-6.536
				c1.117-0.645,2.713-0.767,3.565-0.274l14.858,8.595c0.852,0.493,0.638,1.415-0.48,2.059l-11.331,6.536
				C415.073,267.238,413.477,267.361,412.626,266.868z"/>
			<path fill="#418AB7" d="M432.027,278.092l-14.858-8.596c-0.852-0.492-0.637-1.414,0.48-2.058l11.332-6.536
				c1.117-0.645,2.714-0.767,3.565-0.275l14.859,8.596c0.852,0.492,0.637,1.414-0.48,2.059l-11.332,6.536
				C434.475,278.461,432.879,278.584,432.027,278.092z"/>
			<path fill="#418AB7" d="M451.429,289.315l-14.859-8.595c-0.852-0.493-0.637-1.415,0.48-2.059l11.332-6.536
				c1.117-0.645,2.713-0.767,3.565-0.274l14.858,8.595c0.852,0.493,0.637,1.415-0.48,2.059l-11.332,6.536
				C453.876,289.686,452.28,289.808,451.429,289.315z"/>
			<path fill="#418AB7" d="M470.83,300.539l-14.859-8.596c-0.851-0.492-0.637-1.414,0.481-2.058l11.331-6.536
				c1.118-0.645,2.713-0.767,3.565-0.275l14.859,8.596c0.851,0.492,0.637,1.414-0.481,2.059l-11.331,6.536
				C473.278,300.909,471.682,301.032,470.83,300.539z"/>
			<path fill="#418AB7" d="M490.231,311.763l-14.858-8.595c-0.852-0.493-0.637-1.415,0.48-2.059l11.332-6.536
				c1.117-0.645,2.713-0.767,3.564-0.274l14.859,8.595c0.852,0.493,0.637,1.415-0.48,2.059l-11.332,6.536
				C492.679,312.133,491.083,312.256,490.231,311.763z"/>
			<path fill="#418AB7" d="M509.633,322.987l-14.859-8.596c-0.851-0.492-0.637-1.414,0.48-2.058l11.332-6.536
				c1.117-0.645,2.713-0.767,3.565-0.275l14.858,8.596c0.852,0.492,0.637,1.414-0.48,2.059l-11.331,6.536
				C512.081,323.357,510.484,323.479,509.633,322.987z"/>
			<path fill="#418AB7" d="M529.034,334.21l-14.858-8.595c-0.852-0.493-0.638-1.415,0.48-2.059l11.331-6.536
				c1.118-0.645,2.714-0.767,3.565-0.274l14.859,8.595c0.851,0.493,0.637,1.415-0.48,2.059l-11.332,6.536
				C531.482,334.581,529.886,334.703,529.034,334.21z"/>
			<path fill="#418AB7" d="M548.435,345.435l-14.858-8.596c-0.852-0.492-0.637-1.414,0.48-2.059l11.332-6.536
				c1.117-0.645,2.713-0.767,3.565-0.275l14.858,8.596c0.852,0.492,0.637,1.414-0.48,2.059l-11.332,6.536
				C550.884,345.804,549.287,345.927,548.435,345.435z"/>
			<path fill="#418AB7" d="M567.837,356.658l-14.859-8.595c-0.851-0.493-0.637-1.415,0.48-2.059l11.332-6.536
				c1.117-0.645,2.713-0.767,3.565-0.274l14.859,8.595c0.851,0.493,0.637,1.415-0.481,2.059l-11.331,6.536
				C570.285,357.028,568.689,357.151,567.837,356.658z"/>
			<path fill="#418AB7" d="M587.238,367.882l-14.858-8.596c-0.852-0.492-0.637-1.414,0.48-2.058l11.332-6.536
				c1.117-0.645,2.713-0.767,3.564-0.275l14.859,8.596c0.852,0.492,0.637,1.414-0.48,2.059l-11.332,6.536
				C589.687,368.252,588.09,368.375,587.238,367.882z"/>
			<path fill="#418AB7" d="M606.64,379.106l-14.859-8.595c-0.852-0.493-0.637-1.415,0.48-2.059l11.332-6.536
				c1.117-0.645,2.713-0.767,3.565-0.274l14.858,8.595c0.852,0.493,0.637,1.415-0.48,2.059l-11.332,6.536
				C609.088,379.476,607.492,379.599,606.64,379.106z"/>
			<path fill="#418AB7" d="M395.469,276.763l-14.858-8.596c-0.852-0.492-0.637-1.415,0.48-2.059l11.332-6.537
				c1.117-0.644,2.713-0.767,3.565-0.274l14.858,8.596c0.852,0.492,0.637,1.414-0.48,2.059l-11.332,6.536
				C397.917,277.133,396.321,277.256,395.469,276.763z"/>
			<path fill="#418AB7" d="M414.871,287.987l-14.859-8.595c-0.851-0.493-0.637-1.415,0.48-2.059l11.332-6.536
				c1.117-0.645,2.713-0.767,3.565-0.274l14.859,8.595c0.851,0.493,0.637,1.415-0.481,2.059l-11.331,6.536
				C417.319,288.357,415.723,288.48,414.871,287.987z"/>
			<path fill="#418AB7" d="M434.272,299.211l-14.858-8.596c-0.852-0.492-0.637-1.415,0.48-2.058l11.332-6.537
				c1.117-0.644,2.713-0.767,3.565-0.274l14.859,8.596c0.852,0.492,0.637,1.414-0.48,2.059l-11.332,6.536
				C436.72,299.581,435.124,299.703,434.272,299.211z"/>
			<path fill="#418AB7" d="M453.674,310.434l-14.859-8.595c-0.852-0.493-0.637-1.415,0.48-2.059l11.332-6.536
				c1.117-0.645,2.713-0.767,3.565-0.274l14.858,8.595c0.852,0.493,0.637,1.415-0.48,2.059l-11.332,6.536
				C456.122,310.805,454.526,310.928,453.674,310.434z"/>
			<path fill="#418AB7" d="M473.075,321.659l-14.859-8.596c-0.851-0.492-0.637-1.415,0.481-2.058l11.331-6.536
				c1.118-0.645,2.714-0.767,3.565-0.275l14.859,8.596c0.851,0.492,0.637,1.414-0.48,2.059l-11.332,6.536
				C475.524,322.028,473.927,322.151,473.075,321.659z"/>
			<path fill="#418AB7" d="M492.476,332.882l-14.858-8.595c-0.852-0.493-0.637-1.415,0.48-2.059l11.332-6.536
				c1.117-0.645,2.713-0.767,3.565-0.274l14.858,8.595c0.852,0.493,0.637,1.415-0.48,2.059l-11.332,6.536
				C494.925,333.252,493.329,333.375,492.476,332.882z"/>
			<path fill="#418AB7" d="M511.878,344.106l-14.859-8.596c-0.851-0.492-0.637-1.415,0.48-2.058l11.332-6.536
				c1.117-0.645,2.713-0.767,3.565-0.275l14.858,8.596c0.852,0.492,0.638,1.414-0.48,2.059l-11.331,6.536
				C514.326,344.476,512.73,344.599,511.878,344.106z"/>
			<path fill="#418AB7" d="M531.279,355.33l-14.858-8.595c-0.852-0.493-0.637-1.415,0.48-2.059l11.331-6.536
				c1.118-0.645,2.714-0.767,3.565-0.274l14.859,8.595c0.851,0.493,0.637,1.415-0.48,2.059l-11.332,6.536
				C533.728,355.7,532.132,355.823,531.279,355.33z"/>
			<path fill="#418AB7" d="M550.681,366.554l-14.859-8.596c-0.852-0.492-0.637-1.414,0.48-2.058l11.332-6.536
				c1.117-0.645,2.713-0.767,3.565-0.275l14.858,8.596c0.852,0.492,0.637,1.414-0.48,2.059l-11.332,6.536
				C553.129,366.924,551.533,367.046,550.681,366.554z"/>
			<path fill="#418AB7" d="M570.083,377.777l-14.859-8.595c-0.851-0.493-0.637-1.415,0.481-2.059l11.332-6.536
				c1.117-0.645,2.713-0.767,3.565-0.274l14.859,8.595c0.851,0.493,0.637,1.415-0.481,2.059l-11.332,6.536
				C572.53,378.148,570.935,378.27,570.083,377.777z"/>
			<path fill="#418AB7" d="M589.484,389.001l-14.858-8.596c-0.852-0.492-0.637-1.414,0.48-2.059l11.332-6.536
				c1.117-0.645,2.713-0.767,3.564-0.275l14.859,8.596c0.852,0.492,0.637,1.414-0.48,2.059l-11.332,6.536
				C591.932,389.371,590.336,389.494,589.484,389.001z"/>
			<path fill="#418AB7" d="M378.313,286.658l-14.858-8.595c-0.852-0.493-0.637-1.415,0.48-2.059l11.331-6.536
				c1.118-0.645,2.714-0.767,3.565-0.275l14.859,8.596c0.851,0.492,0.637,1.415-0.48,2.059l-11.332,6.536
				C380.762,287.028,379.165,287.152,378.313,286.658z"/>
			<path fill="#418AB7" d="M397.715,297.883l-14.859-8.596c-0.852-0.492-0.637-1.415,0.48-2.059l11.332-6.537
				c1.117-0.644,2.713-0.767,3.565-0.274l14.858,8.596c0.852,0.492,0.637,1.414-0.48,2.059l-11.332,6.536
				C400.163,298.252,398.567,298.375,397.715,297.883z"/>
			<path fill="#418AB7" d="M417.117,309.106l-14.859-8.595c-0.851-0.493-0.637-1.415,0.481-2.059l11.331-6.536
				c1.118-0.645,2.713-0.767,3.565-0.275l14.859,8.596c0.851,0.492,0.637,1.415-0.481,2.059l-11.331,6.536
				C419.564,309.477,417.969,309.599,417.117,309.106z"/>
			<path fill="#418AB7" d="M533.269,376.301l-111.354-64.418c-0.993-0.574-0.743-1.649,0.56-2.401l10.661-6.149
				c1.302-0.751,3.163-0.895,4.156-0.32l111.353,64.418c0.993,0.575,0.743,1.649-0.56,2.4l-10.661,6.149
				C536.123,376.732,534.262,376.876,533.269,376.301z"/>
			<path fill="#418AB7" d="M552.927,387.673l-14.859-8.596c-0.852-0.492-0.637-1.415,0.48-2.059l11.332-6.537
				c1.117-0.644,2.713-0.767,3.565-0.274l14.858,8.596c0.852,0.492,0.637,1.414-0.48,2.059l-11.332,6.536
				C555.374,388.043,553.778,388.165,552.927,387.673z"/>
			<path fill="#418AB7" d="M572.328,398.896l-14.859-8.595c-0.852-0.493-0.637-1.415,0.481-2.059l11.331-6.536
				c1.118-0.645,2.713-0.767,3.565-0.274l14.859,8.595c0.851,0.493,0.637,1.415-0.481,2.059l-11.331,6.536
				C574.776,399.267,573.18,399.39,572.328,398.896z"/>
		</g>
	</g>
	<g>
		<g>
			<g>
				<polygon fill="#6ACDF0" points="485.73,223.612 485.73,101.752 414.597,60.683 414.597,182.543 				"/>
				<polygon fill="#3DB5D4" points="485.73,223.612 487.425,222.623 487.425,100.763 485.73,101.752 				"/>
				<polygon fill="#AEECFF" points="487.425,100.763 416.293,59.694 414.597,60.683 485.73,101.752 				"/>
			</g>
			<g>
				<polygon fill="#F4FFFF" points="417.733,178.581 481.099,215.169 481.099,105.377 417.733,68.789 				"/>
				<path fill="#F2F2F2" d="M428.753,110.884c0,13.128,9.251,29.112,20.663,35.702c11.412,6.589,20.663,1.288,20.663-11.84
					s-9.251-29.112-20.663-35.701C438.004,92.455,428.753,97.756,428.753,110.884z"/>
				<g>
					<defs>
						<path id="SVGID_1_" d="M428.753,110.884c0,13.128,9.251,29.112,20.663,35.702c11.412,6.589,20.663,1.288,20.663-11.84
							s-9.251-29.112-20.663-35.701C438.004,92.455,428.753,97.756,428.753,110.884z"/>
					</defs>
					<clipPath id="SVGID_2_">
						<use xlink:href="#SVGID_1_"  overflow="visible"/>
					</clipPath>
					<g clip-path="url(#SVGID_2_)">
						<path fill="#BF708F" d="M437.388,140.325l24.056,13.89v-7.402c0-3.728-2.627-8.267-5.867-10.138l-12.322-7.115
							c-3.24-1.871-5.867-0.366-5.867,3.362V140.325z"/>
						<path fill="#FCCAD5" d="M449.416,138.339L449.416,138.339c2.349,1.356,4.253,0.265,4.253-2.437v-4.893l-8.506-4.911v4.893
							C445.163,133.693,447.067,136.983,449.416,138.339z"/>
						<g>
							<path fill="#C2A197" d="M449.458,104.145c2.008,1.159,10.114,7.03,10.114,20.715c0,13.685,0,14.148,0,14.148
								s-3.336-5.629-10.577-8.62"/>
							<path fill="#C2A197" d="M449.458,104.145c-2.008-1.159-10.114-4.65-10.114,9.036s0,14.148,0,14.148s3.336-1.776,10.577,3.595
								"/>
							<path fill="#FCCAD5" d="M445.253,129.518l1.92,2.384c1.388,1.724,3.099,2.711,4.487,2.591l1.92-0.167
								c2.878-0.25,4.651-2.759,4.651-6.582v-7.6c0-5.601-3.947-12.42-8.815-15.231l0,0c-4.868-2.811-8.815-0.55-8.815,5.051v7.6
								C440.601,121.388,442.374,125.944,445.253,129.518z"/>
							<path fill="#FCCAD5" d="M458.231,128.526L458.231,128.526c0.74,0.428,1.341,0.084,1.341-0.768v-3.538
								c0-0.852-0.6-1.889-1.341-2.316l0,0c-0.74-0.428-1.34-0.084-1.34,0.768v3.538
								C456.891,127.062,457.491,128.099,458.231,128.526z"/>
							<path fill="#FCCAD5" d="M440.601,118.347L440.601,118.347c0.74,0.427,1.34,0.084,1.34-0.768v-3.538
								c0-0.852-0.6-1.889-1.34-2.316l0,0c-0.74-0.428-1.341-0.084-1.341,0.768v3.538
								C439.261,116.882,439.861,117.919,440.601,118.347z"/>
							<path fill="#C2A197" d="M443.305,107.402c0,0,4.334,11.392,15.344,18.446c0,0,0-3.57,0-5.487
								c0-1.917-1.379-11.044-8.908-15.391c-7.528-4.347-9.86-0.272-9.425,8.177C440.317,113.147,443.224,113.239,443.305,107.402z"
								/>
						</g>
					</g>
				</g>
				<g>
					<polygon fill="#C4C4C4" points="424.166,159.808 474.667,188.968 474.667,185.85 424.166,156.69 					"/>
					<polygon fill="#C4C4C4" points="436.078,144.85 462.754,160.253 462.754,158.322 436.078,142.919 					"/>
					<polygon fill="#C4C4C4" points="424.166,164.434 474.667,193.593 474.667,190.475 424.166,161.315 					"/>
					<polygon fill="#C4C4C4" points="424.166,169.059 474.667,198.218 474.667,195.1 424.166,165.941 					"/>
					<polygon fill="#C4C4C4" points="424.166,173.684 474.667,202.843 474.667,199.725 424.166,170.566 					"/>
					<polygon fill="#C4C4C4" points="424.166,178.309 474.667,207.468 474.667,204.35 424.166,175.191 					"/>
				</g>
				<g>
					<path fill="#FD95AF" d="M460.912,168.92c0,1.694,1.194,3.756,2.666,4.606c1.473,0.85,2.666,0.166,2.666-1.528
						c0-1.694-1.194-3.756-2.666-4.607C462.105,166.542,460.912,167.226,460.912,168.92z"/>
					<path fill="#84C0F0" d="M451.471,163.469c0,1.694,1.194,3.756,2.666,4.606c1.472,0.85,2.666,0.166,2.666-1.528
						c0-1.694-1.194-3.756-2.666-4.607C452.664,161.091,451.471,161.775,451.471,163.469z"/>
					<path fill="#FDAE52" d="M442.03,158.017c0,1.694,1.194,3.756,2.666,4.606c1.472,0.85,2.666,0.166,2.666-1.528
						c0-1.694-1.194-3.756-2.666-4.606C443.223,155.639,442.03,156.323,442.03,158.017z"/>
					<path fill="#C587F5" d="M432.589,152.566c0,1.694,1.194,3.756,2.666,4.606c1.472,0.85,2.666,0.166,2.666-1.528
						c0-1.694-1.194-3.756-2.666-4.606C433.782,150.188,432.589,150.872,432.589,152.566z"/>
				</g>
			</g>
		</g>
		<g>
			<g>
				<polygon fill="#6ACDF0" points="682.146,337.052 682.146,215.191 611.013,174.123 611.013,295.983 				"/>
				<polygon fill="#3DB5D4" points="682.146,337.052 683.842,336.063 683.842,214.202 682.146,215.191 				"/>
				<polygon fill="#AEECFF" points="683.842,214.202 612.709,173.134 611.013,174.123 682.146,215.191 				"/>
			</g>
			<g>
				<polygon fill="#F4FFFF" points="614.15,292.021 677.516,328.609 677.516,218.817 614.15,182.229 				"/>
				<g>
					<polygon fill="#C4C4C4" points="620.583,273.248 671.083,302.407 671.083,299.289 620.583,270.13 					"/>
					<polygon fill="#C4C4C4" points="632.495,258.29 659.171,273.693 659.171,271.762 632.495,256.359 					"/>
					<polygon fill="#C4C4C4" points="620.583,277.873 671.083,307.033 671.083,303.914 620.583,274.755 					"/>
					<polygon fill="#C4C4C4" points="620.583,282.498 671.083,311.658 671.083,308.54 620.583,279.38 					"/>
					<polygon fill="#C4C4C4" points="620.583,287.124 671.083,316.283 671.083,313.165 620.583,284.005 					"/>
					<polygon fill="#C4C4C4" points="620.583,291.749 671.083,320.908 671.083,317.79 620.583,288.631 					"/>
				</g>
				<g>
					<path fill="#FD95AF" d="M657.328,282.359c0,1.694,1.194,3.756,2.666,4.607c1.473,0.85,2.666,0.166,2.666-1.528
						c0-1.694-1.194-3.756-2.666-4.606C658.522,279.982,657.328,280.666,657.328,282.359z"/>
					<path fill="#84C0F0" d="M647.887,276.908c0,1.694,1.194,3.756,2.666,4.607c1.472,0.85,2.666,0.166,2.666-1.528
						c0-1.694-1.194-3.756-2.666-4.606S647.887,275.214,647.887,276.908z"/>
					<path fill="#FDAE52" d="M638.446,271.457c0,1.694,1.194,3.756,2.666,4.607c1.472,0.85,2.666,0.166,2.666-1.528
						c0-1.694-1.194-3.756-2.666-4.607C639.64,269.079,638.446,269.763,638.446,271.457z"/>
					<path fill="#C587F5" d="M629.005,266.006c0,1.694,1.194,3.756,2.666,4.606c1.472,0.85,2.666,0.166,2.666-1.528
						s-1.194-3.756-2.666-4.607C630.199,263.628,629.005,264.312,629.005,266.006z"/>
				</g>
			</g>
		</g>
		<g>
			<g>
				<polygon fill="#6ACDF0" points="516.317,268.638 516.317,146.777 445.184,105.709 445.184,227.569 				"/>
				<polygon fill="#3DB5D4" points="516.317,268.638 518.013,267.649 518.013,145.788 516.317,146.777 				"/>
				<polygon fill="#AEECFF" points="518.013,145.788 446.88,104.72 445.184,105.709 516.317,146.777 				"/>
			</g>
			<g>
				<polygon fill="#F4FFFF" points="447.781,223.159 511.147,259.746 511.147,149.954 447.781,113.367 				"/>
				<path fill="#F2F2F2" d="M458.801,155.461c0,13.128,9.251,29.112,20.663,35.702c11.412,6.589,20.663,1.288,20.663-11.84
					s-9.251-29.112-20.663-35.702C468.052,137.033,458.801,142.333,458.801,155.461z"/>
				<g>
					<defs>
						<path id="SVGID_3_" d="M458.801,155.461c0,13.128,9.251,29.112,20.663,35.702c11.412,6.589,20.663,1.288,20.663-11.84
							s-9.251-29.112-20.663-35.702C468.052,137.033,458.801,142.333,458.801,155.461z"/>
					</defs>
					<clipPath id="SVGID_4_">
						<use xlink:href="#SVGID_3_"  overflow="visible"/>
					</clipPath>
					<g clip-path="url(#SVGID_4_)">
						<path fill="#746E8C" d="M467.436,184.902l24.056,13.89v-7.402c0-3.728-2.627-8.267-5.867-10.138l-12.322-7.115
							c-3.24-1.871-5.867-0.366-5.867,3.362V184.902z"/>
						<path fill="#FCCAD5" d="M479.464,182.917L479.464,182.917c2.349,1.356,4.253,0.265,4.253-2.437v-4.893l-8.506-4.911v4.893
							C475.211,178.271,477.115,181.561,479.464,182.917z"/>
						<g>
							<path fill="#FCCAD5" d="M475.3,174.096l1.92,2.384c1.388,1.724,3.099,2.711,4.487,2.591l1.92-0.167
								c2.878-0.25,4.651-2.759,4.651-6.582v-7.6c0-5.6-3.947-12.419-8.815-15.23l0,0c-4.868-2.811-8.815-0.55-8.815,5.051v7.6
								C470.649,165.965,472.422,170.522,475.3,174.096z"/>
							<path fill="#FCCAD5" d="M488.279,173.104L488.279,173.104c0.74,0.428,1.34,0.084,1.34-0.768v-3.538
								c0-0.852-0.6-1.889-1.34-2.316l0,0c-0.74-0.428-1.341-0.084-1.341,0.768v3.538
								C486.938,171.639,487.538,172.676,488.279,173.104z"/>
							<path fill="#FCCAD5" d="M470.649,162.924L470.649,162.924c0.74,0.428,1.341,0.084,1.341-0.768v-3.538
								c0-0.852-0.6-1.889-1.341-2.316l0,0c-0.74-0.428-1.341-0.084-1.341,0.768v3.538
								C469.308,161.46,469.909,162.497,470.649,162.924z"/>
							<path fill="#937965" d="M489.21,167.454c0,0,0.779-6.199-0.443-8.629c0,0-2.247-6.423-8.95-10.294
								c-6.703-3.87-8.162-1.991-9.542,0.342c0,0-1.144,5.063,0.374,7.863l0.454,2.414c0,0,2.721-2.105,1.971-7.119
								c0,0,4.771,7.653,12.854,10.234c0,0,0.118,3.924,2.366,6.038L489.21,167.454z"/>
						</g>
					</g>
				</g>
				<g>
					<polygon fill="#C4C4C4" points="454.213,204.386 504.714,233.545 504.714,230.427 454.213,201.268 					"/>
					<polygon fill="#C4C4C4" points="466.126,189.428 492.802,204.83 492.802,202.899 466.126,187.497 					"/>
					<polygon fill="#C4C4C4" points="454.213,209.011 504.714,238.17 504.714,235.052 454.213,205.893 					"/>
					<polygon fill="#C4C4C4" points="454.213,213.636 504.714,242.795 504.714,239.677 454.213,210.518 					"/>
					<polygon fill="#C4C4C4" points="454.213,218.261 504.714,247.421 504.714,244.303 454.213,215.143 					"/>
					<polygon fill="#C4C4C4" points="454.213,222.887 504.714,252.046 504.714,248.928 454.213,219.768 					"/>
				</g>
				<g>
					<path fill="#FD95AF" d="M490.959,213.497c0,1.694,1.194,3.756,2.666,4.606c1.472,0.85,2.666,0.166,2.666-1.528
						c0-1.694-1.194-3.756-2.666-4.606C492.153,211.119,490.959,211.803,490.959,213.497z"/>
					<path fill="#84C0F0" d="M481.518,208.046c0,1.694,1.194,3.756,2.666,4.607c1.473,0.85,2.666,0.166,2.666-1.528
						c0-1.694-1.194-3.756-2.666-4.606C482.712,205.668,481.518,206.352,481.518,208.046z"/>
					<path fill="#FDAE52" d="M472.077,202.595c0,1.694,1.194,3.756,2.666,4.606c1.472,0.85,2.666,0.166,2.666-1.528
						c0-1.694-1.194-3.756-2.666-4.606C473.271,200.217,472.077,200.901,472.077,202.595z"/>
					<path fill="#C587F5" d="M462.636,197.143c0,1.694,1.194,3.756,2.666,4.607c1.472,0.85,2.666,0.166,2.666-1.528
						c0-1.694-1.194-3.756-2.666-4.606C463.83,194.766,462.636,195.45,462.636,197.143z"/>
				</g>
			</g>
		</g>
		<g>
			<g>
				<polygon fill="#6ACDF0" points="611.013,323.347 611.013,201.487 539.881,160.418 539.881,282.279 				"/>
				<polygon fill="#3DB5D4" points="611.013,323.347 612.709,322.358 612.709,200.498 611.013,201.487 				"/>
				<polygon fill="#AEECFF" points="612.709,200.498 541.577,159.429 539.881,160.418 611.013,201.487 				"/>
			</g>
			<g>
				<polygon fill="#F4FFFF" points="542.477,277.868 605.843,314.456 605.843,204.664 542.477,168.076 				"/>
				<g>
					<polygon fill="#C4C4C4" points="548.91,259.095 599.411,288.255 599.411,285.136 548.91,255.977 					"/>
					<polygon fill="#C4C4C4" points="560.823,244.137 587.498,259.54 587.498,257.609 560.823,242.206 					"/>
					<polygon fill="#C4C4C4" points="548.91,263.72 599.411,292.88 599.411,289.762 548.91,260.602 					"/>
					<polygon fill="#C4C4C4" points="548.91,268.346 599.411,297.505 599.411,294.387 548.91,265.228 					"/>
					<polygon fill="#C4C4C4" points="548.91,272.971 599.411,302.13 599.411,299.012 548.91,269.853 					"/>
					<polygon fill="#C4C4C4" points="548.91,277.596 599.411,306.755 599.411,303.637 548.91,274.478 					"/>
				</g>
				<g>
					<path fill="#FD95AF" d="M585.656,268.207c0,1.694,1.194,3.756,2.666,4.606c1.473,0.85,2.666,0.166,2.666-1.528
						c0-1.694-1.194-3.756-2.666-4.606C586.849,265.829,585.656,266.513,585.656,268.207z"/>
					<path fill="#84C0F0" d="M576.215,262.756c0,1.694,1.194,3.756,2.666,4.607c1.472,0.85,2.666,0.166,2.666-1.528
						c0-1.694-1.194-3.756-2.666-4.606C577.409,260.378,576.215,261.062,576.215,262.756z"/>
					<path fill="#FDAE52" d="M566.774,257.304c0,1.694,1.194,3.756,2.666,4.607c1.472,0.85,2.666,0.166,2.666-1.528
						c0-1.694-1.194-3.756-2.666-4.606C567.968,254.926,566.774,255.61,566.774,257.304z"/>
					<path fill="#C587F5" d="M557.333,251.853c0,1.694,1.194,3.756,2.666,4.606c1.472,0.85,2.666,0.166,2.666-1.528
						c0-1.694-1.194-3.756-2.666-4.607C558.526,249.475,557.333,250.159,557.333,251.853z"/>
				</g>
			</g>
		</g>
		<g>
			<g>
				<polygon fill="#6ACDF0" points="539.865,309.706 539.865,187.846 468.733,146.777 468.733,268.638 				"/>
				<polygon fill="#3DB5D4" points="539.865,309.706 541.561,308.717 541.561,186.857 539.865,187.846 				"/>
				<polygon fill="#AEECFF" points="541.561,186.857 470.428,145.788 468.733,146.777 539.865,187.846 				"/>
			</g>
			<g>
				<polygon fill="#F4FFFF" points="471.329,264.227 534.695,300.815 534.695,191.023 471.329,154.435 				"/>
				<g>
					<polygon fill="#C4C4C4" points="477.762,245.454 528.263,274.614 528.263,271.496 477.762,242.336 					"/>
					<polygon fill="#C4C4C4" points="489.675,230.496 516.35,245.899 516.35,243.968 489.675,228.565 					"/>
					<polygon fill="#C4C4C4" points="477.762,250.079 528.263,279.239 528.263,276.121 477.762,246.961 					"/>
					<polygon fill="#C4C4C4" points="477.762,254.705 528.263,283.864 528.263,280.746 477.762,251.587 					"/>
					<polygon fill="#C4C4C4" points="477.762,259.33 528.263,288.489 528.263,285.371 477.762,256.212 					"/>
					<polygon fill="#C4C4C4" points="477.762,263.955 528.263,293.114 528.263,289.996 477.762,260.837 					"/>
				</g>
				<g>
					<path fill="#FD95AF" d="M514.508,254.566c0,1.694,1.194,3.756,2.666,4.607c1.472,0.85,2.666,0.166,2.666-1.528
						c0-1.694-1.194-3.756-2.666-4.606C515.701,252.188,514.508,252.872,514.508,254.566z"/>
					<path fill="#84C0F0" d="M505.067,249.115c0,1.694,1.194,3.756,2.666,4.607c1.472,0.85,2.666,0.166,2.666-1.528
						c0-1.694-1.194-3.756-2.666-4.606C506.261,246.737,505.067,247.421,505.067,249.115z"/>
					<path fill="#FDAE52" d="M495.626,243.663c0,1.694,1.194,3.756,2.666,4.606c1.472,0.85,2.666,0.166,2.666-1.528
						c0-1.694-1.194-3.756-2.666-4.606C496.819,241.285,495.626,241.969,495.626,243.663z"/>
					<path fill="#C587F5" d="M486.185,238.212c0,1.694,1.194,3.756,2.666,4.606c1.472,0.85,2.666,0.166,2.666-1.528
						c0-1.694-1.194-3.756-2.666-4.606C487.378,235.834,486.185,236.518,486.185,238.212z"/>
				</g>
			</g>
		</g>
	</g>
	<g>
		<g>
			<path fill="#8E72C9" d="M500.841,233.498c-23.074-38.881-61.918-58.449-86.761-43.706l-21.595,12.408l8.28,13.766
				c1.384-2.126,2.904-4.126,4.703-5.829c21.003-6.798,49.897,9.453,67.658,39.384c17.761,29.93,18.183,63.077,2.154,78.256
				c-2.083,0.675-4.262,1.059-6.482,1.289l8.074,13.423l20.762-11.896C522.477,315.85,523.912,272.379,500.841,233.498z"/>
			<path fill="#7763AB" d="M480.08,245.395c-23.073-38.881-61.917-58.449-86.761-43.706c-24.845,14.742-26.28,58.214-3.207,97.094
				c23.073,38.881,61.917,58.449,86.76,43.706C501.717,327.746,503.152,284.275,480.08,245.395z M475.279,327.777
				c-21.004,6.799-49.898-9.453-67.659-39.384c-17.762-29.931-18.183-63.077-2.153-78.256c21.003-6.798,49.897,9.453,67.658,39.384
				C490.886,279.452,491.308,312.598,475.279,327.777z"/>
			<path fill="#605195" d="M407.62,288.393c-17.762-29.931-18.183-63.077-2.153-78.256c9.161-2.966,19.823-1.54,30.409,3.488
				c-12.981-6.188-26.077-7-36.375-0.888c-21.157,12.555-22.495,49.379-2.99,82.248c19.506,32.87,52.469,49.339,73.626,36.785
				c1.892-1.123,3.569-2.502,5.143-3.993C454.273,334.576,425.382,318.324,407.62,288.393z"/>
			<path opacity="0.6" fill="#C7F1FF" d="M473.125,249.522c-17.762-29.931-46.656-46.183-67.658-39.384
				c-16.03,15.178-15.609,48.325,2.153,78.256c17.762,29.932,46.656,46.183,67.659,39.384
				C491.308,312.598,490.886,279.452,473.125,249.522z"/>
			<g opacity="0.8">
				<path fill="#FFFFFF" d="M460.159,321.789c-17.386,0-37.107-13.392-49.905-34.96c-2.506-4.223-4.656-8.621-6.394-13.073
					c-0.92-2.359,0.247-5.018,2.606-5.938c2.357-0.917,5.017,0.247,5.938,2.606c1.555,3.987,3.485,7.932,5.736,11.726
					c12.833,21.626,33.775,34.288,48.715,29.452c2.409-0.778,4.995,0.541,5.774,2.95c0.78,2.409-0.541,4.995-2.95,5.775
					C466.632,321.313,463.436,321.789,460.159,321.789z"/>
			</g>
			<g opacity="0.8">
				<path fill="#FFFFFF" d="M403.242,254.463c-2.443,0-4.473-1.928-4.578-4.392c-0.559-13.242,3.227-24.411,10.661-31.45
					c1.837-1.741,4.739-1.663,6.482,0.178c1.741,1.838,1.662,4.741-0.178,6.482c-5.477,5.186-8.248,13.853-7.802,24.404
					c0.106,2.529-1.858,4.667-4.389,4.775C403.374,254.462,403.308,254.463,403.242,254.463z"/>
			</g>
		</g>
		<g>
			<path fill="#6ACDF0" d="M505.903,297.646c2.489-4.195,6.68-6.306,9.36-4.715l47.795,27.785l-9.104,15.135l-47.704-27.73
				C503.568,306.531,503.413,301.841,505.903,297.646z"/>
			
				<ellipse transform="matrix(0.86 0.5103 -0.5103 0.86 245.7161 -239.0367)" fill="#7D7D7D" cx="558.46" cy="328.256" rx="5.643" ry="8.832"/>
		</g>
		<g>
			<path fill="#8E72C9" d="M548.875,323.08c4.405-7.423,11.821-11.159,16.565-8.344l84.58,49.171l-16.112,26.784l-84.421-49.073
				C544.744,338.803,544.47,330.503,548.875,323.08z"/>
			
				<ellipse transform="matrix(0.86 0.5103 -0.5103 0.86 282.3968 -274.7486)" fill="#7D7D7D" cx="641.884" cy="377.249" rx="9.987" ry="15.629"/>
			
				<ellipse transform="matrix(0.86 0.5103 -0.5103 0.86 282.546 -274.8907)" fill="#999999" cx="642.211" cy="377.443" rx="6.518" ry="10.201"/>
		</g>
	</g>
	<g>
		<g>
			<g>
				<path fill="#97C6DE" d="M495.044,536.4l142.943-82.528c2.858-1.65,6.38-1.65,9.238,0l92.02,53.128
					c4.877,2.816,4.877,9.856,0,12.672l-56.284,32.496c-8.324,4.806-18.579,4.806-26.903,0l0,0l-77.052,44.486
					c-2.264,1.307-5.052,1.307-7.316,0l-76.646-44.251C488.885,548.845,488.885,539.956,495.044,536.4z"/>
				<path fill="#E2823D" d="M495.044,524.298l142.943-82.528c2.858-1.65,6.38-1.65,9.238,0l92.02,53.128
					c4.877,2.816,4.877,9.856,0,12.672l-56.284,32.496c-8.324,4.806-18.579,4.806-26.903,0l0,0l-77.052,44.486
					c-2.264,1.307-5.052,1.307-7.316,0L495.044,540.3C488.885,536.744,488.885,527.854,495.044,524.298z"/>
				<path fill="#FFB151" d="M495.044,521.482l142.943-82.528c2.858-1.65,6.38-1.65,9.238,0l92.02,53.128
					c4.877,2.816,4.877,9.856,0,12.671l-56.284,32.496c-8.324,4.806-18.579,4.806-26.903,0l0,0l-77.052,44.486
					c-2.264,1.307-5.052,1.307-7.316,0l-76.646-44.251C488.885,533.927,488.885,525.038,495.044,521.482z"/>
			</g>
			<g>
				<polygon fill="#FFFFFF" points="521.286,550.964 493.986,535.202 521.286,519.44 548.587,535.202 				"/>
				<g>
					<defs>
						<polygon id="SVGID_5_" points="521.286,550.964 493.986,535.202 521.286,519.44 548.587,535.202 						"/>
					</defs>
					<clipPath id="SVGID_6_">
						<use xlink:href="#SVGID_5_"  overflow="visible"/>
					</clipPath>
					<g clip-path="url(#SVGID_6_)">
						<path fill="#746E8C" d="M528.408,522.029l17.092,10.181l-4.627,2.588c-2.33,1.303-6.085,1.248-8.388-0.123l-8.754-5.214
							c-2.302-1.371-2.28-3.539,0.05-4.843L528.408,522.029z"/>
						<path fill="#FCCAD5" d="M531.372,530.241L531.372,530.241c1.669,0.994,1.652,2.566-0.036,3.51l-3.058,1.71l-6.043-3.6
							l3.058-1.71C526.981,529.207,529.703,529.247,531.372,530.241z"/>
						<g>
							<path fill="#FCCAD5" d="M524.403,530.722l2.161,0.367c1.563,0.265,2.778,0.989,3.188,1.899l0.567,1.258
								c0.85,1.886-0.099,3.872-2.488,5.208l-4.75,2.657c-3.501,1.958-9.142,1.875-12.601-0.185v0
								c-3.459-2.06-3.425-5.318,0.076-7.275l4.75-2.657C517.695,530.657,521.163,530.172,524.403,530.722z"/>
							<path fill="#FCCAD5" d="M528.32,539.181L528.32,539.181c0.526,0.313,0.521,0.809-0.012,1.106l-2.211,1.237
								c-0.532,0.298-1.39,0.285-1.916-0.028l0,0c-0.526-0.313-0.521-0.809,0.011-1.106l2.211-1.237
								C526.936,538.855,527.794,538.868,528.32,539.181z"/>
							<path fill="#FCCAD5" d="M515.794,531.72L515.794,531.72c0.526,0.313,0.521,0.809-0.011,1.107l-2.211,1.237
								c-0.532,0.298-1.39,0.285-1.916-0.028l0,0c-0.526-0.313-0.521-0.809,0.011-1.106l2.212-1.237
								C514.41,531.394,515.268,531.407,515.794,531.72z"/>
							<path fill="#937965" d="M525.114,541.738c0,0-3.602,2.654-5.548,2.739c0,0-4.8,0.841-9.563-1.996
								c-4.762-2.837-4.098-4.405-3.122-6.084c0,0,2.764-2.485,5.046-2.515l1.668-0.56c0,0-0.365,2.436-3.76,3.721
								c0,0,6.452,0.306,10.89,4.457c0,0,2.494-1.298,4.601-0.632L525.114,541.738z"/>
						</g>
					</g>
				</g>
			</g>
		</g>
		<g>
			<g>
				<path fill="#E2823D" d="M495.044,505.815l142.943-82.528c2.858-1.65,6.38-1.65,9.238,0l92.02,53.128
					c4.877,2.816,4.877,9.855,0,12.671l-56.284,32.496c-8.324,4.806-18.579,4.806-26.903,0l0,0l-77.052,44.486
					c-2.264,1.307-5.052,1.307-7.316,0l-76.646-44.251C488.885,518.26,488.885,509.371,495.044,505.815z"/>
				<path fill="#FFB151" d="M495.044,502.998l142.943-82.528c2.858-1.65,6.38-1.65,9.238,0l92.02,53.128
					c4.877,2.816,4.877,9.856,0,12.672l-56.284,32.496c-8.324,4.806-18.579,4.806-26.903,0l0,0l-77.052,44.486
					c-2.264,1.307-5.052,1.307-7.316,0l-76.646-44.251C488.885,515.443,488.885,506.554,495.044,502.998z"/>
			</g>
			<g>
				<polygon fill="#FFFFFF" points="521.286,532.48 493.986,516.719 521.286,500.957 548.587,516.719 				"/>
				<g>
					<defs>
						<polygon id="SVGID_7_" points="521.286,532.48 493.986,516.719 521.286,500.957 548.587,516.719 						"/>
					</defs>
					<clipPath id="SVGID_8_">
						<use xlink:href="#SVGID_7_"  overflow="visible"/>
					</clipPath>
					<g clip-path="url(#SVGID_8_)">
						<path fill="#746E8C" d="M528.408,503.545l17.092,10.18l-4.627,2.588c-2.33,1.303-6.085,1.248-8.388-0.123l-8.754-5.214
							c-2.302-1.371-2.28-3.539,0.05-4.843L528.408,503.545z"/>
						<path fill="#FCCAD5" d="M531.372,511.757L531.372,511.757c1.669,0.994,1.652,2.566-0.036,3.51l-3.058,1.71l-6.043-3.6
							l3.058-1.71C526.981,510.723,529.703,510.763,531.372,511.757z"/>
						<g>
							<path fill="#FCCAD5" d="M524.403,512.238l2.161,0.367c1.563,0.265,2.778,0.989,3.188,1.899l0.567,1.258
								c0.85,1.886-0.099,3.872-2.488,5.208l-4.75,2.657c-3.501,1.958-9.142,1.875-12.601-0.185l0,0
								c-3.459-2.06-3.425-5.318,0.076-7.275l4.75-2.657C517.695,512.173,521.163,511.689,524.403,512.238z"/>
							<path fill="#FCCAD5" d="M528.32,520.697L528.32,520.697c0.526,0.313,0.521,0.809-0.012,1.106l-2.211,1.237
								c-0.532,0.298-1.39,0.285-1.916-0.028l0,0c-0.526-0.313-0.521-0.809,0.011-1.106l2.211-1.237
								C526.936,520.371,527.794,520.384,528.32,520.697z"/>
							<path fill="#FCCAD5" d="M515.794,513.236L515.794,513.236c0.526,0.313,0.521,0.809-0.011,1.106l-2.211,1.237
								c-0.532,0.298-1.39,0.285-1.916-0.028l0,0c-0.526-0.313-0.521-0.809,0.011-1.106l2.212-1.237
								C514.41,512.91,515.268,512.923,515.794,513.236z"/>
							<path fill="#937965" d="M525.114,523.254c0,0-3.602,2.654-5.548,2.739c0,0-4.8,0.841-9.563-1.996
								c-4.762-2.837-4.098-4.405-3.122-6.084c0,0,2.764-2.485,5.046-2.515l1.668-0.56c0,0-0.365,2.436-3.76,3.721
								c0,0,6.452,0.307,10.89,4.457c0,0,2.494-1.298,4.601-0.632L525.114,523.254z"/>
						</g>
					</g>
				</g>
			</g>
		</g>
		<g>
			<g>
				<path fill="#E2823D" d="M495.044,487.331l142.943-82.528c2.858-1.65,6.38-1.65,9.238,0l92.02,53.128
					c4.877,2.816,4.877,9.856,0,12.671l-56.284,32.496c-8.324,4.806-18.579,4.806-26.903,0l0,0l-77.052,44.486
					c-2.264,1.307-5.052,1.307-7.316,0l-76.646-44.251C488.885,499.776,488.885,490.887,495.044,487.331z"/>
				<path fill="#FFB151" d="M495.044,484.514l142.943-82.528c2.858-1.65,6.38-1.65,9.238,0l92.02,53.128
					c4.877,2.816,4.877,9.856,0,12.672l-56.284,32.496c-8.324,4.806-18.579,4.806-26.903,0l0,0l-77.052,44.486
					c-2.264,1.307-5.052,1.307-7.316,0l-76.646-44.252C488.885,496.96,488.885,488.07,495.044,484.514z"/>
			</g>
			<g>
				<polygon fill="#FFFFFF" points="521.286,513.997 493.986,498.235 521.286,482.473 548.587,498.235 				"/>
				<g>
					<defs>
						<polygon id="SVGID_9_" points="521.286,513.997 493.986,498.235 521.286,482.473 548.587,498.235 						"/>
					</defs>
					<clipPath id="SVGID_10_">
						<use xlink:href="#SVGID_9_"  overflow="visible"/>
					</clipPath>
					<g clip-path="url(#SVGID_10_)">
						<path fill="#746E8C" d="M528.408,485.061l17.092,10.18l-4.627,2.588c-2.33,1.303-6.085,1.248-8.388-0.123l-8.754-5.214
							c-2.302-1.371-2.28-3.539,0.05-4.843L528.408,485.061z"/>
						<path fill="#FCCAD5" d="M531.372,493.273L531.372,493.273c1.669,0.994,1.652,2.566-0.036,3.51l-3.058,1.71l-6.043-3.6
							l3.058-1.71C526.981,492.239,529.703,492.279,531.372,493.273z"/>
						<g>
							<path fill="#FCCAD5" d="M524.403,493.755l2.161,0.367c1.563,0.265,2.778,0.989,3.188,1.899l0.567,1.258
								c0.85,1.886-0.099,3.872-2.488,5.208l-4.75,2.657c-3.501,1.958-9.142,1.875-12.601-0.185l0,0
								c-3.459-2.06-3.425-5.318,0.076-7.276l4.75-2.657C517.695,493.69,521.163,493.205,524.403,493.755z"/>
							<path fill="#FCCAD5" d="M528.32,502.214L528.32,502.214c0.526,0.313,0.521,0.809-0.012,1.107l-2.211,1.237
								c-0.532,0.298-1.39,0.285-1.916-0.028l0,0c-0.526-0.313-0.521-0.809,0.011-1.106l2.211-1.237
								C526.936,501.888,527.794,501.9,528.32,502.214z"/>
							<path fill="#FCCAD5" d="M515.794,494.753L515.794,494.753c0.526,0.313,0.521,0.809-0.011,1.107l-2.211,1.237
								c-0.532,0.298-1.39,0.285-1.916-0.028l0,0c-0.526-0.313-0.521-0.809,0.011-1.106l2.212-1.237
								C514.41,494.427,515.268,494.439,515.794,494.753z"/>
							<path fill="#937965" d="M525.114,504.771c0,0-3.602,2.654-5.548,2.739c0,0-4.8,0.841-9.563-1.996
								c-4.762-2.837-4.098-4.406-3.122-6.084c0,0,2.764-2.485,5.046-2.515l1.668-0.56c0,0-0.365,2.436-3.76,3.721
								c0,0,6.452,0.307,10.89,4.457c0,0,2.494-1.298,4.601-0.632L525.114,504.771z"/>
						</g>
					</g>
				</g>
			</g>
		</g>
	</g>
</g>
</svg>
