<?xml version="1.0" encoding="utf-8"?>
<!-- Generator: Adobe Illustrator 17.0.0, SVG Export Plug-In . SVG Version: 6.00 Build 0)  -->
<!DOCTYPE svg PUBLIC "-//W3C//DTD SVG 1.1//EN" "http://www.w3.org/Graphics/SVG/1.1/DTD/svg11.dtd">
<svg version="1.1" id="Layer_1" xmlns="http://www.w3.org/2000/svg" xmlns:xlink="http://www.w3.org/1999/xlink" x="0px" y="0px"
	 width="41px" height="41px" viewBox="0 0 41 41" enable-background="new 0 0 41 41" xml:space="preserve">
<g>
	<g>
		<linearGradient id="SVGID_1_" gradientUnits="userSpaceOnUse" x1="3.1248" y1="18.9625" x2="40.6062" y2="18.9625">
			<stop  offset="0" style="stop-color:#0069FF;stop-opacity:0.6"/>
			<stop  offset="1" style="stop-color:#0069FF;stop-opacity:0"/>
		</linearGradient>
		<path fill-rule="evenodd" clip-rule="evenodd" fill="url(#SVGID_1_)" d="M3.125,30.651c0,1.693,1.354,3.076,3.008,3.076H37.6
			c1.654,0,3.006-1.383,3.006-3.076V7.276c0-1.693-1.352-3.078-3.006-3.078H6.132c-1.653,0-3.008,1.385-3.008,3.078V30.651z"/>
	</g>
	<g>
		<g>
			<path fill-rule="evenodd" clip-rule="evenodd" fill="#120078" d="M0.394,20.438c0,1.352,1.071,2.448,2.391,2.448h11.354
				c1.32,0,2.39-1.095,2.39-2.448V17.26c0-1.352-1.07-2.445-2.39-2.445H2.785c-1.32,0-2.391,1.093-2.391,2.445V20.438z"/>
		</g>
		<g>
			<ellipse fill-rule="evenodd" clip-rule="evenodd" fill="#FFFFFF" cx="11.689" cy="18.747" rx="2.055" ry="2.102"/>
		</g>
	</g>
</g>
<path fill-rule="evenodd" clip-rule="evenodd" fill="#120078" d="M5.977,8.764V9c0,0.159-0.128,0.288-0.288,0.288H3.415
	c-0.159,0-0.29-0.128-0.29-0.288V8.764c0-0.159,0.131-0.288,0.29-0.288H5.69C5.849,8.476,5.977,8.604,5.977,8.764L5.977,8.764z
	 M40.318,8.476h-0.393c-0.159,0-0.29,0.128-0.29,0.288V9c0,0.159,0.131,0.288,0.29,0.288h0.393c0.158,0,0.288-0.128,0.288-0.288
	V8.764C40.606,8.604,40.477,8.476,40.318,8.476L40.318,8.476z M37.925,8.764V9c0,0.159-0.13,0.288-0.289,0.288H35.36
	c-0.157,0-0.288-0.128-0.288-0.288V8.764c0-0.159,0.131-0.288,0.288-0.288h2.276C37.796,8.476,37.925,8.604,37.925,8.764
	L37.925,8.764z M33.362,8.764V9c0,0.159-0.131,0.288-0.289,0.288h-2.276c-0.158,0-0.288-0.128-0.288-0.288V8.764
	c0-0.159,0.129-0.288,0.288-0.288h2.276C33.231,8.476,33.362,8.604,33.362,8.764L33.362,8.764z M28.799,8.764V9
	c0,0.159-0.131,0.288-0.289,0.288h-2.276c-0.159,0-0.289-0.128-0.289-0.288V8.764c0-0.159,0.129-0.288,0.289-0.288h2.276
	C28.668,8.476,28.799,8.604,28.799,8.764L28.799,8.764z M24.233,8.764V9c0,0.159-0.128,0.288-0.288,0.288H21.67
	c-0.159,0-0.29-0.128-0.29-0.288V8.764c0-0.159,0.131-0.288,0.29-0.288h2.275C24.105,8.476,24.233,8.604,24.233,8.764L24.233,8.764z
	 M19.67,8.764V9c0,0.159-0.129,0.288-0.288,0.288h-2.277c-0.157,0-0.288-0.128-0.288-0.288V8.764c0-0.159,0.131-0.288,0.288-0.288
	h2.277C19.54,8.476,19.67,8.604,19.67,8.764L19.67,8.764z M15.106,8.764V9c0,0.159-0.131,0.288-0.289,0.288h-2.276
	c-0.159,0-0.288-0.128-0.288-0.288V8.764c0-0.159,0.128-0.288,0.288-0.288h2.276C14.976,8.476,15.106,8.604,15.106,8.764
	L15.106,8.764z M10.543,8.764V9c0,0.159-0.131,0.288-0.289,0.288H7.978C7.819,9.288,7.689,9.16,7.689,9V8.764
	c0-0.159,0.129-0.288,0.289-0.288h2.276C10.412,8.476,10.543,8.604,10.543,8.764z"/>
<path fill-rule="evenodd" clip-rule="evenodd" fill="#120078" d="M5.977,28.732v0.235c0,0.159-0.128,0.288-0.288,0.288H3.415
	c-0.159,0-0.29-0.128-0.29-0.288v-0.235c0-0.159,0.131-0.29,0.29-0.29H5.69C5.849,28.442,5.977,28.573,5.977,28.732L5.977,28.732z
	 M40.318,28.442h-0.393c-0.159,0-0.29,0.131-0.29,0.29v0.235c0,0.159,0.131,0.288,0.29,0.288h0.393c0.158,0,0.288-0.128,0.288-0.288
	v-0.235C40.606,28.573,40.477,28.442,40.318,28.442L40.318,28.442z M37.925,28.732v0.235c0,0.159-0.13,0.288-0.289,0.288H35.36
	c-0.157,0-0.288-0.128-0.288-0.288v-0.235c0-0.159,0.131-0.29,0.288-0.29h2.276C37.796,28.442,37.925,28.573,37.925,28.732
	L37.925,28.732z M33.362,28.732v0.235c0,0.159-0.131,0.288-0.289,0.288h-2.276c-0.158,0-0.288-0.128-0.288-0.288v-0.235
	c0-0.159,0.129-0.29,0.288-0.29h2.276C33.231,28.442,33.362,28.573,33.362,28.732L33.362,28.732z M28.799,28.732v0.235
	c0,0.159-0.131,0.288-0.289,0.288h-2.276c-0.159,0-0.289-0.128-0.289-0.288v-0.235c0-0.159,0.129-0.29,0.289-0.29h2.276
	C28.668,28.442,28.799,28.573,28.799,28.732L28.799,28.732z M24.233,28.732v0.235c0,0.159-0.128,0.288-0.288,0.288H21.67
	c-0.159,0-0.29-0.128-0.29-0.288v-0.235c0-0.159,0.131-0.29,0.29-0.29h2.275C24.105,28.442,24.233,28.573,24.233,28.732
	L24.233,28.732z M19.67,28.732v0.235c0,0.159-0.129,0.288-0.288,0.288h-2.277c-0.157,0-0.288-0.128-0.288-0.288v-0.235
	c0-0.159,0.131-0.29,0.288-0.29h2.277C19.54,28.442,19.67,28.573,19.67,28.732L19.67,28.732z M15.106,28.732v0.235
	c0,0.159-0.131,0.288-0.289,0.288h-2.276c-0.159,0-0.288-0.128-0.288-0.288v-0.235c0-0.159,0.128-0.29,0.288-0.29h2.276
	C14.976,28.442,15.106,28.573,15.106,28.732L15.106,28.732z M10.543,28.732v0.235c0,0.159-0.131,0.288-0.289,0.288H7.978
	c-0.159,0-0.289-0.128-0.289-0.288v-0.235c0-0.159,0.129-0.29,0.289-0.29h2.276C10.412,28.442,10.543,28.573,10.543,28.732z"/>
<path fill-rule="evenodd" clip-rule="evenodd" fill="#120078" d="M29.079,21.345c0,1.548-0.389,2.68-1.163,3.393
	c-0.774,0.718-1.578,1.076-2.413,1.076v2.234h-1.251v-2.234c-1.014,0-1.891-0.419-2.634-1.251c-0.748-0.835-1.117-2.116-1.117-3.842
	h2.055c0,1.487,0.205,2.424,0.625,2.813c0.416,0.389,0.774,0.58,1.071,0.58v-5.807c-1.429-0.775-2.352-1.476-2.768-2.101
	c-0.419-0.625-0.629-1.354-0.629-2.189c0-1.071,0.313-1.952,0.942-2.634c0.626-0.687,1.442-1.09,2.456-1.209V8.476h1.251v1.697
	c1.014,0,1.834,0.404,2.459,1.209c0.626,0.801,0.938,1.799,0.938,2.993h-1.968c0-0.896-0.164-1.537-0.492-1.922
	c-0.328-0.389-0.641-0.583-0.938-0.583v5.006c0.953,0.476,1.788,1.071,2.501,1.789C28.72,19.377,29.079,20.273,29.079,21.345
	L29.079,21.345z M24.251,16.159V11.87c-0.358,0-0.701,0.163-1.026,0.492c-0.328,0.328-0.492,0.82-0.492,1.476
	c0,0.415,0.088,0.82,0.267,1.204C23.18,15.431,23.596,15.805,24.251,16.159L24.251,16.159z M27.111,21.79
	c0-0.655-0.148-1.193-0.446-1.609c-0.298-0.415-0.687-0.804-1.163-1.163v5.094c0.358-0.057,0.717-0.237,1.071-0.534
	C26.932,23.281,27.111,22.683,27.111,21.79z"/>
</svg>
