<?xml version="1.0" encoding="utf-8"?>
<!-- Generator: Adobe Illustrator 17.0.0, SVG Export Plug-In . SVG Version: 6.00 Build 0)  -->
<!DOCTYPE svg PUBLIC "-//W3C//DTD SVG 1.1//EN" "http://www.w3.org/Graphics/SVG/1.1/DTD/svg11.dtd">
<svg version="1.1" id="Layer_1" xmlns="http://www.w3.org/2000/svg" xmlns:xlink="http://www.w3.org/1999/xlink" x="0px" y="0px"
	 width="41px" height="41px" viewBox="0 0 41 41" enable-background="new 0 0 41 41" xml:space="preserve">
<g>
	<g>
		<path fill="#0069FF" d="M20.5,1.465c-10.496,0-19.035,8.539-19.035,19.035c0,10.496,8.539,19.035,19.035,19.035
			c10.496,0,19.035-8.539,19.035-19.035C39.535,10.004,30.996,1.465,20.5,1.465z M13.728,33.575c0.414,0.929,0.87,1.756,1.359,2.478
			c-1.907-0.666-3.654-1.672-5.17-2.947c0.902-0.759,1.873-1.414,2.899-1.956C13.087,32.005,13.39,32.818,13.728,33.575z
			 M15.183,30.13c1.69-0.575,3.481-0.875,5.317-0.875c1.837,0,3.628,0.3,5.317,0.874c-1.304,4.258-3.379,6.839-5.317,6.839
			C18.562,36.968,16.487,34.389,15.183,30.13z M12.816,9.85c-1.026-0.542-1.997-1.197-2.899-1.956
			c1.516-1.274,3.263-2.281,5.17-2.947c-0.489,0.722-0.944,1.549-1.359,2.478C13.39,8.182,13.087,8.995,12.816,9.85z M20.5,4.032
			c1.938,0,4.013,2.58,5.317,6.839c-1.69,0.574-3.48,0.874-5.317,0.874c-1.836,0-3.627-0.3-5.317-0.875
			C16.487,6.611,18.562,4.032,20.5,4.032z M27.272,7.425c-0.414-0.929-0.87-1.756-1.359-2.478c1.907,0.666,3.654,1.672,5.17,2.947
			c-0.902,0.759-1.873,1.414-2.899,1.956C27.914,8.996,27.61,8.182,27.272,7.425z M20.5,14.311c2.052,0,4.054-0.323,5.949-0.944
			c0.361,1.763,0.598,3.728,0.667,5.849H13.884c0.069-2.122,0.305-4.086,0.667-5.85C16.446,13.988,18.449,14.311,20.5,14.311z
			 M27.116,21.783c-0.069,2.122-0.305,4.086-0.667,5.849c-1.895-0.621-3.897-0.944-5.949-0.944c-2.051,0-4.053,0.323-5.949,0.944
			c-0.361-1.764-0.598-3.728-0.667-5.85H27.116z M27.272,33.575c0.338-0.758,0.641-1.571,0.912-2.425
			c1.026,0.542,1.997,1.197,2.899,1.956c-1.516,1.274-3.263,2.281-5.17,2.947C26.403,35.331,26.858,34.504,27.272,33.575z
			 M28.861,28.614c0.467-2.124,0.747-4.435,0.821-6.83h7.237c-0.281,3.626-1.741,6.926-3.996,9.516
			C31.677,30.223,30.312,29.324,28.861,28.614z M29.681,19.217c-0.074-2.396-0.353-4.706-0.821-6.83
			c1.451-0.711,2.816-1.609,4.062-2.686c2.255,2.591,3.715,5.891,3.996,9.516H29.681z M8.078,9.7
			c1.246,1.076,2.61,1.975,4.061,2.686c-0.467,2.124-0.747,4.435-0.821,6.831H4.081C4.362,15.591,5.823,12.29,8.078,9.7z
			 M4.081,21.783h7.237c0.074,2.396,0.353,4.707,0.821,6.831c-1.451,0.711-2.815,1.61-4.061,2.686
			C5.823,28.71,4.362,25.409,4.081,21.783z"/>
		<path fill="#0069FF" d="M31.36,25.045H9.64c-1.059,0-1.925-0.866-1.925-1.925v-5.24c0-1.059,0.866-1.925,1.925-1.925h21.72
			c1.059,0,1.925,0.866,1.925,1.925v5.24C33.285,24.179,32.419,25.045,31.36,25.045z"/>
		<text transform="matrix(1 0 0 1 9.2738 22.8851)" fill="#FFFFFF" font-family="'Comfortaa-Bold'" font-size="9.3245">www</text>
	</g>
</g>
</svg>
